<svg xmlns="http://www.w3.org/2000/svg" width="202.961" height="56.891" viewBox="0 0 202.961 56.891"><defs><style>.a{fill:#0099f4;}.b{fill:#ffc240;}</style></defs><g transform="translate(-3479 -654.347)"><g transform="translate(3524.165 676.154)"><g transform="translate(0)"><path class="a" d="M3616.589,743.978a8.063,8.063,0,0,1-5.913-2.48,9.092,9.092,0,0,1-1.8-2.734,10.282,10.282,0,0,1-.806-3.391v-15.6a2.853,2.853,0,0,1,.806-2.035,2.637,2.637,0,0,1,1.992-.848,2.686,2.686,0,0,1,2.035.848,2.851,2.851,0,0,1,.806,2.035v15.3a2.671,2.671,0,0,0,.869,2.014,2.865,2.865,0,0,0,4.027,0,2.677,2.677,0,0,0,.869-2.014v-15.3a2.811,2.811,0,0,1,.824-2.035,2.756,2.756,0,0,1,2.056-.848,2.708,2.708,0,0,1,2.014.848,2.814,2.814,0,0,1,.824,2.035v15.3a2.74,2.74,0,0,0,.824,2.014,2.692,2.692,0,0,0,1.972.824,2.79,2.79,0,0,0,2.056-.824,2.737,2.737,0,0,0,.824-2.014v-15.3a2.863,2.863,0,0,1,4.9-2.035,2.746,2.746,0,0,1,.869,2.035v15.6a8.648,8.648,0,0,1-.721,3.284,9.061,9.061,0,0,1-1.844,2.734,8.832,8.832,0,0,1-2.734,1.884,8.132,8.132,0,0,1-3.349.7,8.577,8.577,0,0,1-3.01-.551,7.522,7.522,0,0,1-2.629-1.648,10.007,10.007,0,0,1-2.649,1.59A8.864,8.864,0,0,1,3616.589,743.978Z" transform="translate(-3608.069 -716.811)"/><path class="a" d="M3707.261,735.713a9.9,9.9,0,0,1,3.582,1.1,10.108,10.108,0,0,1,2.883,2.268,10.733,10.733,0,0,1,1.908,3.137,9.956,9.956,0,0,1,.7,3.71v7.5a2.59,2.59,0,0,1-.848,1.95,2.716,2.716,0,0,1-4.281-.551,2.438,2.438,0,0,0-.382.191c-.113.071-.226.134-.339.191a11.3,11.3,0,0,1-2.077.721,10.353,10.353,0,0,1-2.332.254,9.8,9.8,0,0,1-5.679-1.717,10.578,10.578,0,0,1-3.73-4.43,11.29,11.29,0,0,1-.657-1.993,9.762,9.762,0,0,1,0-4.239,11.33,11.33,0,0,1,.657-1.993,10.393,10.393,0,0,1,3.73-4.451,9.894,9.894,0,0,1,5.679-1.7h.615A4.121,4.121,0,0,1,3707.261,735.713Zm-1.229,14.963a4.763,4.763,0,0,0,1.844-.36,4.584,4.584,0,0,0,1.5-1,4.874,4.874,0,0,0,1.018-1.5,4.646,4.646,0,0,0,.381-1.884,4.445,4.445,0,0,0-.381-1.8,4.948,4.948,0,0,0-2.565-2.565,4.437,4.437,0,0,0-1.8-.381,4.289,4.289,0,0,0-1.78.381,5.023,5.023,0,0,0-1.505,1.039,4.957,4.957,0,0,0-1.039,1.531,4.444,4.444,0,0,0-.382,1.8,4.33,4.33,0,0,0,.4,1.844,4.982,4.982,0,0,0,1.06,1.505,5.232,5.232,0,0,0,1.5,1.017A4.2,4.2,0,0,0,3706.032,750.676Z" transform="translate(-3665.083 -729.019)"/><path class="a" d="M3777.454,739a2.815,2.815,0,0,1,.046,3.982l-.046.046a3.158,3.158,0,0,1-1.992.824,2.584,2.584,0,0,1-2.035-.824l-6.4-6.359v4.324a2.747,2.747,0,0,1-.848,1.971,2.7,2.7,0,0,1-1.992.869,2.856,2.856,0,0,1-1.992-.824A2.645,2.645,0,0,1,3761.3,741V719.589a2.861,2.861,0,1,1,5.722-.122c0,.041,0,.082,0,.122v10.639l6.4-6.4a2.655,2.655,0,0,1,1.993-.824,3.039,3.039,0,0,1,2.035.824,2.815,2.815,0,0,1,.046,3.982l-.046.046-5.595,5.6Z" transform="translate(-3707.681 -716.666)"/><path class="a" d="M3816.039,735.552a2.952,2.952,0,0,1,1.929.72,2.315,2.315,0,0,1,.869,1.865v7.672a4.623,4.623,0,0,0,1.357,3.307,4.87,4.87,0,0,0,1.5,1.018,4.641,4.641,0,0,0,1.884.381,4.8,4.8,0,0,0,1.759-.339,4.911,4.911,0,0,0,1.531-.933,4.615,4.615,0,0,0,1.06-1.42,4.072,4.072,0,0,0,.4-1.8v-7.757a2.708,2.708,0,0,1,2.708-2.709h.047a2.878,2.878,0,0,1,1.95.742,2.356,2.356,0,0,1,.848,1.844V761.27a2.414,2.414,0,0,1-.848,1.865,2.826,2.826,0,0,1-1.95.763,2.778,2.778,0,0,1-1.908-.763,2.552,2.552,0,0,1-.848-1.993v-6.218a7.233,7.233,0,0,1-2.226.869,11.671,11.671,0,0,1-2.522.275,9.839,9.839,0,0,1-3.943-.806,10.64,10.64,0,0,1-3.285-2.2,10.308,10.308,0,0,1-2.247-3.328,10.6,10.6,0,0,1-.824-4.218v-7.249a2.708,2.708,0,0,1,2.708-2.709h.048Z" transform="translate(-3741.475 -728.943)"/><path class="a" d="M3889.471,735.794a9.846,9.846,0,0,1,3.943.805,10.412,10.412,0,0,1,3.264,2.2,10.692,10.692,0,0,1,2.226,3.264,9.733,9.733,0,0,1,.824,3.985,10.176,10.176,0,0,1-.784,3.985,10.3,10.3,0,0,1-2.162,3.265,10.085,10.085,0,0,1-3.263,2.2,10.208,10.208,0,0,1-4.049.805,10.463,10.463,0,0,1-4.748-1.06v6.218a2.607,2.607,0,0,1-.805,1.908,2.709,2.709,0,0,1-1.993.805,2.745,2.745,0,0,1-1.884-.742,2.511,2.511,0,0,1-.869-1.844V746.053a9.628,9.628,0,0,1,.824-3.942,10.627,10.627,0,0,1,5.49-5.49A9.708,9.708,0,0,1,3889.471,735.794Zm-4.748,10.258a4.67,4.67,0,0,0,1.42,3.434,4.823,4.823,0,0,0,1.531,1,4.655,4.655,0,0,0,1.8.36,4.5,4.5,0,0,0,1.865-.381,4.782,4.782,0,0,0,1.484-1.039,4.83,4.83,0,0,0,1-1.531,4.765,4.765,0,0,0,.36-1.844,4.523,4.523,0,0,0-.382-1.844,4.87,4.87,0,0,0-1.018-1.505,4.757,4.757,0,0,0-5.193-.975,4.874,4.874,0,0,0-1.505,1.017,4.636,4.636,0,0,0-1.357,3.307Z" transform="translate(-3784.303 -729.1)"/><path class="a" d="M3951.932,735.673a9.318,9.318,0,0,1,3.9.848,11.14,11.14,0,0,1,5.553,5.534,9.18,9.18,0,0,1,.848,3.879,2.709,2.709,0,0,1-.824,1.95,2.621,2.621,0,0,1-2.056.806h-11.275a4.457,4.457,0,0,0,3.856,1.993,4.408,4.408,0,0,0,1.145-.127,5.044,5.044,0,0,0,.824-.3,7.673,7.673,0,0,1,.721-.3,2.477,2.477,0,0,1,.824-.127,2.864,2.864,0,0,1,2.522,1.674,2.71,2.71,0,0,1,.212,1.505,2.656,2.656,0,0,1-.742,1.484,6.582,6.582,0,0,1-2.543,1.3,13.245,13.245,0,0,1-2.968.4,8.616,8.616,0,0,1-3.9-.742,10.767,10.767,0,0,1-3.286-2.247,10.612,10.612,0,0,1-2.247-3.328,9.82,9.82,0,0,1-.824-3.943,9.421,9.421,0,0,1,.824-3.858,10.97,10.97,0,0,1,2.225-3.285,10.826,10.826,0,0,1,3.265-2.268A9.419,9.419,0,0,1,3951.932,735.673Zm3.857,7.46a5.631,5.631,0,0,0-1.7-1.42,4.719,4.719,0,0,0-4.345,0,5.709,5.709,0,0,0-1.675,1.42Z" transform="translate(-3824.934 -729.022)"/><path class="a" d="M4008.633,716.894a2.672,2.672,0,0,1,1.992.824,3.163,3.163,0,0,1,.891,2.056V723h8.138a2.552,2.552,0,0,1,1.993.848,2.883,2.883,0,0,1,.763,1.993,2.747,2.747,0,0,1-.848,1.971,2.606,2.606,0,0,1-1.908.869h-8.139V733.5a4.739,4.739,0,0,0,.36,1.844,5.059,5.059,0,0,0,1,1.547,4.529,4.529,0,0,0,1.5,1.06,4.644,4.644,0,0,0,1.884.381,5.334,5.334,0,0,0,1.885-.3,3.848,3.848,0,0,0,1.378-.89,3.062,3.062,0,0,1,1.971-.784,2.856,2.856,0,0,1,2.013.824,2.523,2.523,0,0,1,.636.869,2.825,2.825,0,0,1,.236,1.017,2.9,2.9,0,0,1-.147,1.039,2.244,2.244,0,0,1-.551.89,10.737,10.737,0,0,1-3.264,2.2,9.574,9.574,0,0,1-3.815.763,11.564,11.564,0,0,1-4.154-.742,10.446,10.446,0,0,1-3.434-2.12,10.118,10.118,0,0,1-2.356-3.307,10.82,10.82,0,0,1-.911-4.3V719.556a2.431,2.431,0,0,1,.869-1.907A2.954,2.954,0,0,1,4008.633,716.894Z" transform="translate(-3866.585 -716.814)"/></g></g><g transform="translate(3479 654.347)"><path class="b" d="M3517.922,672.1c0-.061-.008-.122-.012-.183-.036-.444-.091-.893-.162-1.339a17.838,17.838,0,0,0-.615-2.586,19.724,19.724,0,0,0-6.165-9.109c-.231-.193-.467-.381-.706-.562a19.372,19.372,0,0,0-17.388-3.142,19.836,19.836,0,0,0-13.069,12.929c-1.763,5.65-.462,11.3,2.274,16.569,3.585,6.9,9.634,13.15,14.493,17.883a4.608,4.608,0,0,0,1.491,1.1,3.232,3.232,0,0,0,.562.152v.051a3.27,3.27,0,0,0,.558-.156,4.594,4.594,0,0,0,1.479-1.108c4.808-4.772,10.795-11.067,14.319-18,.227-.446.445-.9.649-1.349a29.427,29.427,0,0,0,1.229-3.149A20.959,20.959,0,0,0,3517.922,672.1Zm-6.946,7.669a13.946,13.946,0,1,1-3.516-17.126q.35.289.682.6a13.9,13.9,0,0,1,4.264,8.354,14.4,14.4,0,0,1,.114,1.735A13.891,13.891,0,0,1,3510.976,679.773Z" transform="translate(-3479 -654.347)"/><path class="b" d="M3525.606,693.357l-1-3.023a1.564,1.564,0,0,1-.117-.725c.064-.4.417-.681.671-1a2.1,2.1,0,0,0,.193-2.354,1.741,1.741,0,0,0-2.2-.643,1.525,1.525,0,0,0-.687,1.765.254.254,0,0,0,.4.119.727.727,0,0,1,.923-.049.784.784,0,0,1-.035,1.212,1.94,1.94,0,0,1-.813.318,5.487,5.487,0,0,1-3.695-.546,2.486,2.486,0,0,1-.938-2.477,7.13,7.13,0,0,1,1.712-4.233,1.5,1.5,0,0,0,.537-1.016c-.033-.429-.459-.719-.87-.851a1.05,1.05,0,0,0-.955.065,1.258,1.258,0,0,0-.361.848c-.175,1.126-.335,1.942-.417,3.081-.048.68-.163,1.467-.266,2.338a.135.135,0,0,1-.266.014c-.062-.245-.067-.569-.094-.736a2.759,2.759,0,0,0-.12-.607,5.94,5.94,0,0,0-.864-1.643,5.135,5.135,0,0,0-.693-.737c-.052-.046-.743-.679-.79-.595a.069.069,0,0,0,0,.06,4.251,4.251,0,0,1,.3,2.313.136.136,0,0,1-.25.051c-.026-.041-.052-.081-.079-.122a4.924,4.924,0,0,0-.538-.7,3.311,3.311,0,0,0-.321-.3c-.074-.06-.279-.26-.311-.059a.923.923,0,0,0,.015.176q.01.172.006.345a3.985,3.985,0,0,1-.078.685.709.709,0,0,1-.139.337.788.788,0,0,1-.607.177l-3.171.013a.58.58,0,0,0-.337.071c-.166.117-.161.361-.136.562a5.673,5.673,0,0,0,.638,2.209,2.392,2.392,0,0,0,1.847,1.24c.982.049,1.987-.689,2.878-.007a1.443,1.443,0,0,1,.323.35,2.792,2.792,0,0,1,.369,1.7,8.8,8.8,0,0,1-.521,2.65l-.01.03c-.077.154-.157.307-.239.459-.172.319-.361.63-.537.948a.235.235,0,0,1-.308.132,1.694,1.694,0,0,0-2.031,1.131c1,.045,1.987.1,2.975.127a.653.653,0,0,0,.474-.26,4.426,4.426,0,0,0,.758-1.092c.13-.27.26-.209.507-.161a6.952,6.952,0,0,0,4.324-.622,10.584,10.584,0,0,0,1.188-.762,7.514,7.514,0,0,0,2.223,1.775,1.639,1.639,0,0,0-.791,1.074,22.1,22.1,0,0,0,3.3-.047A24.346,24.346,0,0,0,3525.606,693.357Zm-6.472-12.709c.072-.168.145-.343.375-.2.2.122.422.246.254.543a2.817,2.817,0,0,1-.6.71.151.151,0,0,1-.252-.132A3.462,3.462,0,0,1,3519.134,680.648Z" transform="translate(-3498.635 -670.877)"/></g></g></svg>