<svg xmlns="http://www.w3.org/2000/svg" width="148.259" height="140.134" viewBox="0 0 148.259 140.134"><defs><style>.a{fill:#f0f6f8;opacity:0.999;}.b{opacity:0.566;}.c{fill:#d9e8ed;}.d{fill:#f6d5bb;}.e{fill:#c9dbe2;}.f{fill:#d2dfe3;}.g{fill:#8ea9b2;}.h{fill:#e2e4e5;}.i{fill:#fff;}.j{fill:none;stroke:#d2dfe3;}.k{fill:#1d1000;}.l{fill:#0099f2;}</style></defs><g transform="translate(-100.172 -145.131)"><path class="a" d="M178.807,376.79a35.046,35.046,0,0,0,8.064-1.025c.562-.162,1.222-.519,1.046-.965-.128-.323-.621-.444-1.044-.514a130.658,130.658,0,0,0-18.816-1.756c-4.641-.1-9.284.052-13.926.147-6.382.131-12.767.142-19.151.127-4.776-.012-9.553.022-14.329.036a58.987,58.987,0,0,1-6.666-.056c-1.329-.151-2.525-.585-3.878-.673-4.721-.306-9.682.074-14.421.118l-14.139.131c-6.719.062-13.56.139-19.949,1.761-3.053.775-2.577,2.526-.077,3.6,2.224.951,5.2,1.019,7.668,1.117,9.553.377,19.128.139,28.689-.1l39.269-.977c5.958-.148,12.093-.743,17.984-.676,6.471.073,12.941.075,19.409-.129Q176.674,376.885,178.807,376.79Z" transform="translate(57.082 -93.765)"/><g class="b" transform="translate(-1589.383 339.131)"><path class="c" d="M2165.279-62.614s21.5-23.686-8.2-35.9c.072.035,2.67-1.275,2.9-1.347,12.572-3.767,22.664,7.8,22.686,19.535.016,9.9-6.3,17.871-13.736,23.86Z" transform="translate(-344.853 -68.907)"/><path class="d" d="M1818.89,134.7s6.734,19.514.808,45.042c0,0-5.989,1.937-3.4,5.641h5.213c3.327-.61,4.454-7.715,4.454-7.715,1.434-4.2,2.622-4.859,2.622-4.859l2.88-20.074" transform="translate(-93.008 -242.451)"/><path class="e" d="M1818.89,134.7s6.734,19.514.808,45.042c0,0-5.989,1.937-3.4,5.641h5.213c3.327-.61,4.454-7.715,4.454-7.715,1.434-4.2,2.622-4.859,2.622-4.859l6.423-27.6Z" transform="translate(-93.008 -242.451)"/><path class="e" d="M2030.247,139.583a54.655,54.655,0,0,0,23.86,19.051s5.363,9.062,1.657,17.939c0,0-8.875.923-4.99,7.035h7.213s4.293-2.9,5.478-11.779V159.739s.452-4.064-1.314-5.917c0,0-7.728-10.706-5.232-21.527l-26.672,7.288" transform="translate(-251.299 -240.68)"/><path class="f" d="M1829.306.652l2.971,26.189s1.663,5.921-2.313,7.954c0,0-3.327.836-1.941,4.579h6.844c3.747-1.338,3.236-6.849,3.236-6.849-.139-3.536,1.949-4.207,1.949-4.207l5.688-28.4,44-7.022s.487,15.015,22.629,21.495c0,0,5.367,9.058,1.668,17.942,0,0-8.888.923-4.994,7.031h7.213s4.3-2.9,5.474-11.775V15.5s.46-4.068-1.311-5.917c0,0-5.846-10.654-3.6-21.527,6.084-29.408-10.124-34.2-10.124-34.2l-50.924-4.579c-9.438-1.664-14.473-6.4-14.473-6.4-1.105-2.111-2.279-4.131-3.49-6.06-9.455-.9-21.132,6.583-23.444,15.407a19.726,19.726,0,0,1-1.295,10.48h-.1s-3.331,10.437,3.335,25.974A39.165,39.165,0,0,0,1829.306.652Z" transform="translate(-90.417 -96.446)"/><path class="g" d="M1974.468-16.273c.46,4.318,6.694,7.577,9.013,11.573,2.333,4.024,1.458,12.108,7.843,11.835,5.509-.234,12.73-4.3,15.07-9.505a20.423,20.423,0,0,0,1.422-10.793l-32.3-2.9C1975.147-16.13,1974.814-16.21,1974.468-16.273Z" transform="translate(-210.156 -131.094)"/><path class="g" d="M1826.519,63.4c-4.67-2.813-10.057-.991-14.318-4.638a46.983,46.983,0,0,0,4.144,19.923,38.342,38.342,0,0,0,8.65,9.086c4.757-2.135,2.456-7.442,2.409-11.962C1827.351,71.8,1831.058,66.134,1826.519,63.4Z" transform="translate(-90.462 -186.441)"/><path class="g" d="M2171.8,90.146a84.455,84.455,0,0,0-10.14,2.163c-3.223.836-7.251,2.769-5.018,7.018,1.255,2.383,3,4.44,4.155,6.876,2.57,5.439,5.007,13.269,11.93,13.784h.063c-1.577-3.866-3.89-11.273-2.333-18.786A61.877,61.877,0,0,0,2171.8,90.146Z" transform="translate(-344.053 -209.59)"/><path class="h" d="M1842.656-38.282l-10.809,24.81a2.01,2.01,0,0,0-.094.266c-1.084,3.872-3.865,9.654-5.591,13.065a2.091,2.091,0,0,1-3.47.395l-9.435-11.285a7.83,7.83,0,0,1-1.793-5.623,19.478,19.478,0,0,1,.911-5.084c1.049-2.624,1.049-2.1,1.049-2.1L1839.6-40.871a2.092,2.092,0,0,1,2.349.045h0A2.092,2.092,0,0,1,1842.656-38.282Z" transform="translate(-89.905 -112.7)"/><g transform="translate(1689.555 -194)"><path class="g" d="M1799.776-169.671c-.311-4.631-1.592-10.2-3.945-14.144-6.749-11.323-22.272-12.37-32.609-7.22a19.516,19.516,0,0,0-7.882,7.22c-2.346,3.937-3.632,9.514-3.937,14.144-.61,9.078,2.741,15.771,7,23.274,3.762,6.6,9.3,11.475,17.19,11.475s13.419-4.869,17.182-11.475C1797.04-153.9,1800.391-160.592,1799.776-169.671Z" transform="translate(-1735.122 194)"/><path class="i" d="M1816.418-173.261c.131-8.662,2.951-14.318,8.314-18.406-6.86-3.141-15.341-2.82-22.09,0,11.32,8.405,10.67,34.593,6.206,48.108a1.186,1.186,0,0,1,.032.491,28.717,28.717,0,0,1-1.913,6.935,17.171,17.171,0,0,0,17.055-2.344C1813.618-147.858,1816.22-160.312,1816.418-173.261Z" transform="translate(-1772.97 193.929)"/><path class="i" d="M1816.565-31.814c-4.614-1.85-6.848-9.162-12.072-9.116-3.356.032-6.056-1.157-8.556,1.473-1.761,1.853-4.381,5.478-6.234,7.216a7.647,7.647,0,0,1-3.078,1.865c3.62,4.852,8.5,8.184,15,8.184,7,0,12.14-3.842,15.835-9.316C1817.158-31.612,1816.862-31.695,1816.565-31.814Z" transform="translate(-1761.155 81.271)"/><g transform="translate(48.3 21.596)"><path class="j" d="M40.717,49.589v4.173s2.135,2.579,3.724,1.477" transform="translate(-48.3 -24.596)"/><path class="k" d="M1878.963-108.153c0,1.952-1.192,3.539-2.662,3.539s-2.665-1.583-2.665-3.539,1.193-3.539,2.665-3.539S1878.963-110.106,1878.963-108.153Z" transform="translate(-1872.635 112.692)"/><path class="i" d="M1889.874-104.767a1.214,1.214,0,0,1-1.216,1.212,1.214,1.214,0,0,1-1.212-1.216,1.214,1.214,0,0,1,1.216-1.212A1.216,1.216,0,0,1,1889.874-104.767Z" transform="translate(-1884.822 107.481)"/><path class="j" d="M44.414,49.589v4.173s-1.966,2.894-3.471,1.792" transform="translate(-51.997 -24.596)"/></g><g transform="translate(27.31 22.596)"><path class="k" d="M1798.96-108.153c0,1.952-1.188,3.539-2.661,3.539s-2.661-1.583-2.661-3.539,1.188-3.539,2.661-3.539S1798.96-110.106,1798.96-108.153Z" transform="translate(-1794.637 111.692)"/><path class="i" d="M1793.961-104.767a1.214,1.214,0,0,1-1.216,1.212,1.214,1.214,0,0,1-1.212-1.216,1.214,1.214,0,0,1,1.212-1.212A1.219,1.219,0,0,1,1793.961-104.767Z" transform="translate(-1792.085 106.481)"/></g><path class="k" d="M1836.5-14.105c0,1.347-2.044,3.981-4.571,3.981s-4.558-2.637-4.558-3.981,2.039-2.424,4.558-2.424S1836.5-15.447,1836.5-14.105Z" transform="translate(-1791.212 58.095)"/><g transform="translate(0 8.455)"><g transform="translate(57.818)"><path class="c" d="M1911.79-161.278s-2.761.9-1.592,4.1c0,0,7.906,8.875,6.82,17.685,0,0-.3,13.078,3.315,15,0,0,4.266,2.65,8.445-4.729,4.247-7.486,7.054-21.38-.3-27.844C1924.745-160.347,1916.757-162.894,1911.79-161.278Z" transform="translate(-1909.909 161.777)"/></g><path class="c" d="M1710.783-161.278s2.761.9,1.6,4.1c0,0-7.91,8.875-6.825,17.685,0,0,.3,13.078-3.308,15,0,0-4.258,2.65-8.449-4.729-4.234-7.486-7.05-21.38.3-27.844C1697.826-160.347,1705.815-162.894,1710.783-161.278Z" transform="translate(-1689.555 161.777)"/></g></g><g transform="translate(1727.226 -133.389)"><path class="i" d="M1842.529,41.289c0-.015,0-.029,0-.044-.009-.107-.022-.216-.039-.324a4.292,4.292,0,0,0-.148-.625,4.766,4.766,0,0,0-1.489-2.2c-.056-.046-.113-.092-.17-.136a4.679,4.679,0,0,0-4.2-.759,4.791,4.791,0,0,0-3.156,3.123,5.2,5.2,0,0,0,.549,4,18.2,18.2,0,0,0,3.5,4.319,1.108,1.108,0,0,0,.36.264.763.763,0,0,0,.136.037v.012a.788.788,0,0,0,.135-.038,1.108,1.108,0,0,0,.357-.267,18.211,18.211,0,0,0,3.458-4.348c.055-.108.107-.216.157-.326a7.128,7.128,0,0,0,.3-.76A5.068,5.068,0,0,0,1842.529,41.289Zm-1.678,1.852A3.368,3.368,0,1,1,1840,39q.085.07.165.146a3.358,3.358,0,0,1,1.03,2.018,3.508,3.508,0,0,1,.027.419A3.351,3.351,0,0,1,1840.851,43.141Z" transform="translate(-1833.128 -37)"/><path class="i" d="M1846.818,48.471l-.241-.73a.375.375,0,0,1-.028-.175c.015-.1.1-.164.162-.241a.506.506,0,0,0,.046-.569.42.42,0,0,0-.531-.155.369.369,0,0,0-.166.426.061.061,0,0,0,.1.029.176.176,0,0,1,.223-.012.189.189,0,0,1-.009.293.469.469,0,0,1-.2.077,1.326,1.326,0,0,1-.893-.132.6.6,0,0,1-.226-.6,1.72,1.72,0,0,1,.414-1.022.365.365,0,0,0,.13-.246c-.008-.1-.111-.174-.21-.205a.254.254,0,0,0-.231.016.3.3,0,0,0-.087.2c-.042.272-.081.469-.1.744-.012.164-.039.354-.064.565a.033.033,0,0,1-.064,0,1.76,1.76,0,0,1-.023-.178.652.652,0,0,0-.029-.147,1.431,1.431,0,0,0-.209-.4,1.214,1.214,0,0,0-.167-.178c-.012-.011-.179-.164-.191-.144a.016.016,0,0,0,0,.014,1.028,1.028,0,0,1,.072.559.033.033,0,0,1-.061.013l-.019-.029a1.2,1.2,0,0,0-.13-.168.8.8,0,0,0-.077-.072c-.018-.014-.067-.062-.075-.014a.212.212,0,0,0,0,.043c0,.028,0,.055,0,.083a.962.962,0,0,1-.019.165.173.173,0,0,1-.033.082.191.191,0,0,1-.147.043l-.766,0a.138.138,0,0,0-.081.017c-.04.028-.039.087-.033.136a1.367,1.367,0,0,0,.154.533.578.578,0,0,0,.446.3c.237.012.48-.166.695,0a.356.356,0,0,1,.078.085.674.674,0,0,1,.089.41,2.126,2.126,0,0,1-.126.64l0,.007c-.018.037-.038.074-.058.111-.042.077-.087.152-.13.229a.057.057,0,0,1-.074.032.41.41,0,0,0-.491.273c.241.011.48.023.719.031a.158.158,0,0,0,.115-.063,1.066,1.066,0,0,0,.183-.264c.031-.065.063-.051.122-.039a1.675,1.675,0,0,0,1.044-.15,2.591,2.591,0,0,0,.287-.184,1.813,1.813,0,0,0,.537.429.4.4,0,0,0-.191.259,5.361,5.361,0,0,0,.8-.011A5.84,5.84,0,0,0,1846.818,48.471Zm-1.563-3.07c.017-.04.035-.083.091-.049s.1.059.061.131a.68.68,0,0,1-.146.172.037.037,0,0,1-.061-.032A.845.845,0,0,1,1845.255,45.4Z" transform="translate(-1840.304 -43.042)"/></g></g><path class="l" d="M2-.954C2.554-.991,4,.9,4,2A2,2,0,0,1,0,2C0,.9,1.446-.917,2-.954Z" transform="translate(126 173)"/><path class="l" d="M1.116-.954C1.425-.975,2.232.078,2.232.694A1.116,1.116,0,1,1,0,.694,2.321,2.321,0,0,1,1.116-.954Z" transform="translate(124.768 181)"/><path class="l" d="M1.518-.954c.42-.028,1.518,1.4,1.518,2.242A1.518,1.518,0,0,1,0,1.287,3.156,3.156,0,0,1,1.518-.954Z" transform="translate(152 175)"/></g></svg>