<svg xmlns="http://www.w3.org/2000/svg" width="60" height="60" viewBox="0 0 60 60"><defs><style>.a{fill:#fff;stroke-dasharray:2;}.a,.b{stroke:#8ea9b2;}.b{fill:#8ea9b2;}.c{stroke:none;}.d{fill:none;}</style></defs><g transform="translate(-174 -144)"><g class="a" transform="translate(174 144)"><circle class="c" cx="30" cy="30" r="30"/><circle class="d" cx="30" cy="30" r="29.5"/></g><path class="b" d="M99.812,138.8v-.246q0-3.718,0-7.435a1.413,1.413,0,0,1,.028-.315.492.492,0,0,1,.534-.426.538.538,0,0,1,.439.541c.007.087.007.175.007.262q0,3.68,0,7.36v.258h6.415a.538.538,0,0,1,.567.465.6.6,0,0,1-.418.739,1.59,1.59,0,0,1-.233.012h-6.332v.27q0,3.7,0,7.4a1.42,1.42,0,0,1-.04.387.481.481,0,0,1-.533.375.572.572,0,0,1-.429-.542,2.127,2.127,0,0,1-.005-.225q0-3.708,0-7.417v-.246H99.6q-3.068,0-6.136,0a.837.837,0,0,1-.336-.052.6.6,0,0,1-.3-.647.566.566,0,0,1,.44-.508,1.261,1.261,0,0,1,.2-.008h6.345Z" transform="translate(103.916 34.758)"/></g></svg>