<svg xmlns="http://www.w3.org/2000/svg" width="16.865" height="16.865" viewBox="0 0 16.865 16.865"><defs><style>.a{fill:#d2dfe3;}.b{fill:#8ea9b2;}</style></defs><g transform="translate(-178.434 -628.473)"><path class="a" d="M186.873,628.473a8.433,8.433,0,1,1-8.439,8.391A8.451,8.451,0,0,1,186.873,628.473Zm-7.495,8.429a7.489,7.489,0,1,0,7.491-7.485A7.472,7.472,0,0,0,179.378,636.9Z"/><path class="b" d="M223.7,657.777a3.048,3.048,0,0,1-1.111,2.229q-.356.342-.72.675a1.5,1.5,0,0,0-.515,1.229.461.461,0,0,1-.914.128,2.133,2.133,0,0,1,.535-1.756c.353-.389.751-.737,1.125-1.107a2.027,2.027,0,0,0,.619-1.011,1.872,1.872,0,1,0-3.7-.493.521.521,0,0,1-.27.491.441.441,0,0,1-.5-.062.5.5,0,0,1-.176-.439,2.892,2.892,0,0,1,2.378-2.693,2.842,2.842,0,0,1,3.215,2.4C223.695,657.5,223.694,657.639,223.7,657.777Z" transform="translate(-34.031 -22.713)"/></g></svg>