<svg xmlns="http://www.w3.org/2000/svg" xmlns:xlink="http://www.w3.org/1999/xlink" width="345" height="159" viewBox="0 0 345 159"><defs><style>.a,.d{fill:#fff;}.a{stroke:#707070;}.b{clip-path:url(#a);}.c{fill:#dfe9ef;}.e{fill:url(#b);}.f,.g{fill:none;}.g{stroke:#d2dfe3;}.h{fill:#724ec6;}.i{fill:#b495fa;}.j{stroke:none;}</style><clipPath id="a"><rect class="a" width="345" height="159" rx="4"/></clipPath><linearGradient id="b" x1="0.5" x2="0.5" y2="1" gradientUnits="objectBoundingBox"><stop offset="0" stop-color="#b495fa"/><stop offset="1" stop-color="#704bc4"/><stop offset="1" stop-color="#00cec1"/></linearGradient></defs><g transform="translate(-11774 -2407)"><g class="b" transform="translate(11774 2407)"><g transform="translate(-58.089 -108.283)"><g transform="matrix(-0.017, -1, 1, -0.017, 6.395, 374.658)"><rect class="c" width="187.326" height="380.371" rx="33.59" transform="translate(85.503 32.009)"/><path class="d" d="M366.4,222.548l-1.547-2.61L337.3,236.265c-4-3.535-18.633-16.465-19.885-17.4-1.294-.968-34.02-22.587-39.321-26.088,10.284-15.225,10.77-34.307,10.788-35.357l0-.21-.053-.2c-.266-1-6.6-24.748-15.7-35-2.369-2.668-2.788-8.983-1.21-17.842l24.127,3.426L362.72,126.9l1.478-5.1-66.852-19.366-24.337-3.469c3.6-15.152,10.759-30.4,12.961-31.5,5.048-2.19,36.659-20.974,38-21.771l-1.55-2.609c-.327.2-32.786,19.483-37.658,21.6-4.133,1.793-11.5,20.009-14.772,33.851L265.48,97.9c3.579-15.242,10.811-30.673,13.026-31.774,5.049-2.19,36.66-20.974,38-21.772l-1.55-2.608c-.327.2-32.786,19.483-37.66,21.6-4.16,1.8-11.6,20.252-14.834,34.127L247.139,95.28l-24.584,8.71-24.677-1.058-14.6-9.858c-8.709-5.871-18.7-12.62-28.6-19.329l9.062-6.27,37.088-55.964L199.467,0l-5.273.626,1.139,9.577L159.887,63.691l-9.915,6.86c-23.227-15.76-44.725-30.472-46.412-32a2.266,2.266,0,0,1,.376.479l-4.56,2.721c.472.791.845,1.415,41.185,28.824l5.546,3.765-27.779,35.843L87.1,129.369c-4.106-3.815-7.975-7.338-11.413-10.466-1.644-1.5-3.22-2.933-4.67-4.263L100.06,89.45l.149-.129,13.524-19.9-10.667-7.982-1.818,2.429,8.346,6.245-6.386,9.4L97,71.377l-2.411,1.841,6.825,8.938-3.488,5.131-1.06.918L88.208,73.767l-2.6,1.559,8.93,14.9L68.769,112.567a64.124,64.124,0,0,1-5.155-5.127c-5.416-6.9-16.931-27.169-17.047-27.372l-5.938,3.368c.483.85,11.884,20.916,17.615,28.218,1.658,2.113,6.108,6.164,12.844,12.3,2.939,2.676,6.322,5.757,9.963,9.131L51.306,151.354l-4.723,6c-9.468-15.372-16.275-26.22-16.91-26.7l-1.817,2.429a1.18,1.18,0,0,1-.177-.159c.828.976,7.747,12.089,16.9,26.971L32.333,175.446l-10.833,4.7,1.208,2.783,5.67-2.46L5.887,209.031l4.171,3.285,28.583-36.3,11.781-5.109.654-.426C59.68,184.52,69.3,200.3,77.462,213.722L63.8,217.266,3.483,259.123l3.027,4.362,22.282-15.464L44.83,275.257l8.448,16.408L23.34,296.888c-1.029-2.561-3.649-9.033-6.41-15.469-7.455-17.378-8.575-17.581-9.658-17.777l-.539,2.985a1,1,0,0,1-.457-.193c1.575,1.405,8.222,16.547,14.011,30.987L0,300.961l.521,2.989,20.645-3.6,2.619,14.4,15.953,11.938L25.409,380.868l2.933.777L42.5,328.126l41.126,16.338-1.048,5.8L45.3,428.888l2.742,1.3L85.488,351.2l1.01-5.592,19.966,7.932C90.12,378.884,66.656,420.4,65.323,422.764l2.642,1.492c.431-.765,42.294-74.843,53.3-86.234-5.245,9.632-9.215,17.542-11.457,23.359-15.9,25.363-35.793,60.563-37.018,62.732l2.642,1.492c.273-.483,17.05-30.172,32.158-54.873-.263,2.856-.6,5.811-.939,8.694-1.522,13.049-2.958,25.374,2.021,32.548,5.568,8.024,34.771,40.128,36.011,41.491l5.049-4.595c-.3-.33-30.138-33.131-35.451-40.789-3.509-5.053-2.157-16.651-.849-27.865.417-3.581.849-7.283,1.13-10.827.346-4.372,5.966-15.761,13.094-28.825a19.446,19.446,0,0,1,1.774-1.877c7.062-6.27,33.723-30.315,52.907-48.768a34.4,34.4,0,0,1,2.046,5.806c.753,3.951-4.465,26.157-8.657,44-8.767,37.311-12.585,55.465-9.735,60.733.921,1.7,3.285,5.625,6.491,10.831l-24.389,25.7,2.2,2.088,23.835-25.12c6.535,10.566,15.719,25.163,23.565,37.584-1.9,2.079-3.106,3.364-3.414,3.628.026-.022.049-.037.066-.049l1.73,2.492c.249-.172,1.42-1.4,3.288-3.428,7.447,11.782,13.345,21.066,13.984,22.07L219.1,472.6c-.167-.263-6.756-10.633-14.976-23.643,10.622-11.74,29.538-33.017,43.535-48.8L278.11,427.44c-9.91,11.474-25.237,28.91-27.014,30.1a.957.957,0,0,1,.268-.116l.852,2.912c.674-.2,1.438-.421,15.543-16.422,5.274-5.983,10.479-11.987,12.611-14.453L318.69,463.8l2.024-2.26-22.68-20.323,22.929-22.609,13.224,12.4,3.112-3.321-33.617-31.508-.1-.1-19.887-14.506,10.622-10.765,36.953,35.882,2.114-2.176-39.113-37.979-13.055,13.229-.012-.008-20.854-24.05,14.716-9.09,16,.59,9.372-4.617,0,0,0-.007,9.662-4.76,28.337,17.9,1.62-2.565-29.775-18.806-6.883,3.391,31.211-51.017c6.179,16.062,12.143,31.192,12.207,31.354l2.823-1.112c-.068-.174-6.946-17.621-13.58-34.932-9.5-24.787-11.9-32.053-12.442-34.142l12.616-7.476,13.968,45.8,2.9-.885-14.183-46.5ZM334.563,237.89l-31.347,18.576L290.2,239.533l16.682-5.54,5.85-14.639c1.636,1.093,2.675,1.794,2.867,1.938C316.5,221.963,326.9,231.117,334.563,237.89Zm-24.409-20.255-5.562,13.923L285.2,238l15.391,20.027-3.957,2.345h0l-15.5,9.187-.285.169-5.134,7.421-12.1,4.578-2.682,1.645L241.31,224.809c8.3-8,16.666-15.112,23.766-19.42a41.237,41.237,0,0,0,11.244-10.153C284.515,200.647,301.426,211.827,310.154,217.635Zm-117,61.636c4.548-4.616,7.864-8.249,9.172-10.229,4.381-6.634,20.085-25.645,36.567-41.881L258.269,285,212.588,313ZM87.489,323.056l-22.224-12.2,1.729-4.377L88.711,316.3Zm2.043-11.312-.265,1.473L68.11,303.653l1.9-4.8,20,3.613Zm-16.642-20.2c6.986.5,14.607,1.574,17.534,2.651l-.264,5.209-19.016-3.436Zm9.248-2.1c-3.3-.437-6.554-.725-8.459-.877l3.335-18.463L91.5,273.023l-.918,18.065A53.053,53.053,0,0,0,82.138,289.446ZM97.533,214l41.4-10.735q1.066,2.074,2.1,4.128l-.746,6.392-23.9,21.8C108.273,234.406,99.456,233,96.6,232.35Zm1.324-33.642c-.057-.069-5.747-7.085-11.481-13.957-3.374-4.042-6.105-7.246-8.119-9.524-1.145-1.3-2.011-2.252-2.7-2.96L92.277,143.7c15.254,14.779,31.944,32.589,40.519,48.079q1.846,3.336,3.608,6.657L97.817,208.443l1.406-27.631Zm142.567-33.176c-3.486-.421-11.523-1.4-13.577-1.71a9.439,9.439,0,0,1-.713-1.22l16.277-13.392ZM226.947,148.4c1.411.255,12.156,1.557,14.111,1.793l-1.952,16.044-6.523,5.145-5.718-5.611-28.982,13.9-5.746-8.513,3.73-1.187,28.9-23.782C225.942,148.217,226.516,148.324,226.947,148.4ZM171.4,195.951l11.662,14.494-3.8,3-13.112-13.984Zm14.044,12.615-11.352-14.108,22.744-10.911,7.062,10.463ZM170.955,192.6l-22.264,14.879q-1.753-3.566-3.577-7.111l36.753-25.93,7.256-2.309,5.993,8.88Zm-7.363,8.57,13.277,14.159-17.977,14.18c-.394-.71-.707-1.272-.927-1.668-2.375-5.713-5.061-11.651-7.934-17.609Zm15.361,16.381.562.6.088.092L211.478,242.5c-9.124,10.242-16.372,19.327-19.142,23.522-1.242,1.882-4.482,5.415-8.944,9.932-7.37-15.156-18.012-34.686-23.013-43.755Zm34.558,22.684L181.642,215.98l-.3-.318L217.7,186.991,235.5,217.75C227.942,224.769,220.288,232.73,213.511,240.232Zm-7.227-48.105-6.686-9.906,26.661-12.791,3.922,3.85Zm-13-26.9-4.24,1.349-8.193-12.14c12.956-7.2,26.631-14.778,38.408-21.28,1.253,3.419,2.29,6.055,3.157,8.1Zm-7.253,2.308-6.552,2.086-36.841,25.992q-1.917-3.617-3.868-7.142c-1.393-2.519-2.982-5.079-4.713-7.66,5.048-3.057,23.419-13.366,44.133-24.894Zm-10.481-13.62c-30,16.692-39.853,22.349-43.2,24.409-3.392-4.822-7.271-9.7-11.432-14.544l38.542-35.616,17.028,25.23Zm-32.053,58.49c3.154,6.519,5.977,12.81,8.4,18.674l-5.865,11.141-5.045,27.923-4.556,2.781Zm24.383,48.107c3.872,7.383,7.516,14.536,10.4,20.526-10.3,10.1-24.322,23.125-36.207,34.006,1.187-2.057,2.352-4.073,3.48-6.024,13.179-22.793,21.3-37.027,22.24-42.206A23.262,23.262,0,0,0,167.878,260.517Zm16.9,18.328c5.014-5.052,8.691-9.041,10.085-11.152,4.849-7.344,23.576-29.856,41.871-46.98l1.1,3.273c-17.071,16.667-33.514,36.537-38.035,43.383-1.64,2.484-6.755,7.842-13.578,14.548Q185.536,280.429,184.783,278.845ZM270.865,124.02c8.189,9.222,14.333,31.168,14.982,33.549-.1,2.775-1.706,32.7-22.345,45.226-6.962,4.226-15.117,11.093-23.249,18.856l-1.071-3.195a127.459,127.459,0,0,1,18.429-14.416c22.959-13.936,23.788-46.589,23.812-47.971l0-.211-.054-.2c-.265-1.006-6.6-24.748-15.7-35-2.345-2.641-2.781-8.848-1.262-17.561l4.508.64C267.134,113.728,267.782,120.548,270.865,124.02ZM121.932,114.2,150.51,77.327c15.926,10.8,29.64,20.039,29.8,20.149l15.838,10.7,27.207,1.167,24.326-8.619,13.716,1.947c-1.72,9.841-1.053,16.564,2,20,8.189,9.222,14.333,31.168,14.982,33.549-.1,2.775-1.707,32.7-22.345,45.226a127.852,127.852,0,0,0-18.248,14.2L220.1,185.093l21.864-17.246,4.842-39.78.9-.744,2.06-11.409-5.224-.944-1.715,9.49-17.949,14.768c-1.108-2.678-2.324-5.834-3.382-8.769l-.6-1.672-1.557.859c-.206.113-19.734,10.892-40.2,22.27L159.993,123.54l-41.072,37.954c-8.83-10.033-18.72-19.8-27.805-28.363Zm-67.041,41.18,30.188-18.543q2.431,2.284,4.956,4.7L52.043,166.235q-1.269-2.069-2.5-4.066Zm-5.909,12.843L42.6,170.994l4.944-6.277,1.95,3.177Zm4.648.6,20.331-13.215c3.055,2.956,14.73,17.039,22.174,26.212l-1.393,27.421-14.213,3.686C71.575,198.195,62.018,182.507,53.63,168.822ZM94.458,214.8l-2.8,55.16-15.865-3.195-11.34,2.375,7.909-24.131-8.26-21.49,1.946-1.351ZM61.535,225.3l7.605,19.79-8.118,24.768-14.111,2.954-15.62-26.525ZM48.418,275.6,73.9,270.26l-3.322,18.387-14.173,2.473ZM24.155,299.826l29.593-5.163L51.734,307.6,41.081,323.9,26.557,313.034Zm19.6,25.534,10.879-16.642L56.9,294.112l12.577-2.194L61.46,312.229l25.46,13.976-2.748,15.214Zm48.782-13.173.934-18.337.806-.33a2.6,2.6,0,0,0-.738-1L94.643,270.8l.046-.231-.034-.008.473-9.295,20.641,3.476.5-2.992-20.99-3.535,1.161-22.8c2.863.681,8.607,1.593,20.211,3.279l.711.1,22.376-20.416-6.651,56.928L99.125,326.928l-3.654,18.979-8.423-3.346Zm27.411,22.884c-2.42,2.149-6.684,8.067-11.8,15.874l-9.81-3.9,3.65-18.955,33.645-51.13,8.088-4.936,5.2-28.8,4.452-8.455c5.657,14.321,8.627,25.658,7.691,30.837-.771,4.27-11.747,23.254-21.431,40-5.076,8.781-9.743,16.9-13.852,24.231C123.233,332.138,121.22,333.94,119.947,335.071Zm12.5-3.159c1.534-2.733,3.1-5.486,4.656-8.216,12.74-11.581,30.08-27.56,42.547-39.761q.744,1.586,1.389,3.021C165.027,302.378,143.218,322.22,132.446,331.912Zm39.572,65.351c-.251-.717-.77-4.194,2.258-19.734,1.929-9.9,4.736-21.958,7.517-33.8l19.26,3.48.54-2.986-19.1-3.452c5.967-25.4,9.565-41.241,8.6-46.324a54.156,54.156,0,0,0-3.534-9.59q1.17-1.149,2.28-2.248l21.89,38.007,14.433,2.607,14.272,16.46-63.086,66.485C174.728,401.913,172.82,398.736,172.018,397.263Zm57.637-41.823L257.84,384.1c-3.3,3.728-6.812,7.69-10.424,11.761l-30.329-27.177Zm-27.2,90.854c-8.014-12.694-17.213-27.323-23.466-37.453L215,370.886l30.4,27.245C229.635,415.9,212.364,435.3,202.451,446.294ZM278.1,383.131l22.57,16.462,18.075,16.942-22.976,22.657-46.094-41.305c4.622-5.213,8.592-9.694,11.372-12.835l.939-1.06-30.244-30.753,10.678-11.253,35.512,40.951ZM245.69,338.807l11.419-10.172,15.172,16.14-13.947,8.615Zm44.721,5.344-15.073-.556L257.3,324.4,243.7,336.515,228.54,319.029l-13.931-2.517-.507-.88,50.846-31.171,12.717-4.811,5.3-7.653,14.894-8.826,19.844,45.4-19.385,31.685Zm42.822-61.025.013.033-13.616,22.256-19.145-43.8L320.923,249.5c.12.4.256.825.4,1.291.6,1.891,1.552,4.627,2.82,8.131C326.274,264.8,329.331,272.947,333.232,283.126Zm-10.468-34.717ZM240.951,294.8l-2.573,1.608L226.417,277.29l2.572-1.609Zm27.331-106.807L252.4,173l6.306-16.825,2.84,1.065-5.6,14.938,14.413,13.605Z" transform="translate(0 0)"/><g transform="translate(139.657 127.519)"><path class="e" d="M87.255,194.558l-13.449-2.339L52.261,154.654l-7.354,5.657L0,73.375,41.376,43.492l6.1-2.347L19.634,1.288,21.477,0,50.968,42.212l-8.512,3.274L2.886,74.064,45.67,156.888l7.261-5.586,22.3,38.883,12.409,2.158Z" transform="translate(0 0)"/></g><rect class="f" width="187.326" height="380.371" rx="33.59" transform="translate(85.503 32.009)"/></g></g></g><g class="g" transform="translate(11774 2407)"><rect class="j" width="345" height="159" rx="4"/><rect class="f" x="0.5" y="0.5" width="344" height="158" rx="3.5"/></g><g transform="translate(12031.425 2418.066)"><g transform="translate(0 0)"><path class="h" d="M492.933,147.386c0-.029,0-.057-.006-.086-.017-.21-.043-.422-.077-.632a8.4,8.4,0,0,0-.29-1.221,9.314,9.314,0,0,0-2.911-4.3c-.109-.091-.22-.18-.334-.265a9.147,9.147,0,0,0-8.211-1.484,9.367,9.367,0,0,0-6.171,6.105,10.161,10.161,0,0,0,1.074,7.824,35.591,35.591,0,0,0,6.844,8.445,2.172,2.172,0,0,0,.7.517,1.54,1.54,0,0,0,.265.072v.024a1.557,1.557,0,0,0,.264-.074,2.169,2.169,0,0,0,.7-.523,35.6,35.6,0,0,0,6.762-8.5q.161-.316.306-.637a13.872,13.872,0,0,0,.581-1.487A9.9,9.9,0,0,0,492.933,147.386Zm-3.28,3.621a6.585,6.585,0,1,1-1.66-8.087c.11.091.217.186.322.285a6.564,6.564,0,0,1,2.014,3.945,6.8,6.8,0,0,1,.054.819A6.559,6.559,0,0,1,489.653,151.007Z" transform="translate(-474.553 -139)"/><path class="h" d="M587.271,233.787l-.471-1.428a.739.739,0,0,1-.055-.342c.03-.19.2-.321.317-.471a.991.991,0,0,0,.091-1.111.822.822,0,0,0-1.038-.3.72.72,0,0,0-.324.834.12.12,0,0,0,.19.056.343.343,0,0,1,.436-.023.37.37,0,0,1-.017.572.914.914,0,0,1-.384.15,2.591,2.591,0,0,1-1.745-.258,1.174,1.174,0,0,1-.443-1.17,3.365,3.365,0,0,1,.809-2,.708.708,0,0,0,.253-.48c-.016-.2-.217-.34-.411-.4a.5.5,0,0,0-.451.031.6.6,0,0,0-.171.4c-.082.532-.158.917-.2,1.455-.023.321-.077.693-.126,1.1a.064.064,0,0,1-.126.007c-.029-.116-.032-.269-.045-.348a1.3,1.3,0,0,0-.057-.287A2.8,2.8,0,0,0,582.9,229a2.414,2.414,0,0,0-.327-.348c-.024-.022-.351-.321-.373-.281a.032.032,0,0,0,0,.028,2.008,2.008,0,0,1,.141,1.092.065.065,0,0,1-.118.024l-.037-.058a2.341,2.341,0,0,0-.254-.329,1.571,1.571,0,0,0-.151-.14c-.035-.028-.132-.122-.147-.028a.421.421,0,0,0,.007.083c0,.054,0,.109,0,.163a1.892,1.892,0,0,1-.037.323.335.335,0,0,1-.066.159.374.374,0,0,1-.287.083l-1.5.006a.274.274,0,0,0-.159.033c-.078.055-.076.17-.064.266a2.678,2.678,0,0,0,.3,1.043,1.13,1.13,0,0,0,.872.586c.464.023.938-.325,1.359,0a.68.68,0,0,1,.153.166,1.318,1.318,0,0,1,.174.8,4.159,4.159,0,0,1-.246,1.251l0,.014c-.036.073-.074.145-.113.217-.081.151-.17.3-.254.447a.111.111,0,0,1-.145.062.8.8,0,0,0-.959.534c.472.021.938.045,1.405.06a.31.31,0,0,0,.224-.123,2.1,2.1,0,0,0,.358-.516c.061-.127.123-.1.239-.076a3.283,3.283,0,0,0,2.042-.294,4.992,4.992,0,0,0,.561-.36,3.551,3.551,0,0,0,1.049.838.775.775,0,0,0-.374.507,10.448,10.448,0,0,0,1.558-.022A11.53,11.53,0,0,0,587.271,233.787Zm-3.057-6c.034-.079.068-.162.177-.1s.2.116.12.256a1.328,1.328,0,0,1-.285.336.072.072,0,0,1-.119-.062A1.638,1.638,0,0,1,584.215,227.785Z" transform="translate(-574.535 -223.171)"/></g></g><g transform="translate(11837.071 2494.965)"><path class="i" d="M882.084,349.5l2.809,2.5c.586.521,1.169,1.045,1.759,1.562a4.065,4.065,0,0,0,.347.229.153.153,0,0,1,.059.1c.006.167,0,.334,0,.5q0,2.4,0,4.8c0,.27-.077.349-.344.349h-2.91v-.16q0-1.776,0-3.552c0-.105.008-.218-.1-.279a.4.4,0,0,0-.184-.056q-1.438-.005-2.876,0c-.2,0-.292.1-.292.308q0,1.433,0,2.865v.877h-2.916c-.252,0-.338-.085-.338-.334q0-2.644,0-5.288a.145.145,0,0,1,.1-.152,1.654,1.654,0,0,0,.344-.235q1.726-1.528,3.448-3.062Z" transform="translate(-876.166 -347.458)"/><path class="i" d="M859.755,308.442l.146-.128,2.725-2.42a.6.6,0,0,1,.867,0l5.239,4.656a.594.594,0,1,1-.77.9c-.307-.268-.609-.541-.914-.812l-3.916-3.481-.068-.059c-.026.021-.053.041-.078.063q-2.384,2.119-4.767,4.241a.669.669,0,0,1-.577.214.558.558,0,0,1-.472-.413.58.58,0,0,1,.182-.623c.2-.184.4-.366.61-.54a.3.3,0,0,0,.116-.257c0-.928,0-1.855,0-2.783,0-.258.046-.316.3-.377l1.006-.245c.26-.063.373.025.374.3q0,.8,0,1.607Z" transform="translate(-857.144 -305.708)"/></g></g></svg>