<svg xmlns="http://www.w3.org/2000/svg" width="122.461" height="122.413" viewBox="0 0 122.461 122.413"><defs><style>.a{fill:#ffc24d;}</style></defs><g transform="translate(-821.944 -113.991)"><path class="a" d="M863.607,292.539a5.128,5.128,0,0,1,4.563,3.323,4.653,4.653,0,0,1-1.612,5.343,26.145,26.145,0,0,1-2.464,1.495q-8.161,4.719-16.33,9.425c-2.423,1.393-4.822,1.086-6.348-.768a4.746,4.746,0,0,1,1.406-7.386c5.195-3.022,10.409-6.01,15.615-9.013.893-.515,1.757-1.089,2.684-1.53A24.531,24.531,0,0,1,863.607,292.539Z" transform="translate(-10.727 -104.801)"/><path class="a" d="M868.439,197.383c.015,4.138-3.834,6.362-7.21,4.534-2.174-1.177-4.291-2.459-6.432-3.7-3.956-2.283-7.92-4.554-11.865-6.857a4.765,4.765,0,0,1-2.5-5.558,4.683,4.683,0,0,1,6.9-2.9c4.779,2.713,9.527,5.48,14.287,8.226,1.488.858,2.979,1.709,4.458,2.583A4.473,4.473,0,0,1,868.439,197.383Z" transform="translate(-10.744 -40.08)"/><path class="a" d="M890.106,347.057a11.621,11.621,0,0,1,.768-2.219q5.347-9.405,10.782-18.761a4.745,4.745,0,0,1,8.53,4.052,7.5,7.5,0,0,1-.555,1.215q-5.2,9.016-10.412,18.023a4.795,4.795,0,0,1-8.795-.666A15.7,15.7,0,0,1,890.106,347.057Z" transform="translate(-40.008 -123.128)"/><path class="a" d="M1016.226,132.3a4.755,4.755,0,0,1,4.634,6.377,6.154,6.154,0,0,1-.433.933q-5.266,9.152-10.544,18.3a4.769,4.769,0,1,1-8.4-4.509q5.451-9.461,10.928-18.908A4.432,4.432,0,0,1,1016.226,132.3Z" transform="translate(-105.013 -10.746)"/><path class="a" d="M1036.6,292.443a19.062,19.062,0,0,1,2.738,1.057q9.042,5.149,18.034,10.387a4.782,4.782,0,0,1,1.942,6.721,4.691,4.691,0,0,1-6.641,1.565c-4.658-2.647-9.286-5.347-13.926-8.024-1.547-.893-3.1-1.773-4.639-2.681a4.632,4.632,0,0,1-2.137-5.324A5.119,5.119,0,0,1,1036.6,292.443Z" transform="translate(-123.171 -104.745)"/><path class="a" d="M889.91,136.987a5.157,5.157,0,0,1,3.628-4.558,4.638,4.638,0,0,1,5.293,2.024q5.543,9.468,10.976,19a4.692,4.692,0,0,1-1.82,6.351,4.629,4.629,0,0,1-6.5-1.771c-2.787-4.735-5.5-9.513-8.245-14.273-.84-1.458-1.725-2.893-2.5-4.385A16.846,16.846,0,0,1,889.91,136.987Z" transform="translate(-39.893 -10.711)"/><path class="a" d="M1031.449,197.907a5.033,5.033,0,0,1,2.557-4.208q9.407-5.448,18.831-10.864a4.654,4.654,0,0,1,6.109,1.494,4.771,4.771,0,0,1-.849,6.336,8.076,8.076,0,0,1-1.1.763q-8.964,5.182-17.939,10.346c-2.646,1.518-5.406.855-6.842-1.667A12.468,12.468,0,0,1,1031.449,197.907Z" transform="translate(-122.971 -40.067)"/><path class="a" d="M1021.253,347.255a4.94,4.94,0,0,1-3.676,4.553,4.455,4.455,0,0,1-5.125-1.9c-1.263-2-2.406-4.083-3.593-6.134-2.46-4.251-4.925-8.5-7.364-12.762a4.517,4.517,0,0,1,.19-5.148,4.581,4.581,0,0,1,4.77-1.97,4.275,4.275,0,0,1,3.144,2.119q5.5,9.5,10.945,19.022A11.006,11.006,0,0,1,1021.253,347.255Z" transform="translate(-104.972 -123.158)"/><path class="a" d="M1058.6,260.128c-3.614,0-7.228.035-10.841-.013a4.6,4.6,0,0,1-4.44-3.506,4.661,4.661,0,0,1,2.187-5.318,5.426,5.426,0,0,1,2.447-.662q10.685-.076,21.372-.019a4.754,4.754,0,0,1,1.537,9.3,7.431,7.431,0,0,1-1.937.21c-3.441.019-6.883.009-10.325.009Z" transform="translate(-129.846 -80.178)"/><path class="a" d="M968.128,350.671c0,3.648.036,7.3-.013,10.944a4.58,4.58,0,0,1-3.517,4.427,4.637,4.637,0,0,1-5.308-2.2,5.7,5.7,0,0,1-.66-2.55c-.051-7.089-.045-14.179-.021-21.269a4.763,4.763,0,1,1,9.52.012c.024,3.545.006,7.09.006,10.634Z" transform="translate(-80.206 -129.791)"/><path class="a" d="M968.136,129.562c0,3.544.037,7.088-.011,10.631a4.688,4.688,0,0,1-5.607,4.789,4.773,4.773,0,0,1-3.909-4.963c-.019-4.989-.006-9.977-.006-14.966,0-2.03-.005-4.06,0-6.09a4.763,4.763,0,0,1,4.593-4.971,4.667,4.667,0,0,1,4.91,4.733c.081,3.611.02,7.224.02,10.837Z" transform="translate(-80.211 0)"/><path class="a" d="M837.561,260.123c-3.648,0-7.3.028-10.943-.011a4.6,4.6,0,0,1-4.394-3.159,4.475,4.475,0,0,1,1.548-5.258,6.082,6.082,0,0,1,3.138-1.055c7.053-.091,14.108-.063,21.162-.039a4.715,4.715,0,0,1,4.9,3.99,4.655,4.655,0,0,1-3.351,5.336,7.685,7.685,0,0,1-1.94.192c-3.372.018-6.745.008-10.117.008Z" transform="translate(0 -80.171)"/></g></svg>