<svg xmlns="http://www.w3.org/2000/svg" width="23.254" height="23.249" viewBox="0 0 23.254 23.249"><defs><style>.a{fill:#fff;}.b{fill:#1b468e;}</style></defs><g transform="translate(-180.748 -57.443)"><path class="a" d="M180.748,79.459V58.642a.54.54,0,0,0,.043-.1,1.224,1.224,0,0,1,1.051-1.052.555.555,0,0,0,.1-.043h20.816a.407.407,0,0,0,.086.04,1.263,1.263,0,0,1,1.1,1.328q0,10.243,0,20.487a1.279,1.279,0,0,1-1.336,1.344c-1.87,0-3.74,0-5.61,0-.156,0-.2-.049-.2-.2q0-4.285,0-8.57c0-.156.053-.195.2-.194.864.006,1.728,0,2.592.006.163,0,.22-.049.24-.215.1-.856.222-1.71.333-2.565.032-.246.057-.492.088-.761h-3.425a.467.467,0,0,1-.022-.091c0-.851-.018-1.7.015-2.553a1.138,1.138,0,0,1,.936-1.17,2.173,2.173,0,0,1,.494-.073c.619-.011,1.238-.008,1.857-.012.082,0,.164-.012.263-.019v-.206c0-.916-.005-1.831,0-2.747,0-.179-.058-.238-.226-.245-.3-.012-.6-.044-.906-.056a11.555,11.555,0,0,0-2.7.056,3.96,3.96,0,0,0-2.652,1.682,4.847,4.847,0,0,0-.771,2.672c-.019.838,0,1.677-.005,2.515,0,.076,0,.151,0,.25h-3.027v.213c0,1.032,0,2.064,0,3.1,0,.178.049.231.227.23.858-.008,1.715,0,2.573,0,.074,0,.148.007.231.011v.2q0,4.266,0,8.531c0,.192-.07.217-.235.217q-3.443-.007-6.887,0h-3.869a1.265,1.265,0,0,1-1.347-1.1A.391.391,0,0,0,180.748,79.459Z" transform="translate(0)"/><path class="b" d="M180.748,79.459a.391.391,0,0,1,.04.086,1.265,1.265,0,0,0,1.347,1.1H186q3.443,0,6.887,0c.164,0,.235-.025.235-.217q-.01-4.266,0-8.531v-.2c-.083,0-.157-.011-.231-.011-.858,0-1.715-.005-2.573,0-.178,0-.229-.052-.227-.23.008-1.032,0-2.063,0-3.1v-.213h3.027c0-.1,0-.175,0-.25,0-.838-.014-1.677.005-2.515a4.847,4.847,0,0,1,.771-2.672,3.96,3.96,0,0,1,2.652-1.682,11.555,11.555,0,0,1,2.7-.056c.3.012.6.044.906.056.168.007.228.066.226.245-.01.916,0,1.831,0,2.747v.206c-.1.007-.181.018-.263.019-.619,0-1.238,0-1.857.012a2.173,2.173,0,0,0-.494.073,1.138,1.138,0,0,0-.936,1.17c-.034.85-.014,1.7-.015,2.553a.467.467,0,0,0,.022.091h3.425c-.031.269-.056.516-.088.761-.111.855-.229,1.709-.333,2.565-.02.166-.078.216-.24.215-.864-.006-1.728,0-2.592-.006-.148,0-.2.038-.2.194q.006,4.285,0,8.57c0,.149.042.2.2.2,1.87-.005,3.74,0,5.61,0a1.279,1.279,0,0,0,1.336-1.344q0-10.243,0-20.487a1.263,1.263,0,0,0-1.1-1.328.407.407,0,0,1-.086-.04H204q0,11.622,0,23.249H180.748Z" transform="translate(0)"/></g></svg>