<svg xmlns="http://www.w3.org/2000/svg" width="166.975" height="155.861" viewBox="0 0 166.975 155.861"><defs><style>.a{fill:#fff;}</style></defs><g transform="translate(-291.832 -125)"><g transform="translate(291.832 243.737)"><g transform="translate(0)"><path class="a" d="M300.848,703.13a8.534,8.534,0,0,1-6.256-2.624,9.62,9.62,0,0,1-1.907-2.893,10.864,10.864,0,0,1-.852-3.589V677.517a3.015,3.015,0,0,1,.852-2.153,2.79,2.79,0,0,1,2.108-.9,2.843,2.843,0,0,1,2.153.9,3.018,3.018,0,0,1,.853,2.153v16.193a2.828,2.828,0,0,0,.92,2.131,3.032,3.032,0,0,0,4.262,0,2.831,2.831,0,0,0,.92-2.131V677.517a2.976,2.976,0,0,1,.872-2.153,2.917,2.917,0,0,1,2.176-.9,2.867,2.867,0,0,1,2.131.9,2.978,2.978,0,0,1,.872,2.153v16.193a2.9,2.9,0,0,0,.872,2.131,2.846,2.846,0,0,0,2.086.872,2.951,2.951,0,0,0,2.176-.872,2.9,2.9,0,0,0,.872-2.131V677.517a3.029,3.029,0,0,1,5.181-2.153,2.905,2.905,0,0,1,.92,2.153v16.507a9.14,9.14,0,0,1-.763,3.475,9.589,9.589,0,0,1-1.951,2.893,9.344,9.344,0,0,1-2.894,1.994,8.605,8.605,0,0,1-3.544.74,9.081,9.081,0,0,1-3.185-.583,7.953,7.953,0,0,1-2.781-1.745,10.59,10.59,0,0,1-2.8,1.682A9.375,9.375,0,0,1,300.848,703.13Z" transform="translate(-291.832 -674.383)"/><path class="a" d="M450.342,705.851a10.477,10.477,0,0,1,3.791,1.166,10.7,10.7,0,0,1,3.05,2.4,11.366,11.366,0,0,1,2.019,3.319,10.537,10.537,0,0,1,.74,3.925v7.94a2.741,2.741,0,0,1-.9,2.063,2.873,2.873,0,0,1-4.531-.583,2.548,2.548,0,0,0-.4.2q-.18.112-.359.2a11.936,11.936,0,0,1-2.2.763,10.938,10.938,0,0,1-2.467.269,10.37,10.37,0,0,1-6.01-1.817,11.2,11.2,0,0,1-3.948-4.688,11.947,11.947,0,0,1-.7-2.108,10.322,10.322,0,0,1,0-4.486,12.012,12.012,0,0,1,.7-2.108,11,11,0,0,1,3.948-4.71,10.469,10.469,0,0,1,6.01-1.794h.65A4.364,4.364,0,0,1,450.342,705.851Zm-1.3,15.834a5.041,5.041,0,0,0,1.951-.381,4.853,4.853,0,0,0,1.593-1.054,5.155,5.155,0,0,0,1.076-1.592,4.908,4.908,0,0,0,.4-1.994,4.7,4.7,0,0,0-.4-1.907,5.234,5.234,0,0,0-2.714-2.714,4.7,4.7,0,0,0-1.906-.4,4.534,4.534,0,0,0-1.884.4,5.313,5.313,0,0,0-1.593,1.1,5.247,5.247,0,0,0-1.1,1.62,4.705,4.705,0,0,0-.4,1.906,4.575,4.575,0,0,0,.426,1.951,5.271,5.271,0,0,0,1.121,1.592,5.535,5.535,0,0,0,1.593,1.077A4.443,4.443,0,0,0,449.041,721.685Z" transform="translate(-405.711 -698.769)"/><path class="a" d="M564.627,697.728a2.979,2.979,0,0,1,.048,4.213l-.048.048a3.342,3.342,0,0,1-2.108.872,2.735,2.735,0,0,1-2.153-.872l-6.774-6.729v4.576a2.909,2.909,0,0,1-.9,2.086,2.853,2.853,0,0,1-2.108.92,3.023,3.023,0,0,1-2.108-.872,2.8,2.8,0,0,1-.942-2.131V677.188a3.028,3.028,0,1,1,6.054-.13c0,.043,0,.086,0,.13v11.258l6.774-6.773a2.811,2.811,0,0,1,2.108-.872,3.22,3.22,0,0,1,2.153.872,2.98,2.98,0,0,1,.048,4.213l-.048.048-5.92,5.921Z" transform="translate(-490.795 -674.095)"/><path class="a" d="M637.2,705.609a3.123,3.123,0,0,1,2.041.763,2.449,2.449,0,0,1,.92,1.974v8.118a4.9,4.9,0,0,0,1.436,3.5,5.154,5.154,0,0,0,1.593,1.077,4.909,4.909,0,0,0,1.994.4,5.075,5.075,0,0,0,1.861-.359,5.2,5.2,0,0,0,1.62-.987,4.879,4.879,0,0,0,1.121-1.5,4.3,4.3,0,0,0,.426-1.906V708.48a2.866,2.866,0,0,1,2.865-2.866h.051a3.043,3.043,0,0,1,2.063.785,2.493,2.493,0,0,1,.9,1.951v24.473a2.556,2.556,0,0,1-.9,1.974,2.991,2.991,0,0,1-2.063.808,2.939,2.939,0,0,1-2.019-.808,2.7,2.7,0,0,1-.9-2.108v-6.58a7.649,7.649,0,0,1-2.355.919,12.327,12.327,0,0,1-2.669.292,10.415,10.415,0,0,1-4.172-.852,11.274,11.274,0,0,1-3.477-2.333,10.91,10.91,0,0,1-2.377-3.522,11.218,11.218,0,0,1-.872-4.463V708.48a2.866,2.866,0,0,1,2.866-2.866h.05Z" transform="translate(-558.296 -698.616)"/><path class="a" d="M755.126,706.012a10.426,10.426,0,0,1,4.172.852,11.013,11.013,0,0,1,3.454,2.333,11.316,11.316,0,0,1,2.355,3.454,10.3,10.3,0,0,1,.872,4.217,10.77,10.77,0,0,1-.83,4.217,10.893,10.893,0,0,1-2.288,3.454,10.671,10.671,0,0,1-3.453,2.333,10.8,10.8,0,0,1-4.284.852A11.075,11.075,0,0,1,750.1,726.6v6.579a2.758,2.758,0,0,1-.852,2.019,2.865,2.865,0,0,1-2.108.852,2.905,2.905,0,0,1-1.994-.785,2.659,2.659,0,0,1-.92-1.952V716.869a10.187,10.187,0,0,1,.872-4.172,11.244,11.244,0,0,1,5.809-5.809A10.284,10.284,0,0,1,755.126,706.012ZM750.1,716.867a5.013,5.013,0,0,0,.4,2.041,4.96,4.96,0,0,0,1.1,1.592,5.109,5.109,0,0,0,1.62,1.054,4.931,4.931,0,0,0,1.907.381,4.757,4.757,0,0,0,1.974-.4,5.109,5.109,0,0,0,3.005-4.671,4.8,4.8,0,0,0-.4-1.951,5.158,5.158,0,0,0-1.077-1.592,5.034,5.034,0,0,0-5.5-1.032,5.157,5.157,0,0,0-1.593,1.077,4.9,4.9,0,0,0-1.436,3.5Z" transform="translate(-643.84 -698.93)"/><path class="a" d="M859.381,705.811a9.861,9.861,0,0,1,4.127.9,11.793,11.793,0,0,1,5.877,5.857,9.721,9.721,0,0,1,.9,4.1,2.867,2.867,0,0,1-.872,2.063,2.772,2.772,0,0,1-2.176.852H855.3a4.716,4.716,0,0,0,4.081,2.109,4.669,4.669,0,0,0,1.211-.135,5.354,5.354,0,0,0,.872-.314,8.156,8.156,0,0,1,.763-.314,2.612,2.612,0,0,1,.872-.134,3.03,3.03,0,0,1,2.669,1.772,2.867,2.867,0,0,1,.224,1.592,2.81,2.81,0,0,1-.785,1.57,6.963,6.963,0,0,1-2.691,1.371,14.025,14.025,0,0,1-3.14.426,9.127,9.127,0,0,1-4.127-.785,11.4,11.4,0,0,1-3.477-2.377,11.239,11.239,0,0,1-2.377-3.522,10.393,10.393,0,0,1-.872-4.172,9.969,9.969,0,0,1,.872-4.082,11.613,11.613,0,0,1,2.355-3.477,11.458,11.458,0,0,1,3.454-2.4A9.971,9.971,0,0,1,859.381,705.811Zm4.082,7.894a5.957,5.957,0,0,0-1.795-1.5,4.991,4.991,0,0,0-4.6,0,6.036,6.036,0,0,0-1.772,1.5Z" transform="translate(-724.995 -698.773)"/><path class="a" d="M958.5,674.473a2.827,2.827,0,0,1,2.108.872,3.345,3.345,0,0,1,.942,2.175v3.409h8.611a2.7,2.7,0,0,1,2.108.9,3.052,3.052,0,0,1,.807,2.109,2.908,2.908,0,0,1-.9,2.086,2.757,2.757,0,0,1-2.019.919h-8.613v5.109a5.023,5.023,0,0,0,.381,1.951,5.359,5.359,0,0,0,1.054,1.637,4.794,4.794,0,0,0,1.593,1.122,4.916,4.916,0,0,0,1.994.4,5.644,5.644,0,0,0,1.994-.314,4.078,4.078,0,0,0,1.458-.942,3.236,3.236,0,0,1,2.086-.83,3.023,3.023,0,0,1,2.131.872,2.665,2.665,0,0,1,.673.92,2.986,2.986,0,0,1,.249,1.077,3.063,3.063,0,0,1-.156,1.1,2.38,2.38,0,0,1-.583.942,11.377,11.377,0,0,1-3.454,2.333,10.143,10.143,0,0,1-4.037.807,12.243,12.243,0,0,1-4.4-.785A11.046,11.046,0,0,1,958.9,700.1a10.7,10.7,0,0,1-2.492-3.5,11.449,11.449,0,0,1-.964-4.553V677.29a2.575,2.575,0,0,1,.92-2.019A3.129,3.129,0,0,1,958.5,674.473Z" transform="translate(-808.188 -674.389)"/></g></g><g transform="translate(332.378 125)"><path class="a" d="M560.33,178.134c0-.134-.018-.268-.027-.4-.08-.979-.2-1.967-.358-2.951a39.147,39.147,0,0,0-1.355-5.7A43.465,43.465,0,0,0,545,149.006c-.51-.425-1.028-.841-1.556-1.238a42.685,42.685,0,0,0-38.32-6.925,43.713,43.713,0,0,0-28.8,28.493c-3.885,12.451-1.019,24.9,5.012,36.513,7.9,15.21,21.232,28.98,31.94,39.41a10.143,10.143,0,0,0,3.286,2.414,7.177,7.177,0,0,0,1.238.335v.112a7.276,7.276,0,0,0,1.23-.344,10.122,10.122,0,0,0,3.259-2.441c10.6-10.516,23.789-24.388,31.555-39.67q.751-1.475,1.431-2.973a64.733,64.733,0,0,0,2.709-6.939A46.2,46.2,0,0,0,560.33,178.134Zm-15.308,16.9a30.733,30.733,0,1,1-7.748-37.743c.514.425,1.015.867,1.5,1.332a30.629,30.629,0,0,1,9.4,18.411,31.639,31.639,0,0,1,.251,3.823A30.606,30.606,0,0,1,545.022,195.033Z" transform="translate(-474.553 -139)"/><path class="a" d="M615.67,257.3l-2.2-6.663a3.457,3.457,0,0,1-.257-1.6c.141-.884.919-1.5,1.479-2.2a4.621,4.621,0,0,0,.425-5.187,3.837,3.837,0,0,0-4.845-1.418,3.361,3.361,0,0,0-1.514,3.891.559.559,0,0,0,.889.262,1.6,1.6,0,0,1,2.034-.107,1.729,1.729,0,0,1-.078,2.671,4.262,4.262,0,0,1-1.79.7,12.093,12.093,0,0,1-8.143-1.2c-1.878-1.18-2.253-3.4-2.066-5.458a15.707,15.707,0,0,1,3.774-9.329,3.3,3.3,0,0,0,1.184-2.239c-.074-.946-1.013-1.585-1.918-1.875a2.315,2.315,0,0,0-2.105.144,2.779,2.779,0,0,0-.8,1.87c-.384,2.482-.738,4.28-.917,6.789-.107,1.5-.359,3.232-.587,5.152a.3.3,0,0,1-.587.032c-.136-.541-.149-1.254-.208-1.623a6.047,6.047,0,0,0-.265-1.338,13.074,13.074,0,0,0-1.9-3.621,11.3,11.3,0,0,0-1.528-1.625c-.114-.1-1.638-1.5-1.741-1.311a.149.149,0,0,0,0,.133,9.369,9.369,0,0,1,.66,5.1.3.3,0,0,1-.552.114q-.086-.135-.173-.269a10.919,10.919,0,0,0-1.186-1.533,7.309,7.309,0,0,0-.706-.656c-.162-.131-.614-.572-.686-.129a2,2,0,0,0,.032.389q.023.379.012.76a8.791,8.791,0,0,1-.172,1.508,1.565,1.565,0,0,1-.306.744,1.742,1.742,0,0,1-1.339.389l-6.989.029a1.278,1.278,0,0,0-.744.156c-.366.259-.356.8-.3,1.239a12.5,12.5,0,0,0,1.406,4.868,5.274,5.274,0,0,0,4.07,2.733c2.163.107,4.379-1.518,6.342-.015a3.185,3.185,0,0,1,.713.772,6.151,6.151,0,0,1,.813,3.736,19.41,19.41,0,0,1-1.149,5.84l-.023.066q-.253.509-.526,1.011c-.38.7-.8,1.389-1.185,2.088a.516.516,0,0,1-.678.29,3.736,3.736,0,0,0-4.477,2.493c2.2.1,4.378.212,6.557.28a1.445,1.445,0,0,0,1.046-.573,9.787,9.787,0,0,0,1.67-2.406c.286-.595.574-.461,1.115-.355a15.321,15.321,0,0,0,9.53-1.37,23.284,23.284,0,0,0,2.619-1.679,16.561,16.561,0,0,0,4.9,3.913,3.616,3.616,0,0,0-1.743,2.366,48.742,48.742,0,0,0,7.271-.1A53.726,53.726,0,0,0,615.67,257.3ZM601.406,229.3c.158-.369.319-.755.828-.449.448.269.93.541.56,1.2a6.207,6.207,0,0,1-1.33,1.566.334.334,0,0,1-.555-.292A7.679,7.679,0,0,1,601.406,229.3Z" transform="translate(-556.233 -207.763)"/></g></g></svg>