<svg xmlns="http://www.w3.org/2000/svg" width="186.557" height="174.14" viewBox="0 0 186.557 174.14"><defs><style>.a{fill:#0099f2;}.b{fill:#ffc24d;}</style></defs><g transform="translate(-291.832 -139)"><g transform="translate(291.832 271.663)"><g transform="translate(0)"><path class="a" d="M301.905,706.491a9.534,9.534,0,0,1-6.99-2.932,10.747,10.747,0,0,1-2.13-3.233,12.139,12.139,0,0,1-.952-4.01V677.874a3.369,3.369,0,0,1,.952-2.406,3.117,3.117,0,0,1,2.356-1,3.176,3.176,0,0,1,2.406,1,3.372,3.372,0,0,1,.953,2.406v18.092a3.159,3.159,0,0,0,1.027,2.38,3.387,3.387,0,0,0,4.761,0,3.163,3.163,0,0,0,1.027-2.38V677.874a3.325,3.325,0,0,1,.975-2.406,3.259,3.259,0,0,1,2.431-1,3.2,3.2,0,0,1,2.381,1,3.327,3.327,0,0,1,.974,2.406v18.092a3.238,3.238,0,0,0,.975,2.38,3.18,3.18,0,0,0,2.331.975,3.3,3.3,0,0,0,2.431-.975,3.237,3.237,0,0,0,.974-2.38V677.874a3.385,3.385,0,0,1,5.789-2.406,3.246,3.246,0,0,1,1.027,2.406v18.443a10.214,10.214,0,0,1-.852,3.883,10.714,10.714,0,0,1-2.18,3.233,10.443,10.443,0,0,1-3.233,2.227,9.614,9.614,0,0,1-3.959.827,10.145,10.145,0,0,1-3.558-.651,8.889,8.889,0,0,1-3.107-1.949,11.827,11.827,0,0,1-3.133,1.88A10.474,10.474,0,0,1,301.905,706.491Z" transform="translate(-291.832 -674.373)"/><path class="a" d="M451.767,705.857a11.706,11.706,0,0,1,4.235,1.3,11.952,11.952,0,0,1,3.408,2.681,12.7,12.7,0,0,1,2.255,3.709,11.771,11.771,0,0,1,.827,4.386v8.871a3.063,3.063,0,0,1-1,2.305,3.21,3.21,0,0,1-5.062-.651,2.849,2.849,0,0,0-.451.225q-.2.125-.4.225a13.337,13.337,0,0,1-2.456.852,12.227,12.227,0,0,1-2.757.3,11.586,11.586,0,0,1-6.715-2.03,12.515,12.515,0,0,1-4.411-5.238,13.35,13.35,0,0,1-.777-2.355,11.535,11.535,0,0,1,0-5.012,13.423,13.423,0,0,1,.777-2.356,12.287,12.287,0,0,1,4.411-5.263,11.7,11.7,0,0,1,6.715-2h.727A4.877,4.877,0,0,1,451.767,705.857Zm-1.453,17.691a5.632,5.632,0,0,0,2.18-.426,5.422,5.422,0,0,0,1.779-1.178,5.759,5.759,0,0,0,1.2-1.779,5.484,5.484,0,0,0,.451-2.227,5.253,5.253,0,0,0-.451-2.13,5.847,5.847,0,0,0-3.032-3.032,5.245,5.245,0,0,0-2.13-.451,5.066,5.066,0,0,0-2.1.451A5.936,5.936,0,0,0,446.43,714a5.862,5.862,0,0,0-1.228,1.81,5.258,5.258,0,0,0-.451,2.13,5.11,5.11,0,0,0,.476,2.18,5.888,5.888,0,0,0,1.253,1.779,6.183,6.183,0,0,0,1.779,1.2A4.964,4.964,0,0,0,450.314,723.548Z" transform="translate(-401.902 -697.943)"/><path class="a" d="M566.632,700.5a3.329,3.329,0,0,1,.054,4.707l-.054.054a3.735,3.735,0,0,1-2.356.975,3.055,3.055,0,0,1-2.406-.975l-7.568-7.518v5.112a3.25,3.25,0,0,1-1,2.331,3.187,3.187,0,0,1-2.356,1.027,3.377,3.377,0,0,1-2.355-.975,3.126,3.126,0,0,1-1.052-2.38V677.55a3.383,3.383,0,0,1,6.765-.145c0,.048,0,.1,0,.145v12.579l7.568-7.567a3.14,3.14,0,0,1,2.356-.974,3.6,3.6,0,0,1,2.406.974,3.329,3.329,0,0,1,.054,4.707l-.054.054-6.615,6.616Z" transform="translate(-484.141 -674.095)"/><path class="a" d="M637.538,705.609a3.489,3.489,0,0,1,2.28.852,2.736,2.736,0,0,1,1.027,2.205v9.07a5.471,5.471,0,0,0,1.6,3.909,5.759,5.759,0,0,0,1.779,1.2,5.485,5.485,0,0,0,2.228.451,5.668,5.668,0,0,0,2.08-.4,5.806,5.806,0,0,0,1.81-1.1,5.454,5.454,0,0,0,1.253-1.679,4.8,4.8,0,0,0,.476-2.13v-9.17a3.2,3.2,0,0,1,3.2-3.2h.057a3.4,3.4,0,0,1,2.305.877,2.785,2.785,0,0,1,1,2.18v27.343a2.856,2.856,0,0,1-1,2.205,3.342,3.342,0,0,1-2.305.9,3.283,3.283,0,0,1-2.256-.9,3.016,3.016,0,0,1-1-2.355v-7.351a8.547,8.547,0,0,1-2.631,1.027,13.775,13.775,0,0,1-2.982.326,11.636,11.636,0,0,1-4.661-.952,12.593,12.593,0,0,1-3.885-2.606,12.19,12.19,0,0,1-2.656-3.935,12.533,12.533,0,0,1-.974-4.987v-8.57a3.2,3.2,0,0,1,3.2-3.2h.056Z" transform="translate(-549.383 -697.796)"/><path class="a" d="M756.4,706.012a11.644,11.644,0,0,1,4.661.952,12.3,12.3,0,0,1,3.859,2.606,12.645,12.645,0,0,1,2.631,3.859,11.512,11.512,0,0,1,.975,4.712,12.032,12.032,0,0,1-.927,4.711,12.173,12.173,0,0,1-2.556,3.859,11.92,11.92,0,0,1-3.858,2.606,12.064,12.064,0,0,1-4.786.952,12.374,12.374,0,0,1-5.614-1.253v7.351a3.082,3.082,0,0,1-.952,2.255,3.2,3.2,0,0,1-2.355.952,3.246,3.246,0,0,1-2.228-.877,2.971,2.971,0,0,1-1.028-2.18V718.142a11.383,11.383,0,0,1,.975-4.661,12.564,12.564,0,0,1,6.491-6.49A11.49,11.49,0,0,1,756.4,706.012ZM750.79,718.14a5.6,5.6,0,0,0,.451,2.28,5.543,5.543,0,0,0,1.228,1.779,5.707,5.707,0,0,0,1.81,1.178,5.51,5.51,0,0,0,2.13.426,5.314,5.314,0,0,0,2.205-.451,5.708,5.708,0,0,0,3.358-5.218,5.357,5.357,0,0,0-.451-2.18,5.766,5.766,0,0,0-1.2-1.779,5.625,5.625,0,0,0-6.14-1.153,5.761,5.761,0,0,0-1.779,1.2,5.48,5.48,0,0,0-1.6,3.909Z" transform="translate(-632.066 -698.099)"/><path class="a" d="M860.654,705.811a11.015,11.015,0,0,1,4.611,1,13.175,13.175,0,0,1,6.566,6.543,10.862,10.862,0,0,1,1,4.586,3.2,3.2,0,0,1-.975,2.305,3.1,3.1,0,0,1-2.431.952H856.1a5.27,5.27,0,0,0,4.56,2.356,5.214,5.214,0,0,0,1.353-.151,5.973,5.973,0,0,0,.974-.351,9.106,9.106,0,0,1,.852-.351,2.92,2.92,0,0,1,.974-.15,3.386,3.386,0,0,1,2.982,1.98,3.2,3.2,0,0,1,.25,1.779,3.14,3.14,0,0,1-.877,1.754,7.777,7.777,0,0,1-3.007,1.531,15.666,15.666,0,0,1-3.508.476,10.2,10.2,0,0,1-4.611-.877,12.731,12.731,0,0,1-3.885-2.656,12.558,12.558,0,0,1-2.656-3.934,11.612,11.612,0,0,1-.974-4.661,11.138,11.138,0,0,1,.974-4.561,12.975,12.975,0,0,1,2.631-3.884,12.8,12.8,0,0,1,3.859-2.682A11.14,11.14,0,0,1,860.654,705.811Zm4.561,8.82a6.659,6.659,0,0,0-2.005-1.679,5.576,5.576,0,0,0-5.137,0,6.747,6.747,0,0,0-1.98,1.679Z" transform="translate(-710.507 -697.948)"/><path class="a" d="M958.857,674.474a3.159,3.159,0,0,1,2.355.975,3.737,3.737,0,0,1,1.053,2.431v3.809h9.621a3.018,3.018,0,0,1,2.356,1,3.409,3.409,0,0,1,.9,2.356,3.25,3.25,0,0,1-1,2.331,3.081,3.081,0,0,1-2.256,1.027h-9.622v5.708a5.607,5.607,0,0,0,.426,2.18,5.987,5.987,0,0,0,1.178,1.829,5.357,5.357,0,0,0,1.779,1.253,5.49,5.49,0,0,0,2.228.451,6.3,6.3,0,0,0,2.228-.351,4.556,4.556,0,0,0,1.629-1.052,3.617,3.617,0,0,1,2.33-.927,3.378,3.378,0,0,1,2.381.974,2.979,2.979,0,0,1,.752,1.028,3.342,3.342,0,0,1,.278,1.2,3.421,3.421,0,0,1-.174,1.228,2.66,2.66,0,0,1-.652,1.053,12.707,12.707,0,0,1-3.859,2.606,11.334,11.334,0,0,1-4.511.9,13.678,13.678,0,0,1-4.912-.877,12.344,12.344,0,0,1-4.06-2.506,11.954,11.954,0,0,1-2.784-3.909,12.789,12.789,0,0,1-1.078-5.087V677.621a2.876,2.876,0,0,1,1.027-2.255A3.5,3.5,0,0,1,958.857,674.474Z" transform="translate(-790.918 -674.379)"/></g></g><g transform="translate(337.133 139)"><path class="b" d="M570.39,182.723c0-.15-.02-.3-.03-.45-.09-1.094-.225-2.2-.4-3.3a43.738,43.738,0,0,0-1.514-6.369,48.563,48.563,0,0,0-15.18-22.428c-.57-.475-1.149-.939-1.738-1.384a47.691,47.691,0,0,0-42.814-7.737,48.84,48.84,0,0,0-32.179,31.834c-4.341,13.912-1.139,27.823,5.6,40.8,8.826,16.994,23.722,32.379,35.685,44.033a11.332,11.332,0,0,0,3.672,2.7,8.022,8.022,0,0,0,1.384.375v.125a8.125,8.125,0,0,0,1.374-.385,11.31,11.31,0,0,0,3.641-2.727c11.838-11.749,26.579-27.249,35.256-44.322q.839-1.648,1.6-3.322a72.331,72.331,0,0,0,3.027-7.753A51.615,51.615,0,0,0,570.39,182.723Zm-17.1,18.882a34.337,34.337,0,1,1-8.657-42.169c.574.475,1.134.969,1.678,1.489a34.221,34.221,0,0,1,10.5,20.57,35.342,35.342,0,0,1,.28,4.271A34.2,34.2,0,0,1,553.286,201.6Z" transform="translate(-474.553 -139)"/><path class="b" d="M619.909,260.814l-2.453-7.445a3.861,3.861,0,0,1-.288-1.785c.157-.988,1.027-1.675,1.652-2.457a5.163,5.163,0,0,0,.475-5.8,4.287,4.287,0,0,0-5.413-1.584,3.755,3.755,0,0,0-1.691,4.347.624.624,0,0,0,.993.293,1.789,1.789,0,0,1,2.272-.12,1.932,1.932,0,0,1-.087,2.985,4.762,4.762,0,0,1-2,.784c-2.884.525-6.552.255-9.1-1.345-2.1-1.319-2.517-3.8-2.308-6.1a17.549,17.549,0,0,1,4.216-10.423,3.692,3.692,0,0,0,1.323-2.5c-.083-1.057-1.131-1.771-2.143-2.1a2.587,2.587,0,0,0-2.352.161,3.105,3.105,0,0,0-.89,2.089c-.429,2.773-.824,4.782-1.025,7.586-.12,1.674-.4,3.611-.656,5.756a.333.333,0,0,1-.656.035c-.151-.6-.166-1.4-.232-1.814a6.755,6.755,0,0,0-.3-1.495,14.609,14.609,0,0,0-2.127-4.046,12.626,12.626,0,0,0-1.707-1.815c-.127-.114-1.83-1.672-1.945-1.465a.165.165,0,0,0,0,.148,10.468,10.468,0,0,1,.737,5.7.336.336,0,0,1-.616.127q-.1-.151-.193-.3a12.211,12.211,0,0,0-1.325-1.713,8.179,8.179,0,0,0-.789-.733c-.181-.147-.686-.639-.766-.145a2.23,2.23,0,0,0,.036.435q.025.424.014.849a9.824,9.824,0,0,1-.192,1.685,1.748,1.748,0,0,1-.342.831,1.946,1.946,0,0,1-1.5.435l-7.809.032a1.429,1.429,0,0,0-.831.174c-.409.289-.4.888-.335,1.385a13.966,13.966,0,0,0,1.571,5.439,5.892,5.892,0,0,0,4.548,3.054c2.417.119,4.893-1.7,7.085-.017a3.558,3.558,0,0,1,.8.863,6.872,6.872,0,0,1,.909,4.174,21.687,21.687,0,0,1-1.284,6.525l-.026.073c-.189.379-.385.755-.588,1.13-.425.787-.889,1.551-1.323,2.333a.577.577,0,0,1-.758.324,4.174,4.174,0,0,0-5,2.785c2.459.11,4.892.237,7.326.313a1.614,1.614,0,0,0,1.168-.641,10.935,10.935,0,0,0,1.866-2.688c.32-.665.641-.515,1.246-.4a17.117,17.117,0,0,0,10.647-1.531,26.016,26.016,0,0,0,2.926-1.876,18.5,18.5,0,0,0,5.473,4.371,4.04,4.04,0,0,0-1.948,2.644,54.461,54.461,0,0,0,8.124-.116A60.038,60.038,0,0,0,619.909,260.814Zm-15.937-31.292c.177-.413.356-.844.925-.5.5.3,1.039.6.626,1.337a6.936,6.936,0,0,1-1.486,1.75.373.373,0,0,1-.62-.326A8.572,8.572,0,0,1,603.972,229.522Z" transform="translate(-553.501 -205.463)"/></g></g></svg>