<svg xmlns="http://www.w3.org/2000/svg" width="79" height="79" viewBox="0 0 79 79"><defs><style>.a{fill:#d8e7eb;}.b{fill:#fff;}</style></defs><g transform="translate(-58 -271)"><circle class="a" cx="39.5" cy="39.5" r="39.5" transform="translate(58 271)"/><g transform="translate(71.747 287.545)"><path class="b" d="M2588.6-348.052c-.623-.085-1.115-.121-1.592-.222a47.4,47.4,0,0,0-16.6-.419,17.979,17.979,0,0,1-4.744.422c-5.059-.676-6.975-4.565-4.466-9.024a16.056,16.056,0,0,1,3.147-3.722,14.774,14.774,0,0,0,4.911-8.5c.038-.225.109-.444.164-.667,1.057-4.31,4.165-6.913,8.256-6.914a8.127,8.127,0,0,1,8.2,6.932,16.411,16.411,0,0,0,5.628,9.622,6.551,6.551,0,0,1,1.422,1.485,16.516,16.516,0,0,1,1.933,3.7c.994,3.323-.534,5.91-3.876,6.861C2590.174-348.274,2589.322-348.185,2588.6-348.052Z" transform="translate(-2552.509 394.507)"/><path class="b" d="M2530.833-382.49c-.068.62-.091,1.213-.2,1.789-.927,4.824-5.564,6.771-9.657,4.066a10.274,10.274,0,0,1-3.9-11.607,5.727,5.727,0,0,1,8.144-3.353C2528.975-389.759,2530.537-386.48,2530.833-382.49Z" transform="translate(-2516.531 407.021)"/><path class="b" d="M2737.736-385.205a10.338,10.338,0,0,1-4.529,8.461c-4.074,2.731-8.8.718-9.6-4.121a9.969,9.969,0,0,1,3.623-9.734c2.027-1.706,4.392-2.418,6.927-1.173C2736.823-390.46,2737.6-388.01,2737.736-385.205Z" transform="translate(-2687.389 407.141)"/><path class="b" d="M2684.032-469.523a10.4,10.4,0,0,1-3.029,7.429c-3.911,3.888-9.325,2.413-10.665-2.942a9.9,9.9,0,0,1,2.517-9.539c1.817-1.97,4.092-3.013,6.807-2.076s3.855,3.167,4.281,5.846C2684.013-470.355,2684.008-469.893,2684.032-469.523Z" transform="translate(-2643.261 477)"/><path class="b" d="M2585.48-467.131a26.1,26.1,0,0,1-1.263,4.072,5.712,5.712,0,0,1-8.251,2.428,10.173,10.173,0,0,1-3.741-12.9,5.8,5.8,0,0,1,8.536-2.259A11.1,11.1,0,0,1,2585.48-467.131Z" transform="translate(-2561.701 476.844)"/></g></g></svg>