<svg xmlns="http://www.w3.org/2000/svg" width="159.907" height="160.889" viewBox="0 0 159.907 160.889"><defs><style>.a{fill:#f0f6f8;opacity:0.999;}.b{fill:#b495fa;}.c{fill:#00cec1;}.d{fill:#04b2a1;}.e{fill:#f7dbd5;}.f{fill:#edc6bd;}.g{fill:#00002c;}.h{fill:#c3dbea;}.i{fill:#0099f2;}.j,.o{fill:#f2a989;}.k{fill:#0099f4;}.l{fill:#140c23;}.m{fill:#c4907b;}.n{fill:#e7a183;}.n,.o{stroke:#f2a989;}.p{fill:#dd977a;}.q{fill:#663818;}.r{fill:#ff7b7d;}.s{fill:#fff;}.t{fill:#cda096;}.u{fill:#f6a309;}.v{fill:#ffc240;}.w{fill:#0bf;}.x{fill:#d6aea4;}.aa,.y{fill:none;}.z{fill:#bd9288;}.aa{stroke:#00cec1;stroke-linecap:round;stroke-width:30px;}</style></defs><g transform="translate(-62.557 -94.418)"><path class="a" d="M200.92,377.679a41.538,41.538,0,0,0,9.558-1.215c.666-.192,1.448-.616,1.239-1.144-.151-.383-.736-.526-1.238-.609a154.864,154.864,0,0,0-22.3-2.081c-5.5-.114-11,.061-16.507.174-7.565.155-15.133.169-22.7.151-5.661-.014-11.323.027-16.984.043a69.925,69.925,0,0,1-7.9-.067c-1.575-.179-2.993-.694-4.6-.8-5.6-.363-11.476.088-17.094.14l-16.759.155c-7.964.074-16.072.165-23.646,2.087-3.619.919-3.054,2.995-.091,4.262,2.636,1.128,6.165,1.208,9.089,1.323,11.324.447,22.673.165,34.006-.117l46.546-1.158c7.062-.176,14.334-.88,21.316-.8,7.671.086,15.339.088,23.005-.153Q198.393,377.792,200.92,377.679Z" transform="translate(3.082 -125.027)"/><path class="b" d="M1683.733-390.192a41.6,41.6,0,0,1,18.352-12.332c15.857-5.118,30.338-2.365,42.9,8.62,11.265,9.853,16.357,22.651,16.04,37.492a46.6,46.6,0,0,1-13.1,32.092c-2.942,3.088-6.315,5.767-9.512,8.609q-24.818,22.059-49.635,44.119c-1.745,1.554-3.607,2.782-5.983,2.25a8.874,8.874,0,0,1-3.794-1.825c-8.113-7.106-16.136-14.313-24.191-21.485-11.184-9.959-22.4-19.879-33.544-29.887a45.15,45.15,0,0,1-12.629-19.74,48.951,48.951,0,0,1-2.335-20.277c1.981-20.865,17.237-38.912,38.219-41.992,15.139-2.222,28.048,2.611,38.6,13.708C1683.292-390.652,1683.473-390.464,1683.733-390.192Z" transform="translate(-1538.574 499.495)"/><g transform="translate(66.356 142.094)"><g transform="translate(84.751 55.671)"><path class="c" d="M3437.528,706.066q-.2,1.391-.474,2.994l-.031-.005a5.163,5.163,0,0,1-2.792-1.408,9.267,9.267,0,0,1-2.325-5.425,11.8,11.8,0,0,1-.1-1.389h1.515l1.516,0v0a10.3,10.3,0,0,0,.379,2.528,4.806,4.806,0,0,0,1.127,2.117,2.094,2.094,0,0,0,1.151.584Z" transform="translate(-3431.81 -700.83)"/></g><path class="d" d="M3306.748,704.961l-.673-4.1-3.386,3.675,2.83.961Z" transform="translate(-3230.985 -645.187)"/><path class="e" d="M3324.284,455.985c-.283-.169-.792-.029-1.242.137-.326.12-.623.256-.781.3-.079.021-.156.041-.235.061a15.386,15.386,0,0,1-2.716.4,15.7,15.7,0,0,1-3.99-.251,2.451,2.451,0,0,1-.391-.108.781.781,0,0,1-.583-.592.716.716,0,0,1,.4-.664,2.129,2.129,0,0,1,.792-.2,21.214,21.214,0,0,0,4.56-.913,8.568,8.568,0,0,0,2.989-1.74,6.222,6.222,0,0,0,.784-.876,5.31,5.31,0,0,0,.962-2.268,1.7,1.7,0,0,0-.573-.834,2.534,2.534,0,0,0-1.148-.311,3.392,3.392,0,0,1-1.17-.243,1.037,1.037,0,0,1-.635-.936.881.881,0,0,1,.209-.493l-4.826,1.913a9.519,9.519,0,0,1-2.556.872,4.718,4.718,0,0,1-2.513-.56c-1.067-.544-2-1.328-3.079-1.845a8.389,8.389,0,0,0-4.01-.76,1.693,1.693,0,0,0-1.1,1.453,6.106,6.106,0,0,0,.424,2.266,2.968,2.968,0,0,1-.045,2.258c-.2.346-.509.612-.726.946-.649,1-.308,2.306-.246,3.5.006.121.008.242.008.363l.1.061a29.113,29.113,0,0,0,3.549,2.112,3.127,3.127,0,0,1-.216-.583,4.583,4.583,0,0,0-.365-.664c-.252-.385-.531-.717-.771-1.116a2.318,2.318,0,0,1-.374-.9.8.8,0,0,1,.4-.825,1.09,1.09,0,0,1,.985.235,9.748,9.748,0,0,1,2.487,2.624c.947,1.37,1.719,2.865,2.794,4.145a5.838,5.838,0,0,0,2.132,1.555c.177-.235.358-.465.546-.695a9.65,9.65,0,0,1,2.307-2.117,18.233,18.233,0,0,1,4.077-1.581,7.961,7.961,0,0,0,3.741-2.175.885.885,0,0,0,.258-.571.469.469,0,0,0-.214-.376Zm-14.418-4.237a1.1,1.1,0,1,1,.18-1.381,1,1,0,0,1-.181,1.381Z" transform="translate(-3230.985 -416.129)"/><path class="f" d="M3257.453,445.8a4.788,4.788,0,0,1-6.31,3.6c-.531-.189-1.719-.846-1.36-1.489.336-.6,1.712-1.119,2.317-1.377A10.21,10.21,0,0,1,3257.453,445.8Z" transform="translate(-3183.366 -415.821)"/><path class="g" d="M3517.916,154.885c.461-.185,1.01-.978,1.41-1.308a21.7,21.7,0,0,1,1.932-1.368,13.849,13.849,0,0,1,3.615-1.831,12.04,12.04,0,0,1,8.517.644,14.715,14.715,0,0,1,5.681,5.223c1.62,2.341,2.1,5.447,3.662,7.922a12.5,12.5,0,0,0,5.619,5.025c2.528,1.047,5.151,1.95,7.2,3.844a8.194,8.194,0,0,1,2.463,4.766,7.663,7.663,0,0,1-.774,5.041q-.8-.731-1.651-1.395a14.835,14.835,0,0,0-2.309-1.3,18.836,18.836,0,0,0-5.42-1.849c-2.054-.351-4.215-.354-6.122-1.175-.066-.029-.139-.06-.208-.092a10.756,10.756,0,0,1-4.823-5.343c-.062-.133-.125-.266-.184-.4-.32-.707-.6-1.43-.872-2.158-.193-.522-.381-1.047-.57-1.572-.292-.809-.588-1.617-.921-2.409-.042-.1-.085-.2-.128-.3-.158-.362-.327-.722-.508-1.076a11.168,11.168,0,0,0-3.685-4.424,31.956,31.956,0,0,1,3.017,4.628,2.79,2.79,0,0,0-1.571,2.424,8.435,8.435,0,0,1-5.605-1.216,18.357,18.357,0,0,1-4.583-4.177l-.3-.356a7.687,7.687,0,0,0-2.3-2.131c-.9-.417-1.549.45-2.005,1.214a8.539,8.539,0,0,0-1.05,5.649c.082.586.283,1.16.357,1.74a3.268,3.268,0,0,1-1.032-.549,9.409,9.409,0,0,1-.947-.688,4.842,4.842,0,0,1-1.566-2.409,6.443,6.443,0,0,1,1.409-5.651A10.474,10.474,0,0,1,3517.916,154.885Z" transform="translate(-3419.236 -149.885)"/><path class="h" d="M3782.236,1094.516l1.015,1.159a89.483,89.483,0,0,0-8.1,8.532,10.952,10.952,0,0,1-3.183,2.972c-2.24,1.148-4.99,1.129-7.451,1.031a1.729,1.729,0,0,1-1.151-.332,1.167,1.167,0,0,1-.266-1.111c2.259-.308,4.677.415,6.814-.405a10.014,10.014,0,0,0,3.4-2.622Q3777.771,1099.128,3782.236,1094.516Z" transform="translate(-3644.83 -999.064)"/><path class="i" d="M3774.851,1071.634l5.138-6.554,2.6,2.974q-4.467,4.612-8.93,9.224a10.009,10.009,0,0,1-3.4,2.622c-2.136.82-4.555.1-6.813.405a1.975,1.975,0,0,1,.167-.488,3.84,3.84,0,0,1,1.882-1.7c.915-.42,2.089-.4,2.89-1a5,5,0,0,0,1.438-2.126,24.133,24.133,0,0,0,1.323-3.791c.023-.094.041-.184.053-.266A10.08,10.08,0,0,1,3774.851,1071.634Z" transform="translate(-3645.182 -972.602)"/><path class="j" d="M3795.523,992.615q-2.568,3.278-5.138,6.554a10.073,10.073,0,0,0-3.653-.7c.14-.892-.249-1.272-.97-1.92q-.9-.81-1.833-1.584-1.571-1.309-3.2-2.535l7.672-7.962Q3791.962,988.543,3795.523,992.615Z" transform="translate(-3660.718 -900.137)"/><path class="k" d="M3740.713,863.363q-3.835,3.985-7.672,7.962c-1.756-1.328-3.554-2.6-5.362-3.852q.564-8.862,1.129-17.723Q3734.761,856.556,3740.713,863.363Z" transform="translate(-3613.031 -779.031)"/><path class="g" d="M3740.913,340.341c.27.731.552,1.45.872,2.158a6.572,6.572,0,0,1-.968-.52q-.18-.671-.391-1.333A3.224,3.224,0,0,0,3740.913,340.341Z" transform="translate(-3624.49 -321.096)"/><path class="j" d="M3733.214,344.718a6.8,6.8,0,0,1-1.244-1.03,3.328,3.328,0,0,0,.854-.3Q3733.035,344.047,3733.214,344.718Z" transform="translate(-3616.889 -323.832)"/><path class="l" d="M3735.809,324.815c.188.524.376,1.05.57,1.572a3.206,3.206,0,0,1-.488.3q-.235-.742-.508-1.473A1.839,1.839,0,0,0,3735.809,324.815Z" transform="translate(-3619.956 -307.139)"/><path class="l" d="M3725.657,303.334a1.851,1.851,0,0,1-.426.4q-.509-1.368-1.141-2.685a.5.5,0,0,1,.044-.023,1.177,1.177,0,0,1,.6-.1C3725.068,301.718,3725.364,302.526,3725.657,303.334Z" transform="translate(-3609.805 -285.658)"/><path class="m" d="M3719.875,304.921a2.012,2.012,0,0,1-.5.252l-.006-.018a.612.612,0,0,1-.723-.428.731.731,0,0,0-.492-1.248,1.173,1.173,0,0,1,.582-1.244Q3719.366,303.551,3719.875,304.921Z" transform="translate(-3604.448 -286.841)"/><path class="l" d="M3718.751,288.412c.043.1.086.2.128.3a1.176,1.176,0,0,0-.6.1l-.044.023q-.315-.657-.658-1.3.073-.036.15-.066a2.589,2.589,0,0,1,.519-.14C3718.425,287.69,3718.594,288.05,3718.751,288.412Z" transform="translate(-3603.948 -273.445)"/><path class="j" d="M3543.822,241.854a12.153,12.153,0,0,1-.5-3.312,7.193,7.193,0,0,1,1.594-4.677c1.316-1.425,3.061.816,3.955,1.871.1.118.2.236.3.356a18.341,18.341,0,0,0,4.583,4.177,8.431,8.431,0,0,0,5.605,1.216,2.791,2.791,0,0,1,1.571-2.424q.344.643.658,1.3a1.173,1.173,0,0,0-.581,1.244.731.731,0,0,1,.491,1.248.616.616,0,0,0,.181.288.625.625,0,0,0,.541.14l.006.018a2.008,2.008,0,0,0,.5-.252q.274.731.508,1.473a3.32,3.32,0,0,1-.853.3,6.824,6.824,0,0,0,1.245,1.03,6.582,6.582,0,0,0,.968.52c.059.133.122.266.184.4a10.758,10.758,0,0,0,4.823,5.343c.066.032.137.062.208.092-1.15,1.344-2.3,2.685-3.447,4.033q-1.369-1.125-2.831-2.126c-.93-.639-1.871-1.521-3.086-1.292a5.256,5.256,0,0,0-2.237,1.216c-1.291,1.044-2.863,2.008-4.553,1.233a6.8,6.8,0,0,1-1.235-.8l-1.219-.922c-.656-.5-.028-1.262.114-1.907a6.1,6.1,0,0,0,.142-1.508c0-.094-.164-1.559-.5-1.075a10.356,10.356,0,0,1-1.156,1.4q-.328.332-.684.638c-.169.145-.36.382-.593.4-.421.037-1.122-1.262-1.248-1.206-.683.3-1.563.563-2.1.049-.509-.486-.344-1.312-.251-2.011C3545.223,246.121,3544.395,244.01,3543.822,241.854Zm9.171,3.188a1.736,1.736,0,1,0-1.736,1.736,1.736,1.736,0,0,0,1.736-1.736Zm-5.061.326c.3-.156.317-.731.032-1.281s-.76-.873-1.063-.719-.316.731-.031,1.282.76.873,1.063.718Z" transform="translate(-3447.306 -224.966)"/><path class="g" d="M3691.406,248.017a2.584,2.584,0,0,0-.519.14,1.49,1.49,0,0,0-.15.066,31.914,31.914,0,0,0-3.017-4.628A11.165,11.165,0,0,1,3691.406,248.017Z" transform="translate(-3577.11 -234.126)"/><circle class="n" cx="1.736" cy="1.736" r="1.736" transform="translate(102.215 18.342)"/><path class="o" d="M3577.677,332.393c.284.552.27,1.125-.031,1.281s-.778-.166-1.063-.718-.271-1.129.032-1.282S3577.393,331.84,3577.677,332.393Z" transform="translate(-3477.019 -313.27)"/><path class="e" d="M3355.028,477.184a2.1,2.1,0,0,1-.817,2.42c-.729.369-1.546-.116-1.824-1.084a2.222,2.222,0,0,1,.572-2.259C3353.723,475.772,3354.642,476.182,3355.028,477.184Z" transform="translate(-3275.578 -443.096)"/><path class="p" d="M3265.222,549.935l-.035.066a11.1,11.1,0,0,1-3.835-2.474c.015-.066.027-.126.04-.19.023-.121.043-.241.061-.363A13.981,13.981,0,0,0,3265.222,549.935Z" transform="translate(-3193.826 -506.849)"/><path class="q" d="M3490.3,445.7a4.277,4.277,0,0,1,.168,2.138,1.7,1.7,0,0,0-.573-.834,2.533,2.533,0,0,0-1.148-.312,3.388,3.388,0,0,1-1.17-.242,1.037,1.037,0,0,1-.635-.936.88.88,0,0,1,.21-.494l.822-.325a2.168,2.168,0,0,1,1.141-.225A1.733,1.733,0,0,1,3490.3,445.7Z" transform="translate(-3396.621 -414.694)"/><path class="r" d="M3433.434,532.377a.389.389,0,0,1,.152.441.466.466,0,0,1-.417.278,1.684,1.684,0,0,0-1.242.137,2.08,2.08,0,0,0-.066-.664c-.017-.06-.043-.128-.1-.148-.083-.027-.156.058-.2.133l-.644,1.036a15.383,15.383,0,0,1-2.715.4,15.7,15.7,0,0,1-3.99-.251,2.421,2.421,0,0,1-.391-.108c1.129-.109,2.27-.046,3.4-.125a6.185,6.185,0,0,0,3.481-1.142,1.642,1.642,0,0,1,.985-.527c.408.013.726.382,1.129.442C3433.021,532.312,3433.256,532.261,3433.434,532.377Z" transform="translate(-3339.87 -493.241)"/><path class="s" d="M3495.024,537.76a2.094,2.094,0,0,1,.066.664c-.327.121-.624.256-.782.3l-.234.06.644-1.036c.046-.075.12-.16.2-.133C3494.98,537.631,3495.007,537.7,3495.024,537.76Z" transform="translate(-3403.031 -498.43)"/><path class="f" d="M3108.669,793.2a111.732,111.732,0,0,0,1.577,13.417,9.7,9.7,0,0,1-1.461.313,47.64,47.64,0,0,1-.5-13.949C3108.5,792.882,3108.656,792.955,3108.669,793.2Z" transform="translate(-3055.958 -727.958)"/><path class="j" d="M3615.072,1066.8q-.271,4.256-.542,8.509l-9.033,1.742a9.1,9.1,0,0,0-2.784-3.081c.086-.083.168-.17.249-.26,1.513-1.708,1-4.373,1.014-6.483v-.435l.169.009Z" transform="translate(-3500.692 -974.144)"/><path class="i" d="M3474.3,1140.927l9.033-1.742q-.2,3.146-.4,6.294h-26.164a2.175,2.175,0,0,1,.7-1.129,5.7,5.7,0,0,1,2.059-.956,63.054,63.054,0,0,0,9.276-3.772,10.423,10.423,0,0,0,2.711-1.773A9.1,9.1,0,0,1,3474.3,1140.927Z" transform="translate(-3369.498 -1038.017)"/><path class="h" d="M3457.9,1215.233a1.809,1.809,0,0,1-1.412-.952,1.44,1.44,0,0,1-.074-.911h26.163c-.03.455-.058.91-.087,1.365l-23.248.588A6.117,6.117,0,0,1,3457.9,1215.233Z" transform="translate(-3369.142 -1105.907)"/><path class="p" d="M3245.084,585.031a4.981,4.981,0,0,1-2.79-1.7c.136-.135.265-.276.388-.421A11.916,11.916,0,0,0,3245.084,585.031Z" transform="translate(-3176.694 -539.155)"/><path class="p" d="M3428.405,616.537a5.715,5.715,0,0,0,2-.258,4.769,4.769,0,0,1-2.282,1.082,8.245,8.245,0,0,1-2.744-.236,80.632,80.632,0,0,1-12.542-3.683c-.863-.332-1.7-.594-2.485-.951.177-.235.358-.465.546-.695l14.09,4.052A14.586,14.586,0,0,0,3428.405,616.537Z" transform="translate(-3327.773 -565.12)"/><path class="f" d="M3072.657,928.595a9.682,9.682,0,0,0,1.461-.313q.124.709.262,1.416.359,1.86.778,3.707a83.578,83.578,0,0,0-1.552,18.629,6.777,6.777,0,0,0,1.434,4.4c.4.41.93.817.9,1.387-.031.809-1.071,1.081-1.869,1.124l-.07,0h-1.45a3.321,3.321,0,0,1-2.437-1.05,4.484,4.484,0,0,1-.755-1.867,81.326,81.326,0,0,1-.723-27.548q1.107.147,2.223.191A10.389,10.389,0,0,0,3072.657,928.595Z" transform="translate(-3019.831 -849.627)"/><path class="f" d="M2674.151,872.863c.357.055.712.116,1.068.182-2.242,6.19-7.245,10.1-11.745,14.694-2.989,3.051-5.639,6.731-5.934,11.242a9.176,9.176,0,0,0,2.738,7.439,2.755,2.755,0,0,1,.782.873c.362.84-.527,1.5-1.367,1.633a4.5,4.5,0,0,1-.7.053,6.474,6.474,0,0,1-5.313-3.139,11.129,11.129,0,0,1-1.158-4.957c-.09-1.271-.18-2.549-.247-3.825,1.366-3.7,4.189-6.805,7.189-9.441,3.474-3.055,7.329-5.73,10.256-9.309a24.388,24.388,0,0,0,3.418-5.579C2673.475,872.765,2673.812,872.812,2674.151,872.863Z" transform="translate(-2646.291 -799.688)"/><path class="t" d="M2686.566,678.08a15.609,15.609,0,0,0-1.986,4.59,20.175,20.175,0,0,1-3.419-1.536A12.726,12.726,0,0,1,2686.566,678.08Z" transform="translate(-2672.261 -624.707)"/><path class="f" d="M3206.43,767.958a8.428,8.428,0,0,1,.168,3.188q-.232,3.1-.465,6.2-.275.306-.552.61-.3.326-.6.65a79.01,79.01,0,0,1,1.2-10.594C3206.284,767.946,3206.327,768.024,3206.43,767.958Z" transform="translate(-3143.154 -705.503)"/><path class="c" d="M3192.615,620.545q-.871,1.17-1.764,2.325-.242.315-.488.63a44.966,44.966,0,0,1-13.269-13.061,10.4,10.4,0,0,0,2.048-1.268l.006.007A46.655,46.655,0,0,0,3192.615,620.545Z" transform="translate(-3118.081 -562.761)"/><path class="k" d="M3523.883,752.388a57.152,57.152,0,0,0-.24,6.513q-.023,5.615-.045,11.225a59.422,59.422,0,0,1-5.631-5.11,19.452,19.452,0,0,1-3.782-5.168,8.96,8.96,0,0,1-.646-6.26,6.319,6.319,0,0,1,2.02-3.037l1.5.531C3519.257,751.869,3521.585,752.666,3523.883,752.388Z" transform="translate(-3420.267 -689.856)"/><path class="p" d="M3257.215,568.419a8.056,8.056,0,0,1-3.068-1.926q.15-.266.276-.548A16.407,16.407,0,0,0,3257.215,568.419Z" transform="translate(-3187.348 -523.903)"/><path class="j" d="M3242.482,528.556a13.989,13.989,0,0,1-3.768-2.962,16.274,16.274,0,0,1,.3-1.884c.066.039.125.078.182.118q1.868,1.3,3.852,2.43a29.155,29.155,0,0,0,3.549,2.112,3.146,3.146,0,0,1-.216-.583,4.536,4.536,0,0,0-.365-.664c-.252-.385-.531-.717-.771-1.116a2.315,2.315,0,0,1-.374-.9.8.8,0,0,1,.4-.825,1.088,1.088,0,0,1,.985.234,9.743,9.743,0,0,1,2.488,2.624c.947,1.37,1.719,2.865,2.793,4.145a5.838,5.838,0,0,0,2.132,1.555c.781.357,1.624.62,2.486.951a80.588,80.588,0,0,0,12.542,3.683,8.24,8.24,0,0,0,2.745.237,4.769,4.769,0,0,0,2.281-1.082h0a18.87,18.87,0,0,0,2.623-2.783q4.357-5.265,8.562-10.655,4.961,3.841,9.623,8.05l-1.661,1.62-7.041,6.855c-2.474-.72-5.134-.961-7.251.388-2.524,1.609-3.5,4.708-3.876,7.9-2.3.278-4.626-.516-6.828-1.3l-1.5-.531-3.083-1.1c-3.838-1.367-7.727-2.59-11.528-4.061-1.167-.45-2.325-.92-3.472-1.426q-1.072-.473-2.126-.991a30.058,30.058,0,0,1-4.644-2.723,28.12,28.12,0,0,1-5.47-5.669,6.608,6.608,0,0,0,.627-.555,4.98,4.98,0,0,0,2.79,1.7,11.922,11.922,0,0,1-2.4-2.12,7.121,7.121,0,0,0,.812-1.169,8.06,8.06,0,0,0,3.068,1.926,16.423,16.423,0,0,1-2.79-2.478,7.016,7.016,0,0,0,.451-1.362,11.1,11.1,0,0,0,3.835,2.474Z" transform="translate(-3171.086 -485.47)"/><path class="u" d="M3799.931,543.14l6.892-6.709a35.171,35.171,0,0,1-7.756,10.982,18.065,18.065,0,0,1-.8-2.652Z" transform="translate(-3676.49 -497.372)"/><path class="v" d="M3724.747,423.492c1.143-1.349,2.3-2.69,3.446-4.034,1.908.821,4.069.824,6.123,1.175a18.832,18.832,0,0,1,5.42,1.849,14.841,14.841,0,0,1,2.309,1.3q.849.664,1.651,1.395a46.07,46.07,0,0,1,8.418,10.8q.92,1.561,1.747,3.174a37.986,37.986,0,0,1,4.407,15.211,24.991,24.991,0,0,1-3.883,15.189,16.449,16.449,0,0,1-1.765,2.214,5.907,5.907,0,0,1-1.644-1.943,39.675,39.675,0,0,1-1.534-3.739,15.316,15.316,0,0,0-3.557-5.111,31.047,31.047,0,0,0-5.1-3.466c-1.449-.92-2.886-1.854-4.326-2.778.144-2.435.133-5.687-1.7-6.932a10.588,10.588,0,0,0-2.266-.879,7.55,7.55,0,0,1-3.91-3.932q-.169-.357-.313-.721a35.149,35.149,0,0,0,7.756-10.984l-6.892,6.709q-4.656-4.206-9.623-8.05l.6-.768C3721.605,427.239,3723.166,425.357,3724.747,423.492Z" transform="translate(-3605.685 -392.218)"/><path class="w" d="M3615.56,689.794c.378-3.193,1.351-6.292,3.876-7.9,2.116-1.349,4.777-1.108,7.251-.388.571.165,1.129.357,1.674.561a76.61,76.61,0,0,1,14.352,7.7c1.44.924,2.878,1.86,4.327,2.778a31.142,31.142,0,0,1,5.1,3.466,15.314,15.314,0,0,1,3.557,5.111,39.5,39.5,0,0,0,1.534,3.739,5.906,5.906,0,0,0,1.644,1.943,10.261,10.261,0,0,1-4.877,3.012c-2.741.68-5.626-.108-8.266-1.116a66.948,66.948,0,0,1-18.008-10.805c0,.03,0,.059-.006.089q-.565,8.862-1.129,17.723-.134,2.109-.27,4.218H3615.4l-.169-.009q.013-3.822.029-7.644.01-2.367.02-4.734.022-5.613.044-11.225A57.266,57.266,0,0,1,3615.56,689.794Z" transform="translate(-3511.944 -627.263)"/><path class="x" d="M3202,593.508q-.373-.465-.727-.94c-.045.036-.092.072-.139.107a7.163,7.163,0,0,1-3.511,1.355c-.085.075-.173.148-.261.219l.006.007c.055.067.112.133.167.2A7.4,7.4,0,0,0,3202,593.508Z" transform="translate(-3136.305 -547.835)"/><path class="e" d="M3212.94,609.307a30.087,30.087,0,0,1-4.644-2.723,26.719,26.719,0,0,1-4.743-4.728,7.406,7.406,0,0,1-4.464.948c3.7,4.519,7.76,9.4,12.852,12.25.908-1.214,2.247-3.528,3.123-4.762Q3213.99,609.825,3212.94,609.307Z" transform="translate(-3137.854 -556.186)"/><path class="y" d="M2878.161,741.1c.028-.076.054-.153.081-.23q-.1-.508-.216-1.014Q2878.11,740.477,2878.161,741.1Z" transform="translate(-2849.233 -680.242)"/><path class="f" d="M2861.215,739.971q-.067-.187-.14-.373a.518.518,0,0,0-.144-.23.181.181,0,0,0-.247.01.265.265,0,0,0-.029.193c.095.9.25,1.817.286,2.723a19.576,19.576,0,0,1-.1,2.443,25.227,25.227,0,0,1-.708,4.138q-.266,1.018-.608,2.011a11.206,11.206,0,0,1-.756,1.915q.507.06,1.013.138.256.039.51.083a19.066,19.066,0,0,0,1.415-5.294c.08-.673.109-1.35.182-2.023a12.916,12.916,0,0,0-.678-5.733Zm.141,4.849v0Zm-.014-.826v0Zm.01.414v-.058c0,.018,0,.038,0,.057Zm-.4,4.6c-.011.058-.022.118-.034.176.013-.063.024-.119.035-.177Zm.4-3.86v.09c0-.031,0-.061,0-.091Zm-.01.4a.887.887,0,0,1,0,.1c0-.033,0-.065,0-.1Zm-.017.405c0,.033,0,.066-.005.1,0-.033,0-.066.006-.1Zm-.025.407c0,.031,0,.061-.006.092a.621.621,0,0,0,0-.092Zm-.032.407c0,.025,0,.049-.007.073,0-.025.005-.047.008-.074Zm-.185,1.5c0,.031-.009.063-.015.094.006-.032.01-.064.015-.1Zm-.058.349c-.01.052-.017.1-.028.154.011-.053.02-.1.029-.155Zm-.748,2.984c.024-.073.049-.146.072-.22-.022.072-.047.145-.071.219Zm.128-.4c.022-.071.043-.142.066-.213-.022.066-.043.137-.065.208Zm.12-.4.059-.207q-.029.1-.058.2Zm.111-.4.052-.2c-.017.062-.035.127-.054.2Zm.1-.4q.024-.1.046-.2c-.015.064-.031.129-.046.194Zm.094-.406c.014-.062.028-.125.04-.187-.013.058-.026.121-.04.18Zm-.895,2.969q-.074.192-.151.383.078-.2.151-.387Zm.282-.78c-.026.077-.053.154-.08.231.029-.081.054-.158.08-.235Zm-.136.391c-.031.086-.067.171-.1.256.032-.09.064-.175.1-.261Z" transform="translate(-2831.926 -679.763)"/><path class="x" d="M2997.076,633.192c.473,1.3,1.813,2.236,1.993,3.612a7.587,7.587,0,0,1-.518,2.687,1.81,1.81,0,0,0,2.952,2.068,6.736,6.736,0,0,1,2.059-1.277c1.179-.3,2.348.4,3.484.833a5.675,5.675,0,0,0,3.993.168,3.471,3.471,0,0,0,2.31-3.07c0-.924-.435-1.933.052-2.719.569-.922,2.027-.881,2.681-1.746.68-.9.12-2.173-.449-3.147l-1.95-3.334a15.041,15.041,0,0,1-2.771.641,43.566,43.566,0,0,1-8.573-.086q-2.653-.167-5.314-.2C2997.441,629.319,2996.44,631.444,2997.076,633.192Z" transform="translate(-2956.058 -579.03)"/><path class="e" d="M2661.161,680.78a14.062,14.062,0,0,1-1.9-1.282,6.112,6.112,0,0,1-1.391-2.812c-2.431-8.5-3.442-19.537-2.948-29.521a78.975,78.975,0,0,1,1.2-10.594c.1-.066.143.015.247-.051a8.419,8.419,0,0,1,.168,3.188q-.232,3.1-.465,6.2,4.854-5.376,9.3-11.1a44.964,44.964,0,0,1-13.269-13.061,12.6,12.6,0,0,1-1.388.557l1.95,3.334c.569.973,1.129,2.248.449,3.147-.654.864-2.112.824-2.681,1.745-.486.787-.052,1.793-.052,2.719a3.471,3.471,0,0,1-2.31,3.07,5.674,5.674,0,0,1-3.993-.167c-1.136-.435-2.3-1.129-3.484-.833a6.733,6.733,0,0,0-2.059,1.277,1.81,1.81,0,0,1-2.952-2.068,7.6,7.6,0,0,0,.517-2.687c-.181-1.376-1.521-2.307-1.992-3.612-.635-1.748.365-3.873-.048-5.575q-2.6-.038-5.2.048a10.163,10.163,0,0,1-5.658,6.118c-1.785.735-4.083,1.23-4.646,3.077-.581,1.9,1.209,4.028.4,5.845-.638,1.437-2.488,1.785-4.058,1.888s-3.4.3-4.222,1.635c-.758,1.231-.274,2.824-.471,4.255-.418,3.037-3.74,4.742-6.747,5.342-.867.173-1.758.3-2.646.448-1.262,2.155-2.731,4.213-3.847,6.451-2.661,5.335-3.227,11.435-3.75,17.373a10.362,10.362,0,0,0,.37,4.956,5.331,5.331,0,0,0,4.812,3.14,4.662,4.662,0,0,0,.711-.054c.86-.133,1.854-.793,1.627-1.633a2.2,2.2,0,0,0-.644-.873c-1.839-1.9-2.132-4.861-1.554-7.439a13.834,13.834,0,0,1,.531-1.8c1.366-3.7,4.189-6.805,7.189-9.441,3.474-3.055,7.329-5.73,10.256-9.309a24.4,24.4,0,0,0,3.418-5.579A25.128,25.128,0,0,0,2622,634.921a12.818,12.818,0,0,1-1.958,3.5,12.818,12.818,0,0,0,1.958-3.5c-.029-.345-.084-.687-.124-1.032-.007-.055.008-.133.063-.129.031,0,.051.033.066.061a9.824,9.824,0,0,1,.754,2.941,19.141,19.141,0,0,1,.233,3.023,19.378,19.378,0,0,1-.4,3.866,19.008,19.008,0,0,1-.488,1.882,11.015,11.015,0,0,1-.664,1.787q.279.048.558.1a71.846,71.846,0,0,1,9.565,2.746,54.988,54.988,0,0,0,10.32,2.759q1.107.147,2.222.191a10.386,10.386,0,0,0,1.794-.084,47.631,47.631,0,0,1-.5-13.949c.224-.1.376-.023.39.22a111.585,111.585,0,0,0,1.577,13.417c.083.472.171.945.261,1.416q.359,1.86.778,3.707,1.236,5.447,3.008,10.751c.639,1.916,1.411,7.838,2.154,9.713q.563,1.426,1.166,2.836a3.463,3.463,0,0,0,1.56,2.051,1.76,1.76,0,0,0,.752.158c.429,0,.841-.122,1.311-.118.9.007,1.809.019,2.713.029a2.051,2.051,0,0,0,.828-.1.725.725,0,0,0,.46-.57A2.457,2.457,0,0,0,2661.161,680.78Z" transform="translate(-2593.085 -574.067)"/><path class="t" d="M2656.165,490.149c.2-.416-.3-.888-.763-.845a1.98,1.98,0,0,0-1.142.725,2.02,2.02,0,0,1-1.138.734c-.869.094-1.418-.887-1.721-1.706l-1.808,6.022a3.208,3.208,0,0,0-.2,1.312c.121.951,1.051,1.96.456,2.711-.266.337-.783.465-.934.868-.142.378.115.778.36,1.1,1.517,2,3.169,4.1,5.534,4.931l-.171.807a11.558,11.558,0,0,0,6.1-1.363c-2.831.139-5.533-.332-7.572-2.411a8.354,8.354,0,0,1-1.833-8.51c.864-2.361,3.166-4.247,5.784-3.662.245.055.484.133.724.207a4.214,4.214,0,0,0-.59-.883C2656.954,489.9,2656.4,489.806,2656.165,490.149Z" transform="translate(-2643.237 -454.785)"/><path class="x" d="M2634.63,479.821c-2.664.315-5.845,1.167-8.884,1.317a11.557,11.557,0,0,1-6.1,1.362l.171-.807c-2.366-.834-4.017-2.932-5.534-4.931-.244-.321-.5-.721-.36-1.1.151-.4.664-.531.934-.868.6-.751-.332-1.76-.456-2.711a3.216,3.216,0,0,1,.2-1.312l1.808-6.023c.3.82.852,1.8,1.721,1.706a2.017,2.017,0,0,0,1.138-.734,1.979,1.979,0,0,1,1.142-.725c.459-.043.963.43.764.845.234-.341.789-.25,1.088.034a4.206,4.206,0,0,1,.589.883,7.843,7.843,0,0,0,1.292.352,1.876,1.876,0,0,0,1.867-.66c.563-.887-.16-2.037-.967-2.711-3.99-3.333-10.045-1.469-12.853,2.5-2.7,3.824-2.775,8.855-1.17,13.093a15.735,15.735,0,0,0,5.766,7.334c.119.081.238.159.361.234a12.723,12.723,0,0,1,5.405-3.055,15.606,15.606,0,0,0-1.986,4.59c-1.351,5.04-.926,10.778-2.834,15.735a24.176,24.176,0,0,1-1.761,3.548c.887-.143,1.779-.274,2.646-.448,3.006-.6,6.328-2.306,6.746-5.342.2-1.432-.286-3.025.472-4.255.824-1.339,2.653-1.532,4.222-1.635s3.419-.452,4.058-1.888c.808-1.819-.982-3.943-.4-5.845.563-1.847,2.861-2.341,4.645-3.077a10.163,10.163,0,0,0,5.658-6.118Q2639.312,479.267,2634.63,479.821Z" transform="translate(-2608.248 -430.479)"/><path class="z" d="M3186.752,496.146c.22-.538.16-1.32-.393-1.5a1.329,1.329,0,0,0-.821.091l-2.644.883c-.413.138-.833.282-1.245.445a.1.1,0,0,1-.008.026l.043.04a17.6,17.6,0,0,0-1.981,2.531,20.273,20.273,0,0,0-2.408,6.167,1.038,1.038,0,0,0,0,.793.971.971,0,0,0,.77.355,7,7,0,0,0,1.446,0,7.163,7.163,0,0,0,3.511-1.355c.046-.035.094-.07.139-.107a6.566,6.566,0,0,0,.627-.555q.2-.2.388-.42a7.136,7.136,0,0,0,.813-1.169q.15-.266.276-.549a7,7,0,0,0,.452-1.362c.015-.066.027-.126.04-.19.023-.121.043-.241.062-.363a16.34,16.34,0,0,1,.3-1.885l.028.017a1.38,1.38,0,0,1-.026-.28A4.7,4.7,0,0,1,3186.752,496.146Z" transform="translate(-3118.195 -459.783)"/><path class="x" d="M3230.418,459.15c-.061-1.581-1.1-1.544-2.334-1.179a12.368,12.368,0,0,1-2.5.259c-1.672.14-3.024,1.567-3.858,3.127a8.822,8.822,0,0,0-.659,1.578c.411-.163.832-.307,1.245-.445l2.644-.883a1.329,1.329,0,0,1,.821-.091c.553.181.614.962.392,1.5a4.707,4.707,0,0,0-.626,1.613,1.434,1.434,0,0,0,.026.28c.054.033.106.066.154.1q.884.616,1.793,1.192.962.61,1.949,1.176c0-.121,0-.242-.008-.363-.062-1.19-.4-2.5.246-3.5.217-.332.531-.6.725-.946C3230.984,461.6,3230.458,460.2,3230.418,459.15Z" transform="translate(-3157.608 -426.653)"/><path class="aa" d="M3308.39,723.5" transform="translate(-3236.11 -665.54)"/><g transform="translate(58.65 45.361)"><path class="c" d="M3208.962,604.631s0,0,0,0q-.056-.753-.167-1.411c-.019-.116-.041-.229-.063-.341,0-.017-.006-.034-.01-.052a7.325,7.325,0,0,0-.591-1.818,4.992,4.992,0,0,0-1.234-1.656l-.066-.052-.058-.043a2.24,2.24,0,0,0-1.612-.446c-1.338.146-2.159,1.453-2.628,2.606a9.881,9.881,0,0,0-.386,1.153s0,0,0,0c-.015.052-.027.1-.04.147l1.938.492.026.006.974.248a7.219,7.219,0,0,1,.342-1c.012-.03.025-.061.039-.09.007.014.014.028.02.043a5.083,5.083,0,0,1,.377,1.34v0a32.7,32.7,0,0,1-.277,8.741q-.109.868-.249,1.835-.2,1.39-.475,2.993-.278,1.637-.64,3.509c-1.65,8.542-4.056,17.86-5.493,23.427-.181.7-.346,1.336-.494,1.915,0,.021-.011.041-.016.063a.9.9,0,0,1-.894.667.548.548,0,0,1-.1-.009l-.06-.011a1.787,1.787,0,0,1-1.367-1.707c-.088-3.05-.391-10.913-1.3-18.07a60.535,60.535,0,0,0-1.878-9.681,13.328,13.328,0,0,0-1.96-4.227,4.5,4.5,0,0,0-1.425-1.251c-.087-.047-.175-.089-.264-.126a3.287,3.287,0,0,0-.344-.126,5.8,5.8,0,0,1-.757-.3c-2.694-1.261-6.185-4.921-8.927-8.213-.93-1.116-1.772-2.189-2.47-3.111a0,0,0,0,1,0,0c-.106-.139-.207-.275-.305-.407l-.029-.038-.02-.027-.051.033c-.822.554-1.666,1.076-2.519,1.584.01.013.02.026.029.04.884,1.191,2.417,3.189,4.255,5.3,3.611,4.14,6.7,6.755,9.209,7.788q.358.148.7.253c.035.011.385.138.889,1.021.779,1.364,1.929,4.535,2.86,11.874.891,7.025,1.189,14.771,1.276,17.775a4.785,4.785,0,0,0,3.772,4.586c.06.013.12.024.179.034a3.84,3.84,0,0,0,.642.055,3.944,3.944,0,0,0,3.8-2.95c0-.016.008-.032.013-.05q.149-.579.3-1.16l.2-.762c3-11.614,5.728-22.988,6.856-31.483A45.059,45.059,0,0,0,3208.962,604.631Zm-3.633,9.714a2.793,2.793,0,0,0,.53.031l.088,3.03c-.061,0-.12,0-.18,0a5.733,5.733,0,0,1-.911-.071Q3205.129,615.734,3205.329,614.345Z" transform="translate(-3173.51 -598.799)"/></g><path class="c" d="M3484.8,755.712l-.179,0a5.743,5.743,0,0,1-.911-.071q.274-1.605.474-2.994a2.8,2.8,0,0,0,.53.031Z" transform="translate(-3393.715 -691.742)"/><path class="d" d="M3412.663,1068.515l-.013.05a3.917,3.917,0,0,1-1.711,2.34l-2.119-2.425a.9.9,0,0,0,.893-.667l.016-.063Z" transform="translate(-3326.392 -975.002)"/><path class="d" d="M3313.98,755.22h2.918l-2.03,1.021Z" transform="translate(-3241.135 -694.053)"/><path class="d" d="M3428.144,613.715c-1.186,8.851-4.026,20.773-6.976,32.273q-.15.581-.3,1.16c-.005.017-.009.033-.013.049l-2.907-.731c.006-.025.013-.051.019-.076l.49-1.9c1.438-5.567,3.844-14.883,5.493-23.426q.364-1.886.643-3.527l.473-2.994c.093-.643.176-1.251.249-1.829a32.552,32.552,0,0,0,.272-8.743v0a4.92,4.92,0,0,0-.394-1.369l-.009.021q-.032.07-.062.145l0-.1.006-.228.093-3.42a2.259,2.259,0,0,1,1.286.438l.057.042.066.053a4.912,4.912,0,0,1,1.262,1.677,6.8,6.8,0,0,1,.563,1.8c0,.017.007.034.01.051.02.11.04.223.058.339q.1.652.147,1.406v0A47.774,47.774,0,0,1,3428.144,613.715Z" transform="translate(-3334.599 -553.636)"/></g></g></svg>