<svg xmlns="http://www.w3.org/2000/svg" width="138.703" height="155.25" viewBox="0 0 138.703 155.25"><defs><style>.a{fill:#f0f6f8;opacity:0.999;}.b{fill:#00cec1;}.c{fill:#fff;}</style></defs><g transform="translate(-115 -155.015)"><path class="a" d="M178.807,376.79a35.046,35.046,0,0,0,8.064-1.025c.562-.162,1.222-.519,1.046-.965-.128-.323-.621-.444-1.044-.514a130.658,130.658,0,0,0-18.816-1.756c-4.641-.1-9.284.052-13.926.147-6.382.131-12.767.142-19.151.127-4.776-.012-9.553.022-14.329.036a58.987,58.987,0,0,1-6.666-.056c-1.329-.151-2.525-.585-3.878-.673-4.721-.306-9.682.074-14.421.118l-14.139.131c-6.719.062-13.56.139-19.949,1.761-3.053.775-2.577,2.526-.077,3.6,2.224.951,5.2,1.019,7.668,1.117,9.553.377,19.128.139,28.689-.1l39.269-.977c5.958-.148,12.093-.743,17.984-.676,6.471.073,12.941.075,19.409-.129Q176.674,376.885,178.807,376.79Z" transform="translate(57.082 -68.765)"/><g transform="translate(-1097.741 -318.751)"><path class="b" d="M1289.055,608.959c-10.585.415-19.882-3.376-28.772-8.45-7.6-4.341-15.141-8.8-22.675-13.262a51.46,51.46,0,0,1-24.177-52.564c1.426-8.631,5.385-16.017,9.673-23.366,3.648-6.252,7.329-12.483,10.865-18.8a21.9,21.9,0,0,1,31.23-8.036c2.157,1.363,3.336,1.219,4.914-.671a29.862,29.862,0,0,1,12.035-8.658c10.784-4.346,24.275,1.928,27.494,13.092.718,2.494,1.547,3.246,4.247,2.415,9.529-2.927,21.469,4.162,24.529,14.569a27.9,27.9,0,0,1-.869,17.7c-.79,2.166-.3,3.233,1.634,4.254,7.042,3.715,11.242,9.46,12.142,17.489.622,5.531-1.273,10.346-4.018,14.979-5.1,8.611-9.85,17.444-15.26,25.853C1322.033,601.078,1307.287,608.346,1289.055,608.959Zm11.542-52.387c-.716-5.69-1.214-11.426-3.883-16.643-4.784-9.343-11.222-12.522-20.313-12.111-9.608.436-17.757,4.492-24.861,10.858-8.108,7.266-10.212,18.374-4.42,26.956a39.345,39.345,0,0,0,28.628,17.608c6.625.857,12.567-.5,17.467-5.547C1298.992,571.736,1299.684,564.182,1300.6,556.572Zm26.989-41.785c.094-9.6-8.268-15.063-16.946-11-6.784,3.172-10.578,8.69-12.621,15.8-1.452,5.053-.413,9.255,3.208,12.748,3.643,3.511,8.016,4.088,12.73,2.213C1321.319,531.621,1327.511,522.671,1327.587,514.788Zm-60.987-5.895c0-.539.022-1.078,0-1.614-.231-5.08-2.4-9.076-7.125-11.107a11.4,11.4,0,0,0-13.19,2.4,23.61,23.61,0,0,0-7.608,18.823c.29,5.619,2.84,9.9,8.575,11.761,5.237,1.7,9.367-.346,12.811-3.964A23.146,23.146,0,0,0,1266.6,508.893Zm4.835-1.423c.2,5.435,2.007,9.819,7.073,12.174,4.508,2.094,9.958.691,14.059-3.129a23.957,23.957,0,0,0,7.6-16.968c.229-4.909-1.627-9.4-6.438-11.832-4.638-2.346-9.132-1.643-13.1,1.5C1274.745,493.88,1271.92,500.185,1271.435,507.47Zm65.658,40.088c-.013-8.234-8.308-13.727-16.4-10.858-7.646,2.712-14.091,11.246-14.6,19.334-.433,6.941,5.834,13.215,12.418,12.432C1327.67,567.377,1337.112,556.752,1337.094,547.557Z" transform="translate(0 0)"/><path class="c" d="M1283.356,526.618c-.913,7.61-1.605,15.164-7.383,21.121-4.9,5.049-10.842,6.4-17.467,5.547a39.345,39.345,0,0,1-28.628-17.608c-5.792-8.582-3.688-19.689,4.42-26.956,7.1-6.366,15.253-10.423,24.861-10.858,9.092-.411,15.529,2.768,20.313,12.111C1282.142,515.192,1282.641,520.927,1283.356,526.618Z" transform="translate(17.241 29.954)"/><path class="c" d="M1280.648,498.893c-.076,7.884-6.267,16.834-13.628,19.763-4.714,1.874-9.087,1.3-12.73-2.213-3.621-3.493-4.66-7.7-3.208-12.748,2.043-7.114,5.837-12.632,12.621-15.8C1272.38,483.83,1280.742,489.294,1280.648,498.893Z" transform="translate(46.939 15.895)"/><path class="c" d="M1252.239,497.087a23.147,23.147,0,0,1-6.539,16.3c-3.444,3.619-7.574,5.661-12.811,3.964-5.736-1.861-8.286-6.142-8.575-11.761a23.609,23.609,0,0,1,7.608-18.823,11.4,11.4,0,0,1,13.19-2.4c4.723,2.031,6.894,6.027,7.125,11.107C1252.261,496.009,1252.239,496.548,1252.239,497.087Z" transform="translate(14.361 11.806)"/><path class="c" d="M1238.888,500.507c.485-7.284,3.309-13.59,9.2-18.255,3.969-3.145,8.463-3.848,13.1-1.5,4.811,2.431,6.667,6.923,6.438,11.832a23.957,23.957,0,0,1-7.6,16.968c-4.1,3.821-9.552,5.224-14.059,3.129C1240.9,510.325,1239.083,505.941,1238.888,500.507Z" transform="translate(32.547 6.963)"/><path class="c" d="M1285.338,513.086c.018,9.195-9.424,19.819-18.58,20.908-6.584.783-12.851-5.491-12.418-12.432.507-8.088,6.952-16.623,14.6-19.335C1277.03,499.359,1285.325,504.852,1285.338,513.086Z" transform="translate(51.755 34.471)"/></g><path class="b" d="M161.031,470.2c.875-1.013,1.7-1.962,2.516-2.915q4.2-4.9,8.4-9.8a1.537,1.537,0,0,1,2.122-.391,1.766,1.766,0,0,1,.506,2.436c-.447.638-.983,1.215-1.492,1.808q-5.337,6.212-10.68,12.419a1.644,1.644,0,0,1-2.478.089q-3.65-3.819-7.267-7.67a1.63,1.63,0,0,1,.232-2.36,1.532,1.532,0,0,1,2.2.051c1.874,1.951,3.723,3.925,5.581,5.892C160.789,469.881,160.887,470.021,161.031,470.2Z" transform="translate(13.059 -230.192)"/></g></svg>