<svg xmlns="http://www.w3.org/2000/svg" width="18" height="18" viewBox="0 0 18 18"><defs><style>.a{fill:#00cec1;stroke:#fff;}.b{fill:#fff;}.c{stroke:none;}.d{fill:none;}</style></defs><g transform="translate(-59 -143)"><g class="a" transform="translate(59 143)"><circle class="c" cx="9" cy="9" r="9"/><circle class="d" cx="9" cy="9" r="8.5"/></g><path class="b" d="M155.859,462.313c.359-.416.7-.806,1.033-1.2q1.726-2.012,3.451-4.024a.631.631,0,0,1,.871-.161.725.725,0,0,1,.208,1c-.184.262-.4.5-.613.743q-2.192,2.551-4.386,5.1a.675.675,0,0,1-1.018.036q-1.5-1.568-2.984-3.15a.669.669,0,0,1,.1-.969.629.629,0,0,1,.9.021c.769.8,1.529,1.612,2.292,2.42C155.759,462.183,155.8,462.24,155.859,462.313Z" transform="translate(-88.941 -308.85)"/></g></svg>