<svg xmlns="http://www.w3.org/2000/svg" width="150.795" height="147.384" viewBox="0 0 150.795 147.384"><defs><style>.a{fill:#f0f6f8;}.b{fill:#dca48d;}.c{fill:#b27d6a;}.d{fill:#b2def0;stroke:#b2def0;stroke-miterlimit:10;}.e{fill:#b495fa;}</style></defs><g transform="translate(-125 -111.048)"><g transform="translate(125 111.048)"><g transform="translate(0 0)"><path class="a" d="M2645.473-290.092c-1.866-.255-3.339-.362-4.77-.666-16.5-3.506-33.074-3.6-49.73-1.256-4.717.665-9.607,1.88-14.207,1.264-15.151-2.026-20.891-13.674-13.377-27.028a48.112,48.112,0,0,1,9.424-11.147c7.578-7.032,12.976-15.147,14.708-25.473.113-.674.328-1.331.491-2,3.165-12.91,12.475-20.7,24.73-20.708s21.889,7.678,24.568,20.763c2.391,11.675,7.813,21.2,16.858,28.821a19.634,19.634,0,0,1,4.261,4.447c2.172,3.555,4.615,7.148,5.789,11.072,2.978,9.954-1.6,17.7-11.61,20.55C2650.176-290.757,2647.623-290.491,2645.473-290.092Z" transform="translate(-2537.364 429.234)"/><path class="a" d="M2559.367-363c-.2,1.858-.271,3.634-.6,5.359-2.776,14.448-16.665,20.281-28.924,12.177-10.962-7.247-16.2-22.834-11.689-34.765,3.954-10.451,14.375-14.936,24.393-10.044C2553.8-384.777,2558.481-374.957,2559.367-363Z" transform="translate(-2516.531 436.479)"/><path class="a" d="M2766.259-370.847c-.645,10.446-4.6,19.329-13.566,25.341-12.2,8.179-26.369,2.149-28.765-12.343-1.922-11.629,1.842-21.572,10.852-29.154,6.071-5.108,13.155-7.243,20.748-3.513C2763.527-386.586,2765.841-379.247,2766.259-370.847Z" transform="translate(-2615.465 436.549)"/><path class="a" d="M2712.028-454.608c-.238,8.751-3,16.219-9.074,22.252-11.714,11.644-27.931,7.226-31.944-8.812-2.7-10.787.079-20.482,7.539-28.571,5.441-5.9,12.256-9.025,20.387-6.218,8.16,2.817,11.547,9.486,12.821,17.509C2711.971-457.1,2711.955-455.713,2712.028-454.608Z" transform="translate(-2589.912 477)"/><path class="a" d="M2613.908-447.817c-1.227,4.082-1.924,8.425-3.783,12.2-4.741,9.62-15.356,12.546-24.713,7.271-12.587-7.1-18.046-25.92-11.2-38.645,5.272-9.809,16.042-12.658,25.567-6.765C2607.865-468.755,2613.284-458.389,2613.908-447.817Z" transform="translate(-2542.686 476.909)"/></g></g><g transform="translate(146.854 154.708)"><path class="b" d="M777.344,198.792a20.86,20.86,0,0,0-6.232-1.488,28.462,28.462,0,0,0-13.224,2.294,43.583,43.583,0,0,0-6.228,3.183.614.614,0,0,0-.314.756c.7,3.261,1.39,6.525,2.093,9.786a2.726,2.726,0,0,1-.045,1.334q-1.912,7.057-3.79,14.124c-.285,1.063-.575,2.124-.843,3.191a.576.576,0,0,1-.666.514c-2.53-.02-5.061-.011-7.591-.009-.282,0-.554.022-.477-.405a7.521,7.521,0,0,1,2.72-4.914.9.9,0,0,1,.284-.188c.841-.217.9-.812.893-1.561-.039-2.758-.015-5.516-.018-8.275,0-.106.043-.226-.1-.36a3.829,3.829,0,0,0-1.27,2.324,15,15,0,0,0-.48,3.945,1.758,1.758,0,0,1-.191.821q-1.958,4.056-3.9,8.121a.734.734,0,0,1-.773.5q-3.624-.03-7.248,0c-.466,0-.57-.1-.479-.584a6.394,6.394,0,0,1,2.393-3.509,15.97,15.97,0,0,1,2.542-1.721.647.647,0,0,0,.374-.5c.353-2.07.607-4.149.8-6.24a57.844,57.844,0,0,0,.187-8.2c-.2-3.98-.685-7.932-2.651-11.5a29.651,29.651,0,0,1-2.971-7.619,70.692,70.692,0,0,1-1.219-7.231,85.4,85.4,0,0,1-.7-10.162,50.376,50.376,0,0,0-.253-6.258c-.19-1.44.165-2.809.09-4.216a.849.849,0,0,0-.6-.874,57.476,57.476,0,0,1-9.83-5.163,19.558,19.558,0,0,1-5.066-4.549,5.478,5.478,0,0,1-1.008-2.148.712.712,0,0,1,.182.122,2.777,2.777,0,0,0,3.058,1.107,2.823,2.823,0,0,0,2.127-2.356,7.637,7.637,0,0,0-.052-2.094l7.566-1.1a2.451,2.451,0,0,1,.281-.036,2.4,2.4,0,0,0,1.98-.907,7.076,7.076,0,0,1,.871-.811,19.451,19.451,0,0,1,6.882-3.344,6.118,6.118,0,0,0,1.823-.555,9.72,9.72,0,0,0,2.016-.3c.193-.029.267-.2.367-.336,2.362-3.241,4.765-6.45,7.378-9.5a12.385,12.385,0,0,1,2.13-2.133c.178-.127.369-.346.607-.234.253.12.256.413.244.653a36.338,36.338,0,0,1-.368,3.676c-.682,4.44-1.528,8.85-2.492,13.236a44.694,44.694,0,0,0-.794,6.939c-.152,2.5-.362,4.995-.527,7.493a2.721,2.721,0,0,0,.11,1.07,7.286,7.286,0,0,0,2.658,3.982,40.731,40.731,0,0,0,14.049,6.05,2.242,2.242,0,0,0,.284.027,13.3,13.3,0,0,0-.232,5.343,12.23,12.23,0,0,0,4.615,7.914,12.667,12.667,0,0,0,8.77,2.612,11.679,11.679,0,0,0,7.338-3.121,12.831,12.831,0,0,0,4.206-8.232c2.147.371,4.3.738,6.442,1.115,1.12.2,2.237.407,3.355.617a.429.429,0,0,0,.509-.245,23.532,23.532,0,0,0,2.9-8.048,27.931,27.931,0,0,0,.331-5.734,32.476,32.476,0,0,0-2.824-11.721c-.057-.13-.185-.254-.074-.463a21.215,21.215,0,0,1,2.209,1.685,24.583,24.583,0,0,1,5.695,6.33,18.746,18.746,0,0,1,2.656,8.221,21.454,21.454,0,0,1-3.066,12.075,26.2,26.2,0,0,1-2.627,3.778.652.652,0,0,0-.078.924,9.09,9.09,0,0,1,1.2,4,47.984,47.984,0,0,1,.214,7.629c-.039,1.706-.219,3.408-.345,5.111a4.474,4.474,0,0,1-.494,1.331,12.7,12.7,0,0,0,.191,10.133,15.71,15.71,0,0,0,1.629,3,.953.953,0,0,1,.123.91Q802.69,224,800.8,230.184c-.194.636-.414,1.264-.581,1.906a.437.437,0,0,1-.507.391q-3.739-.014-7.477,0c-.385,0-.407-.122-.261-.433a12.609,12.609,0,0,1,2.11-2.892,1.638,1.638,0,0,1,.238-.245,6.39,6.39,0,0,0,2.3-4.1,33.5,33.5,0,0,0,.784-5.686c.117-2.837-1.218-4.659-3.906-5.8a.928.928,0,0,0-.279-.026,1.853,1.853,0,0,1-1.188-1.294,15.2,15.2,0,0,0-1.393-2.607,27.332,27.332,0,0,0-13.3-10.606Zm-35.85-15.643a.765.765,0,0,0-.485.139,7.319,7.319,0,0,0-3.6,5.026,8.736,8.736,0,0,0,3.366,8.771,6.632,6.632,0,0,0,3.539,1.58,5.877,5.877,0,0,0,5.744-2.76,7.936,7.936,0,0,0-6.12-12.314,12.506,12.506,0,0,0-3.587.472l0,0c.3-.41.843-.507,1.142-.913l.046-.05ZM730.372,157.49a3.865,3.865,0,0,0,1.66-.388,3.208,3.208,0,0,0,2.023-2.294c.09-.436.1-.975-.44-1.162s-.642.335-.783.68a2.857,2.857,0,0,1-2.451,1.922,11.893,11.893,0,0,1-2.431-.055.5.5,0,0,0-.579.422c-.047.274.168.451.437.508A12.526,12.526,0,0,0,730.372,157.49Zm4.525-8.558a.412.412,0,0,0-.4-.488c-.291-.031-.4.186-.415.427a.349.349,0,0,0,.373.4C734.724,149.284,734.878,149.165,734.9,148.931Z" transform="translate(-711.218 -128.769)"/><path class="c" d="M955.325,322.573a12.831,12.831,0,0,1-4.205,8.232,11.679,11.679,0,0,1-7.338,3.121,12.667,12.667,0,0,1-8.77-2.612A12.23,12.23,0,0,1,930.4,323.4a13.3,13.3,0,0,1,.232-5.343c.134-.534.518-.37.862-.3l9.769,1.879q6.812,1.309,13.624,2.612C955.1,322.285,955.31,322.285,955.325,322.573Z" transform="translate(-879.908 -273.935)"/><path class="c" d="M999.405,432.672a27.333,27.333,0,0,1,13.3,10.606,15.193,15.193,0,0,1,1.393,2.607,1.853,1.853,0,0,0,1.188,1.294,37.527,37.527,0,0,1-.633,6.045c-.28,2.451-.652,4.892-.973,7.339a3.076,3.076,0,0,1-.457,1.326c-.87,1.339-1.716,2.693-2.556,4.052a.749.749,0,0,1-.719.429c-2.226-.018-4.453-.023-6.679,0-.491.005-.586-.193-.552-.61a3.927,3.927,0,0,1,1.448-2.57,14.056,14.056,0,0,1,4.046-2.526.953.953,0,0,0,.571-.566,19.716,19.716,0,0,0,1.543-6.221,6.079,6.079,0,0,0-.59-3.214,3.161,3.161,0,0,0-1.616-1.548,7.705,7.705,0,0,1-3.43-2.993,30.566,30.566,0,0,1-3.369-7.022A46.8,46.8,0,0,1,999.405,432.672Z" transform="translate(-933.279 -362.649)"/><path class="c" d="M778.821,139.544A6.118,6.118,0,0,1,777,140.1a19.45,19.45,0,0,0-6.882,3.344q-1.366-4.488-2.392-9.066a41.475,41.475,0,0,1-.982-5.712,5.335,5.335,0,0,1,.05-1.588c.177-.811.57-1,1.31-.591a7.633,7.633,0,0,1,1.735,1.379,54.065,54.065,0,0,1,4.715,5.631C776.032,135.471,777.481,137.469,778.821,139.544Z" transform="translate(-753.761 -126.278)"/><path class="c" d="M715.719,214.628a7.639,7.639,0,0,1,.052,2.094,2.823,2.823,0,0,1-2.127,2.356,2.777,2.777,0,0,1-3.058-1.107.711.711,0,0,0-.182-.123v-.007a.2.2,0,0,0-.1-.237.212.212,0,0,1-.034-.094c.018-.095.025-.186-.074-.245a4.666,4.666,0,0,1-.108-1.737c-.006-.274.242-.266.4-.322a18.384,18.384,0,0,1,3.749-.826c.317-.044.636-.077.953-.118C715.476,214.226,715.668,214.323,715.719,214.628Z" transform="translate(-710.061 -194.149)"/><path class="c" d="M827.036,365.127a12.5,12.5,0,0,1,3.587-.472,7.936,7.936,0,0,1,6.12,12.314,5.877,5.877,0,0,1-5.744,2.76,6.631,6.631,0,0,1-3.539-1.58,8.736,8.736,0,0,1-3.366-8.771,7.32,7.32,0,0,1,3.6-5.026.765.765,0,0,1,.485-.139l0,0c-.3.406-.846.5-1.142.913l-.027.045Z" transform="translate(-797.901 -309.833)"/><path class="c" d="M783.721,238.838a12.522,12.522,0,0,1-2.564-.367c-.269-.057-.484-.234-.437-.508a.5.5,0,0,1,.579-.422,11.9,11.9,0,0,0,2.431.055,2.857,2.857,0,0,0,2.451-1.922c.141-.345.231-.869.783-.68s.53.725.44,1.162a3.208,3.208,0,0,1-2.023,2.294A3.865,3.865,0,0,1,783.721,238.838Z" transform="translate(-764.567 -210.117)"/><path class="c" d="M842.541,364.072l.05-.045-.046.05Z" transform="translate(-812.264 -309.692)"/><path class="b" d="M837.469,368.223l-.023.048.027-.045Z" transform="translate(-808.334 -312.929)"/><path class="d" d="M780.714,278s11.762-.149,17.583-3.669l1.222,2.565s-10.58,5.816-18.2,3.792Z" transform="translate(-764.567 -240.494)"/><ellipse class="c" cx="1" cy="1.5" rx="1" ry="1.5" transform="translate(23.146 19.403)"/></g><path class="e" d="M1462.1,175.92a3.552,3.552,0,0,1,2.523,1.012c.079.071.149.154.226.227.235.223.35.219.591-.009.169-.16.339-.32.514-.473a3.337,3.337,0,0,1,5.5,2.48,3.326,3.326,0,0,1-1.055,2.508q-2.461,2.467-4.933,4.924c-.26.26-.381.268-.636.015-1.676-1.664-3.368-3.313-5.013-5.007a3.239,3.239,0,0,1-.527-3.93A3.167,3.167,0,0,1,1462.1,175.92Z" transform="translate(-1324.562 -21.167)"/><path class="e" d="M1461.258,175.908a2.633,2.633,0,0,1,1.87.75c.059.053.11.114.167.168.174.165.26.162.438-.007.125-.119.251-.237.381-.35a2.473,2.473,0,0,1,4.075,1.838,2.465,2.465,0,0,1-.782,1.858q-1.824,1.828-3.656,3.649c-.193.192-.282.2-.471.011-1.242-1.233-2.5-2.455-3.715-3.71a2.4,2.4,0,0,1-.391-2.913A2.347,2.347,0,0,1,1461.258,175.908Z" transform="translate(-1329.395 -33.731)"/></g></svg>