<svg xmlns="http://www.w3.org/2000/svg" xmlns:xlink="http://www.w3.org/1999/xlink" width="327" height="307" viewBox="0 0 327 307"><defs><style>.a,.j{fill:#fff;}.a{stroke:#707070;}.b{clip-path:url(#a);}.c{opacity:0.4;}.d{fill:#d9e8ed;}.e{fill:#f0f6f8;opacity:0.892;}.f{fill:#f6d5bb;}.g{fill:#dcb89a;}.h{fill:#a35d37;}.i{fill:#0099f2;}.k{fill:#1d1000;}.l{fill:#482d1b;}</style><clipPath id="a"><rect class="a" width="327" height="307" transform="translate(26 54)"/></clipPath></defs><g class="b" transform="translate(-26 -54)"><g class="c" transform="translate(144.301 62.401)"><path class="d" d="M606.385,199.145c-.007-.206-.027-.412-.041-.619-.123-1.5-.309-3.023-.55-4.535a60.177,60.177,0,0,0-2.082-8.761,66.8,66.8,0,0,0-20.882-30.852c-.783-.653-1.58-1.292-2.391-1.9a65.6,65.6,0,0,0-58.894-10.644,67.185,67.185,0,0,0-44.265,43.791c-5.971,19.137-1.567,38.273,7.7,56.118,12.141,23.376,32.632,44.54,49.089,60.571a15.59,15.59,0,0,0,5.05,3.711,11.038,11.038,0,0,0,1.9.515v.172a11.177,11.177,0,0,0,1.89-.529,15.558,15.558,0,0,0,5.009-3.752c16.285-16.162,36.562-37.483,48.5-60.97q1.155-2.267,2.2-4.569a99.485,99.485,0,0,0,4.164-10.664A71,71,0,0,0,606.385,199.145Zm-23.528,25.974a47.234,47.234,0,1,1-11.908-58.008c.79.653,1.56,1.333,2.309,2.048a47.075,47.075,0,0,1,14.443,28.3,48.609,48.609,0,0,1,.385,5.875A47.04,47.04,0,0,1,582.858,225.119Z" transform="translate(-474.553 -139)"/></g><path class="e" d="M198.99,377.6a40.973,40.973,0,0,0,9.428-1.2c.657-.189,1.429-.607,1.222-1.128-.149-.377-.726-.519-1.221-.6a152.74,152.74,0,0,0-22-2.053c-5.426-.113-10.855.06-16.281.172-7.462.153-14.926.166-22.39.149-5.584-.014-11.168.026-16.752.042a68.971,68.971,0,0,1-7.793-.066c-1.554-.177-2.952-.684-4.534-.787-5.52-.358-11.319.087-16.861.138l-16.53.153c-7.855.073-15.853.163-23.323,2.059-3.57.907-3.013,2.954-.09,4.2,2.6,1.112,6.08,1.192,8.965,1.305,11.169.44,22.364.163,33.542-.115l45.911-1.142c6.965-.173,14.138-.868,21.026-.791,7.566.085,15.13.087,22.691-.151Q196.5,377.713,198.99,377.6Z" transform="translate(66.711 -32.334)"/><g transform="translate(-1574.383 400.131)"><path class="f" d="M2165.279-62.614s21.5-23.686-8.2-35.9c.072.035,2.67-1.275,2.9-1.347,12.572-3.767,22.664,7.8,22.686,19.535.016,9.9-6.3,17.871-13.736,23.86Z" transform="translate(-344.853 -68.907)"/><path class="f" d="M1818.89,134.7s6.734,19.514.808,45.042c0,0-5.989,1.937-3.4,5.641h5.213c3.327-.61,4.454-7.715,4.454-7.715,1.434-4.2,2.622-4.859,2.622-4.859l2.88-20.074" transform="translate(-93.008 -242.451)"/><path class="g" d="M1818.89,134.7s6.734,19.514.808,45.042c0,0-5.989,1.937-3.4,5.641h5.213c3.327-.61,4.454-7.715,4.454-7.715,1.434-4.2,2.622-4.859,2.622-4.859l6.423-27.6Z" transform="translate(-93.008 -242.451)"/><path class="g" d="M2030.247,139.583a54.655,54.655,0,0,0,23.86,19.051s5.363,9.062,1.657,17.939c0,0-8.875.923-4.99,7.035h7.213s4.293-2.9,5.478-11.779V159.739s.452-4.064-1.314-5.917c0,0-7.728-10.706-5.232-21.527l-26.672,7.288" transform="translate(-251.299 -240.68)"/><path class="f" d="M1829.306.652l2.971,26.189s1.663,5.921-2.313,7.954c0,0-3.327.836-1.941,4.579h6.844c3.747-1.338,3.236-6.849,3.236-6.849-.139-3.536,1.949-4.207,1.949-4.207l5.688-28.4,44-7.022s.487,15.015,22.629,21.495c0,0,5.367,9.058,1.668,17.942,0,0-8.888.923-4.994,7.031h7.213s4.3-2.9,5.474-11.775V15.5s.46-4.068-1.311-5.917c0,0-5.846-10.654-3.6-21.527,6.084-29.408-10.124-34.2-10.124-34.2l-50.924-4.579c-9.438-1.664-14.473-6.4-14.473-6.4-1.105-2.111-2.279-4.131-3.49-6.06-9.455-.9-21.132,6.583-23.444,15.407a19.726,19.726,0,0,1-1.295,10.48h-.1s-3.331,10.437,3.335,25.974A39.165,39.165,0,0,0,1829.306.652Z" transform="translate(-90.417 -96.446)"/><path class="h" d="M1974.468-16.273c.46,4.318,6.694,7.577,9.013,11.573,2.333,4.024,1.458,12.108,7.843,11.835,5.509-.234,12.73-4.3,15.07-9.505a20.423,20.423,0,0,0,1.422-10.793l-32.3-2.9C1975.147-16.13,1974.814-16.21,1974.468-16.273Z" transform="translate(-210.156 -131.094)"/><path class="h" d="M1826.519,63.4c-4.67-2.813-10.057-.991-14.318-4.638a46.983,46.983,0,0,0,4.144,19.923,38.342,38.342,0,0,0,8.65,9.086c4.757-2.135,2.456-7.442,2.409-11.962C1827.351,71.8,1831.058,66.134,1826.519,63.4Z" transform="translate(-90.462 -186.441)"/><path class="h" d="M2171.8,90.146a84.455,84.455,0,0,0-10.14,2.163c-3.223.836-7.251,2.769-5.018,7.018,1.255,2.383,3,4.44,4.155,6.876,2.57,5.439,5.007,13.269,11.93,13.784h.063c-1.577-3.866-3.89-11.273-2.333-18.786A61.877,61.877,0,0,0,2171.8,90.146Z" transform="translate(-344.053 -209.59)"/><path class="i" d="M1842.656-38.282l-10.809,24.81a2.01,2.01,0,0,0-.094.266c-1.084,3.872-3.865,9.654-5.591,13.065a2.091,2.091,0,0,1-3.47.395l-9.435-11.285a7.83,7.83,0,0,1-1.793-5.623,19.478,19.478,0,0,1,.911-5.084c1.049-2.624,1.049-2.1,1.049-2.1L1839.6-40.871a2.092,2.092,0,0,1,2.349.045h0A2.092,2.092,0,0,1,1842.656-38.282Z" transform="translate(-89.905 -112.7)"/><g transform="translate(1689.555 -194)"><path class="h" d="M1799.776-169.671c-.311-4.631-1.592-10.2-3.945-14.144-6.749-11.323-22.272-12.37-32.609-7.22a19.516,19.516,0,0,0-7.882,7.22c-2.346,3.937-3.632,9.514-3.937,14.144-.61,9.078,2.741,15.771,7,23.274,3.762,6.6,9.3,11.475,17.19,11.475s13.419-4.869,17.182-11.475C1797.04-153.9,1800.391-160.592,1799.776-169.671Z" transform="translate(-1735.122 194)"/><path class="j" d="M1816.418-173.261c.131-8.662,2.951-14.318,8.314-18.406-6.86-3.141-15.341-2.82-22.09,0,11.32,8.405,10.67,34.593,6.206,48.108a1.186,1.186,0,0,1,.032.491,28.717,28.717,0,0,1-1.913,6.935,17.171,17.171,0,0,0,17.055-2.344C1813.618-147.858,1816.22-160.312,1816.418-173.261Z" transform="translate(-1772.97 193.929)"/><path class="j" d="M1816.565-31.814c-4.614-1.85-6.848-9.162-12.072-9.116-3.356.032-6.056-1.157-8.556,1.473-1.761,1.853-4.381,5.478-6.234,7.216a7.647,7.647,0,0,1-3.078,1.865c3.62,4.852,8.5,8.184,15,8.184,7,0,12.14-3.842,15.835-9.316C1817.158-31.612,1816.862-31.695,1816.565-31.814Z" transform="translate(-1761.155 81.271)"/><g transform="translate(48.3 21.596)"><path class="k" d="M1878.963-107.548c0,2.285-1.192,4.144-2.662,4.144s-2.665-1.853-2.665-4.144,1.193-4.144,2.665-4.144S1878.963-109.835,1878.963-107.548Z" transform="translate(-1873.635 111.692)"/><path class="j" d="M1889.874-104.767a1.214,1.214,0,0,1-1.216,1.212,1.214,1.214,0,0,1-1.212-1.216,1.214,1.214,0,0,1,1.216-1.212A1.216,1.216,0,0,1,1889.874-104.767Z" transform="translate(-1885.822 108.481)"/></g><g transform="translate(26.758 21.596)"><path class="k" d="M1798.96-107.548c0,2.285-1.188,4.144-2.661,4.144s-2.661-1.853-2.661-4.144,1.188-4.144,2.661-4.144S1798.96-109.835,1798.96-107.548Z" transform="translate(-1793.085 111.692)"/><path class="j" d="M1793.961-104.767a1.214,1.214,0,0,1-1.216,1.212,1.214,1.214,0,0,1-1.212-1.216,1.214,1.214,0,0,1,1.212-1.212A1.219,1.219,0,0,1,1793.961-104.767Z" transform="translate(-1789.533 108.481)"/></g><path class="k" d="M1836.5-14.105c0,1.347-2.044,3.981-4.571,3.981s-4.558-2.637-4.558-3.981,2.039-2.424,4.558-2.424S1836.5-15.447,1836.5-14.105Z" transform="translate(-1791.212 63.095)"/><g transform="translate(0 8.455)"><g transform="translate(57.818)"><path class="l" d="M1911.79-161.278s-2.761.9-1.592,4.1c0,0,7.906,8.875,6.82,17.685,0,0-.3,13.078,3.315,15,0,0,4.266,2.65,8.445-4.729,4.247-7.486,7.054-21.38-.3-27.844C1924.745-160.347,1916.757-162.894,1911.79-161.278Z" transform="translate(-1909.909 161.777)"/></g><path class="l" d="M1710.783-161.278s2.761.9,1.6,4.1c0,0-7.91,8.875-6.825,17.685,0,0,.3,13.078-3.308,15,0,0-4.258,2.65-8.449-4.729-4.234-7.486-7.05-21.38.3-27.844C1697.826-160.347,1705.815-162.894,1710.783-161.278Z" transform="translate(-1689.555 161.777)"/></g></g><g transform="translate(1727.226 -133.389)"><path class="j" d="M1842.529,41.289c0-.015,0-.029,0-.044-.009-.107-.022-.216-.039-.324a4.292,4.292,0,0,0-.148-.625,4.766,4.766,0,0,0-1.489-2.2c-.056-.046-.113-.092-.17-.136a4.679,4.679,0,0,0-4.2-.759,4.791,4.791,0,0,0-3.156,3.123,5.2,5.2,0,0,0,.549,4,18.2,18.2,0,0,0,3.5,4.319,1.108,1.108,0,0,0,.36.264.763.763,0,0,0,.136.037v.012a.788.788,0,0,0,.135-.038,1.108,1.108,0,0,0,.357-.267,18.211,18.211,0,0,0,3.458-4.348c.055-.108.107-.216.157-.326a7.128,7.128,0,0,0,.3-.76A5.068,5.068,0,0,0,1842.529,41.289Zm-1.678,1.852A3.368,3.368,0,1,1,1840,39q.085.07.165.146a3.358,3.358,0,0,1,1.03,2.018,3.508,3.508,0,0,1,.027.419A3.351,3.351,0,0,1,1840.851,43.141Z" transform="translate(-1833.128 -37)"/><path class="j" d="M1846.818,48.471l-.241-.73a.375.375,0,0,1-.028-.175c.015-.1.1-.164.162-.241a.506.506,0,0,0,.046-.569.42.42,0,0,0-.531-.155.369.369,0,0,0-.166.426.061.061,0,0,0,.1.029.176.176,0,0,1,.223-.012.189.189,0,0,1-.009.293.469.469,0,0,1-.2.077,1.326,1.326,0,0,1-.893-.132.6.6,0,0,1-.226-.6,1.72,1.72,0,0,1,.414-1.022.365.365,0,0,0,.13-.246c-.008-.1-.111-.174-.21-.205a.254.254,0,0,0-.231.016.3.3,0,0,0-.087.2c-.042.272-.081.469-.1.744-.012.164-.039.354-.064.565a.033.033,0,0,1-.064,0,1.76,1.76,0,0,1-.023-.178.652.652,0,0,0-.029-.147,1.431,1.431,0,0,0-.209-.4,1.214,1.214,0,0,0-.167-.178c-.012-.011-.179-.164-.191-.144a.016.016,0,0,0,0,.014,1.028,1.028,0,0,1,.072.559.033.033,0,0,1-.061.013l-.019-.029a1.2,1.2,0,0,0-.13-.168.8.8,0,0,0-.077-.072c-.018-.014-.067-.062-.075-.014a.212.212,0,0,0,0,.043c0,.028,0,.055,0,.083a.962.962,0,0,1-.019.165.173.173,0,0,1-.033.082.191.191,0,0,1-.147.043l-.766,0a.138.138,0,0,0-.081.017c-.04.028-.039.087-.033.136a1.367,1.367,0,0,0,.154.533.578.578,0,0,0,.446.3c.237.012.48-.166.695,0a.356.356,0,0,1,.078.085.674.674,0,0,1,.089.41,2.126,2.126,0,0,1-.126.64l0,.007c-.018.037-.038.074-.058.111-.042.077-.087.152-.13.229a.057.057,0,0,1-.074.032.41.41,0,0,0-.491.273c.241.011.48.023.719.031a.158.158,0,0,0,.115-.063,1.066,1.066,0,0,0,.183-.264c.031-.065.063-.051.122-.039a1.675,1.675,0,0,0,1.044-.15,2.591,2.591,0,0,0,.287-.184,1.813,1.813,0,0,0,.537.429.4.4,0,0,0-.191.259,5.361,5.361,0,0,0,.8-.011A5.84,5.84,0,0,0,1846.818,48.471Zm-1.563-3.07c.017-.04.035-.083.091-.049s.1.059.061.131a.68.68,0,0,1-.146.172.037.037,0,0,1-.061-.032A.845.845,0,0,1,1845.255,45.4Z" transform="translate(-1840.304 -43.042)"/></g></g></g></svg>