<svg xmlns="http://www.w3.org/2000/svg" xmlns:xlink="http://www.w3.org/1999/xlink" width="327" height="307" viewBox="0 0 327 307"><defs><style>.a,.f{fill:#fff;}.a{stroke:#707070;}.b{clip-path:url(#a);}.c,.h{fill:#f0f6f8;}.d{fill:#00cec1;}.e{opacity:0.42;}.g{fill:#e0a88a;}.h{opacity:0.766;}.i{fill:#0099f2;}.j,.m{fill:none;stroke-miterlimit:10;}.j{stroke:#ff9e9e;}.k{fill:#ffc24d;}.l{fill:#49bbfd;}.m{stroke:#0b070b;stroke-width:0.5px;}.n{fill:#0b070b;}.o{fill:#855040;}.p{fill:#353a4d;}.q{fill:#e3a329;}</style><clipPath id="a"><rect class="a" width="327" height="307" transform="translate(27 61)"/></clipPath></defs><g class="b" transform="translate(-27 -61)"><g transform="translate(-2458.531 580.647)"><path class="c" d="M2706.733-227.658c-3.205-.437-5.734-.621-8.192-1.144-28.342-6.022-56.807-6.188-85.415-2.157-8.1,1.142-16.5,3.229-24.4,2.172-26.023-3.479-35.882-23.485-22.976-46.422,4.033-7.168,10.088-13.484,16.187-19.145,13.015-12.078,22.286-26.016,25.262-43.752.195-1.157.563-2.286.844-3.429,5.437-22.174,21.425-35.562,42.475-35.567s37.595,13.188,42.2,35.662c4.107,20.053,13.419,36.414,28.954,49.5,2.693,2.268,5.519,4.694,7.318,7.637,3.73,6.107,7.927,12.277,9.943,19.016,5.115,17.1-2.749,30.4-19.941,35.3C2714.81-228.8,2710.425-228.341,2706.733-227.658Z" transform="translate(-4.518 -10.358)"/><path class="c" d="M2590.1-342.014c-.347,3.191-.466,6.242-1.035,9.205-4.767,24.816-28.623,34.834-49.678,20.914-18.828-12.448-27.829-39.219-20.077-59.71,6.79-17.949,24.691-25.654,41.9-17.251C2580.547-379.411,2588.583-362.543,2590.1-342.014Z" transform="translate(0 -8.787)"/><path class="c" d="M2796.986-355.38c-1.108,17.941-7.895,33.2-23.3,43.525-20.96,14.049-45.291,3.692-49.4-21.2-3.3-19.973,3.165-37.052,18.64-50.074,10.427-8.774,22.594-12.441,35.635-6.034C2792.293-382.414,2796.267-369.807,2796.986-355.38Z" transform="translate(-21.454 -8.772)"/><path class="c" d="M2742.184-438.54c-.408,15.03-5.161,27.857-15.585,38.219-20.119,20-47.974,12.411-54.865-15.135-4.635-18.528.136-35.179,12.949-49.072,9.346-10.133,21.05-15.5,35.015-10.68,14.016,4.838,19.833,16.292,22.021,30.073C2742.088-442.819,2742.06-440.439,2742.184-438.54Z" transform="translate(-15.913)"/><path class="c" d="M2644.531-427.013c-2.106,7.012-3.3,14.471-6.5,20.948-8.143,16.523-26.375,21.549-42.446,12.489-21.62-12.186-31-44.52-19.246-66.374,9.056-16.847,27.553-21.741,43.912-11.62C2634.152-462.974,2643.459-445.171,2644.531-427.013Z" transform="translate(-5.672 -0.02)"/></g><g transform="translate(20.133 29.512)"><path class="d" d="M251.609,308.761a11.527,11.527,0,0,1-.509-6.273c.835-3.708,5.019-5.478,8.509-4.295a8.039,8.039,0,0,1,4.705,4.528c.332.8.749,3.53,1.578,3.92,1.132.533,2.127-1.227,2.461-2.058,2.746-6.823,2.645-14.947,7.289-20.652a9.09,9.09,0,0,1,2.86-2.439,6.979,6.979,0,0,1,5.923-.073,8.04,8.04,0,0,1,4.082,4.363,11.58,11.58,0,0,1,.249,6.928,34.466,34.466,0,0,1-2.558,6.55l-4.836,10.26a7.706,7.706,0,0,0-.848,2.514,2.62,2.62,0,0,0,.913,2.38c1.282.927,2.026-.315,2.937-.935a18.542,18.542,0,0,1,4.8-1.963c2.068-.642,4.73-.875,6.007.874,1.746,2.39-.9,5.56-3.487,7-.977.542-5.883,3.067-5.662,4.372a1.212,1.212,0,0,0,1.227.87,4.568,4.568,0,0,0,1.571-.413,10.379,10.379,0,0,1,7.253.079,2.939,2.939,0,0,1,2.04,1.931c.193,1.083-.686,2.049-1.56,2.718-3.6,2.755-8.26,3.832-12.792,3.85-4.635.018-9.154-1.127-13.711-1.688a51.159,51.159,0,0,1-12.969-3.3c-1.493-.642-3.1-1.94-2.775-3.533a2.741,2.741,0,0,1,2.1-1.936,8.073,8.073,0,0,1,2.994.013c-1.481-3.371-3.889-6.236-5.789-9.39A21.94,21.94,0,0,1,251.609,308.761Z"/><g class="e" transform="translate(258.988 287.549)"><path class="f" d="M275.3,286.548c-4.03,15.014-7.9,30.137-8.619,45.735-.04.858,1.294.857,1.333,0,.711-15.48,4.574-30.482,8.572-45.381A.667.667,0,0,0,275.3,286.548Z" transform="translate(-254.577 -286.076)"/><path class="f" d="M263.268,309.467l-4.776-6.611c-.5-.689-1.656-.024-1.151.674l4.776,6.61C262.615,310.83,263.773,310.164,263.268,309.467Z" transform="translate(-257.216 -281.475)"/><path class="f" d="M280.467,309.1l-4.62,2.475c-.757.405-.084,1.556.673,1.151l4.62-2.475C281.9,309.843,281.224,308.692,280.467,309.1Z" transform="translate(-252.111 -279.677)"/></g></g><g transform="translate(76.557 167.381)"><path class="g" d="M128.66,365.262q-.712-4.289-1.7-8.525a16.825,16.825,0,0,0-2.471-6.306c-1.185-1.6-3.2-2.841-5.123-2.3-6.546,1.827-2.048,12.538-.7,16.35q2.41,6.825,4.368,13.8c.351,1.249.961,3.324,2.482,3.519.755.1,4.32-.14,4.658-.714a1.524,1.524,0,0,0,.124-.858A134.815,134.815,0,0,0,128.66,365.262Z" transform="translate(-47.414 -190.843)"/><path class="g" d="M99.47,365.6q1.537-4.067,2.807-8.227a16.844,16.844,0,0,0,1.028-6.695c-.22-1.981-1.345-4.066-3.273-4.566-6.577-1.705-8.064,9.817-8.814,13.789q-1.342,7.113-3.15,14.129c-.324,1.256-.839,3.357.379,4.289.606.462,3.807,2.049,4.389,1.721a1.524,1.524,0,0,0,.536-.68A134.648,134.648,0,0,0,99.47,365.6Z" transform="translate(-53.446 -191.283)"/><path class="h" d="M274.812,380.649c4.926-.22,9.922-.521,14.552-1.85,1.013-.292,2.2-.937,1.887-1.741-.23-.583-1.12-.8-1.884-.928a235.759,235.759,0,0,0-33.954-3.168c-8.374-.174-16.754.093-25.13.265-11.517.236-23.038.257-34.558.23-8.618-.021-17.238.041-25.856.065-3.927.011-8.136.341-12.029-.1-2.4-.273-4.557-1.056-7-1.214-8.52-.553-17.471.134-26.024.213l-25.514.236c-12.125.112-24.469.251-36,3.178-5.51,1.4-4.65,4.559-.139,6.488,4.014,1.717,9.385,1.84,13.837,2.015,17.239.68,34.517.251,51.77-.177l70.863-1.763c10.751-.267,21.822-1.34,32.452-1.221,11.678.131,23.353.135,35.023-.233Q270.964,380.822,274.812,380.649Z" transform="translate(-59.474 -185.715)"/><g transform="translate(21.52)"><path class="g" d="M112.6,251.924c1.149-.808,2.864-1.189,3.849-2a6.065,6.065,0,0,0,1.953-4.515,17.933,17.933,0,0,0-.788-4.991q-.455-1.775-.909-3.549a6.453,6.453,0,0,0-1.119-2.359,9.724,9.724,0,0,0-1.569-1.41,8.789,8.789,0,0,0-2.379-1.613,7.922,7.922,0,0,0-3.182-.711c-3.133,2.624-4.615,13.244-4.856,15.723-.621,6.373-1.205,12.537-4.07,17.984a31.621,31.621,0,0,1,4.13.669A21.008,21.008,0,0,1,109,267.782c.745.488,5.248,2.577,5.3.375a2.065,2.065,0,0,0-.365-1.022,22.194,22.194,0,0,1-2.736-8.569c-.166-1.59-.278-4.139.469-5.622A2.812,2.812,0,0,1,112.6,251.924Z" transform="translate(-72.434 -215.898)"/><path class="i" d="M140.92,375.154a3.027,3.027,0,0,0-1.364-.507c-1.671-.308-3.374-.442-5.03-.822a9.3,9.3,0,0,1-4.511-2.231,8.945,8.945,0,0,1-1.064-1.323,12.991,12.991,0,0,1-1.489,1.045,12.217,12.217,0,0,1-6.213,1.518c.218,1.062.467,2.118.784,3.156.465,1.527.234,5.024,2.642,4.638,3.445-.552,6.96-.522,10.4-1.126C136.273,379.291,143.754,377.4,140.92,375.154Z" transform="translate(-67.792 -186.083)"/><path class="i" d="M97.635,294.8a9.341,9.341,0,0,1,2.234-3.1c3.154-2.965,5.962-5.641,10.427-6.415a8.081,8.081,0,0,1,5.575.79c1.813,1.176,2.61,3.738,3.536,5.638a135.33,135.33,0,0,1,5.868,14.016,171.8,171.8,0,0,1,7.466,29.5,256.345,256.345,0,0,1,2.847,25.93c.051.827,1.052,12.844.651,12.864a90.819,90.819,0,0,1-21.124,6.9c2.509-15.255-.694-30.823-4.26-45.866-2.781-11.734-12.138-20.37-13.786-32.744C96.691,299.465,96.675,297,97.635,294.8Z" transform="translate(-73.011 -204.281)"/><g transform="translate(39.571 101.509)"><path class="j" d="M109.808,302.151" transform="translate(-109.808 -302.151)"/></g><path class="i" d="M102.142,384.308a8.5,8.5,0,0,0-2.671-3.723c-2.038-1.976-4.152-4.283-4.271-7.118-.008-.217.013-.433.025-.649a9.962,9.962,0,0,1-7.131-2.949c-.394.811-.766,1.632-1.1,2.471-.583,1.466-2.919,4.026-.82,5.214,3.951,2.237,10.825,8.091,15.4,7.558a.725.725,0,0,0,.524-.22A.7.7,0,0,0,102.142,384.308Z" transform="translate(-75.471 -186.169)"/><path class="k" d="M99.8,257.888c4.156-3.912,10.494-1.372,14.661,1.858a13.963,13.963,0,0,1,5.314,8.91,41.127,41.127,0,0,1,.123,9.283c-.249,3.994-.473,7.991-.749,11.984-.172,2.512.283,5.529-2.248,6.953a11.758,11.758,0,0,1-6.512.6,17.932,17.932,0,0,1-4.1-.909A15.529,15.529,0,0,1,101.5,293.2c-1.266-1.193-2.554-2.6-2.664-4.34a10.068,10.068,0,0,1,.445-2.784c1.018-4.591-.324-9.329-1.341-13.92-.947-4.271-1.972-9.184.749-12.988A8.706,8.706,0,0,1,99.8,257.888Z" transform="translate(-72.988 -210.527)"/><g transform="translate(2.64 75.796)"><path class="l" d="M93.244,379.042a152.644,152.644,0,0,0-13.864-6.6c.329.136,5.958-10.882,6.4-11.791a101.619,101.619,0,0,0,5.806-14.841,100.283,100.283,0,0,0,4.31-32.025c-.2-6.6-2.725-11.959-.638-18.525,1.335-4.2,4.044-7.746,6.083-11.606.357-.675.7-2.054,1.356-2.478.609-.392,1.773-.118,2.442-.1,2.419.064,4.839.05,7.259.05a104.354,104.354,0,0,0,10.654-.051c.265,8.417-.774,16.762-1.348,25.153-.887,12.975-1.492,26.407-4.314,39.281-3,13.665-9.632,26.064-15.09,38.826Q97.864,381.534,93.244,379.042Z" transform="translate(-79.38 -280.966)"/></g><path class="m" d="M108.381,296.026c2.576,4.157,6.8,7.41,10.873,10.114a124.366,124.366,0,0,0,22.887,12.424c13.931,5.495,29.077,7.186,44.047,7.552s29.956-.543,44.921-.008" transform="translate(-70.542 -201.951)"/><path class="g" d="M106.919,258.386c2.04.932,2.863,3.606,2.656,5.7a12.017,12.017,0,0,1-2.732,5.987c-1.361,1.759-2.951,3.334-4.253,5.135a20.3,20.3,0,0,0-2.068,3.573,14.3,14.3,0,0,0-1.357,6.612c.143,2.469,1.221,4.009,2.659,5.9a52.564,52.564,0,0,0,10.8,10.024,16.593,16.593,0,0,1,3.4,3.01,5.226,5.226,0,0,1,1.162,4.253,3.157,3.157,0,0,1-3.3,2.5,1.7,1.7,0,0,1-1-.49,2.944,2.944,0,0,1-.533-1.311,9.382,9.382,0,0,0-2.68-4.5c-1.24-1.159-2.911-1.514-4.3-2.5a81.893,81.893,0,0,1-9.911-8.2c-9.767-9.567,1.379-29.276,5.594-34.45a5.209,5.209,0,0,1,5.777-1.277C106.86,258.36,106.89,258.373,106.919,258.386Z" transform="translate(-74.137 -210.085)"/><path class="n" d="M107.651,294.791c.661-.824,2.163-2.026,3.153-1.037a.948.948,0,0,1,.064,1.3c-.3.426-.676.368-1.091.576a3.068,3.068,0,0,0-.922.854,8.805,8.805,0,0,1-2.038,2.1.373.373,0,0,1-.57-.291A5.631,5.631,0,0,1,107.651,294.791Z" transform="translate(-70.999 -202.516)"/><g transform="translate(99.911 89.063)"><path class="o" d="M221.08,301.578c-.4-.762-5.388-9.031-5.388-9.031s-2.71,4.727-1.494,7.9,2.179,5.084,2.179,5.084Z" transform="translate(-147.904 -291.758)"/><path class="n" d="M226.213,300.928c-.4-.762-5.388-9.031-5.388-9.031s-2.71,4.727-1.494,7.9,2.179,5.085,2.179,5.085Z" transform="translate(-146.807 -291.897)"/><path class="o" d="M176.576,332.359s-3.563-.648-4.852-2.94a64.808,64.808,0,0,1-2.762-5.907,21.156,21.156,0,0,0,.313,6.382c.715,2.554,3.739,5.7,3.739,5.7Z" transform="translate(-157.529 -285.14)"/><path class="o" d="M196.631,343.549c1.041.652-4.189,9.593-4.675,10.273-3.6,5.025-9.843,7.117-12.906,12.692a25.9,25.9,0,0,0-2.525,8.961,35.073,35.073,0,0,0-.437,6.609,4.843,4.843,0,0,0,.379,1.884c.768,1.588,2.463.751,3.207,1.578a1.7,1.7,0,0,1-1.062,2.944l-4.8.237c-1.793.089-1.986-9.707-2.082-11.378a58.254,58.254,0,0,1,11.736-38.378c1.537-2,1.578-2.313,3.682-1.348a37.111,37.111,0,0,1,3.932,2.458Q193.855,341.814,196.631,343.549Z" transform="translate(-156.934 -282.237)"/><path class="o" d="M236.867,315.5l-.069,26.291a37.382,37.382,0,0,1-3.731,16.163c-3.641,7.151-12.779,7.691-19.9,5.5-6.541-2.016-12.2-7.008-19.031-7.359-5.651-.291-11.029,2.692-16.686,2.769-3.454.047-8.133-1.317-11.33-2.374,3.373-5.63,2.839-14.357,7.819-18.952,2.062-1.9,4.868-2.739,7.591-3.417A114.527,114.527,0,0,1,198.85,331.2c3.988-.362,10.5.874,14.045-1.1,2.872-1.6,4.224-5.371,5.446-8.422l6.286-15.695,2.062-3.519a7.289,7.289,0,0,1,5.1-3.51c2.989-.494,8.144.167,9.223,1.823a13.739,13.739,0,0,0,3.793,3.977l12.034.584a4.176,4.176,0,0,1-2.8,5.316c-4.528,1.528-11.863.726-11.863.726s1.97.7,10.86.234c.483-.025,1.5,1.768-1.183,2.066C244.367,314.514,236.867,315.5,236.867,315.5Z" transform="translate(-158.113 -290.422)"/><path class="o" d="M201.735,348.012c-.681,2.617-.391,5.669-.515,8.263-.174,3.641-.324,7.284-.471,10.926q-.35,8.65-.654,17.3a.728.728,0,0,0,.763.753l5.492-.271a2.028,2.028,0,0,0,1.728-.945c1.16-2.17-2.817-2.414-3.352-3.661-.975-2.27.836-7.528,1.374-9.837,1.549-6.652,3.952-13.18,4.226-20.067a9.932,9.932,0,0,0-.534-4.22,4.224,4.224,0,0,0-3.107-2.671,4.38,4.38,0,0,0-4.152,2.409A8.352,8.352,0,0,0,201.735,348.012Z" transform="translate(-150.851 -280.857)"/><path class="o" d="M212.766,349.054c.225,2.487.652,4.936.705,7.461.073,3.456-.317,6.985-.458,10.44q-.357,8.783-.669,17.568a1.567,1.567,0,0,0,1.645,1.619l4.6-.227a2.4,2.4,0,0,0,1.9-1.249c.728-2.2-2.631-2.578-4.017-2.864-.226-8.008,2.766-17.263,5.252-24.829,1.673-5.094,3.641-10.877,1.022-15.554-1.4-2.492-4.644-4.271-7.15-2.9-2.026,1.106-2.682,3.678-2.889,5.976A25.194,25.194,0,0,0,212.766,349.054Z" transform="translate(-148.233 -282.035)"/><path class="o" d="M186.106,344.1c-.093.352-4.672,11.226-10.51,14.891-3.154,1.98-7.327,4.709-9.751,7.547-1.59,1.862-1.251,4.678-1.355,7.048q-.2,4.624,0,9.255a4.061,4.061,0,0,0,.884,2.836c.647.619,2.015.419,2.471,1.1a1.662,1.662,0,0,1-1.314,2.426c-1.728.085-3.175.563-4.4-.75-1.365-1.46-1.444-4.182-1.567-6.046-.448-6.781-2.3-14.75.364-21.233a47.85,47.85,0,0,1,3.21-5.925,89.148,89.148,0,0,0,5.958-12.179c.51-1.28,1.261-5.109,2.5-5.274.527-.069,1.889.887,2.372,1.112Z" transform="translate(-159.522 -282.087)"/><path class="p" d="M241.373,303.894a.988.988,0,1,1-1.044.192,1.046,1.046,0,0,1,1.5.141" transform="translate(-142.314 -289.346)"/><path class="n" d="M228.663,323.915,207.4,319.057l-.361,2.97,21.78,4.947Z" transform="translate(-149.368 -286.092)"/></g></g><path class="f" d="M115.127,242.742l-4.142.646a2.262,2.262,0,0,0,1.984,1.205,2.3,2.3,0,0,0,2.051-1.118,3.387,3.387,0,0,0,.269-.823Z" transform="translate(-48.465 -213.359)"/></g><path class="n" d="M111.862,228.552c-.28-2.858-3.193-3.747-5.964-3.746a3.85,3.85,0,0,0-.14-3.981,3.274,3.274,0,0,0-4.288-.706,11.506,11.506,0,0,0-4.279-1.548,6.32,6.32,0,0,0-5.1,1.478A3.541,3.541,0,0,0,91,222.4c-1.715-1.351-4.144-2.246-5.875-.426a2.767,2.767,0,0,0-.7,1.385,5.4,5.4,0,0,0-4.8,5.06,3.23,3.23,0,0,0,.558,2.226,6.506,6.506,0,0,0-2.971,5.161,4.731,4.731,0,0,0,1.507,3.242,3.568,3.568,0,0,0-.277,3.69,4.641,4.641,0,0,0,2.8,2.217,5.592,5.592,0,0,0,.1,2.188c.393,1.488,1.857,2.613,3.125,3.355a4.673,4.673,0,0,0,5.776-.72c2.114,2.7,7.308,1.024,7.817-2.486,3.4.811,5.045-5.522,2.852-8.307a4.943,4.943,0,0,0,3.9-1.877,3.243,3.243,0,0,0,.7-2.979C108.6,233.9,112.2,232.02,111.862,228.552Z" transform="translate(33.963 -48.136)"/><path class="q" d="M560.66,190.215l-3.895,4.759,12.252,6.294s7.431-11.283,1.474-14.294S560.66,190.215,560.66,190.215Z" transform="translate(-439 29)"/></g></svg>