<svg xmlns="http://www.w3.org/2000/svg" xmlns:xlink="http://www.w3.org/1999/xlink" width="327" height="307" viewBox="0 0 327 307"><defs><style>.a,.u{fill:#fff;}.a{stroke:#707070;}.b{clip-path:url(#a);}.c,.d{fill:#f0f6f8;}.c{opacity:0.999;}.e{fill:#00cec1;}.f{fill:#04b2a1;}.g{fill:#f7dbd5;}.h{fill:#edc6bd;}.i{fill:#00002c;}.j{fill:#c3dbea;}.k{fill:#0099f2;}.l,.q{fill:#f2a989;}.m{fill:#0099f4;}.n{fill:#140c23;}.o{fill:#c4907b;}.p{fill:#e7a183;}.p,.q{stroke:#f2a989;}.r{fill:#dd977a;}.s{fill:#663818;}.t{fill:#ff7b7d;}.v{fill:#cda096;}.w{fill:#f6a309;}.x{fill:#ffc240;}.y{fill:#0bf;}.z{fill:#d6aea4;}.aa,.ac{fill:none;}.ab{fill:#bd9288;}.ac{stroke:#00cec1;stroke-linecap:round;stroke-width:30px;}</style><clipPath id="a"><rect class="a" width="327" height="307" transform="translate(23 50)"/></clipPath></defs><g class="b" transform="translate(-23 -50)"><path class="c" d="M274.812,380.649c4.926-.22,9.922-.521,14.552-1.85,1.013-.292,2.2-.937,1.887-1.741-.23-.583-1.12-.8-1.884-.928a235.759,235.759,0,0,0-33.954-3.168c-8.374-.174-16.754.093-25.13.265-11.517.236-23.038.257-34.558.23-8.618-.021-17.238.041-25.856.065-3.927.011-8.136.341-12.029-.1-2.4-.273-4.557-1.056-7-1.214-8.52-.553-17.471.134-26.024.213l-25.514.236c-12.125.112-24.469.251-36,3.178-5.51,1.4-4.65,4.559-.139,6.488,4.014,1.717,9.385,1.84,13.837,2.015,17.239.68,34.517.251,51.77-.177l70.863-1.763c10.751-.267,21.822-1.34,32.452-1.221,11.678.131,23.353.135,35.023-.233Q270.964,380.822,274.812,380.649Z" transform="translate(3.082 -45.334)"/><path class="d" d="M1724.3-382.416c7.786-8.718,16.969-15.234,27.939-18.775,24.141-7.791,46.186-3.6,65.308,13.123,17.151,15,24.9,34.485,24.419,57.079-.4,18.714-6.964,35.227-19.948,48.857-4.478,4.7-9.615,8.779-14.482,13.106q-37.784,33.582-75.566,67.168c-2.656,2.366-5.49,4.235-9.109,3.426a13.51,13.51,0,0,1-5.775-2.779c-12.351-10.818-24.566-21.79-36.828-32.709-17.027-15.162-34.108-30.264-51.068-45.5a68.736,68.736,0,0,1-19.226-30.052,74.522,74.522,0,0,1-3.554-30.871c3.016-31.766,26.242-59.24,58.184-63.929,23.047-3.384,42.7,3.975,58.759,20.868C1723.631-383.116,1723.907-382.83,1724.3-382.416Z" transform="translate(-1535.991 499.495)"/><g transform="translate(-2524.745 17.115)"><g transform="translate(2722.111 234.64)"><path class="e" d="M3440.515,708.8q-.307,2.118-.721,4.558l-.048-.008a7.862,7.862,0,0,1-4.25-2.143c-2.427-2.357-3.257-5.963-3.54-8.259a18,18,0,0,1-.146-2.115h2.307l2.307,0v0a15.684,15.684,0,0,0,.577,3.849,7.323,7.323,0,0,0,1.715,3.223,3.19,3.19,0,0,0,1.752.889Z" transform="translate(-3431.81 -700.83)"/></g><path class="f" d="M3308.868,707.1l-1.024-6.241-5.156,5.595L3307,707.92Z" transform="translate(-600.441 -466.217)"/><path class="g" d="M3335.566,461.172c-.431-.258-1.205-.045-1.891.209-.5.183-.949.389-1.19.454-.119.031-.238.063-.357.092a23.416,23.416,0,0,1-4.134.607,23.9,23.9,0,0,1-6.074-.382,3.708,3.708,0,0,1-.6-.165,1.189,1.189,0,0,1-.889-.9,1.091,1.091,0,0,1,.607-1.011,3.245,3.245,0,0,1,1.206-.3,32.29,32.29,0,0,0,6.942-1.389,13.041,13.041,0,0,0,4.55-2.649,9.469,9.469,0,0,0,1.194-1.334,8.085,8.085,0,0,0,1.465-3.453,2.6,2.6,0,0,0-.873-1.269,3.859,3.859,0,0,0-1.748-.474,5.161,5.161,0,0,1-1.782-.369,1.577,1.577,0,0,1-.967-1.425,1.338,1.338,0,0,1,.319-.751L3324,449.569a14.489,14.489,0,0,1-3.891,1.328,7.181,7.181,0,0,1-3.826-.853c-1.624-.828-3.045-2.022-4.688-2.809a12.771,12.771,0,0,0-6.106-1.157,2.578,2.578,0,0,0-1.681,2.212,9.3,9.3,0,0,0,.645,3.45,4.518,4.518,0,0,1-.069,3.438c-.3.527-.775.932-1.1,1.44-.988,1.522-.469,3.511-.374,5.323.009.184.012.368.011.552l.159.093c1.813,1.032,3.453,2.448,5.4,3.216a4.779,4.779,0,0,1-.328-.888,6.94,6.94,0,0,0-.557-1.011c-.384-.586-.809-1.091-1.174-1.7a3.534,3.534,0,0,1-.569-1.368,1.213,1.213,0,0,1,.607-1.256,1.658,1.658,0,0,1,1.5.357,14.829,14.829,0,0,1,3.787,4c1.441,2.085,2.617,4.362,4.253,6.31a8.885,8.885,0,0,0,3.245,2.367c.27-.358.545-.708.831-1.058a14.691,14.691,0,0,1,3.512-3.223,27.769,27.769,0,0,1,6.208-2.407,12.119,12.119,0,0,0,5.7-3.311,1.352,1.352,0,0,0,.393-.869.716.716,0,0,0-.325-.572Zm-21.95-6.451a1.669,1.669,0,1,1,.076-2.36,1.652,1.652,0,0,1,.2.258,1.517,1.517,0,0,1-.275,2.1Z" transform="translate(-600.441 -250.61)"/><path class="h" d="M3261.495,445.846a7.29,7.29,0,0,1-9.606,5.488c-.809-.287-2.616-1.288-2.07-2.266.511-.916,2.606-1.7,3.527-2.1A15.545,15.545,0,0,1,3261.495,445.846Z" transform="translate(-555.618 -250.32)"/><path class="i" d="M3520.954,157.5c.7-.282,1.537-1.489,2.148-1.991a33.07,33.07,0,0,1,2.941-2.083,21.087,21.087,0,0,1,5.5-2.788,18.329,18.329,0,0,1,12.967.981,22.408,22.408,0,0,1,8.649,7.952c2.465,3.563,3.2,8.292,5.576,12.061a19.022,19.022,0,0,0,8.554,7.65c3.849,1.595,7.842,2.969,10.969,5.852a12.477,12.477,0,0,1,3.75,7.255,11.666,11.666,0,0,1-1.179,7.675q-1.221-1.112-2.514-2.124a22.587,22.587,0,0,0-3.514-1.984,28.679,28.679,0,0,0-8.251-2.814c-3.128-.535-6.417-.539-9.321-1.789-.1-.044-.211-.092-.316-.141-3.378-1.577-5.741-4.769-7.343-8.134-.095-.2-.19-.4-.281-.607-.487-1.077-.917-2.177-1.327-3.285-.294-.795-.58-1.595-.867-2.394-.444-1.232-.9-2.461-1.4-3.668-.063-.153-.13-.3-.2-.457-.241-.551-.5-1.1-.773-1.638a17.005,17.005,0,0,0-5.61-6.735,48.617,48.617,0,0,1,4.593,7.046,4.247,4.247,0,0,0-2.392,3.69,12.842,12.842,0,0,1-8.534-1.852,27.937,27.937,0,0,1-6.978-6.358l-.455-.542a11.7,11.7,0,0,0-3.5-3.244c-1.376-.635-2.358.685-3.053,1.848a13.006,13.006,0,0,0-1.6,8.6c.125.892.431,1.767.545,2.649a4.97,4.97,0,0,1-1.572-.836,14.371,14.371,0,0,1-1.441-1.048,7.369,7.369,0,0,1-2.384-3.668,9.809,9.809,0,0,1,2.146-8.6A15.946,15.946,0,0,1,3520.954,157.5Z" transform="translate(-777.638)"/><path class="j" d="M3792.258,1094.516q.774.883,1.544,1.765a136.243,136.243,0,0,0-12.337,12.989,16.67,16.67,0,0,1-4.847,4.525c-3.41,1.747-7.6,1.719-11.343,1.57a2.634,2.634,0,0,1-1.752-.505,1.778,1.778,0,0,1-.4-1.691c3.438-.469,7.121.632,10.374-.617a15.243,15.243,0,0,0,5.177-3.992Q3785.46,1101.537,3792.258,1094.516Z" transform="translate(-989.984 -799.313)"/><path class="k" d="M3780.809,1075.057l7.822-9.978,3.959,4.528q-6.8,7.021-13.6,14.043a15.24,15.24,0,0,1-5.177,3.991c-3.252,1.249-6.936.148-10.373.617a3.043,3.043,0,0,1,.255-.743,5.844,5.844,0,0,1,2.866-2.581c1.393-.639,3.179-.607,4.4-1.517a7.613,7.613,0,0,0,2.19-3.236,36.809,36.809,0,0,0,2.014-5.772c.035-.144.063-.28.081-.4A15.348,15.348,0,0,1,3780.809,1075.057Z" transform="translate(-990.316 -774.405)"/><path class="l" d="M3803.254,996.871q-3.909,4.991-7.822,9.978a15.338,15.338,0,0,0-5.562-1.062c.213-1.358-.379-1.937-1.478-2.924q-1.371-1.234-2.79-2.412-2.392-1.992-4.878-3.86,5.841-6.06,11.68-12.121Q3797.832,990.671,3803.254,996.871Z" transform="translate(-1004.939 -706.196)"/><path class="m" d="M3747.522,870.475q-5.839,6.067-11.681,12.121c-2.674-2.022-5.41-3.954-8.163-5.865l1.719-26.981Q3738.461,860.111,3747.522,870.475Z" transform="translate(-960.052 -592.201)"/><path class="i" d="M3741.167,340.341c.41,1.112.84,2.208,1.327,3.285a10.015,10.015,0,0,1-1.474-.792q-.273-1.021-.6-2.029A4.916,4.916,0,0,0,3741.167,340.341Z" transform="translate(-970.839 -161.157)"/><path class="l" d="M3733.864,345.415a10.347,10.347,0,0,1-1.894-1.567,5.056,5.056,0,0,0,1.3-.462Q3733.591,344.393,3733.864,345.415Z" transform="translate(-963.684 -163.733)"/><path class="n" d="M3736.031,324.815c.287.8.573,1.6.868,2.394a4.915,4.915,0,0,1-.743.464q-.358-1.13-.774-2.243A2.8,2.8,0,0,0,3736.031,324.815Z" transform="translate(-966.571 -148.019)"/><path class="n" d="M3726.476,304.595a2.817,2.817,0,0,1-.649.615q-.775-2.083-1.737-4.088c.022-.012.044-.024.068-.034a1.791,1.791,0,0,1,.916-.16C3725.58,302.136,3726.03,303.365,3726.476,304.595Z" transform="translate(-957.016 -127.8)"/><path class="o" d="M3720.786,306.324a3.062,3.062,0,0,1-.765.384l-.009-.027a.931.931,0,0,1-1.1-.651,1.112,1.112,0,0,0-.749-1.9,1.786,1.786,0,0,1,.885-1.894Q3720.011,304.238,3720.786,306.324Z" transform="translate(-951.974 -128.914)"/><path class="n" d="M3719.366,288.975c.066.153.131.3.2.457a1.791,1.791,0,0,0-.916.16c-.022.01-.045.022-.068.034q-.479-1-1-1.978.111-.054.229-.1a3.945,3.945,0,0,1,.79-.213C3718.869,287.876,3719.125,288.424,3719.366,288.975Z" transform="translate(-951.503 -116.304)"/><path class="l" d="M3544.082,246.268a18.54,18.54,0,0,1-.754-5.042,10.953,10.953,0,0,1,2.427-7.12c2-2.169,4.66,1.243,6.021,2.849.153.18.3.36.455.542a27.929,27.929,0,0,0,6.978,6.358,12.834,12.834,0,0,0,8.533,1.852,4.248,4.248,0,0,1,2.392-3.69q.525.979,1,1.978a1.786,1.786,0,0,0-.885,1.894,1.112,1.112,0,0,1,.749,1.9.939.939,0,0,0,.275.438.951.951,0,0,0,.824.213l.009.027a3.048,3.048,0,0,0,.765-.384q.416,1.112.774,2.243a5.055,5.055,0,0,1-1.3.462,10.337,10.337,0,0,0,1.895,1.567,10.017,10.017,0,0,0,1.474.792c.09.2.185.4.28.607,1.6,3.364,3.964,6.558,7.343,8.134.1.049.209.1.316.141-1.75,2.046-3.507,4.087-5.247,6.14q-2.083-1.712-4.309-3.236c-1.416-.973-2.849-2.316-4.7-1.967a8,8,0,0,0-3.4,1.852c-1.966,1.59-4.36,3.057-6.932,1.878a10.346,10.346,0,0,1-1.881-1.219l-1.856-1.4c-1-.755-.042-1.921.174-2.9a9.254,9.254,0,0,0,.216-2.3c0-.144-.25-2.373-.758-1.636a15.67,15.67,0,0,1-1.759,2.139q-.5.506-1.041.972c-.258.22-.547.582-.9.613-.641.057-1.709-1.921-1.9-1.835-1.041.454-2.379.857-3.2.075-.775-.739-.522-2-.382-3.062C3546.214,252.763,3544.953,249.55,3544.082,246.268Zm13.962,4.854a2.642,2.642,0,1,0-2.643,2.642,2.642,2.642,0,0,0,2.643-2.642Zm-7.7.5c.459-.238.481-1.112.049-1.95s-1.157-1.33-1.618-1.094-.481,1.112-.048,1.952,1.158,1.329,1.618,1.093Z" transform="translate(-804.059 -70.672)"/><path class="i" d="M3693.331,250.327a3.935,3.935,0,0,0-.79.213,2.155,2.155,0,0,0-.229.1,48.618,48.618,0,0,0-4.593-7.046A17,17,0,0,1,3693.331,250.327Z" transform="translate(-926.241 -79.294)"/><circle class="p" cx="2.642" cy="2.642" r="2.642" transform="translate(2748.699 177.809)"/><path class="q" d="M3578.356,332.789c.433.84.411,1.713-.048,1.95s-1.184-.253-1.618-1.093-.413-1.719.048-1.952S3577.923,331.947,3578.356,332.789Z" transform="translate(-832.027 -153.791)"/><path class="g" d="M3356.457,477.774a3.2,3.2,0,0,1-1.244,3.685c-1.11.562-2.354-.177-2.777-1.65a3.382,3.382,0,0,1,.871-3.439C3354.47,475.624,3355.869,476.248,3356.457,477.774Z" transform="translate(-642.415 -275.993)"/><path class="r" d="M3267.243,551.481l-.053.1a16.9,16.9,0,0,1-5.838-3.767c.022-.1.042-.192.061-.289.035-.184.066-.367.093-.552A21.285,21.285,0,0,0,3267.243,551.481Z" transform="translate(-565.464 -336.002)"/><path class="s" d="M3492.056,446.342a6.524,6.524,0,0,1,.256,3.254,2.593,2.593,0,0,0-.873-1.269,3.858,3.858,0,0,0-1.748-.474,5.157,5.157,0,0,1-1.782-.369,1.578,1.578,0,0,1-.967-1.425,1.335,1.335,0,0,1,.319-.751l1.252-.5a3.3,3.3,0,0,1,1.737-.343A2.639,2.639,0,0,1,3492.056,446.342Z" transform="translate(-756.351 -249.259)"/><path class="t" d="M3438.46,532.66a.593.593,0,0,1,.231.672.708.708,0,0,1-.634.423,2.563,2.563,0,0,0-1.891.209,3.16,3.16,0,0,0-.1-1.011c-.026-.092-.066-.2-.158-.226-.126-.041-.238.088-.31.2l-.98,1.577a23.406,23.406,0,0,1-4.134.607,23.908,23.908,0,0,1-6.075-.382,3.7,3.7,0,0,1-.6-.165c1.719-.166,3.455-.07,5.177-.19a9.412,9.412,0,0,0,5.3-1.738,2.5,2.5,0,0,1,1.5-.8c.622.019,1.106.581,1.719.673C3437.832,532.561,3438.189,532.483,3438.46,532.66Z" transform="translate(-702.932 -323.193)"/><path class="u" d="M3495.52,537.839a3.167,3.167,0,0,1,.1,1.011c-.5.184-.95.389-1.19.454-.119.031-.238.063-.357.092l.98-1.577c.071-.114.183-.244.311-.2C3495.454,537.643,3495.494,537.747,3495.52,537.839Z" transform="translate(-762.384 -328.078)"/><path class="h" d="M3109.025,793.332a170.06,170.06,0,0,0,2.4,20.426,14.777,14.777,0,0,1-2.224.476,72.534,72.534,0,0,1-.769-21.236C3108.773,792.853,3109.005,792.964,3109.025,793.332Z" transform="translate(-435.692 -544.128)"/><path class="l" d="M3621.53,1066.808q-.412,6.479-.826,12.955l-13.752,2.651a13.855,13.855,0,0,0-4.239-4.691c.13-.127.256-.258.379-.4,2.3-2.6,1.529-6.658,1.543-9.87v-.661l.258.014Z" transform="translate(-854.31 -775.857)"/><path class="k" d="M3483.458,1142.536l13.752-2.651q-.3,4.79-.607,9.581h-39.833a3.316,3.316,0,0,1,1.062-1.719,8.677,8.677,0,0,1,3.135-1.456,95.978,95.978,0,0,0,14.122-5.743,15.872,15.872,0,0,0,4.128-2.7A13.849,13.849,0,0,1,3483.458,1142.536Z" transform="translate(-730.82 -835.979)"/><path class="j" d="M3458.7,1216.206a2.753,2.753,0,0,1-2.149-1.45,2.193,2.193,0,0,1-.112-1.387h39.832c-.045.693-.088,1.385-.133,2.078l-35.393.9A9.332,9.332,0,0,1,3458.7,1216.206Z" transform="translate(-730.485 -899.882)"/><path class="r" d="M3246.542,586.139a7.583,7.583,0,0,1-4.247-2.587q.31-.309.591-.641A18.154,18.154,0,0,0,3246.542,586.139Z" transform="translate(-549.338 -366.411)"/><path class="r" d="M3437.834,619.014a8.7,8.7,0,0,0,3.051-.393,7.26,7.26,0,0,1-3.474,1.647,12.552,12.552,0,0,1-4.178-.36,122.746,122.746,0,0,1-19.094-5.607c-1.314-.506-2.594-.9-3.784-1.448.27-.358.545-.708.831-1.058l21.451,6.168A22.2,22.2,0,0,0,3437.834,619.014Z" transform="translate(-691.545 -390.852)"/><path class="h" d="M3075.194,928.758a14.78,14.78,0,0,0,2.225-.476q.19,1.078.4,2.156.546,2.831,1.184,5.644a127.217,127.217,0,0,0-2.363,28.361c.139,2.4.525,4.98,2.183,6.7.607.624,1.416,1.244,1.376,2.112-.048,1.232-1.63,1.645-2.846,1.711l-.107.005h-2.207a5.057,5.057,0,0,1-3.709-1.6,6.825,6.825,0,0,1-1.15-2.842c-2.708-11.708-3.148-29.458-1.1-41.939q1.686.223,3.384.291A15.839,15.839,0,0,0,3075.194,928.758Z" transform="translate(-401.686 -658.652)"/><path class="h" d="M2685.58,872.932c.544.083,1.084.177,1.626.277-3.413,9.423-11.029,15.37-17.881,22.37-4.551,4.646-8.584,10.247-9.034,17.116-.256,3.92.91,8.437,4.168,11.326a4.2,4.2,0,0,1,1.191,1.33c.551,1.279-.8,2.287-2.081,2.487a6.865,6.865,0,0,1-1.07.081,9.856,9.856,0,0,1-8.09-4.779c-1.365-2.348-1.583-5.009-1.763-7.547-.136-1.934-.274-3.881-.376-5.824,2.08-5.636,6.378-10.361,10.944-14.373,5.289-4.651,11.158-8.724,15.614-14.172a37.142,37.142,0,0,0,5.2-8.494C2684.552,872.784,2685.065,872.855,2685.58,872.932Z" transform="translate(-50.081 -611.645)"/><path class="v" d="M2689.39,678.08a23.761,23.761,0,0,0-3.024,6.988,30.726,30.726,0,0,1-5.206-2.338A19.374,19.374,0,0,1,2689.39,678.08Z" transform="translate(-74.526 -446.94)"/><path class="h" d="M3207.186,767.958a12.818,12.818,0,0,1,.256,4.854q-.353,4.717-.708,9.438-.418.465-.839.928-.452.5-.91.989a120.36,120.36,0,0,1,1.82-16.129C3206.963,767.94,3207.029,768.058,3207.186,767.958Z" transform="translate(-517.767 -522.991)"/><path class="e" d="M3200.723,626.486q-1.327,1.782-2.686,3.539-.369.48-.743.96a68.454,68.454,0,0,1-20.2-19.883,15.859,15.859,0,0,0,3.119-1.93l.009.01A71.033,71.033,0,0,0,3200.723,626.486Z" transform="translate(-494.167 -388.631)"/><path class="m" d="M3529.438,753.347a87.08,87.08,0,0,0-.365,9.916q-.035,8.549-.068,17.089a90.435,90.435,0,0,1-8.573-7.78,29.6,29.6,0,0,1-5.758-7.867,13.64,13.64,0,0,1-.984-9.53,9.619,9.619,0,0,1,3.075-4.623l2.277.809C3522.4,752.557,3525.941,753.771,3529.438,753.347Z" transform="translate(-778.608 -508.263)"/><path class="r" d="M3258.818,569.712a12.264,12.264,0,0,1-4.671-2.933q.228-.4.421-.834A25,25,0,0,0,3258.818,569.712Z" transform="translate(-559.367 -352.055)"/><path class="l" d="M3245.839,531.359a21.3,21.3,0,0,1-5.737-4.509,24.814,24.814,0,0,1,.461-2.869c.1.059.19.119.277.18q2.845,1.979,5.865,3.7c1.813,1.033,3.454,2.448,5.4,3.216a4.8,4.8,0,0,1-.329-.888,6.937,6.937,0,0,0-.556-1.011c-.384-.586-.809-1.091-1.174-1.7a3.527,3.527,0,0,1-.569-1.368,1.214,1.214,0,0,1,.607-1.256,1.658,1.658,0,0,1,1.5.357,14.834,14.834,0,0,1,3.787,4c1.441,2.085,2.617,4.362,4.253,6.31a8.886,8.886,0,0,0,3.245,2.367c1.189.544,2.472.943,3.784,1.448a122.7,122.7,0,0,0,19.094,5.607,12.546,12.546,0,0,0,4.178.36,7.262,7.262,0,0,0,3.474-1.647h0a28.746,28.746,0,0,0,3.993-4.237q6.634-8.016,13.035-16.222,7.553,5.847,14.65,12.255l-2.528,2.466-10.719,10.437c-3.767-1.1-7.816-1.463-11.04.591-3.842,2.45-5.325,7.167-5.9,12.028-3.5.424-7.043-.786-10.4-1.981l-2.277-.809-4.693-1.672c-5.843-2.081-11.763-3.944-17.551-6.183-1.777-.685-3.539-1.4-5.287-2.171q-1.631-.72-3.236-1.509a45.786,45.786,0,0,1-7.071-4.146,42.817,42.817,0,0,1-8.327-8.631,10.03,10.03,0,0,0,.955-.845,7.584,7.584,0,0,0,4.247,2.587,18.162,18.162,0,0,1-3.661-3.228,10.86,10.86,0,0,0,1.237-1.78,12.267,12.267,0,0,0,4.671,2.933,24.993,24.993,0,0,1-4.247-3.772,10.664,10.664,0,0,0,.688-2.073,16.9,16.9,0,0,0,5.838,3.767Z" transform="translate(-544.06 -315.879)"/><path class="w" d="M3800.8,546.644l10.493-10.213a53.519,53.519,0,0,1-11.808,16.719,27.582,27.582,0,0,1-1.213-4.038Z" transform="translate(-1019.785 -327.081)"/><path class="x" d="M3727.484,425.6c1.74-2.054,3.5-4.1,5.247-6.141,2.9,1.25,6.194,1.254,9.321,1.789a28.671,28.671,0,0,1,8.252,2.814,22.588,22.588,0,0,1,3.514,1.984q1.293,1.011,2.514,2.124a70.132,70.132,0,0,1,12.816,16.435q1.4,2.376,2.66,4.832a57.836,57.836,0,0,1,6.71,23.157,38.05,38.05,0,0,1-5.911,23.125,25.076,25.076,0,0,1-2.688,3.371,9,9,0,0,1-2.5-2.958,60.248,60.248,0,0,1-2.336-5.692,23.316,23.316,0,0,0-5.415-7.78c-2.326-2.214-5.092-3.578-7.77-5.277-2.206-1.4-4.395-2.822-6.587-4.229.22-3.707.2-8.658-2.587-10.553a16.139,16.139,0,0,0-3.451-1.339,11.494,11.494,0,0,1-5.952-5.986q-.257-.543-.476-1.1a53.52,53.52,0,0,0,11.808-16.722l-10.492,10.213q-7.088-6.4-14.65-12.255.457-.584.91-1.169C3722.7,431.3,3725.077,428.439,3727.484,425.6Z" transform="translate(-953.138 -228.103)"/><path class="y" d="M3615.733,694.429c.575-4.861,2.057-9.578,5.9-12.028,3.222-2.054,7.272-1.687,11.039-.591.869.251,1.719.544,2.549.853,7.851,2.944,14.875,7.25,21.851,11.724,2.192,1.406,4.381,2.831,6.587,4.229,2.677,1.7,5.442,3.063,7.77,5.276a23.319,23.319,0,0,1,5.415,7.78,60.265,60.265,0,0,0,2.336,5.692,8.99,8.99,0,0,0,2.5,2.958,15.627,15.627,0,0,1-7.425,4.586c-4.173,1.034-8.565-.165-12.585-1.7-10-3.816-19.087-9.713-27.416-16.45,0,.046,0,.09-.009.135q-.86,13.492-1.719,26.981-.2,3.211-.411,6.421h-16.632l-.258-.014q.021-5.818.044-11.637.015-3.6.029-7.207.034-8.546.068-17.09A87,87,0,0,1,3615.733,694.429Z" transform="translate(-864.901 -449.345)"/><path class="z" d="M3204.426,594q-.567-.708-1.107-1.432c-.069.056-.141.109-.211.163a10.9,10.9,0,0,1-5.345,2.063c-.13.114-.263.226-.4.333l.009.01c.084.1.171.2.255.308A11.273,11.273,0,0,0,3204.426,594Z" transform="translate(-511.321 -374.582)"/><path class="g" d="M3220.176,613.2a45.783,45.783,0,0,1-7.07-4.146,40.658,40.658,0,0,1-7.22-7.2,11.274,11.274,0,0,1-6.8,1.444c5.627,6.88,11.814,14.3,19.566,18.65,1.382-1.848,3.42-5.372,4.754-7.249Q3221.775,613.988,3220.176,613.2Z" transform="translate(-512.779 -382.442)"/><path class="aa" d="M2878.232,741.75c.043-.116.082-.234.123-.35q-.148-.774-.329-1.543Q2878.154,740.8,2878.232,741.75Z" transform="translate(-241.107 -499.213)"/><path class="h" d="M2862.49,740.308q-.1-.285-.213-.567a.787.787,0,0,0-.219-.35.276.276,0,0,0-.376.015.4.4,0,0,0-.043.293c.145,1.372.38,2.766.436,4.146a29.7,29.7,0,0,1-.146,3.719,38.408,38.408,0,0,1-1.078,6.3q-.4,1.549-.926,3.062a17.03,17.03,0,0,1-1.151,2.916q.772.091,1.543.209.39.06.776.126a29.007,29.007,0,0,0,2.155-8.059c.121-1.024.166-2.055.277-3.079a19.668,19.668,0,0,0-1.032-8.729Zm.214,7.382v0Zm-.021-1.258v0Zm.016.63v-.089c0,.027,0,.057,0,.087Zm-.606,7c-.017.089-.034.179-.053.268.02-.1.036-.181.054-.27Zm.606-5.877v.136c0-.048,0-.093,0-.139Zm-.015.614a1.443,1.443,0,0,1,0,.147c0-.051,0-.1.006-.148Zm-.026.617c0,.05-.006.1-.008.149,0-.051.007-.1.009-.15Zm-.038.619c0,.047-.007.093-.01.14a.913.913,0,0,0,.007-.141Zm-.048.62c0,.037-.007.074-.01.111,0-.039.008-.071.011-.112Zm-.282,2.287c-.007.047-.014.1-.022.144.009-.049.016-.1.023-.145Zm-.089.532c-.014.079-.026.157-.041.235.016-.081.03-.158.044-.236Zm-1.137,4.544c.036-.111.074-.222.109-.335-.034.11-.072.221-.108.334Zm.2-.607c.034-.108.066-.215.1-.324-.034.1-.066.209-.1.317Zm.182-.612q.045-.158.089-.316l-.088.308Zm.169-.613.08-.3c-.025.095-.053.194-.083.3Zm.157-.615q.036-.152.071-.3c-.023.1-.047.2-.071.3Zm.144-.618c.021-.1.042-.19.062-.285-.02.089-.04.184-.062.274Zm-1.362,4.52q-.112.292-.231.584.118-.3.231-.59Zm.43-1.187c-.039.117-.081.235-.122.351.043-.124.082-.241.122-.358Zm-.208.6c-.047.13-.1.26-.145.389.049-.137.1-.266.145-.4Z" transform="translate(-224.815 -498.763)"/><path class="z" d="M2997.19,636.287c.72,1.986,2.76,3.4,3.034,5.5.183,1.387-.462,2.73-.788,4.09s-.182,3.076,1.035,3.765c1.077.607,2.447.1,3.458-.616a10.249,10.249,0,0,1,3.135-1.944c1.8-.455,3.575.607,5.3,1.269a8.639,8.639,0,0,0,6.08.255,5.284,5.284,0,0,0,3.517-4.674c0-1.407-.661-2.943.079-4.139.867-1.4,3.086-1.342,4.082-2.658,1.035-1.369.183-3.309-.684-4.791l-2.969-5.076a22.89,22.89,0,0,1-4.218.976c-4.319.586-8.7.142-13.052-.131q-4.039-.254-8.09-.31C2997.745,630.391,2996.221,633.626,2997.19,636.287Z" transform="translate(-341.658 -403.944)"/><path class="g" d="M2696.725,711.62a21.436,21.436,0,0,1-2.9-1.951,9.3,9.3,0,0,1-2.117-4.28c-3.7-12.938-5.24-29.744-4.489-44.942a120.324,120.324,0,0,1,1.82-16.129c.158-.1.218.022.376-.078a12.812,12.812,0,0,1,.256,4.854q-.353,4.717-.708,9.438,7.39-8.185,14.157-16.9a68.451,68.451,0,0,1-20.2-19.883,19.173,19.173,0,0,1-2.113.847l2.969,5.076c.866,1.481,1.719,3.422.684,4.791-1,1.315-3.215,1.254-4.081,2.657-.739,1.2-.079,2.73-.079,4.139a5.285,5.285,0,0,1-3.517,4.674,8.638,8.638,0,0,1-6.079-.255c-1.73-.662-3.509-1.719-5.3-1.268a10.251,10.251,0,0,0-3.135,1.944c-1.011.708-2.381,1.226-3.458.616-1.213-.689-1.361-2.4-1.036-3.765s.971-2.7.788-4.09c-.276-2.094-2.316-3.513-3.033-5.5-.966-2.661.556-5.9-.073-8.487q-3.958-.058-7.917.073a15.472,15.472,0,0,1-8.614,9.314c-2.718,1.119-6.216,1.873-7.073,4.684-.884,2.9,1.841,6.133.607,8.9-.972,2.187-3.788,2.718-6.178,2.875s-5.172.45-6.428,2.489c-1.154,1.874-.417,4.3-.718,6.478-.637,4.623-5.694,7.22-10.271,8.133-1.32.263-2.677.462-4.028.682-1.921,3.28-4.158,6.414-5.857,9.821-4.051,8.122-4.913,17.409-5.709,26.449-.223,2.538-.43,5.2.563,7.545a8.117,8.117,0,0,0,7.325,4.781,7.109,7.109,0,0,0,1.082-.082c1.31-.2,2.822-1.207,2.477-2.487a3.35,3.35,0,0,0-.98-1.33c-2.8-2.885-3.245-7.4-2.365-11.326a21.077,21.077,0,0,1,.809-2.742c2.08-5.636,6.378-10.361,10.944-14.373,5.289-4.651,11.158-8.724,15.614-14.172a37.125,37.125,0,0,0,5.2-8.494,38.258,38.258,0,0,0,3.169-18.542,19.518,19.518,0,0,1-2.98,5.323,19.518,19.518,0,0,0,2.98-5.323c-.044-.525-.128-1.047-.189-1.571-.01-.083.012-.2.1-.2.047,0,.078.05.1.093a14.949,14.949,0,0,1,1.149,4.477,29.145,29.145,0,0,1,.355,4.6,29.49,29.49,0,0,1-.607,5.885,28.913,28.913,0,0,1-.743,2.866,16.744,16.744,0,0,1-1.011,2.72q.425.073.85.152a109.357,109.357,0,0,1,14.562,4.18c5.082,1.719,10.344,3.5,15.711,4.2q1.685.224,3.383.291a15.811,15.811,0,0,0,2.73-.128,72.533,72.533,0,0,1-.769-21.235c.341-.146.573-.034.594.335a169.963,169.963,0,0,0,2.4,20.427q.19,1.078.4,2.156.546,2.832,1.184,5.644,1.881,8.292,4.579,16.367c.973,2.916,2.148,11.932,3.279,14.787q.857,2.171,1.774,4.317c.528,1.237,1.067,2.528,2.375,3.123a2.676,2.676,0,0,0,1.145.241c.653,0,1.28-.185,2-.18,1.376.01,2.754.029,4.13.044a3.121,3.121,0,0,0,1.261-.16,1.106,1.106,0,0,0,.7-.868A3.742,3.742,0,0,0,2696.725,711.62Z" transform="translate(0 -399.273)"/><path class="v" d="M2659.973,490.719c.3-.633-.463-1.352-1.162-1.286a3.012,3.012,0,0,0-1.738,1.1,3.074,3.074,0,0,1-1.732,1.117c-1.323.144-2.158-1.35-2.621-2.6l-2.753,9.169a4.889,4.889,0,0,0-.3,2c.185,1.447,1.6,2.984.694,4.127-.4.514-1.192.708-1.422,1.322-.215.575.176,1.184.548,1.672,2.309,3.042,4.823,6.237,8.425,7.506l-.26,1.229a17.6,17.6,0,0,0,9.29-2.075c-4.309.212-8.424-.506-11.528-3.671a12.719,12.719,0,0,1-2.791-12.956c1.315-3.595,4.82-6.466,8.806-5.575.372.083.737.2,1.1.316a6.4,6.4,0,0,0-.9-1.345C2661.174,490.338,2660.329,490.2,2659.973,490.719Z" transform="translate(-47.206 -286.995)"/><path class="z" d="M2647.521,489.121c-4.055.48-8.9,1.777-13.525,2.005a17.6,17.6,0,0,1-9.29,2.074l.26-1.229c-3.6-1.269-6.116-4.464-8.425-7.506-.371-.489-.763-1.1-.548-1.673.229-.614,1.011-.809,1.422-1.322.91-1.143-.506-2.679-.694-4.127a4.888,4.888,0,0,1,.3-2l2.753-9.169c.463,1.248,1.3,2.741,2.621,2.6a3.072,3.072,0,0,0,1.732-1.117,3.013,3.013,0,0,1,1.738-1.1c.7-.066,1.466.654,1.162,1.286.356-.519,1.2-.381,1.657.052a6.4,6.4,0,0,1,.9,1.345,11.942,11.942,0,0,0,1.968.536,2.855,2.855,0,0,0,2.842-1c.857-1.351-.244-3.1-1.473-4.127-6.074-5.074-15.292-2.236-19.568,3.808-4.118,5.822-4.225,13.482-1.782,19.933a23.954,23.954,0,0,0,8.778,11.166c.18.123.362.243.549.357a19.368,19.368,0,0,1,8.229-4.652,23.751,23.751,0,0,0-3.023,6.987c-2.057,7.673-1.41,16.409-4.314,23.955a36.817,36.817,0,0,1-2.681,5.4c1.351-.218,2.708-.418,4.028-.681,4.577-.91,9.634-3.51,10.271-8.133.3-2.18-.436-4.605.718-6.478,1.255-2.039,4.039-2.332,6.427-2.489s5.206-.688,6.177-2.875c1.23-2.77-1.494-6-.607-8.9.856-2.811,4.355-3.565,7.072-4.684a15.471,15.471,0,0,0,8.614-9.314Q2654.651,488.278,2647.521,489.121Z" transform="translate(-14.272 -264.117)"/><path class="ab" d="M3191.731,496.945c.336-.819.244-2.009-.6-2.285a2.023,2.023,0,0,0-1.25.139l-4.025,1.345c-.629.21-1.269.429-1.9.677a.137.137,0,0,1-.012.04l.066.061a26.773,26.773,0,0,0-3.017,3.853,30.853,30.853,0,0,0-3.666,9.389,1.581,1.581,0,0,0,.007,1.207,1.479,1.479,0,0,0,1.172.54,10.638,10.638,0,0,0,2.2,0,10.905,10.905,0,0,0,5.345-2.063c.071-.054.143-.107.211-.163a10.031,10.031,0,0,0,.955-.845q.309-.309.59-.64a10.858,10.858,0,0,0,1.237-1.78q.229-.4.42-.835a10.665,10.665,0,0,0,.688-2.073c.022-.1.042-.192.061-.289.034-.184.066-.367.094-.552a24.892,24.892,0,0,1,.461-2.87l.042.026a2.113,2.113,0,0,1-.04-.426A7.159,7.159,0,0,1,3191.731,496.945Z" transform="translate(-494.274 -291.7)"/><path class="z" d="M3235.3,459.874c-.092-2.407-1.681-2.35-3.553-1.795a18.828,18.828,0,0,1-3.811.394c-2.545.213-4.6,2.386-5.874,4.761a13.5,13.5,0,0,0-1,2.4c.626-.248,1.266-.467,1.9-.677l4.025-1.345a2.022,2.022,0,0,1,1.25-.139c.842.276.935,1.465.6,2.284a7.158,7.158,0,0,0-.953,2.455,2.149,2.149,0,0,0,.04.426c.082.05.162.1.235.154q1.346.937,2.73,1.815,1.464.928,2.968,1.791c0-.184,0-.368-.011-.552-.094-1.812-.614-3.8.374-5.323.33-.506.809-.91,1.1-1.44C3236.167,463.6,3235.366,461.472,3235.3,459.874Z" transform="translate(-531.372 -260.515)"/><path class="ac" d="M3308.39,723.5" transform="translate(-605.265 -485.374)"/><g transform="translate(2682.375 218.944)"><path class="e" d="M3227.481,607.678s0,0,0,0q-.086-1.147-.254-2.148c-.029-.177-.062-.349-.1-.518,0-.026-.009-.052-.016-.078a11.12,11.12,0,0,0-.9-2.767,7.594,7.594,0,0,0-1.878-2.521c-.034-.028-.066-.054-.1-.08l-.088-.065a3.409,3.409,0,0,0-2.454-.678c-2.037.221-3.288,2.212-4,3.967a15.078,15.078,0,0,0-.587,1.755s0,0,0,0c-.023.078-.042.154-.06.225l2.951.749.04.009,1.483.377a10.923,10.923,0,0,1,.52-1.518c.019-.046.039-.092.059-.137.011.022.021.043.031.066a7.719,7.719,0,0,1,.574,2.04v0c.374,2.269.461,6.266-.422,13.307q-.166,1.322-.378,2.794-.309,2.116-.723,4.557-.424,2.492-.974,5.343c-2.512,13.005-6.175,27.19-8.362,35.665-.275,1.058-.526,2.034-.752,2.915-.008.032-.017.063-.024.1a1.366,1.366,0,0,1-1.36,1.015.85.85,0,0,1-.154-.014c-.031,0-.062-.011-.091-.017a2.721,2.721,0,0,1-2.082-2.6c-.134-4.643-.6-16.614-1.978-27.51a92.2,92.2,0,0,0-2.858-14.739,20.29,20.29,0,0,0-2.984-6.435,6.845,6.845,0,0,0-2.169-1.9c-.132-.071-.266-.135-.4-.192a5,5,0,0,0-.524-.192,8.834,8.834,0,0,1-1.152-.451c-4.1-1.92-9.416-7.492-13.591-12.5-1.415-1.7-2.7-3.332-3.76-4.737a0,0,0,0,1,0,0c-.162-.212-.315-.418-.465-.62l-.044-.058-.031-.042-.077.051c-1.252.843-2.537,1.638-3.835,2.412.016.02.031.04.045.062,1.346,1.814,3.68,4.855,6.478,8.063,5.5,6.3,10.207,10.284,14.021,11.856q.545.226,1.066.385c.054.017.586.211,1.354,1.554,1.186,2.077,2.937,6.9,4.354,18.077,1.357,10.695,1.811,22.488,1.943,27.061a7.285,7.285,0,0,0,5.743,6.981c.091.02.183.037.272.052a5.854,5.854,0,0,0,.977.083,6,6,0,0,0,5.778-4.49c.006-.025.012-.049.02-.075q.226-.881.454-1.766l.3-1.16c4.566-17.682,8.721-35,10.438-47.93A68.564,68.564,0,0,0,3227.481,607.678Zm-5.53,14.788a4.26,4.26,0,0,0,.806.048l.134,4.613c-.092,0-.183,0-.274,0a8.744,8.744,0,0,1-1.388-.108Q3221.647,624.581,3221.951,622.467Z" transform="translate(-3173.51 -598.799)"/></g><path class="e" d="M3485.371,757.311c-.092,0-.183,0-.274,0a8.748,8.748,0,0,1-1.387-.108q.417-2.444.721-4.558a4.265,4.265,0,0,0,.806.048Z" transform="translate(-753.615 -510.038)"/><path class="f" d="M3414.67,1068.915c-.008.026-.014.051-.02.075a5.964,5.964,0,0,1-2.6,3.563l-3.226-3.692a1.365,1.365,0,0,0,1.36-1.015c.008-.032.017-.063.025-.1Z" transform="translate(-690.246 -776.665)"/><path class="f" d="M3313.98,755.22h4.443l-3.09,1.554Z" transform="translate(-609.996 -512.213)"/><path class="f" d="M3433.47,621.392c-1.806,13.474-6.129,31.625-10.621,49.133q-.229.884-.454,1.766c-.008.026-.014.051-.02.075l-4.426-1.112c.009-.038.02-.077.029-.115.225-.875.475-1.845.746-2.9,2.189-8.475,5.852-22.658,8.362-35.664.369-1.914.694-3.7.979-5.369l.721-4.558c.141-.978.268-1.9.379-2.784.883-7.052.792-11.047.415-13.31v0a7.514,7.514,0,0,0-.6-2.084l-.014.032c-.032.071-.063.145-.094.221l0-.151.009-.348.141-5.207a3.44,3.44,0,0,1,1.958.666l.088.065c.034.026.066.052.1.08a7.48,7.48,0,0,1,1.921,2.554,10.36,10.36,0,0,1,.857,2.735c.006.026.011.052.016.078.031.168.06.34.087.515q.152.992.225,2.14v0A72.721,72.721,0,0,1,3433.47,621.392Z" transform="translate(-697.971 -380.042)"/></g></g></svg>