<svg xmlns="http://www.w3.org/2000/svg" width="87.864" height="74.135" viewBox="0 0 87.864 74.135"><defs><style>.a{fill:#0099f2;}</style></defs><g transform="translate(-1 -11)"><path class="a" d="M84.059,28.161H52.483V11h-15.1V28.161H5.805A4.81,4.81,0,0,0,1,32.966V80.33a4.81,4.81,0,0,0,4.805,4.805H84.059a4.81,4.81,0,0,0,4.805-4.805V32.966A4.81,4.81,0,0,0,84.059,28.161Zm-45.3-15.788H51.11V32.966H38.754ZM52.483,34.339h4.805A2.062,2.062,0,0,1,59.347,36.4v2.746A2.062,2.062,0,0,1,57.288,41.2H32.576a2.062,2.062,0,0,1-2.059-2.059V36.4a2.062,2.062,0,0,1,2.059-2.059H52.483ZM87.491,80.33a3.436,3.436,0,0,1-3.432,3.432H5.805A3.436,3.436,0,0,1,2.373,80.33V32.966a3.436,3.436,0,0,1,3.432-3.432H37.381v3.432H32.576A3.436,3.436,0,0,0,29.144,36.4v2.746a3.436,3.436,0,0,0,3.432,3.432H57.288a3.436,3.436,0,0,0,3.432-3.432V36.4a3.436,3.436,0,0,0-3.432-3.432H52.483V29.534H84.059a3.436,3.436,0,0,1,3.432,3.432Z" transform="translate(0 0)"/><path class="a" d="M35.4,85h-.26l-7.291,6.448L20.557,85H20.3A10.308,10.308,0,0,0,10,95.3V100.1a1.374,1.374,0,0,0,1.373,1.373H44.322a1.374,1.374,0,0,0,1.373-1.373V95.3A10.308,10.308,0,0,0,35.4,85Zm8.924,15.1H11.373V95.3a8.935,8.935,0,0,1,8.668-8.92l7.807,6.9,7.807-6.9a8.935,8.935,0,0,1,8.668,8.92Z" transform="translate(-2.822 -23.204)"/><path class="a" d="M32.551,78.1A7.551,7.551,0,1,0,25,70.551,7.56,7.56,0,0,0,32.551,78.1Zm0-13.729a6.178,6.178,0,1,1-6.178,6.178A6.185,6.185,0,0,1,32.551,64.373Z" transform="translate(-7.525 -16.305)"/><path class="a" d="M103.517,65H74.686a.686.686,0,0,0,0,1.373h28.83a.686.686,0,0,0,0-1.373Z" transform="translate(-22.89 -16.932)"/><path class="a" d="M103.517,79H74.686a.686.686,0,0,0,0,1.373h28.83a.686.686,0,0,0,0-1.373Z" transform="translate(-22.89 -21.322)"/><path class="a" d="M103.517,93H74.686a.686.686,0,1,0,0,1.373h28.83a.686.686,0,1,0,0-1.373Z" transform="translate(-22.89 -25.712)"/><path class="a" d="M103.517,107H74.686a.686.686,0,1,0,0,1.373h28.83a.686.686,0,1,0,0-1.373Z" transform="translate(-22.89 -30.102)"/></g></svg>