<svg xmlns="http://www.w3.org/2000/svg" width="198.578" height="55.662" viewBox="0 0 198.578 55.662"><defs><style>.a{fill:#0099f4;}.b{fill:#ffc240;}</style></defs><g transform="translate(-638 -654.347)"><g transform="translate(682.19 675.683)"><g transform="translate(0 0)"><path class="a" d="M775.405,743.393a7.889,7.889,0,0,1-5.785-2.426,8.893,8.893,0,0,1-1.763-2.675,10.053,10.053,0,0,1-.788-3.318V719.711a2.79,2.79,0,0,1,.788-1.991,2.579,2.579,0,0,1,1.95-.829,2.628,2.628,0,0,1,1.991.829,2.79,2.79,0,0,1,.788,1.991v14.972a2.613,2.613,0,0,0,.85,1.97,2.8,2.8,0,0,0,3.94,0,2.618,2.618,0,0,0,.85-1.97V719.711a2.752,2.752,0,0,1,.806-1.991,2.7,2.7,0,0,1,2.012-.829,2.649,2.649,0,0,1,1.97.829,2.754,2.754,0,0,1,.807,1.991v14.972a2.679,2.679,0,0,0,.806,1.97,2.633,2.633,0,0,0,1.929.807,2.729,2.729,0,0,0,2.012-.807,2.678,2.678,0,0,0,.806-1.97V719.711a2.8,2.8,0,0,1,4.791-1.991,2.687,2.687,0,0,1,.85,1.991v15.262a8.452,8.452,0,0,1-.705,3.213,8.864,8.864,0,0,1-1.8,2.675,8.646,8.646,0,0,1-2.675,1.843,7.954,7.954,0,0,1-3.277.684,8.393,8.393,0,0,1-2.945-.539,7.36,7.36,0,0,1-2.572-1.613,9.784,9.784,0,0,1-2.592,1.555A8.671,8.671,0,0,1,775.405,743.393Z" transform="translate(-767.069 -716.813)"/><path class="a" d="M866.013,735.712a9.683,9.683,0,0,1,3.5,1.078,9.891,9.891,0,0,1,2.82,2.219,10.5,10.5,0,0,1,1.867,3.069,9.74,9.74,0,0,1,.684,3.629v7.341a2.534,2.534,0,0,1-.83,1.908,2.656,2.656,0,0,1-4.189-.539,2.381,2.381,0,0,0-.374.187c-.11.069-.221.131-.332.187a11.049,11.049,0,0,1-2.032.705,10.125,10.125,0,0,1-2.281.249,9.586,9.586,0,0,1-5.557-1.68,10.353,10.353,0,0,1-3.65-4.334,11.029,11.029,0,0,1-.643-1.95,9.544,9.544,0,0,1,0-4.148,11.093,11.093,0,0,1,.643-1.95,10.168,10.168,0,0,1,3.65-4.355,9.68,9.68,0,0,1,5.557-1.659h.6A4.018,4.018,0,0,1,866.013,735.712Zm-1.2,14.64a4.658,4.658,0,0,0,1.8-.353,4.485,4.485,0,0,0,1.473-.975,4.768,4.768,0,0,0,1-1.472,4.544,4.544,0,0,0,.373-1.844,4.348,4.348,0,0,0-.373-1.763,4.841,4.841,0,0,0-2.51-2.51,4.343,4.343,0,0,0-1.763-.373,4.2,4.2,0,0,0-1.742.373,4.915,4.915,0,0,0-1.473,1.016,4.847,4.847,0,0,0-1.016,1.5,4.349,4.349,0,0,0-.373,1.763,4.23,4.23,0,0,0,.394,1.8,4.877,4.877,0,0,0,1.037,1.473,5.125,5.125,0,0,0,1.473,1A4.11,4.11,0,0,0,864.81,750.352Z" transform="translate(-824.746 -729.163)"/><path class="a" d="M936.105,738.518a2.755,2.755,0,0,1,.045,3.9l-.045.045a3.091,3.091,0,0,1-1.949.806,2.529,2.529,0,0,1-1.991-.806l-6.263-6.222v4.231a2.688,2.688,0,0,1-.829,1.929,2.638,2.638,0,0,1-1.95.85,2.8,2.8,0,0,1-1.949-.806,2.588,2.588,0,0,1-.871-1.97V719.526a2.8,2.8,0,1,1,5.6-.12c0,.04,0,.08,0,.12v10.41l6.263-6.262a2.6,2.6,0,0,1,1.949-.806,2.974,2.974,0,0,1,1.991.806,2.755,2.755,0,0,1,.045,3.9l-.045.045-5.474,5.475Z" transform="translate(-867.839 -716.666)"/><path class="a" d="M974.98,735.552a2.887,2.887,0,0,1,1.887.7,2.264,2.264,0,0,1,.85,1.825v7.506a4.525,4.525,0,0,0,1.327,3.235,4.774,4.774,0,0,0,1.472,1,4.547,4.547,0,0,0,1.843.373,4.7,4.7,0,0,0,1.721-.332,4.8,4.8,0,0,0,1.5-.912,4.52,4.52,0,0,0,1.037-1.39,3.981,3.981,0,0,0,.394-1.763v-7.589a2.649,2.649,0,0,1,2.649-2.65h.047a2.816,2.816,0,0,1,1.908.726,2.3,2.3,0,0,1,.83,1.8v22.628a2.363,2.363,0,0,1-.83,1.825,2.766,2.766,0,0,1-1.908.747,2.72,2.72,0,0,1-1.867-.747,2.5,2.5,0,0,1-.829-1.95v-6.083a7.077,7.077,0,0,1-2.177.85,11.416,11.416,0,0,1-2.468.269,9.622,9.622,0,0,1-3.857-.788,10.412,10.412,0,0,1-3.215-2.157,10.085,10.085,0,0,1-2.2-3.256,10.372,10.372,0,0,1-.806-4.127v-7.093a2.649,2.649,0,0,1,2.649-2.65h.047Z" transform="translate(-902.026 -729.086)"/><path class="a" d="M1048.249,735.794a9.636,9.636,0,0,1,3.858.788,10.184,10.184,0,0,1,3.194,2.157,10.464,10.464,0,0,1,2.177,3.194,9.52,9.52,0,0,1,.806,3.9,9.952,9.952,0,0,1-.767,3.9,10.081,10.081,0,0,1-2.115,3.194,9.864,9.864,0,0,1-3.193,2.157,9.988,9.988,0,0,1-3.961.788,10.237,10.237,0,0,1-4.645-1.037v6.083a2.553,2.553,0,0,1-.788,1.867,2.651,2.651,0,0,1-1.95.788,2.687,2.687,0,0,1-1.843-.726,2.457,2.457,0,0,1-.85-1.8V745.832a9.417,9.417,0,0,1,.807-3.857,10.4,10.4,0,0,1,5.371-5.371A9.5,9.5,0,0,1,1048.249,735.794ZM1043.6,745.83a4.57,4.57,0,0,0,1.39,3.359,4.719,4.719,0,0,0,1.5.975,4.555,4.555,0,0,0,1.762.353,4.406,4.406,0,0,0,1.825-.373,4.723,4.723,0,0,0,2.779-4.318,4.428,4.428,0,0,0-.373-1.8,4.767,4.767,0,0,0-1-1.473,4.655,4.655,0,0,0-5.081-.954,4.769,4.769,0,0,0-1.473,1,4.537,4.537,0,0,0-1.327,3.235Z" transform="translate(-945.352 -729.245)"/><path class="a" d="M1110.71,735.673a9.119,9.119,0,0,1,3.816.83,10.9,10.9,0,0,1,5.433,5.415,8.985,8.985,0,0,1,.83,3.795,2.65,2.65,0,0,1-.807,1.908,2.562,2.562,0,0,1-2.011.788h-11.032a4.362,4.362,0,0,0,3.773,1.95,4.318,4.318,0,0,0,1.12-.125,4.922,4.922,0,0,0,.806-.29,7.543,7.543,0,0,1,.705-.29,2.426,2.426,0,0,1,.806-.124,2.8,2.8,0,0,1,2.468,1.638,2.652,2.652,0,0,1,.207,1.473,2.6,2.6,0,0,1-.726,1.452,6.437,6.437,0,0,1-2.488,1.267,12.965,12.965,0,0,1-2.9.394,8.432,8.432,0,0,1-3.816-.726,10.536,10.536,0,0,1-3.214-2.2,10.382,10.382,0,0,1-2.2-3.256,9.611,9.611,0,0,1-.807-3.858,9.219,9.219,0,0,1,.807-3.774,10.738,10.738,0,0,1,2.177-3.214,10.593,10.593,0,0,1,3.194-2.219A9.216,9.216,0,0,1,1110.71,735.673Zm3.774,7.3a5.512,5.512,0,0,0-1.659-1.39,4.617,4.617,0,0,0-4.251,0,5.585,5.585,0,0,0-1.638,1.39Z" transform="translate(-986.455 -729.165)"/><path class="a" d="M1167.57,716.894a2.615,2.615,0,0,1,1.949.806,3.094,3.094,0,0,1,.871,2.012v3.152h7.962a2.5,2.5,0,0,1,1.949.83,2.821,2.821,0,0,1,.746,1.95,2.689,2.689,0,0,1-.83,1.929,2.549,2.549,0,0,1-1.866.85h-7.963v4.724a4.643,4.643,0,0,0,.352,1.8,4.955,4.955,0,0,0,.975,1.514,4.435,4.435,0,0,0,1.473,1.037,4.545,4.545,0,0,0,1.843.373,5.219,5.219,0,0,0,1.844-.29,3.763,3.763,0,0,0,1.348-.871,3,3,0,0,1,1.929-.767,2.8,2.8,0,0,1,1.97.806,2.467,2.467,0,0,1,.622.85,2.768,2.768,0,0,1,.231,1,2.837,2.837,0,0,1-.144,1.016,2.2,2.2,0,0,1-.539.871,10.507,10.507,0,0,1-3.194,2.157,9.368,9.368,0,0,1-3.733.746,11.317,11.317,0,0,1-4.065-.726,10.22,10.22,0,0,1-3.36-2.074,9.9,9.9,0,0,1-2.3-3.235,10.588,10.588,0,0,1-.891-4.21V719.5a2.379,2.379,0,0,1,.85-1.866A2.89,2.89,0,0,1,1167.57,716.894Z" transform="translate(-1028.59 -716.815)"/></g></g><g transform="translate(638 654.347)"><path class="b" d="M676.082,671.721c0-.06-.008-.119-.012-.179-.036-.435-.089-.873-.159-1.31a17.424,17.424,0,0,0-.6-2.531,19.3,19.3,0,0,0-6.032-8.912c-.226-.188-.457-.373-.691-.55a18.953,18.953,0,0,0-17.013-3.075,19.408,19.408,0,0,0-12.787,12.65c-1.725,5.528-.452,11.056,2.225,16.211,3.507,6.753,9.426,12.866,14.18,17.5a4.5,4.5,0,0,0,1.459,1.072,3.166,3.166,0,0,0,.55.149v.05a3.2,3.2,0,0,0,.546-.153,4.5,4.5,0,0,0,1.447-1.084c4.7-4.669,10.562-10.828,14.009-17.612q.333-.655.635-1.32a28.763,28.763,0,0,0,1.2-3.081A20.5,20.5,0,0,0,676.082,671.721Zm-6.8,7.5a13.645,13.645,0,1,1-3.44-16.757c.228.189.451.385.667.592a13.6,13.6,0,0,1,4.172,8.174,14.074,14.074,0,0,1,.111,1.7A13.591,13.591,0,0,1,669.286,679.223Z" transform="translate(-638 -654.347)"/><path class="b" d="M684.252,693.063l-.975-2.958a1.53,1.53,0,0,1-.114-.709c.062-.393.408-.666.656-.976a2.051,2.051,0,0,0,.189-2.3,1.7,1.7,0,0,0-2.151-.63,1.492,1.492,0,0,0-.672,1.727.248.248,0,0,0,.394.116.711.711,0,0,1,.9-.048.768.768,0,0,1-.035,1.186,1.9,1.9,0,0,1-.795.312,5.369,5.369,0,0,1-3.615-.534,2.433,2.433,0,0,1-.917-2.423,6.975,6.975,0,0,1,1.676-4.142,1.466,1.466,0,0,0,.525-.994c-.033-.42-.449-.7-.851-.832a1.027,1.027,0,0,0-.935.064,1.232,1.232,0,0,0-.354.83c-.17,1.1-.328,1.9-.407,3.014-.048.665-.159,1.435-.261,2.287a.132.132,0,0,1-.26.014c-.06-.24-.066-.557-.092-.72a2.7,2.7,0,0,0-.118-.594,5.811,5.811,0,0,0-.845-1.608,5.006,5.006,0,0,0-.678-.721c-.05-.045-.727-.664-.773-.582a.066.066,0,0,0,0,.059,4.161,4.161,0,0,1,.293,2.263.134.134,0,0,1-.245.05c-.025-.04-.051-.08-.077-.119a4.833,4.833,0,0,0-.527-.681,3.242,3.242,0,0,0-.314-.291c-.072-.059-.273-.254-.3-.058a.892.892,0,0,0,.014.173c.006.112.009.225.005.338a3.9,3.9,0,0,1-.076.67.7.7,0,0,1-.136.33.772.772,0,0,1-.594.173l-3.1.013a.567.567,0,0,0-.33.069c-.163.115-.158.353-.133.55a5.553,5.553,0,0,0,.624,2.161,2.341,2.341,0,0,0,1.807,1.213c.96.048,1.944-.674,2.816-.007a1.416,1.416,0,0,1,.316.343,2.732,2.732,0,0,1,.361,1.659,8.615,8.615,0,0,1-.51,2.592l-.01.029c-.075.15-.153.3-.234.449-.169.313-.354.617-.526.927a.23.23,0,0,1-.3.129,1.658,1.658,0,0,0-1.988,1.107c.977.044,1.944.094,2.911.125a.639.639,0,0,0,.464-.255,4.334,4.334,0,0,0,.742-1.068c.127-.264.255-.2.5-.158a6.8,6.8,0,0,0,4.231-.608,10.342,10.342,0,0,0,1.162-.745,7.353,7.353,0,0,0,2.175,1.737,1.6,1.6,0,0,0-.774,1.05,21.627,21.627,0,0,0,3.228-.046A23.821,23.821,0,0,0,684.252,693.063Zm-6.333-12.434c.07-.164.141-.336.367-.2.2.119.413.24.249.531a2.758,2.758,0,0,1-.591.7.148.148,0,0,1-.246-.129A3.387,3.387,0,0,1,677.919,680.629Z" transform="translate(-657.864 -671.069)"/></g></g></svg>