<svg xmlns="http://www.w3.org/2000/svg" width="15.6" height="17.095" viewBox="0 0 15.6 17.095"><defs><style>.a{opacity:0.48;}.b{fill:#d9e8ed;stroke:#8ea9b2;stroke-width:0.6px;}</style></defs><g class="a" transform="translate(-706.113 -355.922)"><path class="b" d="M706.857,380.974h14.112a.983.983,0,0,0,.013-.11c0-.815.005-1.63,0-2.445a.986.986,0,0,0-.785-1,4.185,4.185,0,0,0-.665-.027c-.205-.009-.3-.113-.243-.279.019-.056.091-.133.141-.135a2.111,2.111,0,0,1,1.327.22,1.465,1.465,0,0,1,.658,1.312q0,3.346,0,6.692,0,2.516,0,5.032a1.54,1.54,0,0,1-.292.971,1.5,1.5,0,0,1-1.276.574H707.957a1.521,1.521,0,0,1-1.1-.4,1.425,1.425,0,0,1-.433-.934c-.007-.071-.006-.143-.006-.214q0-5.862,0-11.724a1.442,1.442,0,0,1,.8-1.39,2.1,2.1,0,0,1,1.114-.135c.055,0,.14.116.145.182a.238.238,0,0,1-.12.2,2.454,2.454,0,0,1-.482.034.99.99,0,0,0-.992.752.8.8,0,0,0-.026.211q0,1.258,0,2.516C706.85,380.9,706.854,380.929,706.857,380.974Zm0,.447c0,.06-.01.112-.01.164q0,4.362,0,8.725a1.079,1.079,0,0,0,.033.3,1,1,0,0,0,1.055.745h11.9a1.023,1.023,0,0,0,1.141-1.125q0-4.309,0-8.618v-.189Z" transform="translate(0 -19.061)"/><path class="b" d="M854.516,358.132c0-.371,0-.743,0-1.115a.72.72,0,0,1,.771-.793c.128,0,.257,0,.385,0a.706.706,0,0,1,.773.748q.024,1.175,0,2.35a.7.7,0,0,1-.779.738q-.192,0-.385,0a.71.71,0,0,1-.764-.754C854.511,358.916,854.516,358.524,854.516,358.132Zm.485,0V359c0,.6,0,.6.607.592.291-.006.359-.073.359-.358q0-.951,0-1.9c0-.647,0-.647-.652-.633-.234.005-.313.083-.314.319C855,357.386,855,357.757,855,358.127Z" transform="translate(-137.568)"/><path class="b" d="M743.891,358.209c0,.372,0,.743,0,1.115a.7.7,0,0,1-.775.776c-.155,0-.311,0-.466,0a.682.682,0,0,1-.672-.673q-.012-1.246,0-2.492a.667.667,0,0,1,.621-.656,4.512,4.512,0,0,1,.647,0,.657.657,0,0,1,.637.659c.013.425,0,.851,0,1.276Zm-1.433-.041c0,.392,0,.784,0,1.176a.239.239,0,0,0,.264.28c.142,0,.284,0,.426,0a.248.248,0,0,0,.269-.282c0-.77,0-1.541,0-2.311,0-.212-.092-.291-.3-.3-.122,0-.243,0-.365,0-.211.006-.289.085-.29.3C742.457,357.411,742.458,357.789,742.458,358.168Z" transform="translate(-33.029 -0.038)"/><path class="b" d="M775.584,376.981h2.693c.224,0,.323.077.32.243s-.106.243-.328.243h-5.427c-.219,0-.33-.089-.324-.247s.112-.238.332-.239Z" transform="translate(-61.657 -19.076)"/><path class="b" d="M850.068,462.95c.209,0,.419-.007.627,0a.647.647,0,0,1,.659.613c.024.464.024.931,0,1.4a.658.658,0,0,1-.672.625c-.418.008-.837.007-1.255,0a.639.639,0,0,1-.669-.579,11.811,11.811,0,0,1,0-1.492.627.627,0,0,1,.621-.56c.229-.011.459,0,.688,0Zm-.027,2.154c.2,0,.391,0,.587,0a.237.237,0,0,0,.269-.259q.011-.577,0-1.154a.234.234,0,0,0-.265-.26c-.384,0-.769,0-1.154,0a.232.232,0,0,0-.268.255q-.007.577,0,1.154a.236.236,0,0,0,.264.262C849.663,465.1,849.852,465.1,850.041,465.1Z" transform="translate(-132.27 -99.169)"/><path class="b" d="M792.418,520.517c0-.2-.005-.405,0-.607a.658.658,0,0,1,.635-.682c.451-.022.9-.023,1.355,0a.666.666,0,0,1,.645.677c.011.418.011.837,0,1.255a.65.65,0,0,1-.6.673,10.322,10.322,0,0,1-1.413.006.655.655,0,0,1-.623-.712c0-.2,0-.4,0-.607Zm2.155.026c0-.189,0-.378,0-.567a.244.244,0,0,0-.262-.287c-.385-.007-.769-.006-1.154,0a.234.234,0,0,0-.261.247q-.005.6,0,1.194a.232.232,0,0,0,.26.247c.385,0,.769,0,1.154,0a.236.236,0,0,0,.261-.266C794.571,520.921,794.572,520.732,794.572,520.543Z" transform="translate(-79.929 -151.785)"/><path class="b" d="M738.6,520.493c0,.216.006.432,0,.648a.636.636,0,0,1-.574.649,11.414,11.414,0,0,1-1.452,0,.646.646,0,0,1-.606-.669c-.013-.418-.014-.837,0-1.255a.682.682,0,0,1,.681-.689c.424-.016.851-.017,1.275,0a.675.675,0,0,1,.68.724c0,.2,0,.391,0,.587Zm-2.154-.02c0,.2,0,.391,0,.587a.244.244,0,0,0,.272.278c.378,0,.756,0,1.134,0a.241.241,0,0,0,.273-.256c0-.391,0-.783,0-1.174a.235.235,0,0,0-.252-.257c-.391-.006-.783-.008-1.174,0a.239.239,0,0,0-.254.275C736.448,520.108,736.444,520.29,736.444,520.472Z" transform="translate(-27.146 -151.746)"/><path class="b" d="M792.419,464.22c0-.216-.008-.432,0-.648a.667.667,0,0,1,.646-.652c.445-.014.891-.014,1.336,0a.678.678,0,0,1,.649.675c.012.425.014.851,0,1.276a.7.7,0,0,1-.712.68q-.607.007-1.215,0a.692.692,0,0,1-.706-.7c-.006-.209,0-.418,0-.628Zm1.318-.82c-.2,0-.391,0-.587,0-.158,0-.248.069-.251.223q-.009.606,0,1.213a.219.219,0,0,0,.246.234c.391,0,.782,0,1.173,0a.226.226,0,0,0,.254-.247c0-.391,0-.782,0-1.173a.218.218,0,0,0-.248-.248C794.128,463.4,793.932,463.4,793.737,463.4Z" transform="translate(-79.928 -99.135)"/><path class="b" d="M738.595,464.211c0,.2,0,.405,0,.608a.7.7,0,0,1-.731.72q-.587.005-1.175,0a.7.7,0,0,1-.731-.7q-.019-.617,0-1.235a.692.692,0,0,1,.716-.7q.607-.013,1.215,0a.685.685,0,0,1,.705.721C738.6,463.82,738.595,464.015,738.595,464.211Zm-1.312.846c.189,0,.378,0,.567,0a.232.232,0,0,0,.27-.255q.007-.587,0-1.174a.222.222,0,0,0-.255-.244q-.577.006-1.153,0a.234.234,0,0,0-.271.269c0,.378,0,.756,0,1.133a.24.24,0,0,0,.277.269C736.9,465.056,737.094,465.057,737.283,465.057Z" transform="translate(-27.14 -99.122)"/><path class="b" d="M849.952,519.306c.229,0,.46-.015.687,0a.629.629,0,0,1,.6.6c.021.471.02.944,0,1.415a.6.6,0,0,1-.568.588,10.627,10.627,0,0,1-1.392.011.632.632,0,0,1-.652-.664,10.655,10.655,0,0,1,.013-1.372.619.619,0,0,1,.6-.577c.234-.02.471,0,.707,0Zm-.856,1.289c0,.189,0,.378,0,.568,0,.213.084.293.3.295.365,0,.73,0,1.095,0a.257.257,0,0,0,.3-.279q.007-.568,0-1.135a.252.252,0,0,0-.279-.277c-.378,0-.757,0-1.135,0a.25.25,0,0,0-.275.279C849.1,520.229,849.1,520.412,849.1,520.594Z" transform="translate(-132.156 -151.866)"/></g></svg>