<svg xmlns="http://www.w3.org/2000/svg" width="11.38" height="10.507" viewBox="0 0 11.38 10.507"><defs><style>.a{fill:#b495fa;stroke:#b495fa;stroke-width:0.4px;}</style></defs><g transform="translate(-640.363 -623.221)"><path class="a" d="M641.446,629.045c-.148.148-.281.285-.418.418a.244.244,0,0,1-.344.042.232.232,0,0,1-.058-.329.544.544,0,0,1,.065-.076q.381-.382.763-.763a.26.26,0,0,1,.427,0q.386.384.771.77a.263.263,0,0,1,.082.284.235.235,0,0,1-.189.163.264.264,0,0,1-.243-.093l-.313-.309-.035.017c.077.28.134.568.235.84a4.561,4.561,0,0,0,7.278,1.9,4.3,4.3,0,0,0,1.553-3.808,4.435,4.435,0,0,0-2.708-3.807,4.3,4.3,0,0,0-1.72-.384,1.216,1.216,0,0,1-.151-.009.243.243,0,0,1-.211-.244.235.235,0,0,1,.216-.238,4.492,4.492,0,0,1,.573.023,4.788,4.788,0,0,1,1.847.569,4.925,4.925,0,0,1,2.564,3.465,5.051,5.051,0,0,1-5.359,6.028,4.917,4.917,0,0,1-4.043-2.627,4.5,4.5,0,0,1-.561-1.724C641.465,629.126,641.457,629.1,641.446,629.045Z"/><path class="a" d="M780.867,680.8h2.07a.26.26,0,0,1,.289.2.239.239,0,0,1-.191.294.826.826,0,0,1-.151.011h-2.168a.905.905,0,0,1-.131-.008.233.233,0,0,1-.214-.239q0-1.417,0-2.833a.241.241,0,0,1,.241-.245.247.247,0,0,1,.249.229,1.169,1.169,0,0,1,0,.131q0,1.17,0,2.339Z" transform="translate(-134.14 -52.351)"/></g></svg>