<svg xmlns="http://www.w3.org/2000/svg" width="27.375" height="27.38" viewBox="0 0 27.375 27.38"><defs><style>.a{fill:#575c71;}</style></defs><g transform="translate(337.203 -680.437)"><path class="a" d="M-334.094,682.974c0-.323,0-.619,0-.914a1.568,1.568,0,0,1,1.464-1.6,6.1,6.1,0,0,1,1.151.012,1.533,1.533,0,0,1,1.37,1.5c.011.324,0,.648,0,.988h13.182c0-.346-.019-.681,0-1.013a1.534,1.534,0,0,1,1.449-1.485,6.2,6.2,0,0,1,1.065,0,1.575,1.575,0,0,1,1.472,1.6c.009.3,0,.591,0,.919.36,0,.7.02,1.027,0a1.933,1.933,0,0,1,2.076,2.058c-.023,2.489-.006,4.979-.006,7.469,0,2.557,0,5.114,0,7.671a1.879,1.879,0,0,1-1.093,1.9,2.7,2.7,0,0,1-.889.18c-.36.03-.725.007-1.1.007v4.863h1.8c.3,0,.6,0,.894,0,.222,0,.375.114.375.347s-.166.328-.382.342c-.077,0-.154,0-.231,0h-26.1c-.115,0-.256.029-.339-.025-.12-.079-.265-.216-.274-.338-.007-.1.158-.232.275-.305a.644.644,0,0,1,.311-.025c.816,0,1.633,0,2.47,0v-4.863c-.347,0-.7-.019-1.05,0a1.915,1.915,0,0,1-2.038-2.034q.014-7.6,0-15.2a1.893,1.893,0,0,1,2.047-2.05Zm10.585.684q-5.825,0-11.65,0a1.208,1.208,0,0,0-1.355,1.264q-.006,7.7.01,15.4a1.655,1.655,0,0,0,.288.817,1.213,1.213,0,0,0,1.155.44l23.069,0a4.277,4.277,0,0,0,.431-.022,1.074,1.074,0,0,0,.944-.739,1.984,1.984,0,0,0,.082-.68q.006-7.527,0-15.053c0-.115-.005-.23-.01-.346a1.113,1.113,0,0,0-.407-.8,1.34,1.34,0,0,0-.969-.283Q-317.712,683.659-323.508,683.657Zm6.556,23.439v-4.829h-13.134V707.1Zm3.3,0v-4.829h-2.593V707.1Zm-19.728-4.828v4.825h2.578v-4.825Zm19.744-19.3c0-.364.02-.7,0-1.032a.808.808,0,0,0-.806-.783,8.485,8.485,0,0,0-.978,0,.783.783,0,0,0-.775.613c-.059.391-.055.793-.079,1.2Zm-17.162,0c0-.365.024-.7-.006-1.033a.807.807,0,0,0-.807-.781,8.1,8.1,0,0,0-.977,0,.794.794,0,0,0-.8.7c-.035.367-.007.739-.007,1.117Z"/><path class="a" d="M-287.891,745.928a2.992,2.992,0,0,1,2.757-2.611,2.955,2.955,0,0,1,2.869,1.562,2.985,2.985,0,0,1-.52,3.523,2.909,2.909,0,0,1,.424,3.676,2.77,2.77,0,0,1-2.964,1.4,2.954,2.954,0,0,1-2.569-2.608h-6.972a2.971,2.971,0,0,1-2.726,2.63,2.943,2.943,0,0,1-2.911-1.587,3,3,0,0,1,.532-3.5,2.9,2.9,0,0,1-.406-3.695,2.772,2.772,0,0,1,3.089-1.351,2.937,2.937,0,0,1,2.419,2.556Zm5.281.331a2.285,2.285,0,0,0-2.261-2.265,2.3,2.3,0,0,0-2.32,2.176c-.011.368-.143.47-.541.47-2.336,0-4.672-.006-7.008,0-.872,0-.767-.11-.856-.738a2.29,2.29,0,0,0-3.289-1.662,2.285,2.285,0,0,0-.474,3.776c.362.332.358.443,0,.781a2.291,2.291,0,0,0-.76,2.045,2.3,2.3,0,0,0,3.263,1.762,2.292,2.292,0,0,0,1.3-1.97c.027-.357.134-.469.45-.469q3.735,0,7.47,0c.3,0,.41.111.444.414a4.051,4.051,0,0,0,.055.457,2.3,2.3,0,0,0,1.962,1.775,2.293,2.293,0,0,0,2.382-1.361,2.311,2.311,0,0,0-.578-2.637c-.392-.358-.391-.456,0-.818A2.2,2.2,0,0,0-282.61,746.259Z" transform="translate(-32.138 -55.599)"/></g></svg>