<svg xmlns="http://www.w3.org/2000/svg" width="28.822" height="28.822" viewBox="0 0 28.822 28.822"><defs><style>.a{fill:#575c71;}</style></defs><g transform="translate(76.091 -676.937)"><g transform="translate(-72.801 682.129)"><path class="a" d="M-47.8,738.914c.125.113.567.659.7.765.345-.19-.6.261-.23.129,0,0,2.414-1.46,2.413-1.455.348-.259.793-.488,1.132-.73a.441.441,0,0,1,.243-.064q2.866,0,5.731.01a.806.806,0,0,1,.116.021v5.592l-.005.269c0,.234.032,1.085.014,1.073.082,1.36,0,0,.01.185s-.046-.177,0,0c.011.043.053-.188.064-.144a.547.547,0,0,0,.69.036l.191-.131c-.022-.394-.135.563-.033.184-.024.013.013-.672.02-1.3V739.3c.177.149.326.282.483.405a3.2,3.2,0,0,0,2.92.579c.328-.084.42-.258.36-.624a3.241,3.241,0,0,0-3.329-2.646c-.139.009-.28,0-.451,0a4.855,4.855,0,0,1,.882-3.144,4.7,4.7,0,0,1,4-1.982c.967,0,1.933,0,2.9,0a1.72,1.72,0,0,0,1.857-1.85q.006-1.219,0-2.439a1.617,1.617,0,0,0-1.6-1.611q-1.43-.014-2.859,0a.728.728,0,0,1-.606-.311c-.755-1.08-1.528-2.147-2.286-3.225a1.977,1.977,0,0,0-2.106-.831,15.783,15.783,0,0,1-4.084,0c-1.962-.219-3.152.774-3.158,2.588q-.017,5.554-.023,11.107a2.238,2.238,0,0,1-1.507,2.244m11.329,1.876a2.154,2.154,0,0,1-2.368-1.477A2.17,2.17,0,0,1-34.021,739.435Zm5.954-11.257-1.352-1.185C-28.5,726.571-27.983,727-28.068,728.177Zm-9.612,8.446h-5.451l.213-.837h5.3Zm9.583-6.242a.716.716,0,0,1-.577.564,1.155,1.155,0,0,1-.294.026c-1.779,0-3.558,0-5.337-.012a4.723,4.723,0,0,1-2.306-.583c-.1-.053-.194-.1-.294-.148-.3-.134-.534-.074-.651.164a.443.443,0,0,0,.234.633c.6.263,1.215.488,1.827.72a1.65,1.65,0,0,0,.306.067c-.5.541-1.042,1.055-1.5,1.634a8.41,8.41,0,0,0-.628,1.186c-.052.093-.175.209-.266.209-1.767.012-3.534.009-5.328.009-.007-.108-.02-.2-.02-.3q0-5.19.009-10.379a1.5,1.5,0,0,1,.664-1.388,1.63,1.63,0,0,1,.79-.259c1.823-.023,3.646-.01,5.468-.016a.882.882,0,0,1,.759.44c.766,1.085,1.543,2.163,2.3,3.256a1.4,1.4,0,0,0,1.36.694,1.438,1.438,0,0,1,1.222.471A19.77,19.77,0,0,0-28.5,729,1.193,1.193,0,0,1-28.1,730.381Z" transform="translate(47.797 -721.585)"/></g><g transform="translate(-67.002 683.636)"><path class="a" d="M3,742.021a3.24,3.24,0,0,0,2.364-1.607,3.463,3.463,0,0,0,.423-1.769c0-.417-.006-.835.017-1.25a.409.409,0,0,1,.459-.413.4.4,0,0,1,.432.406,6.509,6.509,0,0,1-.386,3.2,4.1,4.1,0,0,1-3.622,2.4c-.414.027-.6-.167-.609-.591-.008-.4,0-.79,0-1.185q.009-2.931.018-5.861c0-.11,0-.22.007-.329a.443.443,0,0,1,.457-.465.441.441,0,0,1,.457.464c.008.109,0,.219,0,.329Q3.011,738.469,3,741.6C3,741.726,3,741.855,3,742.021Z" transform="translate(-2.074 -734.548)"/></g><g transform="translate(-61.68 684.823)"><path class="a" d="M47.848,745.575a.811.811,0,1,1,.8.833A.825.825,0,0,1,47.848,745.575Z" transform="translate(-47.847 -744.762)"/></g><g transform="translate(-76.091 676.937)"><path class="a" d="M-61.68,705.759a14.427,14.427,0,0,1-14.411-14.411A14.427,14.427,0,0,1-61.68,676.937a14.427,14.427,0,0,1,14.411,14.411A14.428,14.428,0,0,1-61.68,705.759Zm0-28.008a13.613,13.613,0,0,0-13.6,13.6,13.613,13.613,0,0,0,13.6,13.6,13.613,13.613,0,0,0,13.6-13.6A13.613,13.613,0,0,0-61.68,677.751Z" transform="translate(76.091 -676.937)"/></g></g></svg>