<svg xmlns="http://www.w3.org/2000/svg" width="32.07" height="27.204" viewBox="0 0 32.07 27.204"><defs><style>.a{fill:#575c71;}</style></defs><g transform="translate(-223 -617.055)"><g transform="translate(-15.453 -54.83)"><path class="a" d="M240.894,680.185c-.123-.73-.24-1.41-.351-2.091a1.988,1.988,0,0,1,.358-1.813,2.371,2.371,0,0,1,1.494-.62q6.555-1.044,13.111-2.082c3.49-.554,6.979-1.115,10.471-1.661a1.734,1.734,0,0,1,2.146,1.591q1.035,6.481,2.077,12.961c.121.761.261,1.522.317,2.289a1.545,1.545,0,0,1-1.308,1.746c-.82.18-1.654.3-2.485.425-.244.036-.306.123-.3.359.009,1.945,0,3.889.006,5.834a2.082,2.082,0,0,1-.347,1.251,1.8,1.8,0,0,1-1.6.716q-6.179-.006-12.358,0-5.878,0-11.756,0a1.874,1.874,0,0,1-1.384-.468,1.686,1.686,0,0,1-.506-1.123c-.019-.229-.016-.461-.016-.691q0-7.082,0-14.163a5.673,5.673,0,0,1,.045-1.136,1.658,1.658,0,0,1,1.648-1.32C240.38,680.174,240.61,680.185,240.894,680.185Zm11.517,18.2v0H264.5c.822,0,1.2-.377,1.2-1.192q0-7.548,0-15.1a1.048,1.048,0,0,0-1.193-1.2q-11.967,0-23.934,0c-1.248,0-1.426.424-1.424,1.394.013,4.932.009,9.863.016,14.8a2.476,2.476,0,0,0,.078.593.857.857,0,0,0,.753.68,2.938,2.938,0,0,0,.449.031Q246.427,698.389,252.411,698.388ZM241.589,680.18h22.836a1.786,1.786,0,0,1,2,1.976q.007,3.879,0,7.758v.369c.9-.151,1.749-.279,2.594-.441a.955.955,0,0,0,.82-1.136c-.22-1.394-.45-2.787-.672-4.181q-.678-4.256-1.352-8.514c-.134-.84-.259-1.683-.422-2.517a.963.963,0,0,0-1.246-.885q-1.173.176-2.345.363-5.175.828-10.349,1.66-5.694.91-11.389,1.814a.929.929,0,0,0-.865,1.1C241.3,678.414,241.454,679.282,241.589,680.18Z"/><path class="a" d="M267.271,781.751c.611,0,1.221-.005,1.832,0a.937.937,0,0,1,1.036,1.021q.018,1.847,0,3.7a.958.958,0,0,1-1.077,1.048q-1.772.006-3.545,0a.989.989,0,0,1-1.128-1.126q-.012-1.787,0-3.575a.942.942,0,0,1,1.077-1.064C266.069,781.747,266.67,781.751,267.271,781.751Zm-.016.719v.005h-1.683c-.431,0-.476.056-.474.479q.009,1.728,0,3.455c0,.327.049.393.376.394,1.192,0,2.384,0,3.576,0,.289,0,.39-.127.389-.4,0-1.182-.007-2.364,0-3.546,0-.281-.1-.4-.386-.4C268.457,782.477,267.856,782.47,267.255,782.47Z" transform="translate(-22.984 -97.372)"/><path class="a" d="M265.792,868.122c-.62,0-1.24,0-1.859,0-.325,0-.484-.122-.486-.362s.146-.352.484-.353q1.875,0,3.749,0c.241,0,.449.041.465.338.014.251-.136.374-.464.377C267.052,868.125,266.422,868.122,265.792,868.122Z" transform="translate(-22.152 -173.29)"/><path class="a" d="M317.194,867.394c.63,0,1.26,0,1.89,0,.249,0,.442.062.456.351.011.235-.141.364-.445.364q-1.9.006-3.809,0c-.293,0-.466-.146-.446-.371.025-.279.212-.349.465-.346C315.935,867.4,316.565,867.394,317.194,867.394Z" transform="translate(-67.701 -173.277)"/><path class="a" d="M369.3,867.395c.63,0,1.259,0,1.889,0,.252,0,.441.067.463.347.019.234-.159.37-.477.37q-1.874,0-3.748,0c-.329,0-.478-.122-.476-.368s.148-.345.489-.346C368.063,867.393,368.682,867.395,369.3,867.395Z" transform="translate(-113.89 -173.278)"/><path class="a" d="M421.315,867.4c.63,0,1.26,0,1.89,0,.313,0,.455.117.446.356-.01.294-.212.358-.454.358q-1.9,0-3.809,0c-.29,0-.455-.15-.435-.381.023-.267.2-.337.442-.336C420.036,867.4,420.676,867.4,421.315,867.4Z" transform="translate(-159.977 -173.285)"/></g></g></svg>