<svg xmlns="http://www.w3.org/2000/svg" width="25.058" height="24.032" viewBox="0 0 25.058 24.032"><defs><style>.a{fill:#d2dfe3;}</style></defs><path class="a" d="M118.564,125.547a5.688,5.688,0,0,1-.856-.285q-2.681-1.38-5.346-2.791a.913.913,0,0,0-.931,0c-1.812.957-3.644,1.878-5.442,2.861a1.63,1.63,0,0,1-2.422-1.306,4.325,4.325,0,0,1,.125-1.066q.476-2.75.967-5.5a.8.8,0,0,0-.268-.776q-2.231-2.168-4.452-4.348a1.657,1.657,0,0,1-.26-2.177,1.593,1.593,0,0,1,1.1-.689q3.1-.472,6.193-.936a.846.846,0,0,0,.683-.5q1.348-2.749,2.708-5.493a1.657,1.657,0,0,1,1.692-1.019,1.479,1.479,0,0,1,1.262.853c.923,1.847,1.846,3.694,2.75,5.551a1,1,0,0,0,.842.63c1.93.259,3.856.544,5.783.822a3.572,3.572,0,0,1,.62.123,1.64,1.64,0,0,1,.563,2.8q-2.175,2.141-4.369,4.264a1.013,1.013,0,0,0-.321,1.007c.363,1.992.711,3.986,1.056,5.981A1.69,1.69,0,0,1,118.564,125.547Z" transform="translate(-99.384 -101.515)"/></svg>