<svg xmlns="http://www.w3.org/2000/svg" width="20.194" height="18.604" viewBox="0 0 20.194 18.604"><defs><style>.a{fill:#8ea9b2;stroke:#8ea9b2;stroke-width:0.3px;}</style></defs><g transform="translate(0.203 0.179)"><g transform="translate(0 0)"><g transform="translate(3.222 7.116)"><path class="a" d="M-563.466,788.025l-.042-.006-.212-.026c-.135-.016-.262-.031-.39-.059a17.018,17.018,0,0,0-5.966-.152,6.8,6.8,0,0,1-1.795.158l-.023,0a2.539,2.539,0,0,1-2.054-1.271,2.558,2.558,0,0,1,.227-2.422l0-.008a6.14,6.14,0,0,1,1.2-1.422,5.155,5.155,0,0,0,1.709-2.958,1.9,1.9,0,0,1,.052-.211l.012-.043a3.3,3.3,0,0,1,3.262-2.733h.082a3.242,3.242,0,0,1,3.194,2.757,5.75,5.75,0,0,0,1.962,3.355,2.658,2.658,0,0,1,.573.6,6.316,6.316,0,0,1,.738,1.41,2.137,2.137,0,0,1-1.233,2.755,2.144,2.144,0,0,1-.374.105,6.341,6.341,0,0,1-.646.128c-.084.013-.165.026-.241.041Zm-4.052-.967a17.571,17.571,0,0,1,3.518.357c.106.023.216.036.344.051l.179.022.211-.035a5.73,5.73,0,0,0,.6-.119l.023-.005a1.616,1.616,0,0,0,.29-.08,1.607,1.607,0,0,0,.926-2.072,5.8,5.8,0,0,0-.677-1.295,2.127,2.127,0,0,0-.463-.484l-.009-.008a6.278,6.278,0,0,1-2.149-3.674l0-.009a2.712,2.712,0,0,0-2.677-2.31h-.068a2.778,2.778,0,0,0-2.75,2.308l-.006.026-.017.06a1.459,1.459,0,0,0-.04.156,5.687,5.687,0,0,1-1.884,3.267,5.6,5.6,0,0,0-1.094,1.294,2.05,2.05,0,0,0-.212,1.921,2.028,2.028,0,0,0,1.637.98,6.3,6.3,0,0,0,1.652-.149l.019,0A17.611,17.611,0,0,1-567.519,787.058Z" transform="translate(574.158 -776.868)"/></g><g transform="translate(0 5.39)"><path class="a" d="M-613.448,760.795a2.5,2.5,0,0,1-.279-.016,2.46,2.46,0,0,1-1.232-.5,4,4,0,0,1-1.522-4.54,2.344,2.344,0,0,1,1.157-1.383,2.344,2.344,0,0,1,1.8-.162,2.371,2.371,0,0,1,.4.167,3.936,3.936,0,0,1,2.195,3.565v.027c-.008.069-.013.137-.019.205a4.574,4.574,0,0,1-.056.46,2.443,2.443,0,0,1-.909,1.638A2.442,2.442,0,0,1-613.448,760.795Zm-.785-6.178a1.822,1.822,0,0,0-.846.209,1.817,1.817,0,0,0-.9,1.074,3.472,3.472,0,0,0,1.325,3.947l.012.009a1.921,1.921,0,0,0,.971.4,1.915,1.915,0,0,0,1.419-.409,1.917,1.917,0,0,0,.714-1.293l0-.021a4.108,4.108,0,0,0,.05-.416c.006-.067.012-.134.019-.2a3.413,3.413,0,0,0-1.906-3.078,1.881,1.881,0,0,0-.315-.132A1.837,1.837,0,0,0-614.233,754.617Z" transform="translate(616.682 -754.086)"/></g><g transform="translate(14.074 5.546)"><path class="a" d="M-428.442,762.854a2.475,2.475,0,0,1-.3-.018,2.429,2.429,0,0,1-1.629-.92,2.439,2.439,0,0,1-.507-1.257,3.894,3.894,0,0,1,1.411-3.8,2.48,2.48,0,0,1,2.825-.469,2.813,2.813,0,0,1,1.46,2.625v.015a4.046,4.046,0,0,1-1.765,3.306A2.427,2.427,0,0,1-428.442,762.854Zm.72-6.178a1.949,1.949,0,0,0-1.381.573l-.024.021a3.366,3.366,0,0,0-1.228,3.3l0,.025a1.91,1.91,0,0,0,.4.994,1.916,1.916,0,0,0,2.687.328l.015-.01a3.515,3.515,0,0,0,1.54-2.869,2.239,2.239,0,0,0-1.162-2.167A1.943,1.943,0,0,0-427.722,756.676Z" transform="translate(430.949 -756.145)"/></g><g transform="translate(10.373 0.005)"><path class="a" d="M-477.262,689.792a2.3,2.3,0,0,1-.619-.085,2.6,2.6,0,0,1-1.776-1.994,3.9,3.9,0,0,1,.978-3.727,2.5,2.5,0,0,1,2.773-.836l.008,0a2.682,2.682,0,0,1,1.739,2.36c.016.121.021.241.025.346,0,.046,0,.09.006.131v.015a4.094,4.094,0,0,1-1.185,2.906A2.785,2.785,0,0,1-477.262,689.792Zm.558-6.241a1.971,1.971,0,0,0-1.565.772l-.022.025a3.366,3.366,0,0,0-.853,3.232,2.094,2.094,0,0,0,1.405,1.616,2.108,2.108,0,0,0,2.051-.66,3.559,3.559,0,0,0,1.029-2.519c0-.043,0-.09-.006-.138a2.964,2.964,0,0,0-.021-.3l0-.023a2.152,2.152,0,0,0-1.392-1.9A1.976,1.976,0,0,0-476.7,683.551Z" transform="translate(479.79 -683.02)"/></g><g transform="translate(3.943 0)"><path class="a" d="M-561.542,689.731a2.346,2.346,0,0,1-.985-.218,2.343,2.343,0,0,1-.276-.151,4,4,0,0,1-1.466-5.054,2.373,2.373,0,0,1,1.362-1.221,2.373,2.373,0,0,1,1.824.1,2.369,2.369,0,0,1,.326.19,4.348,4.348,0,0,1,1.839,3.375v.034l-.007.033a9.849,9.849,0,0,1-.475,1.53l-.005.012a2.337,2.337,0,0,1-1.323,1.222A2.353,2.353,0,0,1-561.542,689.731Zm-.573-6.249a1.857,1.857,0,0,0-.617.106,1.843,1.843,0,0,0-1.058.948,3.462,3.462,0,0,0,1.271,4.379,1.772,1.772,0,0,0,.214.117,1.812,1.812,0,0,0,1.394.055,1.81,1.81,0,0,0,1.022-.941,9.336,9.336,0,0,0,.439-1.407,3.816,3.816,0,0,0-1.611-2.926,1.865,1.865,0,0,0-.252-.147A1.85,1.85,0,0,0-562.115,683.482Z" transform="translate(564.645 -682.951)"/></g></g></g></svg>