<svg xmlns="http://www.w3.org/2000/svg" width="16.525" height="16.5" viewBox="0 0 16.525 16.5"><defs><style>.a{fill:#8ea9b2;}</style></defs><path class="a" d="M3051.554,1240.929a.907.907,0,0,1-.289.706q-5.292,5.279-10.574,10.569a.919.919,0,0,1-.486.271q-2.238.447-4.474.9c-.481.1-.781-.19-.684-.677q.449-2.264.917-4.524a.829.829,0,0,1,.215-.4q5.323-5.336,10.655-10.663a.725.725,0,0,1,.524-.222,2.91,2.91,0,0,1,1.464.375,5.277,5.277,0,0,1,2.557,2.883A6.252,6.252,0,0,1,3051.554,1240.929Zm-10.679,9.53,7.082-7.081-2.912-2.911-7.082,7.081Zm7.891-7.826,1.369-1.369c.405-.4.407-.407.186-.945a4.308,4.308,0,0,0-1.326-1.686,3.041,3.041,0,0,0-1.3-.66.306.306,0,0,0-.316.094c-.489.5-.987.991-1.48,1.486-.041.041-.078.084-.1.109Zm-11.647,5.625a2.627,2.627,0,0,0-.183.438c-.146.671-.277,1.344-.413,2.016-.1.485-.2.97-.3,1.478.079-.012.135-.019.191-.031,1.125-.227,2.249-.458,3.375-.679a.5.5,0,0,0,.33-.219Z" transform="translate(-3035.029 -1236.895)"/></svg>