<svg xmlns="http://www.w3.org/2000/svg" width="17.039" height="17.06" viewBox="0 0 17.039 17.06"><defs><style>.a{fill:#8ea9b2;stroke:#8ea9b2;stroke-width:0.5px;}</style></defs><path class="a" d="M2268.63,1170.057a2.415,2.415,0,0,1,.293-1.463,5.9,5.9,0,0,1,1.882-1.768,1.672,1.672,0,0,1,1.835.139,5.5,5.5,0,0,1,1.4,1.538,3.57,3.57,0,0,1,.621,1.4,1.554,1.554,0,0,1-.284,1.248,10.257,10.257,0,0,1-.836.936.586.586,0,0,0-.152.6,2.719,2.719,0,0,0,.5,1c.415.536.832,1.073,1.289,1.572a19.889,19.889,0,0,0,2.487,2.332,4.514,4.514,0,0,0,1.4.82.62.62,0,0,0,.7-.179,7.2,7.2,0,0,1,.849-.775,1.653,1.653,0,0,1,1.67-.241,5.537,5.537,0,0,1,2.387,1.722,1.793,1.793,0,0,1,.066,2.4,8.088,8.088,0,0,1-1.389,1.44,1.919,1.919,0,0,1-1.233.388,6.277,6.277,0,0,1-2.341-.426,14.852,14.852,0,0,1-4.074-2.271,21.831,21.831,0,0,1-5.337-5.75,11.6,11.6,0,0,1-1.585-3.677C2268.7,1170.66,2268.662,1170.267,2268.63,1170.057Zm13.305,12.6c.095,0,.19.007.284,0a1.3,1.3,0,0,0,.812-.265,14.884,14.884,0,0,0,1.233-1.26,1.315,1.315,0,0,0,.025-1.875,5.248,5.248,0,0,0-2.041-1.528,1.3,1.3,0,0,0-1.476.238,7.949,7.949,0,0,0-.659.63,1.049,1.049,0,0,1-1.2.285,5.183,5.183,0,0,1-1.722-1.031,22.144,22.144,0,0,1-3.335-3.363,5.2,5.2,0,0,1-.9-1.493,1.117,1.117,0,0,1,.274-1.311,6.823,6.823,0,0,0,.692-.763,1.2,1.2,0,0,0,.209-1.1,3.36,3.36,0,0,0-.541-1.077,5.2,5.2,0,0,0-1.183-1.32,1.26,1.26,0,0,0-1.023-.271,1.62,1.62,0,0,0-.776.4c-.38.353-.744.723-1.109,1.091a1.261,1.261,0,0,0-.325.725,4.31,4.31,0,0,0,.109,1.632,11.982,11.982,0,0,0,1.945,4.13,22.074,22.074,0,0,0,3.958,4.288,16.116,16.116,0,0,0,4.187,2.638A6.945,6.945,0,0,0,2281.935,1182.659Z" transform="translate(-2268.38 -1166.359)"/></svg>