<svg xmlns="http://www.w3.org/2000/svg" width="12.621" height="12.104" viewBox="0 0 12.621 12.104"><defs><style>.a{fill:#ffc24d;}</style></defs><path class="a" d="M109.044,113.619a2.863,2.863,0,0,1-.431-.143q-1.351-.695-2.693-1.406a.46.46,0,0,0-.469,0c-.913.482-1.835.946-2.741,1.441a.821.821,0,0,1-1.22-.658,2.178,2.178,0,0,1,.063-.537q.24-1.385.487-2.769a.4.4,0,0,0-.135-.391q-1.124-1.092-2.242-2.19a.835.835,0,0,1-.131-1.1.8.8,0,0,1,.555-.347q1.559-.238,3.119-.471a.426.426,0,0,0,.344-.252q.679-1.385,1.364-2.766a.834.834,0,0,1,.852-.513.745.745,0,0,1,.636.429c.465.93.93,1.861,1.385,2.8a.5.5,0,0,0,.424.317c.972.13,1.942.274,2.913.414a1.8,1.8,0,0,1,.312.062.826.826,0,0,1,.284,1.413q-1.1,1.078-2.2,2.148a.51.51,0,0,0-.162.507c.183,1,.358,2.008.532,3.013A.851.851,0,0,1,109.044,113.619Z" transform="translate(-99.384 -101.515)"/></svg>