<svg xmlns="http://www.w3.org/2000/svg" width="31.614" height="23.563" viewBox="0 0 31.614 23.563"><defs><style>.a{fill:none;stroke:#d9e8ed;stroke-width:1.4px;}.b{fill:#fff;}.c{fill:#d9e8ed;}</style></defs><g transform="translate(-339.757 -385.389)"><path class="a" d="M355.574,408.25q-5.966,0-11.932,0a3,3,0,0,1-3.183-3.123c0-4.032.009-8.063,0-12.095a2.976,2.976,0,0,1,2.279-3.018,3.472,3.472,0,0,1,.723-.09c1.377-.008,2.754,0,4.131-.011a.579.579,0,0,0,.368-.158c.905-.914,1.79-1.848,2.7-2.757a3.055,3.055,0,0,1,2.226-.912q2.677,0,5.354,0a3.172,3.172,0,0,1,2.331,1q1.288,1.307,2.551,2.638a.613.613,0,0,0,.5.2c1.323-.008,2.645,0,3.968,0a3.006,3.006,0,0,1,3.079,3.044q.014,6.115,0,12.231a2.945,2.945,0,0,1-3.131,3.051q-5.1.008-10.192,0Zm0-16.7a6.737,6.737,0,1,0,6.733,6.726A6.7,6.7,0,0,0,355.575,391.548Z" transform="translate(0 0)"/><path class="b" d="M392.807,415.836a6.737,6.737,0,1,1-6.749,6.737A6.722,6.722,0,0,1,392.807,415.836Zm4.72,6.739a4.735,4.735,0,0,0-9.469-.027,4.735,4.735,0,1,0,9.469.027Z" transform="translate(-37.232 -24.287)"/><path class="c" d="M406.424,431.5a4.735,4.735,0,1,1-4.715-4.733A4.734,4.734,0,0,1,406.424,431.5Z" transform="translate(-46.128 -33.213)"/></g></svg>