<svg xmlns="http://www.w3.org/2000/svg" width="25.113" height="26.898" viewBox="0 0 25.113 26.898"><defs><style>.a{fill:#d9e8ed;}.a,.b{stroke:#d9e8ed;stroke-width:0.3px;}.b{fill:#fff;}</style></defs><g transform="translate(-361.843 -167.634)"><path class="a" d="M386.788,181.092c0,3.4-.041,6.8.017,10.194a2.952,2.952,0,0,1-2.61,3.029,4.881,4.881,0,0,1-.861.062q-8.933,0-17.866,0a3.712,3.712,0,0,1-2.662-.951,2.507,2.507,0,0,1-.8-1.939c.009-1.725,0-3.449,0-5.174,0-5.14.033-10.28-.018-15.419a2.954,2.954,0,0,1,2.55-3.028,5.159,5.159,0,0,1,.987-.081q8.869-.007,17.739-.005a3.922,3.922,0,0,1,2.362.656,2.6,2.6,0,0,1,1.161,2.253C386.781,174.159,386.788,177.625,386.788,181.092Zm-1.206.005q0-5.2,0-10.4a1.462,1.462,0,0,0-.715-1.318,2.856,2.856,0,0,0-1.61-.385q-8.653-.006-17.307,0a8.69,8.69,0,0,0-1.042.046,1.767,1.767,0,0,0-1.709,1.832c.029,6.678.014,13.356.014,20.034,0,.221-.005.442,0,.663a1.344,1.344,0,0,0,.492,1.045,2.7,2.7,0,0,0,1.831.56q8.857,0,17.714,0a4.326,4.326,0,0,0,1-.125,1.569,1.569,0,0,0,1.322-1.7Z"/><path class="b" d="M391.4,186.9V197.15a1.569,1.569,0,0,1-1.322,1.7,4.327,4.327,0,0,1-1,.125q-8.857.011-17.714,0a2.7,2.7,0,0,1-1.831-.56,1.345,1.345,0,0,1-.492-1.045c-.007-.221,0-.442,0-.663,0-6.678.015-13.356-.014-20.034a1.767,1.767,0,0,1,1.709-1.832,8.686,8.686,0,0,1,1.042-.046q8.653,0,17.307,0a2.856,2.856,0,0,1,1.61.385,1.462,1.462,0,0,1,.715,1.318Q391.4,181.7,391.4,186.9Zm-19.015-8.773h15.734a2.173,2.173,0,0,0,.38-.023.565.565,0,0,0,.471-.5.546.546,0,0,0-.341-.617,1.273,1.273,0,0,0-.447-.063q-8.118,0-16.236,0c-.592,0-.786.2-.786.8q0,6.461,0,12.923a2.157,2.157,0,0,0,.007.255.586.586,0,0,0,.391.494.546.546,0,0,0,.589-.125.728.728,0,0,0,.22-.6c0-1-.007-2.005.006-3.007a.728.728,0,0,1,.153-.428q1.734-2.054,3.488-4.092c.39-.456.783-.911,1.18-1.373.047.051.077.081.1.113q2.6,3.009,5.2,6.019a.63.63,0,0,0,.883.111.64.64,0,0,0,.031-.893c-.132-.155-.267-.308-.4-.463l-1.235-1.444,1.187-1.591a.765.765,0,0,1,.066.057q2.33,2.583,4.658,5.168a.277.277,0,0,1,.087.146c.007.4,0,.794,0,1.219H374.455a2,2,0,0,0-.406.026.588.588,0,0,0-.387.893.665.665,0,0,0,.637.288q7,0,13.993,0c.059,0,.119,0,.178,0a.467.467,0,0,0,.5-.468,3.035,3.035,0,0,0,.021-.355q0-5.213,0-10.425a1.726,1.726,0,0,0-.019-.33.6.6,0,0,0-.9-.411.7.7,0,0,0-.288.665q.006,3.352,0,6.7v.27l-.078.054a.677.677,0,0,0-.08-.156q-2.085-2.323-4.177-4.639a.87.87,0,0,0-.327-.229.551.551,0,0,0-.684.243c-.486.64-.967,1.284-1.461,1.94-.07-.076-.129-.136-.183-.2q-1.529-1.759-3.058-3.519a.629.629,0,0,0-1.09,0q-1.6,1.863-3.2,3.734c-.339.4-.68.792-1.059,1.234Z" transform="translate(-5.822 -5.807)"/><path class="a" d="M382.684,188.36v7.391c.38-.442.72-.838,1.059-1.234q1.6-1.867,3.2-3.734a.629.629,0,0,1,1.09,0q1.532,1.757,3.058,3.519c.055.063.113.123.183.2.493-.656.975-1.3,1.461-1.94a.551.551,0,0,1,.684-.243.87.87,0,0,1,.327.229q2.094,2.315,4.177,4.639a.676.676,0,0,1,.079.156l.078-.054v-.27q0-3.352,0-6.7a.7.7,0,0,1,.288-.665.6.6,0,0,1,.9.411,1.726,1.726,0,0,1,.019.33q0,5.212,0,10.425a3.028,3.028,0,0,1-.021.355.467.467,0,0,1-.5.468c-.059,0-.119,0-.178,0q-7,0-13.993,0a.665.665,0,0,1-.637-.288.588.588,0,0,1,.387-.893,2,2,0,0,1,.406-.026h13.328c0-.425,0-.823,0-1.219a.276.276,0,0,0-.087-.146q-2.328-2.585-4.658-5.168a.762.762,0,0,0-.066-.057l-1.187,1.591,1.235,1.444c.133.155.267.308.4.463a.641.641,0,0,1-.031.893.63.63,0,0,1-.883-.111q-2.6-3.011-5.2-6.019c-.028-.032-.058-.062-.1-.113-.4.462-.79.916-1.181,1.373q-1.748,2.043-3.488,4.092a.728.728,0,0,0-.153.428c-.013,1-.008,2-.006,3.007a.728.728,0,0,1-.22.6.546.546,0,0,1-.589.125.586.586,0,0,1-.391-.494,2.164,2.164,0,0,1-.007-.255q0-6.461,0-12.923c0-.6.194-.8.786-.8q8.118,0,16.236,0a1.273,1.273,0,0,1,.447.063.546.546,0,0,1,.341.617.565.565,0,0,1-.471.5,2.174,2.174,0,0,1-.381.023H382.684Z" transform="translate(-16.116 -16.036)"/></g></svg>