<svg xmlns="http://www.w3.org/2000/svg" width="14.397" height="13.289" viewBox="0 0 14.397 13.289"><defs><style>.a{fill:#fff;stroke:#fff;stroke-width:0.5px;}</style></defs><g transform="translate(0.29 0.272)"><g transform="translate(0 0)"><g transform="translate(2.251 4.971)"><path class="a" d="M-566.69,784.661l-.029,0-.148-.018c-.094-.011-.183-.022-.272-.041a11.885,11.885,0,0,0-4.167-.106,4.749,4.749,0,0,1-1.254.111h-.016a1.773,1.773,0,0,1-1.434-.888,1.787,1.787,0,0,1,.159-1.692l0-.006a4.283,4.283,0,0,1,.84-.994,3.6,3.6,0,0,0,1.194-2.066,1.324,1.324,0,0,1,.036-.148l.009-.03a2.308,2.308,0,0,1,2.279-1.909h.057a2.264,2.264,0,0,1,2.231,1.926,4.015,4.015,0,0,0,1.37,2.343,1.858,1.858,0,0,1,.4.419,4.411,4.411,0,0,1,.515.985,1.493,1.493,0,0,1-.861,1.924,1.5,1.5,0,0,1-.261.074,4.411,4.411,0,0,1-.451.089l-.168.028Zm-2.831-.675a12.269,12.269,0,0,1,2.457.249c.074.016.151.025.24.036l.125.015.147-.024a4.022,4.022,0,0,0,.42-.083l.016,0a1.129,1.129,0,0,0,.2-.056,1.122,1.122,0,0,0,.647-1.447,4.048,4.048,0,0,0-.473-.9,1.487,1.487,0,0,0-.323-.338l-.006-.005a4.385,4.385,0,0,1-1.5-2.566v-.006a1.894,1.894,0,0,0-1.87-1.613h-.048a1.94,1.94,0,0,0-1.92,1.612l0,.018-.012.042a1.017,1.017,0,0,0-.028.109,3.973,3.973,0,0,1-1.316,2.282,3.91,3.91,0,0,0-.764.9,1.432,1.432,0,0,0-.148,1.342,1.417,1.417,0,0,0,1.144.684,4.4,4.4,0,0,0,1.154-.1l.013,0A12.306,12.306,0,0,1-569.521,783.986Z" transform="translate(574.158 -776.868)"/></g><g transform="translate(0 3.765)"><path class="a" d="M-614.423,758.772a1.747,1.747,0,0,1-.195-.011,1.717,1.717,0,0,1-.861-.349,2.793,2.793,0,0,1-1.063-3.171,1.637,1.637,0,0,1,.808-.966,1.637,1.637,0,0,1,1.256-.113,1.658,1.658,0,0,1,.279.116,2.75,2.75,0,0,1,1.533,2.49v.019c-.005.048-.009.1-.014.143a3.2,3.2,0,0,1-.039.322,1.706,1.706,0,0,1-.635,1.144A1.705,1.705,0,0,1-614.423,758.772Zm-.548-4.315a1.272,1.272,0,0,0-.591.146,1.269,1.269,0,0,0-.627.75,2.425,2.425,0,0,0,.926,2.757l.008.006a1.344,1.344,0,0,0,.678.276,1.338,1.338,0,0,0,.991-.286,1.339,1.339,0,0,0,.5-.9l0-.015a2.862,2.862,0,0,0,.035-.291c0-.046.008-.093.013-.141a2.384,2.384,0,0,0-1.332-2.15,1.3,1.3,0,0,0-.22-.092A1.279,1.279,0,0,0-614.971,754.457Z" transform="translate(616.682 -754.086)"/></g><g transform="translate(9.83 3.874)"><path class="a" d="M-429.2,760.831a1.742,1.742,0,0,1-.21-.013,1.7,1.7,0,0,1-1.138-.643,1.7,1.7,0,0,1-.354-.878,2.72,2.72,0,0,1,.986-2.651,1.732,1.732,0,0,1,1.973-.328,1.965,1.965,0,0,1,1.02,1.833v.011a2.826,2.826,0,0,1-1.233,2.309A1.7,1.7,0,0,1-429.2,760.831Zm.5-4.315a1.362,1.362,0,0,0-.965.4l-.017.015a2.351,2.351,0,0,0-.858,2.3l0,.017a1.334,1.334,0,0,0,.278.694,1.338,1.338,0,0,0,1.877.229l.01-.007a2.455,2.455,0,0,0,1.076-2,1.564,1.564,0,0,0-.812-1.513A1.357,1.357,0,0,0-428.695,756.516Z" transform="translate(430.949 -756.145)"/></g><g transform="translate(7.245 0.004)"><path class="a" d="M-478.024,687.75a1.606,1.606,0,0,1-.432-.059A1.819,1.819,0,0,1-479.7,686.3a2.721,2.721,0,0,1,.683-2.6,1.747,1.747,0,0,1,1.937-.584l.006,0a1.873,1.873,0,0,1,1.215,1.649c.012.085.015.168.017.242,0,.032,0,.063,0,.091v.01a2.859,2.859,0,0,1-.828,2.029A1.945,1.945,0,0,1-478.024,687.75Zm.39-4.359a1.377,1.377,0,0,0-1.093.539l-.015.018a2.351,2.351,0,0,0-.6,2.257,1.462,1.462,0,0,0,.982,1.129,1.472,1.472,0,0,0,1.433-.461,2.486,2.486,0,0,0,.719-1.759c0-.03,0-.062,0-.1a2.067,2.067,0,0,0-.015-.212l0-.016a1.5,1.5,0,0,0-.972-1.328A1.379,1.379,0,0,0-477.634,683.391Z" transform="translate(479.79 -683.02)"/></g><g transform="translate(2.754 0)"><path class="a" d="M-562.478,687.687a1.637,1.637,0,0,1-.688-.152,1.637,1.637,0,0,1-.193-.105,2.79,2.79,0,0,1-1.024-3.53,1.658,1.658,0,0,1,.951-.853,1.657,1.657,0,0,1,1.274.07,1.653,1.653,0,0,1,.228.132,3.037,3.037,0,0,1,1.285,2.357v.024l-.005.023a6.881,6.881,0,0,1-.331,1.069l0,.008a1.632,1.632,0,0,1-.924.854A1.645,1.645,0,0,1-562.478,687.687Zm-.4-4.365a1.3,1.3,0,0,0-.431.074,1.288,1.288,0,0,0-.739.662,2.418,2.418,0,0,0,.888,3.058,1.24,1.24,0,0,0,.149.082,1.265,1.265,0,0,0,.974.038,1.264,1.264,0,0,0,.714-.657,6.523,6.523,0,0,0,.306-.983,2.665,2.665,0,0,0-1.125-2.044,1.288,1.288,0,0,0-.176-.1A1.292,1.292,0,0,0-562.878,683.322Z" transform="translate(564.645 -682.951)"/></g></g></g></svg>