<svg xmlns="http://www.w3.org/2000/svg" width="15.885" height="15.861" viewBox="0 0 15.885 15.861"><defs><style>.a{fill:#fff;}</style></defs><path class="a" d="M3050.914,1240.772a.872.872,0,0,1-.278.678q-5.087,5.075-10.164,10.159a.885.885,0,0,1-.467.26q-2.151.429-4.3.868c-.463.094-.75-.182-.657-.65q.431-2.176.882-4.349a.8.8,0,0,1,.207-.38q5.117-5.129,10.242-10.249a.7.7,0,0,1,.5-.214,2.8,2.8,0,0,1,1.407.361,5.072,5.072,0,0,1,2.458,2.771A6.009,6.009,0,0,1,3050.914,1240.772Zm-10.265,9.16,6.808-6.807-2.8-2.8-6.808,6.807Zm7.585-7.523,1.316-1.316c.39-.389.392-.391.178-.908a4.138,4.138,0,0,0-1.275-1.62,2.923,2.923,0,0,0-1.252-.634.294.294,0,0,0-.3.09c-.47.48-.948.953-1.423,1.428-.039.039-.075.081-.1.1Zm-11.2,5.407a2.527,2.527,0,0,0-.176.421c-.14.645-.266,1.292-.4,1.938l-.287,1.42c.076-.012.13-.018.184-.029,1.081-.219,2.162-.44,3.245-.653a.478.478,0,0,0,.318-.21Z" transform="translate(-3035.029 -1236.895)"/></svg>