<svg xmlns="http://www.w3.org/2000/svg" width="56" height="53" viewBox="0 0 56 53"><defs><style>.a,.b{fill:#ffc24d;}.a{opacity:0.209;}</style></defs><g transform="translate(-28 -167)"><rect class="a" width="56" height="53" rx="8" transform="translate(28 167)"/><path class="b" d="M2894.1,628.046h-9.381a1.718,1.718,0,0,1-.953-.218,1.381,1.381,0,0,1-.637-1.278V614.834a.792.792,0,0,1,.007-.275.951.951,0,0,1,.23-.4c.79-.614,1.593-1.212,2.4-1.809a.335.335,0,0,0,.143-.31c-.005-1.048,0-2.1,0-3.143,0-.5.149-.652.645-.652,1.463,0,2.927,0,4.39-.006a.675.675,0,0,0,.374-.126c.791-.588,1.574-1.187,2.359-1.783.359-.273.485-.275.836-.009.785.6,1.567,1.2,2.359,1.783a.715.715,0,0,0,.394.135c1.455.009,2.911.006,4.367.006.514,0,.654.141.654.661,0,1.04,0,2.08,0,3.12a.375.375,0,0,0,.173.342c.8.591,1.593,1.186,2.379,1.793a.933.933,0,0,1,.214.36.531.531,0,0,1,.011.206q0,5.9,0,11.808a1.341,1.341,0,0,1-1.024,1.455,2.294,2.294,0,0,1-.572.052Q2898.776,628.048,2894.1,628.046Zm-7.268-18.876c-.005.05-.011.079-.011.109,0,2.318,0,4.637.006,6.955a.409.409,0,0,0,.159.27q2.273,1.743,4.555,3.473,1.276.97,2.552,1.936c.031-.019.051-.029.07-.043q3.519-2.68,7.039-5.359a.361.361,0,0,0,.172-.321q-.009-3.408,0-6.817c0-.066-.009-.133-.014-.2Zm5.371,12.463-7.194,5.481h18.169l-7.195-5.469-1.506,1.126c-.323.241-.443.244-.759.006C2893.211,622.4,2892.708,622.017,2892.2,621.633Zm11.928,5.053V615.433l-7.4,5.632Zm-12.679-5.62-7.394-5.629v11.246Zm-5.564-5.39v-2.267l-1.492,1.127Zm16.418-2.261v2.255l1.485-1.133Zm-9.618-5.188h2.811l-1.4-1.073Z" transform="translate(-2838.225 -426.086)"/></g></svg>