<svg xmlns="http://www.w3.org/2000/svg" width="20.629" height="17.903" viewBox="0 0 20.629 17.903"><defs><style>.a{fill:none;stroke:#8ea9b2;stroke-miterlimit:10;}</style></defs><path class="a" d="M2007.857,758.632a5.51,5.51,0,0,1,3.913,1.57c.123.111.231.238.351.352.365.346.543.339.917-.014.262-.248.525-.5.8-.733a5.176,5.176,0,0,1,8.527,3.846,5.16,5.16,0,0,1-1.637,3.889q-3.818,3.826-7.651,7.636c-.4.4-.591.415-.986.023-2.6-2.581-5.223-5.138-7.774-7.765a5.023,5.023,0,0,1-.818-6.1A4.912,4.912,0,0,1,2007.857,758.632Z" transform="translate(-2002.235 -758.063)"/></svg>