<svg xmlns="http://www.w3.org/2000/svg" width="16.507" height="18.993" viewBox="0 0 16.507 18.993"><defs><style>.a{fill:#8ea9b2;}</style></defs><g transform="translate(-2714.502 -1171.986)"><path class="a" d="M2716.382,1175.649c-.446,0-.856,0-1.267,0a.579.579,0,0,1-.562-.371.556.556,0,0,1,.1-.613.631.631,0,0,1,.516-.2c1.174,0,2.347,0,3.521.005a.253.253,0,0,0,.283-.2c.234-.612.492-1.215.727-1.827a.642.642,0,0,1,.666-.455q2.4,0,4.794,0a.632.632,0,0,1,.652.446c.238.618.5,1.228.734,1.846a.24.24,0,0,0,.268.186c1.187-.007,2.374-.005,3.561,0a.589.589,0,0,1,.606.768.607.607,0,0,1-.611.418c-.4,0-.806,0-1.24,0v.286q0,7.142,0,14.284a1.06,1.06,0,0,1-.113.491.6.6,0,0,1-.581.269q-3.869-.006-7.738,0h-3.58c-.5,0-.729-.227-.73-.728q0-7.162,0-14.324Zm1.2.012v14.116h10.353v-14.116Zm7.763-1.205c-.167-.417-.322-.81-.487-1.2a.193.193,0,0,0-.149-.084q-1.949-.007-3.9,0c-.051,0-.132.026-.147.062-.169.4-.328.8-.5,1.221Z" transform="translate(0 0)"/><path class="a" d="M2850.247,1245.376q0,2.317,0,4.635a.588.588,0,0,1-1.156.206,1.345,1.345,0,0,1-.024-.277q0-4.566,0-9.132a1.049,1.049,0,0,1,.143-.52.529.529,0,0,1,.656-.184.562.562,0,0,1,.372.515c.008.331,0,.663,0,.994Q2850.247,1243.5,2850.247,1245.376Z" transform="translate(-123.837 -62.653)"/><path class="a" d="M2772.194,1245.417q0-2.3,0-4.6c0-.376.147-.591.442-.665a.575.575,0,0,1,.728.485,1.345,1.345,0,0,1,.01.2q0,4.6,0,9.191a.653.653,0,0,1-.248.6.582.582,0,0,1-.92-.375,1.7,1.7,0,0,1-.014-.278Q2772.194,1247.7,2772.194,1245.417Z" transform="translate(-53.093 -62.718)"/><path class="a" d="M2811.812,1245.425q0,2.318,0,4.635a.591.591,0,0,1-1.167.177,1.486,1.486,0,0,1-.013-.238q0-4.575,0-9.151c0-.384.136-.613.408-.7a.579.579,0,0,1,.771.557c.007.769,0,1.539,0,2.308Z" transform="translate(-88.466 -62.707)"/></g></svg>