<svg xmlns="http://www.w3.org/2000/svg" width="21.21" height="19.06" viewBox="0 0 21.21 19.06"><defs><style>.a{fill:#8ea9b2;stroke:#8ea9b2;stroke-width:0.2px;}</style></defs><g transform="translate(-837.519 -1320.554)"><path class="a" d="M855.741,1332.052c.21.34.393.646.585.946a4.208,4.208,0,0,1-3.086,6.471,6.157,6.157,0,0,1-.695.045c-2.952,0-5.9.014-8.856,0a4.2,4.2,0,0,1-4.031-2.44,3.987,3.987,0,0,1,.215-3.994c.2-.33.4-.653.635-1.026-.353-.078-.668-.153-.985-.218a2.181,2.181,0,0,1-1.86-1.794,1.969,1.969,0,0,1,.139-1.233c.856-1.9,1.7-3.8,2.581-5.682a3.042,3.042,0,0,1,3.556-1.622,1.783,1.783,0,0,0,1.285-.148,6.424,6.424,0,0,1,6.074.138.861.861,0,0,0,.68.079,3.453,3.453,0,0,1,2.11-.006,2.982,2.982,0,0,1,1.793,1.594q1.279,2.772,2.524,5.561a2.162,2.162,0,0,1-1.564,3.08C856.493,1331.881,856.146,1331.959,855.741,1332.052Zm.517,4.05c.024-.085.046-.142.056-.2a3.612,3.612,0,0,0-.538-2.588,14.247,14.247,0,0,1-.858-1.543,9.417,9.417,0,0,1-.757-4.182,6.05,6.05,0,0,0-11.644-2.509,7.958,7.958,0,0,0-.44,3.028,9.1,9.1,0,0,1-1.513,5.087,5.332,5.332,0,0,0-.584,1.281,2.918,2.918,0,0,0,0,1.632,10.255,10.255,0,0,1,16.275-.007Zm-10.176-3.142a1.391,1.391,0,0,0-.177.019,9.594,9.594,0,0,0-5.555,3.73.252.252,0,0,0,0,.333,3.566,3.566,0,0,0,3.148,1.82q4.614.039,9.228,0a3.607,3.607,0,0,0,3.148-1.779.316.316,0,0,0-.011-.422,9.621,9.621,0,0,0-4.931-3.52c-.25-.08-.509-.134-.765-.2a2.17,2.17,0,0,1-1.735,1.557c0,.428,0,.839,0,1.249,0,.2-.074.331-.281.356s-.343-.117-.346-.375c-.006-.409,0-.819,0-1.233A2.165,2.165,0,0,1,846.082,1332.96Zm9.387-1.505c.464-.1.91-.192,1.349-.307a1.511,1.511,0,0,0,1.038-2.085q-1.258-2.84-2.566-5.656a2.393,2.393,0,0,0-2.953-1.234c.083.073.157.135.228.2a6.612,6.612,0,0,1,1.882,2.851,8.837,8.837,0,0,1,.359,2.963A8.259,8.259,0,0,0,855.468,1331.455Zm-14.7,0c.039-.09.066-.146.089-.2a9.933,9.933,0,0,0,.595-3.864,6.477,6.477,0,0,1,1.869-4.677l.543-.569a2.444,2.444,0,0,0-2.955,1.354c-.257.559-.509,1.121-.764,1.682-.576,1.267-1.156,2.532-1.725,3.8a1.529,1.529,0,0,0,.9,2.137C839.782,1331.26,840.269,1331.341,840.769,1331.455Zm5.973,1.365a1.415,1.415,0,0,0,1.43,1.05,1.372,1.372,0,0,0,1.32-1.048A9.3,9.3,0,0,0,846.741,1332.82Z" transform="translate(0)"/><path class="a" d="M902.463,1392.966a1.215,1.215,0,0,1,1.221,1.118c.015.214-.049.385-.284.407-.216.02-.313-.115-.347-.323a.589.589,0,0,0-.571-.567c-.311,0-.526.2-.587.577-.034.211-.144.337-.356.312-.23-.028-.3-.2-.281-.413A1.228,1.228,0,0,1,902.463,1392.966Z" transform="translate(-56.793 -64.533)"/><path class="a" d="M947.891,1392.966a1.217,1.217,0,0,1,1.216,1.124c.014.2-.05.368-.266.4s-.332-.108-.369-.327a.588.588,0,0,0-.577-.561c-.31,0-.518.2-.581.584-.035.21-.149.332-.362.3s-.285-.192-.275-.393A1.221,1.221,0,0,1,947.891,1392.966Z" transform="translate(-97.331 -64.534)"/><path class="a" d="M888.587,1467.067c.253,0,.406.127.4.325s-.177.322-.417.314c-.209-.007-.366-.087-.381-.319C888.175,1467.185,888.332,1467.065,888.587,1467.067Z" transform="translate(-45.132 -130.668)"/><path class="a" d="M975.42,1467.067c.256,0,.411.112.416.31s-.162.33-.4.33-.4-.132-.4-.33S975.18,1467.07,975.42,1467.067Z" transform="translate(-122.642 -130.667)"/><path class="a" d="M948.566,1473.767c-.25,0-.409-.121-.408-.319s.168-.326.41-.321c.206,0,.369.075.388.309C948.973,1473.641,948.819,1473.765,948.566,1473.767Z" transform="translate(-98.654 -136.077)"/><path class="a" d="M915.469,1473.766c-.259,0-.412-.114-.4-.322.011-.24.172-.313.383-.318.247-.005.413.127.411.325S915.706,1473.763,915.469,1473.766Z" transform="translate(-69.12 -136.076)"/><path class="a" d="M902.687,1456.489c.214,0,.373.07.39.307.014.2-.154.331-.4.327-.211,0-.373-.081-.393-.313C902.263,1456.611,902.43,1456.487,902.687,1456.489Z" transform="translate(-57.708 -121.227)"/><path class="a" d="M960.913,1456.8c0-.2.156-.314.416-.308.238.005.385.128.381.319s-.17.322-.418.315S960.91,1456.99,960.913,1456.8Z" transform="translate(-110.037 -121.226)"/></g></svg>