<svg xmlns="http://www.w3.org/2000/svg" width="56" height="53" viewBox="0 0 56 53"><defs><style>.a,.b{fill:#00cec1;}.a{opacity:0.209;}</style></defs><g transform="translate(-28 -255)"><rect class="a" width="56" height="53" rx="8" transform="translate(28 255)"/><g transform="translate(45.505 269.634)"><g transform="translate(0 0)"><path class="b" d="M3205.789,597.29a10.934,10.934,0,0,1,8.346,3.842,10.367,10.367,0,0,1,2.591,5.824,10.76,10.76,0,0,1-4.451,10.293,10.977,10.977,0,0,1-12.131.57.544.544,0,0,0-.518-.05c-1.265.444-2.533.877-3.8,1.313a.384.384,0,0,1-.123.039c-.1,0-.243.017-.3-.04a.382.382,0,0,1-.06-.311c.16-.584.338-1.163.511-1.743.232-.781.461-1.562.7-2.341a.385.385,0,0,0-.048-.359,10.919,10.919,0,0,1-1.648-4.383,10.694,10.694,0,0,1,1-6.444,10.9,10.9,0,0,1,7.12-5.844A10.154,10.154,0,0,1,3205.789,597.29Zm-9.833,21.191c.115-.034.189-.054.261-.078,1.126-.385,2.254-.764,3.375-1.163a.74.74,0,0,1,.705.074,10.233,10.233,0,0,0,7.614,1.331,10.437,10.437,0,0,0,8.226-8.432,10.286,10.286,0,0,0-.861-6.435,10.5,10.5,0,0,0-11.611-5.752,10.509,10.509,0,0,0-6.667,16.1.667.667,0,0,1,.085.626C3196.7,615.974,3196.34,617.2,3195.956,618.481Z" transform="translate(-3194.609 -597.16)"/><path class="b" d="M3204.477,618.137c-.241,0-.483-.007-.729-.021a10.708,10.708,0,0,1-5.034-1.557.416.416,0,0,0-.407-.038c-.958.336-1.933.671-2.877,1l-.925.318-.028.012a.312.312,0,0,1-.141.035h-.07a.4.4,0,0,1-.317-.082.508.508,0,0,1-.09-.434c.122-.445.257-.894.387-1.328q.063-.209.125-.418l.163-.548c.174-.589.355-1.2.539-1.794a.26.26,0,0,0-.034-.25,11.091,11.091,0,0,1-1.667-4.434,10.85,10.85,0,0,1,1.013-6.521,11.059,11.059,0,0,1,7.2-5.912,10.338,10.338,0,0,1,2.842-.372h0a11.1,11.1,0,0,1,8.441,3.887,10.5,10.5,0,0,1,2.622,5.9,10.891,10.891,0,0,1-4.5,10.41A10.54,10.54,0,0,1,3204.477,618.137Zm-5.989-1.911a.678.678,0,0,1,.362.112,10.847,10.847,0,0,0,11.985-.562,10.645,10.645,0,0,0,4.4-10.175,10.247,10.247,0,0,0-2.559-5.752,10.848,10.848,0,0,0-8.251-3.8,10.084,10.084,0,0,0-2.77.362,10.808,10.808,0,0,0-7.038,5.777,10.6,10.6,0,0,0-.989,6.368,10.837,10.837,0,0,0,1.629,4.331.513.513,0,0,1,.063.467c-.183.6-.364,1.2-.538,1.792l-.163.548-.125.419c-.13.432-.264.88-.385,1.322a.281.281,0,0,0,.025.182.661.661,0,0,0,.126,0h.083l.028-.013c.016-.007.032-.014.048-.019l.925-.318c.943-.324,1.918-.659,2.875-.995A.8.8,0,0,1,3198.488,616.226Zm5.855,1.409a10.376,10.376,0,0,1-5.475-1.58.611.611,0,0,0-.594-.063c-.842.3-1.7.593-2.533.876l-.842.287c-.049.017-.1.031-.16.049l-.106.031-.232.069.07-.232.293-.979c.284-.949.552-1.845.834-2.755a.541.541,0,0,0-.069-.515,10.651,10.651,0,0,1,6.748-16.3,10.627,10.627,0,0,1,11.756,5.823,10.436,10.436,0,0,1,.872,6.515,10.689,10.689,0,0,1-2.847,5.557,10.577,10.577,0,0,1-5.481,2.979A11.106,11.106,0,0,1,3204.343,617.635Zm-5.82-1.952a.9.9,0,0,1,.48.149,10.122,10.122,0,0,0,7.52,1.315,10.312,10.312,0,0,0,5.346-2.905,10.427,10.427,0,0,0,2.778-5.422,10.187,10.187,0,0,0-.85-6.355,10.368,10.368,0,0,0-11.468-5.681,10.378,10.378,0,0,0-6.584,15.9.8.8,0,0,1,.1.736c-.281.909-.549,1.8-.833,2.752q-.111.372-.224.749l.025-.008.842-.288c.831-.283,1.69-.576,2.53-.875A1,1,0,0,1,3198.523,615.684Z" transform="translate(-3193.248 -595.79)"/></g><g transform="translate(4.353 4.377)"><path class="b" d="M3244.912,651.016a3.185,3.185,0,0,1,2.015-3.04c.164-.073.337-.125.5-.2.22-.1.358,0,.467.176q.394.646.786,1.294c.466.772.926,1.547,1.4,2.314a.311.311,0,0,1-.053.454c-.242.227-.468.472-.708.7a.217.217,0,0,0-.045.317,12.768,12.768,0,0,0,1.662,2.209,7.728,7.728,0,0,0,2.038,1.519.234.234,0,0,0,.305-.071c.259-.262.523-.518.778-.783a.305.305,0,0,1,.438-.058c1.178.741,2.36,1.476,3.539,2.215.251.158.272.256.159.543a4.233,4.233,0,0,1-1.162,1.72,3.149,3.149,0,0,1-1.876.741,5.648,5.648,0,0,1-2.78-.6,14.112,14.112,0,0,1-4.706-3.673,13.5,13.5,0,0,1-1.878-2.716A7.058,7.058,0,0,1,3244.912,651.016Zm9.941,9.548a2.807,2.807,0,0,0,1.462-.353,3.1,3.1,0,0,0,1.266-1.465c.131-.278.129-.28-.119-.436q-1.485-.931-2.969-1.863a.2.2,0,0,0-.3.031c-.247.263-.514.507-.761.771a.351.351,0,0,1-.462.083,8.007,8.007,0,0,1-1.858-1.217,12.3,12.3,0,0,1-2.446-3.091.326.326,0,0,1,.063-.445c.225-.224.442-.456.675-.671.13-.121.167-.216.057-.38-.227-.342-.43-.7-.642-1.052-.407-.673-.81-1.347-1.224-2.015-.037-.06-.156-.13-.207-.112a2.671,2.671,0,0,0-1.953,2.574,5.75,5.75,0,0,0,.693,2.676,13.788,13.788,0,0,0,2.688,3.69,13.385,13.385,0,0,0,3.44,2.561A5.708,5.708,0,0,0,3254.854,660.564Z" transform="translate(-3244.782 -647.605)"/><path class="b" d="M3253.462,659.83a5.968,5.968,0,0,1-2.512-.622,14.226,14.226,0,0,1-4.75-3.706,13.541,13.541,0,0,1-1.9-2.742,7.111,7.111,0,0,1-.893-3.122v-.007a3.3,3.3,0,0,1,2.092-3.154c.083-.037.168-.069.25-.1s.17-.063.25-.1a.455.455,0,0,1,.632.226l.1.163q.344.565.687,1.131l.437.726c.313.522.637,1.061.961,1.587a.437.437,0,0,1-.075.617c-.126.118-.25.244-.37.366s-.222.225-.337.334c-.067.063-.069.081-.024.155a12.477,12.477,0,0,0,1.645,2.187,7.62,7.62,0,0,0,2,1.493c.046.024.075.033.153-.047q.146-.148.293-.294c.16-.159.325-.323.483-.488a.431.431,0,0,1,.6-.078q1.014.638,2.032,1.272l1.507.943c.3.188.349.352.211.7a4.3,4.3,0,0,1-1.2,1.771,3.3,3.3,0,0,1-1.952.772C3253.683,659.826,3253.572,659.83,3253.462,659.83Zm-9.791-10.192a6.866,6.866,0,0,0,.864,3,13.287,13.287,0,0,0,1.861,2.69,13.978,13.978,0,0,0,4.662,3.64,5.461,5.461,0,0,0,2.716.587,3,3,0,0,0,1.8-.71,4.05,4.05,0,0,0,1.125-1.669c.093-.236.085-.265-.107-.385l-1.507-.943q-1.017-.635-2.032-1.273c-.115-.072-.177-.064-.275.038-.161.167-.327.332-.488.493-.1.1-.2.194-.292.292a.367.367,0,0,1-.457.1,7.88,7.88,0,0,1-2.072-1.544,12.737,12.737,0,0,1-1.68-2.231.343.343,0,0,1,.066-.48c.112-.107.223-.22.331-.329s.248-.251.377-.373c.106-.1.112-.159.031-.291-.325-.528-.649-1.068-.962-1.59l-.437-.725q-.341-.566-.687-1.13l-.1-.163c-.1-.173-.187-.177-.3-.125-.089.04-.18.074-.267.107s-.16.059-.235.093A3.063,3.063,0,0,0,3243.671,649.637Zm9.87,9.678h-.08a5.784,5.784,0,0,1-2.63-.729,13.422,13.422,0,0,1-3.473-2.585,13.837,13.837,0,0,1-2.714-3.725,5.772,5.772,0,0,1-.706-2.736,2.81,2.81,0,0,1,2.039-2.693.366.366,0,0,1,.362.166c.324.524.648,1.06.96,1.579l.264.437q.092.153.184.308c.146.245.3.5.456.739a.376.376,0,0,1-.078.548c-.153.142-.3.294-.448.442-.074.076-.149.151-.224.226a.2.2,0,0,0-.043.286,11.951,11.951,0,0,0,2.42,3.059,7.909,7.909,0,0,0,1.828,1.2.224.224,0,0,0,.312-.054c.127-.136.261-.268.391-.4s.25-.248.371-.375a.326.326,0,0,1,.461-.051q1.066.673,2.136,1.341l.833.522c.305.192.326.265.167.6a3.2,3.2,0,0,1-1.32,1.523A2.918,2.918,0,0,1,3253.541,659.315Zm-.058-.261h0a2.661,2.661,0,0,0,1.4-.336,2.948,2.948,0,0,0,1.212-1.407,1.322,1.322,0,0,0,.073-.172,1.22,1.22,0,0,0-.143-.1l-.833-.522q-1.069-.669-2.136-1.341c-.076-.048-.083-.043-.133.01-.123.131-.252.258-.377.382s-.26.256-.384.389a.481.481,0,0,1-.613.112,8.179,8.179,0,0,1-1.889-1.236,12.223,12.223,0,0,1-2.473-3.123.453.453,0,0,1,.083-.6c.075-.074.148-.149.222-.224.147-.15.3-.3.457-.451.1-.09.1-.116.038-.212-.163-.246-.315-.5-.462-.751q-.091-.153-.183-.306l-.264-.437c-.312-.518-.636-1.054-.959-1.577a.208.208,0,0,0-.072-.05,2.533,2.533,0,0,0-1.847,2.448,5.526,5.526,0,0,0,.68,2.615,13.573,13.573,0,0,0,2.664,3.655,13.175,13.175,0,0,0,3.406,2.536,5.562,5.562,0,0,0,2.534.7Zm-7.448-11.958Z" transform="translate(-3243.411 -646.226)"/></g></g></g></svg>