<svg xmlns="http://www.w3.org/2000/svg" width="21.331" height="21.34" viewBox="0 0 21.331 21.34"><defs><style>.a{fill:#8ea9b2;stroke:#8ea9b2;stroke-width:0.2px;}</style></defs><g transform="translate(-1917.68 -1194.012)"><path class="a" d="M1922.727,1196.02a1.287,1.287,0,0,1,.894.424,1.258,1.258,0,0,0,1.355.392,1.278,1.278,0,0,0,.9-1.279,1.325,1.325,0,0,1,1.446-1.433c.74-.022,1.482-.014,2.222.014a1.3,1.3,0,0,1,1.294,1.366,1.263,1.263,0,0,0,1.022,1.367,1.216,1.216,0,0,0,1.186-.389,1.346,1.346,0,0,1,1.992-.039c.512.507,1.027,1.011,1.527,1.529a1.33,1.33,0,0,1-.017,2.035,1.262,1.262,0,0,0,.88,2.189,1.345,1.345,0,0,1,1.442,1.055,1.644,1.644,0,0,1,.03.35c0,.686-.026,1.373.008,2.057a1.4,1.4,0,0,1-1.513,1.531,1.242,1.242,0,0,0-1.2,1.664,1.452,1.452,0,0,0,.323.5,1.36,1.36,0,0,1-.006,2.086q-.734.736-1.469,1.47a1.332,1.332,0,0,1-2,.008,1.318,1.318,0,0,0-.828-.429,1.245,1.245,0,0,0-1.381,1.265,1.363,1.363,0,0,1-1.473,1.5c-.734,0-1.469.015-2.2-.014a1.314,1.314,0,0,1-1.311-1.4,1.233,1.233,0,0,0-.967-1.32,1.273,1.273,0,0,0-1.218.355,2.044,2.044,0,0,1-.671.427,1.228,1.228,0,0,1-1.3-.334q-.812-.79-1.6-1.6a1.322,1.322,0,0,1,.008-1.945,1.278,1.278,0,0,0,0-1.955,1.146,1.146,0,0,0-.844-.288,1.378,1.378,0,0,1-1.476-1.5c.018-.672,0-1.344,0-2.016a1.339,1.339,0,0,1,1.035-1.418,2.453,2.453,0,0,1,.515-.048,1.258,1.258,0,0,0,.846-2.151,1.466,1.466,0,0,1-.5-1.057,1.3,1.3,0,0,1,.391-.953c.545-.552,1.092-1.1,1.646-1.646A1.338,1.338,0,0,1,1922.727,1196.02Zm-1.425,4.922a5.376,5.376,0,0,1-.1.548,1.981,1.981,0,0,1-2.009,1.429.6.6,0,0,0-.667.669q-.009,1.112,0,2.224a.6.6,0,0,0,.638.641,3.276,3.276,0,0,1,.657.073,1.857,1.857,0,0,1,1.39,1.4,1.882,1.882,0,0,1-.509,1.911c-.4.406-.4.7,0,1.1l1.426,1.426a.626.626,0,0,0,1.034.017,2,2,0,0,1,3.437,1.5.593.593,0,0,0,.635.639q1.133.005,2.265,0a.6.6,0,0,0,.625-.609,3.632,3.632,0,0,1,.076-.7,1.984,1.984,0,0,1,3.337-.849.643.643,0,0,0,1.055,0q.707-.7,1.411-1.411c.4-.4.408-.685.018-1.1a1.92,1.92,0,0,1-.429-2.185,1.89,1.89,0,0,1,1.866-1.207c.514-.008.733-.225.735-.736q0-1.039,0-2.079c0-.5-.226-.718-.724-.726a2.05,2.05,0,0,1-1.213-.363,2,2,0,0,1-.211-3.069.612.612,0,0,0,.068-.947c-.537-.551-1.082-1.093-1.63-1.632a.566.566,0,0,0-.706-.1,1.939,1.939,0,0,0-.3.254,1.987,1.987,0,0,1-3.358-1.531.6.6,0,0,0-.655-.685c-.748-.009-1.5,0-2.244,0a.571.571,0,0,0-.579.391,1.582,1.582,0,0,0-.049.45,1.9,1.9,0,0,1-.666,1.424,2,2,0,0,1-2.762-.114.621.621,0,0,0-1.031.012l-1.469,1.469a.626.626,0,0,0,.017,1.034A2.044,2.044,0,0,1,1921.3,1200.943Z" transform="translate(0)"/><path class="a" d="M1996.157,1277.036a4.4,4.4,0,1,1,4.4-4.374A4.406,4.406,0,0,1,1996.157,1277.036Zm-3.687-4.413a3.676,3.676,0,0,0,3.689,3.7,3.686,3.686,0,1,0-3.689-3.7Z" transform="translate(-67.798 -67.95)"/></g></svg>