<svg xmlns="http://www.w3.org/2000/svg" width="110.51" height="25.247" viewBox="0 0 110.51 25.247"><defs><style>.a{fill:#fff;}</style></defs><g transform="translate(-246.471 -259.505)"><g transform="translate(-1 -0.879)"><g transform="translate(268.701 265.782)"><g transform="translate(0)"><path class="a" d="M296.653,689.792a4.563,4.563,0,0,1-3.345-1.4,5.143,5.143,0,0,1-1.019-1.547,5.809,5.809,0,0,1-.456-1.919V676.1a1.612,1.612,0,0,1,.456-1.151,1.492,1.492,0,0,1,1.127-.48,1.52,1.52,0,0,1,1.151.48,1.614,1.614,0,0,1,.456,1.151v8.658a1.512,1.512,0,0,0,.492,1.139,1.621,1.621,0,0,0,2.279,0,1.514,1.514,0,0,0,.492-1.139V676.1a1.591,1.591,0,0,1,.466-1.151,1.56,1.56,0,0,1,1.163-.48,1.533,1.533,0,0,1,1.139.48,1.592,1.592,0,0,1,.466,1.151v8.658a1.55,1.55,0,0,0,.466,1.139,1.522,1.522,0,0,0,1.115.466,1.578,1.578,0,0,0,1.163-.466,1.549,1.549,0,0,0,.466-1.139V676.1a1.62,1.62,0,0,1,2.77-1.151,1.553,1.553,0,0,1,.492,1.151v8.826a4.888,4.888,0,0,1-.408,1.858,5.128,5.128,0,0,1-1.043,1.547,5,5,0,0,1-1.547,1.066,4.6,4.6,0,0,1-1.895.4,4.855,4.855,0,0,1-1.7-.312,4.253,4.253,0,0,1-1.487-.933,5.659,5.659,0,0,1-1.5.9A5.011,5.011,0,0,1,296.653,689.792Z" transform="translate(-291.832 -674.421)"/><path class="a" d="M444.686,705.83a5.6,5.6,0,0,1,2.027.624,5.721,5.721,0,0,1,1.631,1.283,6.08,6.08,0,0,1,1.079,1.775,5.634,5.634,0,0,1,.4,2.1v4.245a1.466,1.466,0,0,1-.48,1.1,1.536,1.536,0,0,1-2.423-.312,1.362,1.362,0,0,0-.216.108q-.1.06-.192.108a6.386,6.386,0,0,1-1.175.408,5.853,5.853,0,0,1-1.319.144,5.545,5.545,0,0,1-3.213-.971,5.989,5.989,0,0,1-2.111-2.506,6.389,6.389,0,0,1-.372-1.127,5.52,5.52,0,0,1,0-2.4,6.424,6.424,0,0,1,.372-1.127,5.88,5.88,0,0,1,2.111-2.518,5.6,5.6,0,0,1,3.213-.959h.348A2.343,2.343,0,0,1,444.686,705.83Zm-.7,8.466a2.7,2.7,0,0,0,1.043-.2,2.6,2.6,0,0,0,.852-.564,2.755,2.755,0,0,0,.576-.851,2.624,2.624,0,0,0,.216-1.066,2.513,2.513,0,0,0-.216-1.019,2.8,2.8,0,0,0-1.451-1.451,2.51,2.51,0,0,0-1.019-.216,2.423,2.423,0,0,0-1.007.216,2.841,2.841,0,0,0-.852.588,2.805,2.805,0,0,0-.588.866,2.516,2.516,0,0,0-.216,1.019,2.445,2.445,0,0,0,.228,1.043,2.817,2.817,0,0,0,.6.851,2.959,2.959,0,0,0,.852.576A2.376,2.376,0,0,0,443.99,714.3Z" transform="translate(-420.822 -702.043)"/><path class="a" d="M556.675,686.731a1.593,1.593,0,0,1,.026,2.253l-.026.026a1.787,1.787,0,0,1-1.127.466,1.462,1.462,0,0,1-1.151-.466l-3.622-3.6v2.447a1.556,1.556,0,0,1-.48,1.115,1.526,1.526,0,0,1-1.127.492A1.616,1.616,0,0,1,548.04,689a1.5,1.5,0,0,1-.5-1.139V675.748a1.619,1.619,0,1,1,3.237-.069c0,.023,0,.046,0,.069v6.02l3.622-3.621a1.5,1.5,0,0,1,1.127-.466,1.722,1.722,0,0,1,1.151.466,1.593,1.593,0,0,1,.026,2.253l-.026.026-3.166,3.166Z" transform="translate(-517.197 -674.095)"/><path class="a" d="M635.842,705.609a1.669,1.669,0,0,1,1.091.408,1.309,1.309,0,0,1,.492,1.055v4.341a2.618,2.618,0,0,0,.768,1.871,2.756,2.756,0,0,0,.852.576,2.626,2.626,0,0,0,1.066.216,2.714,2.714,0,0,0,1-.192,2.78,2.78,0,0,0,.866-.528,2.609,2.609,0,0,0,.6-.8,2.3,2.3,0,0,0,.228-1.019v-4.389a1.532,1.532,0,0,1,1.532-1.533h.027a1.627,1.627,0,0,1,1.1.42,1.333,1.333,0,0,1,.48,1.043V720.16a1.367,1.367,0,0,1-.48,1.055,1.6,1.6,0,0,1-1.1.432,1.572,1.572,0,0,1-1.079-.432,1.443,1.443,0,0,1-.48-1.127V716.57a4.093,4.093,0,0,1-1.259.492,6.592,6.592,0,0,1-1.427.156,5.568,5.568,0,0,1-2.231-.456,6.027,6.027,0,0,1-1.859-1.247,5.834,5.834,0,0,1-1.271-1.883,6,6,0,0,1-.466-2.387v-4.1a1.532,1.532,0,0,1,1.532-1.533h.027Z" transform="translate(-593.654 -701.87)"/><path class="a" d="M750.054,706.012a5.573,5.573,0,0,1,2.231.456,5.886,5.886,0,0,1,1.847,1.247,6.049,6.049,0,0,1,1.259,1.847,5.508,5.508,0,0,1,.466,2.255,5.758,5.758,0,0,1-.444,2.255,5.825,5.825,0,0,1-1.223,1.847,5.7,5.7,0,0,1-1.846,1.247,5.775,5.775,0,0,1-2.291.456,5.922,5.922,0,0,1-2.687-.6v3.518a1.475,1.475,0,0,1-.456,1.079,1.532,1.532,0,0,1-1.127.456,1.553,1.553,0,0,1-1.066-.42,1.422,1.422,0,0,1-.492-1.043v-8.794a5.448,5.448,0,0,1,.466-2.231,6.013,6.013,0,0,1,3.106-3.106A5.5,5.5,0,0,1,750.054,706.012Zm-2.686,5.8a2.643,2.643,0,0,0,.8,1.943,2.732,2.732,0,0,0,.866.564,2.637,2.637,0,0,0,1.019.2,2.542,2.542,0,0,0,1.055-.216,2.731,2.731,0,0,0,1.607-2.5,2.563,2.563,0,0,0-.216-1.043,2.76,2.76,0,0,0-.576-.851,2.692,2.692,0,0,0-2.938-.552,2.757,2.757,0,0,0-.852.576,2.622,2.622,0,0,0-.768,1.871Z" transform="translate(-690.55 -702.225)"/><path class="a" d="M854.329,705.811a5.271,5.271,0,0,1,2.207.48,6.306,6.306,0,0,1,3.142,3.131,5.2,5.2,0,0,1,.48,2.195,1.533,1.533,0,0,1-.466,1.1,1.482,1.482,0,0,1-1.163.456h-6.38a2.724,2.724,0,0,0,2.83,1.055,2.865,2.865,0,0,0,.466-.168,4.356,4.356,0,0,1,.408-.168,1.4,1.4,0,0,1,.466-.072,1.62,1.62,0,0,1,1.427.947,1.532,1.532,0,0,1,.12.851,1.5,1.5,0,0,1-.42.839,3.72,3.72,0,0,1-1.439.733,7.494,7.494,0,0,1-1.679.228,4.879,4.879,0,0,1-2.207-.42,6.093,6.093,0,0,1-1.859-1.271,6.009,6.009,0,0,1-1.271-1.883,5.558,5.558,0,0,1-.466-2.231,5.33,5.33,0,0,1,.466-2.183,6.206,6.206,0,0,1,1.259-1.859,6.126,6.126,0,0,1,1.847-1.283A5.331,5.331,0,0,1,854.329,705.811Zm2.183,4.221a3.187,3.187,0,0,0-.96-.8,2.669,2.669,0,0,0-2.458,0,3.228,3.228,0,0,0-.947.8Z" transform="translate(-782.474 -702.048)"/><path class="a" d="M957.077,674.473a1.512,1.512,0,0,1,1.127.466,1.788,1.788,0,0,1,.5,1.163v1.823h4.6a1.444,1.444,0,0,1,1.127.48,1.63,1.63,0,0,1,.432,1.127,1.555,1.555,0,0,1-.48,1.115,1.475,1.475,0,0,1-1.079.492h-4.6v2.732a2.683,2.683,0,0,0,.2,1.043,2.865,2.865,0,0,0,.564.875,2.564,2.564,0,0,0,.851.6,2.627,2.627,0,0,0,1.066.216,3.015,3.015,0,0,0,1.066-.168,2.18,2.18,0,0,0,.78-.5,1.731,1.731,0,0,1,1.115-.444,1.616,1.616,0,0,1,1.139.466,1.427,1.427,0,0,1,.36.492,1.6,1.6,0,0,1,.133.576,1.636,1.636,0,0,1-.083.588,1.272,1.272,0,0,1-.312.5,6.082,6.082,0,0,1-1.847,1.247,5.425,5.425,0,0,1-2.159.432,6.546,6.546,0,0,1-2.351-.42,5.905,5.905,0,0,1-1.943-1.2,5.72,5.72,0,0,1-1.333-1.871,6.12,6.12,0,0,1-.516-2.435v-7.891a1.376,1.376,0,0,1,.492-1.079A1.673,1.673,0,0,1,957.077,674.473Z" transform="translate(-876.707 -674.428)"/></g></g><g transform="translate(247.471 260.384)"><path class="a" d="M491.306,146.643c0-.026,0-.052-.005-.079-.016-.191-.039-.384-.07-.576a7.648,7.648,0,0,0-.265-1.113,8.489,8.489,0,0,0-2.654-3.921c-.1-.083-.2-.164-.3-.242a8.337,8.337,0,0,0-7.484-1.353,8.538,8.538,0,0,0-5.625,5.565,9.261,9.261,0,0,0,.979,7.131,32.441,32.441,0,0,0,6.238,7.7,1.98,1.98,0,0,0,.642.472,1.4,1.4,0,0,0,.242.065v.022a1.419,1.419,0,0,0,.24-.067,1.977,1.977,0,0,0,.637-.477,32.448,32.448,0,0,0,6.163-7.748q.147-.288.279-.581a12.643,12.643,0,0,0,.529-1.355A9.021,9.021,0,0,0,491.306,146.643Zm-2.99,3.3a6,6,0,1,1-1.513-7.372c.1.083.2.169.293.26a5.982,5.982,0,0,1,1.836,3.6,6.191,6.191,0,0,1,.049.747A5.978,5.978,0,0,1,488.317,149.944Z" transform="translate(-474.553 -139)"/><path class="a" d="M586.586,233.219l-.429-1.3a.673.673,0,0,1-.05-.312c.027-.173.18-.293.289-.43a.9.9,0,0,0,.083-1.013.749.749,0,0,0-.946-.277.656.656,0,0,0-.3.76.109.109,0,0,0,.174.051.313.313,0,0,1,.4-.021.338.338,0,0,1-.015.522.833.833,0,0,1-.35.137,2.362,2.362,0,0,1-1.59-.235,1.07,1.07,0,0,1-.4-1.066,3.068,3.068,0,0,1,.737-1.822.645.645,0,0,0,.231-.437c-.014-.185-.2-.31-.375-.366a.452.452,0,0,0-.411.028.542.542,0,0,0-.156.365c-.075.485-.144.836-.179,1.326-.021.293-.07.631-.115,1.006a.058.058,0,0,1-.115.006c-.026-.106-.029-.245-.041-.317a1.18,1.18,0,0,0-.052-.261,2.555,2.555,0,0,0-.372-.707,2.2,2.2,0,0,0-.3-.317c-.022-.02-.32-.292-.34-.256a.029.029,0,0,0,0,.026,1.83,1.83,0,0,1,.129,1,.059.059,0,0,1-.108.022l-.034-.052a2.134,2.134,0,0,0-.232-.3,1.434,1.434,0,0,0-.138-.128c-.032-.026-.12-.112-.134-.025a.387.387,0,0,0,.006.076c0,.049,0,.1,0,.148a1.713,1.713,0,0,1-.033.295.306.306,0,0,1-.06.145.34.34,0,0,1-.262.076l-1.365.006a.25.25,0,0,0-.145.03c-.072.05-.07.155-.059.242a2.439,2.439,0,0,0,.275.951,1.03,1.03,0,0,0,.795.534c.422.021.855-.3,1.239,0a.62.62,0,0,1,.139.151,1.2,1.2,0,0,1,.159.73,3.792,3.792,0,0,1-.224,1.141l0,.013q-.05.1-.1.2c-.074.138-.155.271-.231.408a.1.1,0,0,1-.133.057.73.73,0,0,0-.874.487c.43.019.855.041,1.281.055a.282.282,0,0,0,.2-.112,1.914,1.914,0,0,0,.326-.47c.056-.116.112-.09.218-.069a2.993,2.993,0,0,0,1.861-.268,4.55,4.55,0,0,0,.511-.328,3.235,3.235,0,0,0,.957.764.706.706,0,0,0-.34.462,9.521,9.521,0,0,0,1.42-.02A10.51,10.51,0,0,0,586.586,233.219Zm-2.786-5.47c.031-.072.062-.148.162-.088s.182.106.109.234a1.211,1.211,0,0,1-.26.306.065.065,0,0,1-.108-.057A1.5,1.5,0,0,1,583.8,227.749Z" transform="translate(-574.977 -223.543)"/></g></g></g></svg>