<svg xmlns="http://www.w3.org/2000/svg" width="76" height="76" viewBox="0 0 76 76"><g transform="translate(-182 -2337)"><circle cx="38" cy="38" r="38" transform="translate(182 2337)" fill="#f0f6f8"/><g transform="translate(206.297 2358.859)"><path d="M500,150.61c0-.04-.005-.08-.008-.119-.024-.29-.06-.584-.106-.875a11.616,11.616,0,0,0-.4-1.691,12.9,12.9,0,0,0-4.031-5.956c-.151-.126-.305-.249-.462-.367a12.664,12.664,0,0,0-11.369-2.055A12.969,12.969,0,0,0,475.08,148c-1.153,3.694-.3,7.388,1.487,10.833,2.344,4.513,6.3,8.6,9.476,11.692a3.009,3.009,0,0,0,.975.716,2.132,2.132,0,0,0,.367.1v.033a2.159,2.159,0,0,0,.365-.1,3,3,0,0,0,.967-.724c3.144-3.12,7.058-7.236,9.362-11.769q.223-.438.424-.882a19.2,19.2,0,0,0,.8-2.059A13.707,13.707,0,0,0,500,150.61Zm-4.542,5.014a9.118,9.118,0,1,1-2.3-11.2c.153.126.3.257.446.4a9.087,9.087,0,0,1,2.788,5.462,9.376,9.376,0,0,1,.074,1.134A9.08,9.08,0,0,1,495.46,155.624Z" transform="translate(-474.553 -139)" fill="none" stroke="#0099f4" stroke-width="1"/></g></g></svg>