<svg xmlns="http://www.w3.org/2000/svg" width="76" height="76" viewBox="0 0 76 76"><g transform="translate(-704 -3936)"><circle cx="38" cy="38" r="38" transform="translate(704 3936)" fill="#f0f6f8"/><path d="M3690.068-562.927c-.877.357-1.7.729-2.54,1.028a16.379,16.379,0,0,1-11.5-.14,24.959,24.959,0,0,1-7.233-4.343.9.9,0,0,1-.3-.779c0-2.092-.007-4.184.009-6.276a.585.585,0,0,0-.391-.63c-1.434-.671-2.854-1.37-4.283-2.053-.254-.122-.469-.26-.468-.578s.218-.458.47-.578q8.863-4.245,17.723-8.5a.93.93,0,0,1,.869,0q8.859,4.254,17.724,8.5c.256.123.466.275.458.587s-.224.453-.479.575c-1.418.674-2.829,1.365-4.251,2.03a.6.6,0,0,0-.42.646c.021,2.079,0,4.158.018,6.237a1.045,1.045,0,0,1-.472.964q-1.8,1.241-3.573,2.512a.614.614,0,0,0-.237.413c-.023.785-.021,1.572,0,2.358a.475.475,0,0,0,.231.348,2.178,2.178,0,0,1,1.312,1.659c.213,1.068.4,2.14.6,3.212.116.634-.087.884-.728.886q-1.978.007-3.957,0c-.6,0-.809-.243-.706-.833q.293-1.684.616-3.363a2.2,2.2,0,0,1,1.269-1.565.458.458,0,0,0,.225-.316C3690.079-561.579,3690.068-562.238,3690.068-562.927Zm-.744-9.283-.4-.212-6.9-3.618c-.551-.289-.718-.586-.527-.923s.505-.367,1.066-.074q3.888,2.037,7.773,4.08a.574.574,0,0,0,.6.013c.632-.322,1.276-.618,1.915-.925l5.88-2.834c-.1-.053-.182-.094-.259-.131q-8.09-3.871-16.176-7.747a.654.654,0,0,0-.634.024q-7.523,3.6-15.05,7.2l-1.356.651c.118.061.2.1.275.141q8.1,3.882,16.214,7.755a.678.678,0,0,0,.513,0c2.268-1.068,4.528-2.151,6.789-3.232C3689.132-572.09,3689.214-572.146,3689.324-572.21Zm-19.677-1.1a1.555,1.555,0,0,0-.022.176c0,1.914-.006,3.829.008,5.744a.6.6,0,0,0,.216.4,23.928,23.928,0,0,0,6.038,3.7,15.678,15.678,0,0,0,6.787,1.245,16.886,16.886,0,0,0,7.105-2.032.468.468,0,0,0,.295-.491c-.01-1.75-.005-3.5-.005-5.249v-1.446c-.166.071-.292.119-.414.177-2.342,1.122-4.688,2.235-7.021,3.376a1.323,1.323,0,0,1-1.284,0c-3.751-1.815-7.514-3.608-11.274-5.407C3669.943-573.186,3669.806-573.242,3669.646-573.312Zm21.565,8.395c.152-.088.264-.14.363-.211.832-.6,1.657-1.209,2.493-1.8a.613.613,0,0,0,.282-.567c-.011-1.825-.006-3.65-.006-5.475v-.361c-.984.467-1.905.913-2.835,1.339a.476.476,0,0,0-.327.509c.012,2.053.006,4.106.008,6.159C3691.188-565.208,3691.2-565.088,3691.212-564.917Zm-2.083,8.906h3c-.18-.957-.342-1.877-.527-2.792a.984.984,0,0,0-.923-.814.942.942,0,0,0-.966.706C3689.487-557.955,3689.32-556.985,3689.128-556.011Z" transform="translate(-2940.37 4546.414)" fill="#0099f4"/></g></svg>