<svg xmlns="http://www.w3.org/2000/svg" width="76" height="76" viewBox="0 0 76 76"><g transform="translate(-702 -3755)"><circle cx="38" cy="38" r="38" transform="translate(702 3755)" fill="#f0f6f8"/><g transform="translate(-3002.149 4381.901)"><path d="M3741.76-550.2a10.214,10.214,0,0,1,8.328-4.185,9.914,9.914,0,0,1,7.288,3.044,10.241,10.241,0,0,1-.213,14.722,10.306,10.306,0,0,1-15.4-1.343,10.3,10.3,0,0,1-9.16,4.135,9.807,9.807,0,0,1-6.594-3.163,10.259,10.259,0,0,1,.167-14.391,10.061,10.061,0,0,1,5.134-2.779,10,10,0,0,1,5.777.434A10.619,10.619,0,0,1,3741.76-550.2Zm-1.324,12.31a9.293,9.293,0,0,0-.295-12.747,9.326,9.326,0,0,0-13.218-.16,9.338,9.338,0,0,0-.451,12.909,7.8,7.8,0,0,1,6.968-4.12A7.8,7.8,0,0,1,3740.437-537.892Zm16.637.027a9.194,9.194,0,0,0,2.168-8.118,9.188,9.188,0,0,0-7.729-7.345,9.15,9.15,0,0,0-8.97,3.657.541.541,0,0,0-.044.692,10.034,10.034,0,0,1,.25,9.306c-.45.983-.456.98.354,1.8a7.711,7.711,0,0,1,6.953-4.141A7.792,7.792,0,0,1,3757.074-537.865Zm-.762.724a6.878,6.878,0,0,0-6.285-3.96,6.869,6.869,0,0,0-6.189,3.976A9.272,9.272,0,0,0,3756.312-537.14Zm-29.119-.046c.018.041.02.056.028.064a9.274,9.274,0,0,0,12.317.12.4.4,0,0,0,.058-.38,8.94,8.94,0,0,0-.916-1.359,6.935,6.935,0,0,0-8.845-1.331A6.731,6.731,0,0,0,3727.193-537.186Z" transform="translate(0 -44.526)" fill="#0099f4"/><path d="M3887.518-597.354c-.069.184-.1.285-.143.376-.5.987-1,1.978-1.522,2.952a.718.718,0,0,1-.472.326c-.122.016-.32-.159-.394-.3a.562.562,0,0,1,.046-.438c.5-.99.993-1.98,1.527-2.949a.747.747,0,0,1,.544-.316C3887.242-597.706,3887.389-597.47,3887.518-597.354Z" transform="translate(-136.391 -8.027)" fill="#0099f4"/><path d="M3784.925-594.278c-.113.111-.237.334-.373.341a.68.68,0,0,1-.535-.246c-.346-.581-.639-1.194-.948-1.8-.209-.405-.414-.813-.62-1.22-.142-.282-.136-.538.177-.7s.508,0,.642.257c.523,1.006,1.036,2.016,1.55,3.027A2.635,2.635,0,0,1,3784.925-594.278Z" transform="translate(-49.909 -7.812)" fill="#0099f4"/><path d="M3838.721-396.338c0-.548,0-1.1,0-1.645,0-.309.13-.525.437-.543.34-.02.491.22.493.53q.012,1.684,0,3.368c0,.294-.145.524-.462.524-.339,0-.467-.232-.466-.551C3838.723-395.215,3838.721-395.776,3838.721-396.338Z" transform="translate(-97.415 -175.912)" fill="#0099f4"/><path d="M3839.646-605c0,.535,0,1.07,0,1.605,0,.319-.1.577-.466.605-.292.023-.462-.2-.463-.594,0-1.083,0-2.167,0-3.25,0-.318.1-.543.438-.586.286-.037.487.2.495.574C3839.654-606.1,3839.646-605.549,3839.646-605Z" transform="translate(-97.408 0)" fill="#0099f4"/><path d="M3886.771-401.41c-.067-.059-.241-.147-.316-.287-.536-1.012-1.053-2.034-1.574-3.054a.431.431,0,0,1,.179-.635.433.433,0,0,1,.633.2c.537,1.026,1.072,2.054,1.587,3.091C3887.458-401.737,3887.244-401.4,3886.771-401.41Z" transform="translate(-136.265 -170.073)" fill="#0099f4"/><path d="M3782.923-401.408c-.452.012-.691-.31-.528-.643.522-1.062,1.068-2.114,1.62-3.162a.428.428,0,0,1,.61-.175.418.418,0,0,1,.2.6q-.8,1.588-1.626,3.159C3783.14-401.512,3782.975-401.448,3782.923-401.408Z" transform="translate(-49.895 -170.078)" fill="#0099f4"/><path d="M3767.709-527.937a3.894,3.894,0,0,1-3.918-3.975,3.911,3.911,0,0,1,3.918-3.86,3.951,3.951,0,0,1,3.938,3.941A3.944,3.944,0,0,1,3767.709-527.937Zm-2.991-3.928a3.009,3.009,0,0,0,3.012,3.013,3.039,3.039,0,0,0,2.98-3.014,3.026,3.026,0,0,0-3.042-2.989A3,3,0,0,0,3764.718-531.865Z" transform="translate(-34.258 -60.227)" fill="#0099f4"/><path d="M3873.472-527.939a3.894,3.894,0,0,1-3.864-4.066,3.916,3.916,0,0,1,3.97-3.767,3.95,3.95,0,0,1,3.884,3.993A3.941,3.941,0,0,1,3873.472-527.939Zm3.055-3.86a3.028,3.028,0,0,0-2.975-3.058,3.015,3.015,0,0,0-3.021,2.922,3.017,3.017,0,0,0,2.985,3.082A3.044,3.044,0,0,0,3876.527-531.8Z" transform="translate(-123.451 -60.226)" fill="#0099f4"/></g></g></svg>