<svg xmlns="http://www.w3.org/2000/svg" width="38.933" height="50.272" viewBox="0 0 38.933 50.272"><g transform="matrix(0.839, 0.545, -0.545, 0.839, -3126.271, -1978.495)"><path d="M3732.649-21.967c-.32.439-.624.857-.927,1.275a1.28,1.28,0,0,1-1.135.549c-.753-.013-1.505,0-2.314,0,0,.335.008.63,0,.924a.926.926,0,0,1-.875.982.925.925,0,0,1-.869-.98c-.011-.279,0-.56,0-.9-.72,0-1.4-.039-2.064.011a1.611,1.611,0,0,1-1.6-.779c-.223-.341-.464-.671-.735-1.06-.413.34-.821.671-1.225,1.007-.955.8-1.9,1.6-2.862,2.388a.87.87,0,0,1-1.508-.432,11.441,11.441,0,0,1-.727-4.017c.046-1.9.108-3.8.292-5.69a5.909,5.909,0,0,1,2.6-4.358,1.3,1.3,0,0,0,.6-1.2,33.752,33.752,0,0,1,2.973-12.965,22.115,22.115,0,0,1,2.7-4.955,8.36,8.36,0,0,1,1.529-1.512,1.486,1.486,0,0,1,1.951.132,10.133,10.133,0,0,1,2.522,3.264,37.453,37.453,0,0,1,4.372,13.752c.1.873.136,1.755.163,2.634a.743.743,0,0,0,.344.661,6.257,6.257,0,0,1,2.755,4.123,28.542,28.542,0,0,1,.328,3.139,18.574,18.574,0,0,1-.288,5.491c-.118.488-.253.973-.406,1.452a.879.879,0,0,1-1.533.452c-1.224-1.012-2.438-2.036-3.657-3.055C3732.927-21.744,3732.795-21.849,3732.649-21.967Zm.824-8.169a25.037,25.037,0,0,0-.094-8.063,37.478,37.478,0,0,0-3.127-9.61.754.754,0,0,0-.435-.4,14.084,14.084,0,0,0-4.786-.033.79.79,0,0,0-.508.374,33.308,33.308,0,0,0-3.473,13.362c-.034,1.452.125,2.909.2,4.374l5.278-.2c0-.178,0-.347,0-.515,0-.724-.011-1.448.01-2.171a.849.849,0,0,1,.835-.895.869.869,0,0,1,.9.891c.022.471.006.944.007,1.416,0,.433,0,.866,0,1.275Zm-5.175,8.223c.68,0,1.307.015,1.932-.011a.629.629,0,0,0,.4-.246,11.827,11.827,0,0,0,1.77-3.412c.3-.9.528-1.82.815-2.824l-4.918-.157Zm-1.806-6.643-4.856.163c.04.233.052.388.094.534a17.411,17.411,0,0,0,.688,2.3c.512,1.157,1.135,2.264,1.728,3.384a.516.516,0,0,0,.351.253c.656.025,1.312.012,2,.012Zm-7.166-2.756a4.313,4.313,0,0,0-1.438,2.5,23.216,23.216,0,0,0-.32,5.583c.025.822.156,1.64.242,2.5a1.147,1.147,0,0,0,.22-.089c1.029-.876,2.063-1.746,3.074-2.643a.616.616,0,0,0,.057-.516c-.367-1.215-.816-2.408-1.126-3.637C3719.73-28.822,3719.56-30.063,3719.326-31.312Zm17.585,10.622a18.873,18.873,0,0,0,.27-5.587,23.654,23.654,0,0,0-.521-3.243,3.431,3.431,0,0,0-1.265-1.822c-.021.156-.034.229-.041.3a24.651,24.651,0,0,1-1.557,6.631c-.323.814-.33.815.349,1.39C3735.053-22.249,3735.966-21.485,3736.911-20.69Zm-7.857-29.474a7.383,7.383,0,0,0-1.747-2.137l-1.657,2.137Z" fill="#b9810b"/><path d="M3774.183,150.482q0,3.139,0,6.278c0,.6-.283.958-.771,1.007a.848.848,0,0,1-.961-.705,2.256,2.256,0,0,1-.026-.423q0-6.136,0-12.273a2.541,2.541,0,0,1,.022-.423.856.856,0,0,1,.9-.735.846.846,0,0,1,.832.806c.025.455.008.912.009,1.369Q3774.183,147.933,3774.183,150.482Z" transform="translate(-45.913 -159.915)" fill="#b9810b"/><path d="M3756.184,136.411c0,.912,0,1.824,0,2.736,0,.629-.334,1-.874,1.006a.882.882,0,0,1-.884-1q-.011-2.736,0-5.473c0-.63.344-1,.879-1s.875.37.879,1C3756.188,134.586,3756.184,135.5,3756.184,136.411Z" transform="translate(-31.314 -151.373)" fill="#b9810b"/><path d="M3792.159,136.441c0,.9,0,1.793,0,2.689,0,.64-.318,1.012-.855,1.024-.553.012-.9-.371-.9-1.03q-.009-2.713,0-5.425c0-.659.35-1.036.907-1.022.536.014.846.385.848,1.028C3792.162,134.617,3792.159,135.529,3792.159,136.441Z" transform="translate(-60.489 -151.374)" fill="#b9810b"/><path d="M3760.443,8.176a3.878,3.878,0,1,1,3.894-3.892A3.881,3.881,0,0,1,3760.443,8.176Zm2.127-3.888a2.113,2.113,0,0,0-2.141-2.109,2.129,2.129,0,1,0,2.141,2.109Z" transform="translate(-33.055 -44.123)" fill="#b9810b"/></g></svg>