<svg xmlns="http://www.w3.org/2000/svg" width="37.616" height="34.657" viewBox="0 0 37.616 34.657"><g transform="translate(617.082 -682.598)"><g transform="translate(-610.686 696.192)"><path d="M-554.265,797.627l-.078-.011c-.14-.019-.271-.034-.394-.049-.251-.03-.489-.058-.726-.109a31.645,31.645,0,0,0-11.1-.283,12.677,12.677,0,0,1-3.339.295l-.044,0a4.725,4.725,0,0,1-3.821-2.364,4.761,4.761,0,0,1,.423-4.506l.009-.015a11.4,11.4,0,0,1,2.237-2.647,9.592,9.592,0,0,0,3.18-5.5,3.487,3.487,0,0,1,.1-.394l.023-.08a6.149,6.149,0,0,1,6.07-5.086h.152a6.032,6.032,0,0,1,5.943,5.13,10.7,10.7,0,0,0,3.65,6.242,4.949,4.949,0,0,1,1.065,1.116,11.75,11.75,0,0,1,1.372,2.624,3.977,3.977,0,0,1-2.294,5.125,4,4,0,0,1-.7.2,11.879,11.879,0,0,1-1.2.238c-.155.025-.306.049-.448.075Zm-7.54-1.8a32.677,32.677,0,0,1,6.545.664c.2.042.4.067.639.094l.334.041c.126-.022.257-.043.392-.065a10.668,10.668,0,0,0,1.12-.221l.043-.01a3,3,0,0,0,.54-.15,2.989,2.989,0,0,0,1.723-3.855,10.777,10.777,0,0,0-1.259-2.409,3.965,3.965,0,0,0-.861-.9l-.017-.014a11.682,11.682,0,0,1-4-6.835l0-.017a5.046,5.046,0,0,0-4.98-4.3h-.128a5.169,5.169,0,0,0-5.115,4.295l-.011.048-.032.112a2.688,2.688,0,0,0-.074.291,10.585,10.585,0,0,1-3.506,6.078,10.409,10.409,0,0,0-2.036,2.408,3.817,3.817,0,0,0-.394,3.574,3.774,3.774,0,0,0,3.047,1.823,11.733,11.733,0,0,0,3.074-.276l.034-.007A32.748,32.748,0,0,1-561.8,795.829Z" transform="translate(574.158 -776.868)" fill="#b9810b" stroke="#b9810b" stroke-width="0.6"/></g><g transform="translate(-616.682 692.98)"><path d="M-610.666,766.568a4.685,4.685,0,0,1-.52-.029,4.572,4.572,0,0,1-2.293-.93,7.44,7.44,0,0,1-2.831-8.446,4.358,4.358,0,0,1,2.152-2.574,4.36,4.36,0,0,1,3.346-.3,4.39,4.39,0,0,1,.742.309,7.326,7.326,0,0,1,4.084,6.633l0,.051c-.014.129-.025.256-.036.382-.024.28-.05.569-.1.857a4.547,4.547,0,0,1-1.691,3.048A4.544,4.544,0,0,1-610.666,766.568Zm-1.46-11.495a3.388,3.388,0,0,0-1.574.39,3.381,3.381,0,0,0-1.669,2,6.46,6.46,0,0,0,2.466,7.344l.022.016a3.585,3.585,0,0,0,1.807.736,3.565,3.565,0,0,0,2.641-.762,3.566,3.566,0,0,0,1.328-2.406l.006-.039a7.69,7.69,0,0,0,.094-.775c.011-.124.022-.249.035-.375a6.35,6.35,0,0,0-3.547-5.726,3.454,3.454,0,0,0-.586-.246A3.412,3.412,0,0,0-612.125,755.073Z" transform="translate(616.682 -754.086)" fill="#b9810b" stroke="#b9810b" stroke-width="0.6"/></g><g transform="translate(-590.496 693.271)"><path d="M-426.284,768.627a4.627,4.627,0,0,1-.56-.034,4.519,4.519,0,0,1-3.031-1.712,4.538,4.538,0,0,1-.943-2.339,7.246,7.246,0,0,1,2.625-7.063,4.615,4.615,0,0,1,5.256-.872c2.274,1.112,2.639,3.32,2.717,4.884v.029a7.528,7.528,0,0,1-3.285,6.151A4.515,4.515,0,0,1-426.284,768.627Zm1.339-11.495a3.628,3.628,0,0,0-2.57,1.065l-.044.039a6.263,6.263,0,0,0-2.285,6.14l.007.046a3.554,3.554,0,0,0,.74,1.85,3.565,3.565,0,0,0,5,.61l.027-.02a6.54,6.54,0,0,0,2.866-5.338c-.107-2.109-.774-3.352-2.162-4.031A3.613,3.613,0,0,0-424.945,757.132Z" transform="translate(430.948 -756.145)" fill="#b9810b" stroke="#b9810b" stroke-width="0.6"/></g><g transform="translate(-597.382 682.961)"><path d="M-475.087,695.62a4.278,4.278,0,0,1-1.151-.158,4.847,4.847,0,0,1-3.305-3.71,7.25,7.25,0,0,1,1.819-6.934,4.655,4.655,0,0,1,5.16-1.555l.015.005a4.99,4.99,0,0,1,3.236,4.392c.031.226.039.448.046.644,0,.086.006.168.011.244v.028a7.617,7.617,0,0,1-2.2,5.406A5.185,5.185,0,0,1-475.087,695.62Zm1.038-11.613a3.668,3.668,0,0,0-2.911,1.437l-.041.047a6.264,6.264,0,0,0-1.587,6.014,3.9,3.9,0,0,0,2.615,3.007,3.922,3.922,0,0,0,3.816-1.228,6.623,6.623,0,0,0,1.915-4.686c-.005-.08-.008-.167-.012-.256a5.512,5.512,0,0,0-.04-.563l0-.043a4,4,0,0,0-2.59-3.538A3.665,3.665,0,0,0-474.049,684.007Z" transform="translate(479.789 -683.02)" fill="#b9810b" stroke="#b9810b" stroke-width="0.6"/></g><g transform="translate(-609.345 682.951)"><path d="M-558.872,695.566a4.366,4.366,0,0,1-1.833-.405,4.4,4.4,0,0,1-.514-.28,7.432,7.432,0,0,1-2.727-9.4,4.415,4.415,0,0,1,2.534-2.272,4.412,4.412,0,0,1,3.394.186,4.477,4.477,0,0,1,.607.353,8.091,8.091,0,0,1,3.422,6.279l0,.064-.014.062a18.288,18.288,0,0,1-.883,2.847l-.01.023a4.35,4.35,0,0,1-2.462,2.274A4.38,4.38,0,0,1-558.872,695.566Zm-1.066-11.627a3.457,3.457,0,0,0-1.147.2,3.432,3.432,0,0,0-1.969,1.764,6.442,6.442,0,0,0,2.365,8.148,3.384,3.384,0,0,0,.4.217,3.369,3.369,0,0,0,2.594.1,3.37,3.37,0,0,0,1.9-1.751,17.338,17.338,0,0,0,.816-2.618,7.1,7.1,0,0,0-3-5.445,3.459,3.459,0,0,0-.47-.273A3.441,3.441,0,0,0-559.937,683.939Z" transform="translate(564.645 -682.951)" fill="#b9810b" stroke="#b9810b" stroke-width="0.6"/></g></g></svg>