<svg xmlns="http://www.w3.org/2000/svg" width="143.764" height="40.297" viewBox="0 0 143.764 40.297"><g transform="translate(-3479 -654.347)"><g transform="translate(3510.992 669.794)"><g transform="translate(0)"><path d="M3614.1,736.077a5.711,5.711,0,0,1-4.188-1.757,6.439,6.439,0,0,1-1.276-1.937,7.283,7.283,0,0,1-.571-2.4v-11.05a2.02,2.02,0,0,1,.571-1.442,1.867,1.867,0,0,1,1.411-.6,1.9,1.9,0,0,1,1.441.6,2.019,2.019,0,0,1,.571,1.442v10.839a1.892,1.892,0,0,0,.615,1.426,2.03,2.03,0,0,0,2.853,0,1.9,1.9,0,0,0,.616-1.426V718.932a1.991,1.991,0,0,1,.583-1.442,1.952,1.952,0,0,1,1.457-.6,1.918,1.918,0,0,1,1.426.6,1.992,1.992,0,0,1,.584,1.442v10.839a1.941,1.941,0,0,0,.584,1.426,1.907,1.907,0,0,0,1.4.584,1.976,1.976,0,0,0,1.457-.584,1.94,1.94,0,0,0,.584-1.426V718.932a2.028,2.028,0,0,1,3.468-1.442,1.945,1.945,0,0,1,.616,1.442v11.05a6.124,6.124,0,0,1-.511,2.326,6.419,6.419,0,0,1-1.306,1.937,6.258,6.258,0,0,1-1.937,1.335,5.761,5.761,0,0,1-2.372.5,6.077,6.077,0,0,1-2.132-.39,5.325,5.325,0,0,1-1.862-1.168,7.092,7.092,0,0,1-1.876,1.126A6.28,6.28,0,0,1,3614.1,736.077Z" transform="translate(-3608.069 -716.834)" fill="#0099f4"/><path d="M3703.911,735.7a7.011,7.011,0,0,1,2.537.781,7.156,7.156,0,0,1,2.042,1.607,7.594,7.594,0,0,1,1.352,2.222,7.051,7.051,0,0,1,.5,2.628v5.315a1.835,1.835,0,0,1-.6,1.381,1.924,1.924,0,0,1-3.033-.39,1.759,1.759,0,0,0-.271.135c-.08.05-.16.1-.24.135a8.008,8.008,0,0,1-1.471.511,7.332,7.332,0,0,1-1.652.18,6.94,6.94,0,0,1-4.023-1.216,7.492,7.492,0,0,1-2.642-3.138,7.978,7.978,0,0,1-.466-1.411,6.915,6.915,0,0,1,0-3,8.022,8.022,0,0,1,.466-1.411,7.361,7.361,0,0,1,2.642-3.153,7.008,7.008,0,0,1,4.023-1.2h.436A2.932,2.932,0,0,1,3703.911,735.7Zm-.871,10.6a3.373,3.373,0,0,0,1.306-.255,3.242,3.242,0,0,0,1.066-.706,3.448,3.448,0,0,0,.721-1.066,3.292,3.292,0,0,0,.27-1.335,3.147,3.147,0,0,0-.27-1.276,3.505,3.505,0,0,0-1.817-1.817,3.144,3.144,0,0,0-1.276-.27,3.039,3.039,0,0,0-1.261.27,3.563,3.563,0,0,0-1.066.736,3.506,3.506,0,0,0-.736,1.084,3.144,3.144,0,0,0-.27,1.276,3.067,3.067,0,0,0,.285,1.306,3.528,3.528,0,0,0,.751,1.066,3.71,3.71,0,0,0,1.066.721A2.977,2.977,0,0,0,3703.04,746.3Z" transform="translate(-3674.034 -730.959)" fill="#0099f4"/><path d="M3772.743,732.486a1.994,1.994,0,0,1,.033,2.82l-.033.033a2.238,2.238,0,0,1-1.411.584,1.83,1.83,0,0,1-1.441-.584l-4.535-4.5V733.9a1.944,1.944,0,0,1-.6,1.4,1.909,1.909,0,0,1-1.411.615,2.022,2.022,0,0,1-1.411-.584,1.873,1.873,0,0,1-.631-1.426V718.737a2.027,2.027,0,1,1,4.053-.087c0,.029,0,.058,0,.087v7.536l4.534-4.534a1.881,1.881,0,0,1,1.412-.584,2.152,2.152,0,0,1,1.441.584,1.994,1.994,0,0,1,.032,2.82l-.032.033-3.963,3.964Z" transform="translate(-3723.32 -716.666)" fill="#0099f4"/><path d="M3815.237,735.552a2.09,2.09,0,0,1,1.366.51,1.64,1.64,0,0,1,.616,1.321v5.434a3.274,3.274,0,0,0,.961,2.342,3.45,3.45,0,0,0,1.066.721,3.288,3.288,0,0,0,1.334.27,3.4,3.4,0,0,0,1.246-.24,3.481,3.481,0,0,0,1.084-.661,3.267,3.267,0,0,0,.751-1.006,2.882,2.882,0,0,0,.286-1.276v-5.494a1.918,1.918,0,0,1,1.918-1.919h.033a2.038,2.038,0,0,1,1.381.526,1.668,1.668,0,0,1,.6,1.306v16.382a1.71,1.71,0,0,1-.6,1.321,2,2,0,0,1-1.381.541,1.967,1.967,0,0,1-1.351-.541,1.807,1.807,0,0,1-.6-1.411v-4.4a5.126,5.126,0,0,1-1.577.616,8.265,8.265,0,0,1-1.787.2,6.971,6.971,0,0,1-2.793-.571,7.535,7.535,0,0,1-2.327-1.561,7.3,7.3,0,0,1-1.592-2.357,7.506,7.506,0,0,1-.584-2.988v-5.135a1.918,1.918,0,0,1,1.918-1.919h.034Z" transform="translate(-3762.42 -730.871)" fill="#0099f4"/><path d="M3886.467,735.794a6.976,6.976,0,0,1,2.793.57,7.379,7.379,0,0,1,2.312,1.562,7.574,7.574,0,0,1,1.576,2.312,6.891,6.891,0,0,1,.584,2.823,7.21,7.21,0,0,1-.555,2.823,7.3,7.3,0,0,1-1.531,2.312,7.147,7.147,0,0,1-2.311,1.561,7.233,7.233,0,0,1-2.868.571,7.412,7.412,0,0,1-3.364-.751v4.4a1.846,1.846,0,0,1-.57,1.351,1.919,1.919,0,0,1-1.411.57,1.944,1.944,0,0,1-1.334-.525,1.779,1.779,0,0,1-.616-1.306v-11.01a6.819,6.819,0,0,1,.584-2.792,7.528,7.528,0,0,1,3.889-3.889A6.876,6.876,0,0,1,3886.467,735.794Zm-3.363,7.266a3.309,3.309,0,0,0,1.006,2.432,3.417,3.417,0,0,0,1.084.706,3.3,3.3,0,0,0,1.276.255,3.19,3.19,0,0,0,1.322-.27,3.419,3.419,0,0,0,2.012-3.126,3.2,3.2,0,0,0-.27-1.306,3.447,3.447,0,0,0-.721-1.066,3.37,3.37,0,0,0-3.678-.691,3.457,3.457,0,0,0-1.066.721,3.283,3.283,0,0,0-.961,2.342Z" transform="translate(-3811.973 -731.052)" fill="#0099f4"/><path d="M3948.94,735.673a6.6,6.6,0,0,1,2.763.6,7.89,7.89,0,0,1,3.934,3.92,6.5,6.5,0,0,1,.6,2.747,1.918,1.918,0,0,1-.583,1.381,1.857,1.857,0,0,1-1.456.571h-7.987a3.158,3.158,0,0,0,2.732,1.411,3.123,3.123,0,0,0,.811-.09,3.565,3.565,0,0,0,.584-.21,5.481,5.481,0,0,1,.511-.21,1.747,1.747,0,0,1,.583-.09,2.028,2.028,0,0,1,1.787,1.186,1.918,1.918,0,0,1,.151,1.066,1.885,1.885,0,0,1-.525,1.051,4.666,4.666,0,0,1-1.8.917,9.385,9.385,0,0,1-2.1.285,6.1,6.1,0,0,1-2.762-.526,7.622,7.622,0,0,1-2.328-1.591,7.518,7.518,0,0,1-1.591-2.357,6.948,6.948,0,0,1-.584-2.793,6.668,6.668,0,0,1,.584-2.733,7.766,7.766,0,0,1,1.576-2.327,7.668,7.668,0,0,1,2.313-1.607A6.672,6.672,0,0,1,3948.94,735.673Zm2.733,5.284a3.992,3.992,0,0,0-1.2-1.006,3.342,3.342,0,0,0-3.078,0,4.047,4.047,0,0,0-1.186,1.006Z" transform="translate(-3858.983 -730.962)" fill="#0099f4"/><path d="M4007.791,716.894a1.894,1.894,0,0,1,1.411.584,2.241,2.241,0,0,1,.631,1.457v2.282h5.764a1.808,1.808,0,0,1,1.411.6,2.043,2.043,0,0,1,.54,1.411,1.947,1.947,0,0,1-.6,1.4,1.847,1.847,0,0,1-1.351.615h-5.765v3.42a3.357,3.357,0,0,0,.255,1.306,3.579,3.579,0,0,0,.706,1.1,3.207,3.207,0,0,0,1.066.751,3.29,3.29,0,0,0,1.334.27,3.78,3.78,0,0,0,1.335-.21,2.725,2.725,0,0,0,.976-.631,2.17,2.17,0,0,1,1.4-.555,2.023,2.023,0,0,1,1.426.584,1.785,1.785,0,0,1,.45.616,2,2,0,0,1,.167.721,2.05,2.05,0,0,1-.1.736,1.589,1.589,0,0,1-.39.631,7.607,7.607,0,0,1-2.312,1.562,6.782,6.782,0,0,1-2.7.54,8.191,8.191,0,0,1-2.943-.525,7.4,7.4,0,0,1-2.432-1.5,7.165,7.165,0,0,1-1.669-2.342,7.665,7.665,0,0,1-.646-3.048v-9.879a1.722,1.722,0,0,1,.616-1.351A2.091,2.091,0,0,1,4007.791,716.894Z" transform="translate(-3907.173 -716.837)" fill="#0099f4"/></g></g><g transform="translate(3479 654.347)"><path d="M3506.57,666.925c0-.043-.006-.086-.009-.129-.026-.315-.065-.632-.115-.949a12.673,12.673,0,0,0-.436-1.832,13.973,13.973,0,0,0-4.367-6.452c-.164-.136-.331-.27-.5-.4a13.722,13.722,0,0,0-12.317-2.226,14.05,14.05,0,0,0-9.257,9.158c-1.249,4-.327,8,1.611,11.736,2.539,4.889,6.824,9.315,10.266,12.667a3.259,3.259,0,0,0,1.056.776,2.281,2.281,0,0,0,.4.108v.036a2.314,2.314,0,0,0,.395-.111,3.25,3.25,0,0,0,1.048-.785c3.406-3.38,7.646-7.839,10.142-12.751q.242-.474.46-.956a20.8,20.8,0,0,0,.871-2.23A14.841,14.841,0,0,0,3506.57,666.925Zm-4.92,5.432a9.878,9.878,0,1,1-2.49-12.131q.248.2.483.428a9.846,9.846,0,0,1,3.02,5.917,10.138,10.138,0,0,1,.081,1.229A9.838,9.838,0,0,1,3501.65,672.357Z" transform="translate(-3479 -654.347)" fill="#ffc240"/><path d="M3520.823,689.4l-.706-2.142a1.107,1.107,0,0,1-.083-.513c.045-.284.3-.482.475-.707a1.485,1.485,0,0,0,.137-1.667,1.233,1.233,0,0,0-1.557-.456,1.08,1.08,0,0,0-.487,1.25.18.18,0,0,0,.286.084.515.515,0,0,1,.654-.034.556.556,0,0,1-.025.859,1.375,1.375,0,0,1-.576.226,3.886,3.886,0,0,1-2.617-.387,1.761,1.761,0,0,1-.664-1.754,5.051,5.051,0,0,1,1.213-3,1.06,1.06,0,0,0,.38-.72c-.024-.3-.325-.51-.616-.6a.743.743,0,0,0-.677.046.892.892,0,0,0-.256.6c-.124.8-.237,1.376-.295,2.182-.034.482-.115,1.039-.189,1.656a.1.1,0,0,1-.188.01,5.257,5.257,0,0,1-.067-.522,1.969,1.969,0,0,0-.085-.43,4.208,4.208,0,0,0-.612-1.164,3.641,3.641,0,0,0-.491-.522c-.036-.033-.526-.481-.56-.421a.05.05,0,0,0,0,.043,3.008,3.008,0,0,1,.212,1.639.1.1,0,0,1-.177.036l-.056-.086a3.5,3.5,0,0,0-.381-.493,2.377,2.377,0,0,0-.227-.211c-.052-.042-.2-.184-.22-.042a.639.639,0,0,0,.01.125q.007.122,0,.244a2.841,2.841,0,0,1-.055.485.5.5,0,0,1-.1.239.558.558,0,0,1-.43.125l-2.247.009a.41.41,0,0,0-.239.05c-.118.083-.115.255-.1.4a4.017,4.017,0,0,0,.452,1.565,1.694,1.694,0,0,0,1.308.879c.7.034,1.407-.488,2.038,0a1.022,1.022,0,0,1,.229.248,1.975,1.975,0,0,1,.261,1.2,6.235,6.235,0,0,1-.369,1.877l-.008.021q-.081.163-.169.325c-.122.226-.256.446-.381.671a.166.166,0,0,1-.218.093,1.2,1.2,0,0,0-1.439.8c.707.032,1.407.068,2.107.09a.462.462,0,0,0,.336-.184,3.13,3.13,0,0,0,.537-.773c.092-.191.185-.148.359-.114a4.925,4.925,0,0,0,3.063-.44,7.522,7.522,0,0,0,.842-.54,5.321,5.321,0,0,0,1.574,1.257,1.161,1.161,0,0,0-.56.76,15.647,15.647,0,0,0,2.337-.033A17.287,17.287,0,0,0,3520.823,689.4Zm-4.585-9c.051-.119.1-.243.266-.145.144.087.3.174.18.385a1.993,1.993,0,0,1-.427.5.107.107,0,0,1-.178-.094A2.457,2.457,0,0,1,3516.238,680.393Z" transform="translate(-3501.719 -673.472)" fill="#ffc240"/></g></g></svg>