<svg xmlns="http://www.w3.org/2000/svg" width="43.265" height="54.971" viewBox="0 0 43.265 54.971"><g transform="translate(0)"><path d="M3522.212,674.061c0-.068-.009-.135-.014-.2-.04-.493-.1-.991-.18-1.487a19.683,19.683,0,0,0-.683-2.871,21.893,21.893,0,0,0-6.844-10.113c-.257-.214-.518-.423-.784-.624a21.506,21.506,0,0,0-19.3-3.489,22.022,22.022,0,0,0-14.509,14.354c-1.957,6.273-.513,12.545,2.525,18.394,3.98,7.662,10.7,14.6,16.09,19.854a5.116,5.116,0,0,0,1.656,1.216,3.576,3.576,0,0,0,.624.169v.056a3.614,3.614,0,0,0,.619-.173,5.1,5.1,0,0,0,1.642-1.229c5.338-5.3,11.985-12.286,15.9-19.985q.379-.743.721-1.5a32.743,32.743,0,0,0,1.365-3.5A23.281,23.281,0,0,0,3522.212,674.061Zm-7.712,8.514a15.482,15.482,0,1,1-3.9-19.014c.259.214.511.437.757.671a15.428,15.428,0,0,1,4.734,9.275,16.037,16.037,0,0,1,.127,1.926A15.42,15.42,0,0,1,3514.5,682.575Z" transform="translate(-3479 -654.347)" fill="#ffc240"/><path d="M3527.413,694.853l-1.106-3.357a1.741,1.741,0,0,1-.129-.8c.071-.446.462-.756.745-1.108a2.327,2.327,0,0,0,.214-2.613,1.933,1.933,0,0,0-2.441-.714,1.693,1.693,0,0,0-.762,1.96.281.281,0,0,0,.448.132.806.806,0,0,1,1.024-.054.87.87,0,0,1-.039,1.346,2.148,2.148,0,0,1-.9.354,6.093,6.093,0,0,1-4.1-.606,2.76,2.76,0,0,1-1.041-2.75,7.916,7.916,0,0,1,1.9-4.7,1.658,1.658,0,0,0,.6-1.128c-.037-.477-.509-.8-.966-.944a1.166,1.166,0,0,0-1.061.073,1.4,1.4,0,0,0-.4.942c-.194,1.25-.372,2.156-.463,3.42-.053.755-.18,1.628-.295,2.6a.15.15,0,0,1-.3.016,8.12,8.12,0,0,1-.1-.817,3.057,3.057,0,0,0-.134-.674,6.591,6.591,0,0,0-.958-1.824,5.673,5.673,0,0,0-.77-.819c-.057-.051-.824-.754-.877-.66a.075.075,0,0,0,0,.067,4.718,4.718,0,0,1,.333,2.568.152.152,0,0,1-.278.057c-.029-.045-.058-.09-.087-.135a5.442,5.442,0,0,0-.6-.772,3.65,3.65,0,0,0-.356-.33c-.082-.066-.309-.288-.345-.065a1.028,1.028,0,0,0,.016.2c.007.127.009.255.006.383a4.373,4.373,0,0,1-.087.76.777.777,0,0,1-.154.374.874.874,0,0,1-.674.2l-3.521.015a.645.645,0,0,0-.375.079c-.184.13-.179.4-.151.624a6.308,6.308,0,0,0,.708,2.453,2.657,2.657,0,0,0,2.051,1.377c1.09.054,2.207-.765,3.2-.007a1.6,1.6,0,0,1,.358.389,3.1,3.1,0,0,1,.41,1.882,9.771,9.771,0,0,1-.578,2.942c0,.011-.008.023-.012.033-.085.171-.174.34-.265.509-.191.355-.4.7-.6,1.052a.261.261,0,0,1-.342.146,1.881,1.881,0,0,0-2.255,1.256c1.109.05,2.206.107,3.3.142a.726.726,0,0,0,.526-.289,4.911,4.911,0,0,0,.841-1.212c.145-.3.289-.232.563-.179a7.715,7.715,0,0,0,4.8-.69,11.684,11.684,0,0,0,1.319-.846,8.349,8.349,0,0,0,2.468,1.971,1.82,1.82,0,0,0-.878,1.192,24.544,24.544,0,0,0,3.663-.052A26.9,26.9,0,0,0,3527.413,694.853Zm-7.186-14.109c.081-.186.161-.381.417-.227.226.136.468.273.282.6a3.119,3.119,0,0,1-.67.789.168.168,0,0,1-.28-.147A3.869,3.869,0,0,1,3520.227,680.744Z" transform="translate(-3497.471 -669.896)" fill="#ffc240"/></g></svg>