<svg xmlns="http://www.w3.org/2000/svg" width="331.297" height="74.234" viewBox="0 0 331.297 74.234"><g transform="translate(-221.04 -930.255)"><g transform="translate(221.04 930.255)"><path d="M238.928,987.8a16.87,16.87,0,0,1-12.414-5.248,19.242,19.242,0,0,1-3.783-5.786,21.866,21.866,0,0,1-1.691-7.176V936.579a6.056,6.056,0,0,1,1.691-4.306,5.515,5.515,0,0,1,4.183-1.794,5.615,5.615,0,0,1,4.272,1.794,6.057,6.057,0,0,1,1.691,4.306v32.38a5.673,5.673,0,0,0,1.825,4.261,5.981,5.981,0,0,0,8.455,0,5.681,5.681,0,0,0,1.825-4.261v-32.38a5.975,5.975,0,0,1,1.731-4.306,5.762,5.762,0,0,1,4.317-1.794,5.664,5.664,0,0,1,4.227,1.794,5.979,5.979,0,0,1,1.731,4.306v32.38a5.819,5.819,0,0,0,1.731,4.261,5.626,5.626,0,0,0,4.139,1.744,5.935,5.935,0,0,0,6.048-6v-32.38a6,6,0,0,1,10.28-4.306,5.832,5.832,0,0,1,1.824,4.306v33.008a18.406,18.406,0,0,1-1.513,6.949,19.194,19.194,0,0,1-3.871,5.786,18.56,18.56,0,0,1-5.742,3.987,16.962,16.962,0,0,1-7.031,1.479,17.883,17.883,0,0,1-6.319-1.166,15.765,15.765,0,0,1-5.518-3.488,20.973,20.973,0,0,1-5.563,3.364A18.474,18.474,0,0,1,238.928,987.8Z" transform="translate(-221.04 -930.312)" fill="#0099f4"/><path d="M332.09,949.33a20.668,20.668,0,0,1,7.52,2.333,21.237,21.237,0,0,1,6.053,4.8,22.766,22.766,0,0,1,4.006,6.638,21.227,21.227,0,0,1,1.468,7.849v15.877a5.5,5.5,0,0,1-1.78,4.126,5.67,5.67,0,0,1-8.063.044,5.728,5.728,0,0,1-.927-1.21,5.067,5.067,0,0,0-.8.4q-.356.224-.712.4a23.559,23.559,0,0,1-4.361,1.525,21.547,21.547,0,0,1-4.9.538,20.455,20.455,0,0,1-11.924-3.633,22.35,22.35,0,0,1-7.832-9.374,23.994,23.994,0,0,1-1.38-4.216,20.8,20.8,0,0,1,0-8.97,24.112,24.112,0,0,1,1.38-4.216,21.943,21.943,0,0,1,7.832-9.419A20.649,20.649,0,0,1,329.6,949.24h1.29A8.685,8.685,0,0,1,332.09,949.33Zm-2.582,31.663a9.939,9.939,0,0,0,3.872-.763,9.632,9.632,0,0,0,3.16-2.108,10.32,10.32,0,0,0,2.136-3.184,9.883,9.883,0,0,0,.8-3.986,9.476,9.476,0,0,0-.8-3.813,10.428,10.428,0,0,0-5.385-5.427,9.26,9.26,0,0,0-3.783-.808,8.927,8.927,0,0,0-3.738.808,10.516,10.516,0,0,0-5.341,5.437,9.46,9.46,0,0,0-.8,3.812,9.217,9.217,0,0,0,.846,3.9,10.542,10.542,0,0,0,2.225,3.184,10.982,10.982,0,0,0,3.16,2.153A8.76,8.76,0,0,0,329.508,980.993Z" transform="translate(-243.536 -935.167)" fill="#0099f4"/><path d="M406.836,977.512a5.991,5.991,0,0,1,.1,8.426q-.047.049-.1.1a6.606,6.606,0,0,1-4.183,1.744,5.4,5.4,0,0,1-4.272-1.744L384.94,972.579v9.15a5.837,5.837,0,0,1-1.78,4.172,5.643,5.643,0,0,1-4.183,1.839,5.977,5.977,0,0,1-4.184-1.744,5.619,5.619,0,0,1-1.869-4.261V936.439a6.008,6.008,0,1,1,12.013-.259c0,.086,0,.173,0,.259v22.513l13.44-13.543a5.557,5.557,0,0,1,4.183-1.744,6.362,6.362,0,0,1,4.272,1.744,5.991,5.991,0,0,1,.1,8.425c-.031.033-.063.065-.1.1l-11.747,11.841Z" transform="translate(-260.344 -930.255)" fill="#0099f4"/><path d="M430.227,949.12a6.171,6.171,0,0,1,4.05,1.526,4.911,4.911,0,0,1,1.824,3.947v16.234a9.829,9.829,0,0,0,2.848,7,10.233,10.233,0,0,0,3.16,2.153,9.691,9.691,0,0,0,3.956.807,10.015,10.015,0,0,0,3.694-.717,10.308,10.308,0,0,0,3.215-1.973,9.764,9.764,0,0,0,2.224-3.006,8.633,8.633,0,0,0,.846-3.812V954.861a5.709,5.709,0,0,1,5.686-5.732h.1a6.012,6.012,0,0,1,4.094,1.569,5,5,0,0,1,1.78,3.9v48.938a5.129,5.129,0,0,1-1.78,3.947,5.91,5.91,0,0,1-4.094,1.614,5.807,5.807,0,0,1-4.005-1.614,5.422,5.422,0,0,1-1.78-4.216V990.114a15.094,15.094,0,0,1-4.673,1.839,24.28,24.28,0,0,1-5.3.583,20.516,20.516,0,0,1-8.277-1.7,22.343,22.343,0,0,1-6.9-4.664,21.822,21.822,0,0,1-4.717-7.042,22.593,22.593,0,0,1-1.731-8.925V954.861a5.71,5.71,0,0,1,5.686-5.732h.1Z" transform="translate(-273.678 -935.137)" fill="#0099f4"/><path d="M511.381,949.362a20.559,20.559,0,0,1,8.278,1.7,21.844,21.844,0,0,1,6.853,4.665,22.644,22.644,0,0,1,4.672,6.907,20.726,20.726,0,0,1,1.731,8.432,21.827,21.827,0,0,1-6.186,15.339,21.346,21.346,0,0,1-15.351,6.369,21.822,21.822,0,0,1-9.968-2.243v13.157a5.541,5.541,0,0,1-1.692,4.037,5.664,5.664,0,0,1-4.183,1.7,5.738,5.738,0,0,1-3.956-1.57,5.334,5.334,0,0,1-1.825-3.9V971.071a20.519,20.519,0,0,1,1.731-8.342,22.4,22.4,0,0,1,11.527-11.616A20.258,20.258,0,0,1,511.381,949.362Zm-9.968,21.706a10.1,10.1,0,0,0,.8,4.081,9.943,9.943,0,0,0,2.181,3.184,10.132,10.132,0,0,0,3.215,2.108,9.709,9.709,0,0,0,3.782.762,9.367,9.367,0,0,0,3.917-.807,10.016,10.016,0,0,0,3.115-2.2,10.321,10.321,0,0,0,2.848-7.141,9.662,9.662,0,0,0-.8-3.9,10.32,10.32,0,0,0-2.136-3.184,9.93,9.93,0,0,0-10.9-2.063,10.224,10.224,0,0,0-3.16,2.153,9.849,9.849,0,0,0-2.848,7Z" transform="translate(-290.577 -935.199)" fill="#0099f4"/><path d="M573.245,949.241a19.445,19.445,0,0,1,8.188,1.795,23.485,23.485,0,0,1,11.66,11.711,19.579,19.579,0,0,1,1.78,8.208,5.754,5.754,0,0,1-1.731,4.126,5.48,5.48,0,0,1-4.317,1.7H565.153a9.339,9.339,0,0,0,8.1,4.216,9.184,9.184,0,0,0,2.4-.27,10.487,10.487,0,0,0,1.73-.628,16.156,16.156,0,0,1,1.514-.628,5.162,5.162,0,0,1,1.73-.269,6.013,6.013,0,0,1,5.3,3.543,5.777,5.777,0,0,1,.445,3.185,5.639,5.639,0,0,1-1.557,3.139,13.789,13.789,0,0,1-5.341,2.741,27.62,27.62,0,0,1-6.23.852,17.977,17.977,0,0,1-8.189-1.57,22.479,22.479,0,0,1-11.615-11.8,20.924,20.924,0,0,1-1.731-8.343,20.074,20.074,0,0,1,1.731-8.163,23.243,23.243,0,0,1,4.673-6.952,22.732,22.732,0,0,1,6.853-4.8A19.661,19.661,0,0,1,573.245,949.241Zm8.1,15.785a11.867,11.867,0,0,0-3.56-3,9.835,9.835,0,0,0-9.123,0,12.026,12.026,0,0,0-3.516,3Z" transform="translate(-306.608 -935.168)" fill="#0099f4"/><path d="M621.276,930.483a5.591,5.591,0,0,1,4.183,1.744,6.719,6.719,0,0,1,1.869,4.351v6.817h17.086a5.343,5.343,0,0,1,4.184,1.794,6.129,6.129,0,0,1,1.6,4.216,5.838,5.838,0,0,1-1.78,4.171,5.452,5.452,0,0,1-4.006,1.839H627.327v10.216a10.1,10.1,0,0,0,.756,3.9,10.728,10.728,0,0,0,2.092,3.274,9.513,9.513,0,0,0,3.16,2.242,9.66,9.66,0,0,0,3.956.807,11.108,11.108,0,0,0,3.956-.628,8.061,8.061,0,0,0,2.892-1.884,6.4,6.4,0,0,1,4.139-1.66,5.976,5.976,0,0,1,4.228,1.744,5.331,5.331,0,0,1,1.335,1.839,6.018,6.018,0,0,1,.494,2.153,6.172,6.172,0,0,1-.309,2.2,4.767,4.767,0,0,1-1.157,1.884,22.553,22.553,0,0,1-6.853,4.665,19.987,19.987,0,0,1-8.01,1.614,24.126,24.126,0,0,1-8.723-1.57,21.908,21.908,0,0,1-7.21-4.485,21.407,21.407,0,0,1-4.945-7,23.056,23.056,0,0,1-1.913-9.1v-29.51a5.161,5.161,0,0,1,1.825-4.037A6.18,6.18,0,0,1,621.276,930.483Z" transform="translate(-323.043 -930.314)" fill="#0099f4"/></g></g></svg>