<svg xmlns="http://www.w3.org/2000/svg" width="47.378" height="47.378" viewBox="0 0 47.378 47.378"><g transform="translate(76.591 -676.437)"><g transform="translate(-70.797 685.291)"><path d="M-47.8,749.469c.2.182.912,1.06,1.127,1.23.554-.305-.97.419-.37.207.006,0,3.884-2.35,3.883-2.342.56-.417,1.276-.785,1.821-1.174a.709.709,0,0,1,.392-.1q4.611,0,9.222.017a1.292,1.292,0,0,1,.187.033v9l-.008.432c-.005.377.051,1.746.022,1.726.133,2.188,0,0,.016.3s-.074-.285,0,0c.018.069.085-.3.1-.231a.88.88,0,0,0,1.11.059l.307-.211c-.036-.634-.217.906-.053.3-.038.022.021-1.081.031-2.1v-6.522c.284.239.525.453.778.652a5.149,5.149,0,0,0,4.7.932c.528-.135.676-.415.58-1a5.216,5.216,0,0,0-5.356-4.258c-.224.014-.45,0-.725,0a7.813,7.813,0,0,1,1.419-5.059,7.568,7.568,0,0,1,6.43-3.189c1.555-.006,3.111,0,4.666,0a2.768,2.768,0,0,0,2.987-2.976q.01-1.962,0-3.924a2.6,2.6,0,0,0-2.572-2.592q-2.3-.023-4.6,0a1.171,1.171,0,0,1-.975-.5c-1.215-1.737-2.459-3.455-3.678-5.19a3.181,3.181,0,0,0-3.388-1.337,25.4,25.4,0,0,1-6.572,0c-3.157-.352-5.072,1.245-5.081,4.165q-.027,8.936-.037,17.872a3.6,3.6,0,0,1-2.425,3.61m18.23,3.018a3.466,3.466,0,0,1-3.811-2.376A3.491,3.491,0,0,1-25.631,750.307Zm9.58-18.114-2.176-1.906C-16.74,729.608-15.915,730.3-16.05,732.193Zm-15.467,13.59h-8.771l.344-1.346h8.532C-31.449,744.9-31.482,745.328-31.518,745.783Zm15.42-10.044a1.152,1.152,0,0,1-.929.907,1.859,1.859,0,0,1-.473.042c-2.862,0-5.725,0-8.587-.019a7.6,7.6,0,0,1-3.71-.938c-.154-.086-.312-.167-.473-.239-.484-.216-.86-.118-1.047.265a.713.713,0,0,0,.377,1.018c.964.423,1.955.785,2.94,1.159a2.652,2.652,0,0,0,.492.108c-.81.87-1.676,1.7-2.413,2.629a13.539,13.539,0,0,0-1.011,1.909c-.083.15-.281.336-.428.337-2.843.02-5.686.015-8.573.015-.012-.174-.032-.326-.031-.478q.006-8.35.014-16.7a2.416,2.416,0,0,1,1.069-2.233,2.623,2.623,0,0,1,1.271-.417c2.933-.037,5.866-.016,8.8-.026a1.42,1.42,0,0,1,1.222.708c1.232,1.746,2.482,3.48,3.7,5.239a2.25,2.25,0,0,0,2.188,1.117,2.314,2.314,0,0,1,1.966.759,31.825,31.825,0,0,0,2.994,2.611A1.92,1.92,0,0,1-16.1,735.739Z" transform="translate(47.797 -721.585)" fill="#fff" stroke="#fff" stroke-width="1"/></g><g transform="translate(-61.466 687.716)"><path d="M3.566,746.573a5.214,5.214,0,0,0,3.8-2.587,5.572,5.572,0,0,0,.68-2.846c0-.671-.01-1.343.027-2.012a.658.658,0,0,1,.738-.665.642.642,0,0,1,.7.653c.039,1.743.2,3.5-.622,5.145a6.6,6.6,0,0,1-5.829,3.854c-.666.043-.966-.269-.98-.952-.013-.636,0-1.272,0-1.907q.014-4.716.028-9.432c0-.176,0-.354.011-.529a.713.713,0,0,1,.735-.748.71.71,0,0,1,.735.746c.014.175.008.353.007.529q-.015,5.034-.031,10.067C3.565,746.1,3.566,746.3,3.566,746.573Z" transform="translate(-2.074 -734.548)" fill="#fff" stroke="#fff" stroke-width="1"/></g><g transform="translate(-52.902 689.627)"><path d="M47.848,746.07a1.305,1.305,0,1,1,1.288,1.341A1.328,1.328,0,0,1,47.848,746.07Z" transform="translate(-47.847 -744.762)" fill="#fff" stroke="#fff" stroke-width="1"/></g><g transform="translate(-76.091 676.937)"><path d="M-52.9,723.315a23.215,23.215,0,0,1-23.189-23.189A23.215,23.215,0,0,1-52.9,676.937a23.215,23.215,0,0,1,23.189,23.189A23.215,23.215,0,0,1-52.9,723.315Zm0-45.068a21.9,21.9,0,0,0-21.879,21.879A21.9,21.9,0,0,0-52.9,722.005a21.9,21.9,0,0,0,21.879-21.879A21.9,21.9,0,0,0-52.9,678.247Z" transform="translate(76.091 -676.937)" fill="#fff" stroke="#fff" stroke-width="1"/></g></g></svg>