<svg xmlns="http://www.w3.org/2000/svg" width="76" height="76" viewBox="0 0 76 76"><g transform="translate(-702 -4126)"><circle cx="38" cy="38" r="38" transform="translate(702 4126)" fill="#f0f6f8"/><g transform="translate(1061.227 3468.563)"><path d="M-333.691,683.3c0-.365,0-.7,0-1.032a1.771,1.771,0,0,1,1.654-1.806,6.889,6.889,0,0,1,1.3.014,1.731,1.731,0,0,1,1.548,1.691c.012.366,0,.732,0,1.115h14.89c0-.391-.021-.769,0-1.144a1.732,1.732,0,0,1,1.636-1.677,7.011,7.011,0,0,1,1.2,0,1.779,1.779,0,0,1,1.662,1.8c.01.334,0,.668,0,1.038.407,0,.785.023,1.16,0a2.183,2.183,0,0,1,2.345,2.325c-.026,2.812-.007,5.624-.007,8.437,0,2.888-.006,5.776,0,8.665a2.122,2.122,0,0,1-1.234,2.142,3.048,3.048,0,0,1-1,.2c-.407.034-.819.008-1.242.008v5.493h2.031c.336,0,.673,0,1.01,0,.251.005.423.129.423.392s-.187.37-.431.386c-.087.006-.174,0-.261,0h-29.478c-.13,0-.289.033-.382-.029-.136-.089-.3-.244-.31-.382-.008-.11.179-.262.311-.345a.727.727,0,0,1,.351-.028c.922,0,1.844,0,2.79,0v-5.493c-.392,0-.79-.021-1.186,0a2.163,2.163,0,0,1-2.3-2.3q.016-8.583.005-17.166a2.138,2.138,0,0,1,2.312-2.316Zm11.956.772q-6.579,0-13.158,0a1.365,1.365,0,0,0-1.531,1.428q-.006,8.7.012,17.393a1.87,1.87,0,0,0,.326.923,1.37,1.37,0,0,0,1.3.5l26.057,0a4.847,4.847,0,0,0,.487-.025,1.213,1.213,0,0,0,1.067-.834,2.239,2.239,0,0,0,.093-.768q.007-8.5,0-17c0-.13-.006-.26-.011-.39a1.258,1.258,0,0,0-.46-.9,1.514,1.514,0,0,0-1.095-.32Q-315.188,684.076-321.735,684.075Zm7.405,26.475v-5.454h-14.835v5.454Zm3.73,0v-5.454h-2.929v5.454Zm-22.283-5.453v5.45h2.912v-5.45Zm22.3-21.805c0-.411.023-.791-.006-1.166a.912.912,0,0,0-.911-.884,9.609,9.609,0,0,0-1.1,0,.885.885,0,0,0-.875.693c-.067.442-.062.9-.09,1.358Zm-19.384,0c0-.412.027-.792-.006-1.167a.912.912,0,0,0-.912-.882,9.167,9.167,0,0,0-1.1,0,.9.9,0,0,0-.9.786c-.039.414-.008.835-.008,1.262Z" transform="translate(0)" fill="#0099f4"/><path d="M-286.21,746.268a3.379,3.379,0,0,1,3.114-2.949,3.338,3.338,0,0,1,3.241,1.764,3.371,3.371,0,0,1-.588,3.979,3.286,3.286,0,0,1,.479,4.152,3.129,3.129,0,0,1-3.348,1.585,3.336,3.336,0,0,1-2.9-2.946h-7.875a3.356,3.356,0,0,1-3.079,2.971,3.324,3.324,0,0,1-3.288-1.792,3.387,3.387,0,0,1,.6-3.953,3.274,3.274,0,0,1-.459-4.174,3.131,3.131,0,0,1,3.489-1.525,3.318,3.318,0,0,1,2.732,2.887Zm5.965.374a2.58,2.58,0,0,0-2.554-2.559,2.592,2.592,0,0,0-2.621,2.458c-.013.416-.161.531-.611.531-2.639,0-5.277-.007-7.916,0-.985,0-.866-.124-.967-.833a2.587,2.587,0,0,0-3.715-1.878,2.581,2.581,0,0,0-.536,4.265c.409.375.4.5,0,.883a2.588,2.588,0,0,0-.859,2.31,2.6,2.6,0,0,0,3.686,1.99,2.589,2.589,0,0,0,1.471-2.225c.03-.4.152-.529.509-.53q4.219,0,8.437,0c.341,0,.463.125.5.467a4.573,4.573,0,0,0,.062.516,2.593,2.593,0,0,0,2.216,2,2.59,2.59,0,0,0,2.691-1.537,2.61,2.61,0,0,0-.653-2.979c-.443-.4-.441-.515,0-.924A2.486,2.486,0,0,0-280.245,746.642Z" transform="translate(-31.594 -54.658)" fill="#0099f4"/></g></g></svg>