<svg xmlns="http://www.w3.org/2000/svg" width="41.824" height="36.452" viewBox="0 0 41.824 36.452"><path d="M2012.778,758.7a10.893,10.893,0,0,1,7.737,3.1c.243.219.456.471.694.7.721.684,1.074.671,1.812-.028.518-.491,1.038-.981,1.577-1.449a10.235,10.235,0,0,1,16.861,7.605,10.2,10.2,0,0,1-3.236,7.69q-7.549,7.564-15.127,15.1c-.8.8-1.168.821-1.95.045-5.139-5.1-10.327-10.159-15.372-15.354a9.932,9.932,0,0,1-1.617-12.053A9.712,9.712,0,0,1,2012.778,758.7Z" transform="translate(-2001.14 -757.063)" fill="none" stroke="#fff" stroke-miterlimit="10" stroke-width="3"/></svg>