<svg xmlns="http://www.w3.org/2000/svg" width="39.67" height="33.674" viewBox="0 0 39.67 33.674"><path d="M3147.851,114.69v-4.07h-.45q-5.708,0-11.417,0a3.576,3.576,0,0,1-2.183-.574,2.978,2.978,0,0,1-1.184-2.4c-.009-.16-.021-.321-.021-.481q0-10.673.011-21.346a2.749,2.749,0,0,1,1.649-2.677,4.1,4.1,0,0,1,1.646-.342q16.606-.029,33.211-.011a3,3,0,0,1,3.15,3.179q0,10.729,0,21.457a2.992,2.992,0,0,1-3.2,3.2h-12.024v4.069h1.035c.556,0,1.112-.008,1.668,0a.8.8,0,0,1,.815.826.822.822,0,0,1-.724.916,3.245,3.245,0,0,1-.444.016h-9.858c-1.42,0-2.841.005-4.261,0a.868.868,0,0,1-.9-1.184.777.777,0,0,1,.81-.573C3146.057,114.686,3146.933,114.69,3147.851,114.69Zm-13.472-11.275H3170.5V95.28q0-4.688,0-9.376a1.226,1.226,0,0,0-1.344-1.365c-.1,0-.2,0-.3,0h-31.026c-.606,0-1.211-.01-1.817-.011a2.962,2.962,0,0,0-.443.025,1.2,1.2,0,0,0-1.206,1.386q0,8.6,0,17.2C3134.364,103.218,3134.373,103.3,3134.379,103.415Zm.03,1.816c0,.9-.037,1.777.013,2.648a1.029,1.029,0,0,0,1.072.969c.123.007.247,0,.371,0h33.092c.1,0,.2,0,.3,0a1.1,1.1,0,0,0,1.2-1.053c.055-.845.013-1.7.013-2.567Zm20.832,5.412h-5.584v4.026h5.584Z" transform="translate(-3132.596 -82.78)" fill="#b9810b"/></svg>