<svg xmlns="http://www.w3.org/2000/svg" width="47" height="47" viewBox="0 0 47 47"><g transform="translate(-2300.539 -330.917)"><path d="M2347.039,354.443a23,23,0,1,1-22.986-23.026A23.048,23.048,0,0,1,2347.039,354.443Zm-7.309,13.715a20.883,20.883,0,1,0-36.337-17.036,20.416,20.416,0,0,0,.561,9.061,19.509,19.509,0,0,0,4.375,7.926c.05-1.165.026-2.31.055-3.453a7.109,7.109,0,0,1,2.764-5.517,7.291,7.291,0,0,1,4.786-1.6q7.9,0,15.807,0c.469,0,.939.021,1.406.061a7.24,7.24,0,0,1,6.319,5.436,11.855,11.855,0,0,1,.254,2.177C2339.761,366.177,2339.729,367.14,2339.729,368.157Zm-15.71-8.515v0c-2.847,0-5.693-.028-8.539.008a5.09,5.09,0,0,0-4.987,4.85c-.065,1.7-.005,3.4-.044,5.1a1.255,1.255,0,0,0,.539,1.144,20.686,20.686,0,0,0,16.71,4.238,20.013,20.013,0,0,0,9.564-4.391.877.877,0,0,0,.376-.767c-.02-1.584-.007-3.169-.009-4.754a5.207,5.207,0,0,0-5.422-5.438Q2328.113,359.638,2324.019,359.642Z" fill="#fff" stroke="#fff" stroke-width="1"/><path d="M2388.672,379.183a10.537,10.537,0,1,1,10.559-10.521A10.52,10.52,0,0,1,2388.672,379.183Zm-8.185-10.55a8.2,8.2,0,1,0,8.262-8.165A8.221,8.221,0,0,0,2380.488,368.633Z" transform="translate(-64.653 -21.415)" fill="#fff" stroke="#fff" stroke-width="1"/></g></svg>