<svg xmlns="http://www.w3.org/2000/svg" width="267.443" height="372.992" viewBox="0 0 267.443 372.992"><g transform="translate(-818.557 -875.771)"><g transform="translate(829.297 875.771)" opacity="0.4"><path d="M700.8,242.22c-.012-.354-.047-.708-.071-1.062-.212-2.582-.531-5.189-.943-7.783a103.247,103.247,0,0,0-3.573-15.036,114.645,114.645,0,0,0-35.837-52.948c-1.344-1.12-2.712-2.217-4.1-3.267A112.588,112.588,0,0,0,555.2,143.859a115.3,115.3,0,0,0-75.967,75.153c-10.248,32.842-2.689,65.684,13.219,96.309,20.837,40.118,56,76.439,84.245,103.951,2.583,2.512,5.3,5.083,8.668,6.368a18.943,18.943,0,0,0,3.266.884v.295a19.178,19.178,0,0,0,3.243-.908c3.349-1.309,6.038-3.9,8.6-6.439,27.948-27.736,62.747-64.328,83.231-104.635q1.982-3.891,3.774-7.842a170.76,170.76,0,0,0,7.146-18.3C699.539,273.47,701.945,257.9,700.8,242.22ZM660.423,286.8a81.062,81.062,0,1,1-20.436-99.551c1.356,1.12,2.676,2.287,3.962,3.514a80.789,80.789,0,0,1,24.787,48.561A83.423,83.423,0,0,1,669.4,249.4,80.728,80.728,0,0,1,660.423,286.8Z" transform="translate(-474.553 -139)" fill="#d9e8ed"/></g><g transform="translate(818.557 1031.931)"><g transform="translate(215.136 154.818)"><path d="M251.688,311.737a12.754,12.754,0,0,1-.563-6.941c.924-4.1,5.553-6.061,9.415-4.752a8.9,8.9,0,0,1,5.206,5.009c.368.883.829,3.906,1.746,4.337,1.252.59,2.353-1.357,2.723-2.277,3.038-7.55,2.926-16.538,8.065-22.85a10.059,10.059,0,0,1,3.164-2.7,7.722,7.722,0,0,1,6.553-.081,8.9,8.9,0,0,1,4.517,4.827,12.813,12.813,0,0,1,.276,7.665,38.134,38.134,0,0,1-2.83,7.247q-2.674,5.676-5.35,11.352a8.527,8.527,0,0,0-.938,2.782,2.9,2.9,0,0,0,1.01,2.633c1.418,1.026,2.242-.348,3.249-1.034a20.515,20.515,0,0,1,5.314-2.172c2.288-.71,5.233-.968,6.647.966,1.932,2.645-.993,6.151-3.858,7.741-1.081.6-6.509,3.393-6.265,4.837a1.341,1.341,0,0,0,1.357.962,5.053,5.053,0,0,0,1.738-.457,11.484,11.484,0,0,1,8.025.088,3.252,3.252,0,0,1,2.257,2.137c.214,1.2-.759,2.267-1.726,3.007-3.982,3.048-9.139,4.24-14.154,4.259-5.128.02-10.128-1.247-15.17-1.868a56.6,56.6,0,0,1-14.349-3.647c-1.651-.71-3.427-2.147-3.071-3.909A3.033,3.033,0,0,1,257,326.76a8.933,8.933,0,0,1,3.313.014c-1.639-3.73-4.3-6.9-6.4-10.39A24.278,24.278,0,0,1,251.688,311.737Z" transform="translate(-250.867 -280.796)" fill="#00cec1"/><g transform="translate(8.985 7.472)" opacity="0.42"><path d="M276.214,286.6c-4.459,16.612-8.744,33.344-9.536,50.6-.044.949,1.432.948,1.475,0,.787-17.127,5.06-33.726,9.484-50.21A.738.738,0,0,0,276.214,286.6Z" transform="translate(-253.29 -286.076)" fill="#fff"/><path d="M263.912,310.2l-5.284-7.315c-.55-.763-1.833-.027-1.274.746l5.284,7.313C263.189,311.709,264.471,310.973,263.912,310.2Z" transform="translate(-257.216 -279.231)" fill="#fff"/><path d="M280.994,309.107l-5.111,2.738c-.838.449-.093,1.722.744,1.274l5.111-2.738C282.576,309.932,281.832,308.658,280.994,309.107Z" transform="translate(-249.621 -276.555)" fill="#fff"/></g></g><g transform="translate(0 13.138)"><g transform="translate(0 0)"><path d="M130.017,367.1q-.788-4.746-1.883-9.432a18.616,18.616,0,0,0-2.734-6.978c-1.311-1.773-3.545-3.144-5.668-2.55-7.242,2.021-2.265,13.872-.776,18.09q2.667,7.552,4.833,15.27c.388,1.382,1.064,3.678,2.746,3.893.835.107,4.779-.154,5.154-.79a1.686,1.686,0,0,0,.137-.949A149.168,149.168,0,0,0,130.017,367.1Z" transform="translate(-40.126 -190.576)" fill="#e0a88a"/><path d="M100.725,367.694q1.7-4.5,3.106-9.1a18.637,18.637,0,0,0,1.137-7.407c-.243-2.192-1.488-4.5-3.622-5.052-7.277-1.887-8.922,10.861-9.752,15.257q-1.485,7.87-3.485,15.633c-.359,1.39-.928,3.714.419,4.746.67.512,4.213,2.267,4.856,1.9a1.686,1.686,0,0,0,.594-.752A148.976,148.976,0,0,0,100.725,367.694Z" transform="translate(-49.803 -191.281)" fill="#e0a88a"/><path d="M297.729,381.57c5.45-.244,10.978-.576,16.1-2.047,1.121-.323,2.44-1.037,2.088-1.927-.255-.645-1.24-.886-2.085-1.027a260.854,260.854,0,0,0-37.567-3.505c-9.266-.193-18.537.1-27.8.293-12.743.261-25.49.284-38.236.254-9.536-.024-19.073.045-28.608.072-4.345.012-9,.377-13.309-.112-2.654-.3-5.042-1.168-7.742-1.343-9.426-.611-19.331.148-28.793.235l-28.229.261c-13.415.124-27.073.278-39.829,3.516-6.1,1.548-5.145,5.044-.153,7.179,4.441,1.9,10.384,2.035,15.31,2.229,19.074.752,38.191.278,57.28-.2l78.4-1.95c11.895-.3,24.145-1.483,35.906-1.351,12.92.145,25.838.149,38.75-.258Q293.471,381.761,297.729,381.57Z" transform="translate(-59.474 -182.349)" fill="#f0f6f8" opacity="0.766"/><g transform="translate(26.731)"><path d="M113.989,254.175c1.272-.894,3.169-1.316,4.258-2.216a6.71,6.71,0,0,0,2.161-5,19.841,19.841,0,0,0-.872-5.522q-.5-1.964-1.006-3.927a7.14,7.14,0,0,0-1.238-2.611,10.76,10.76,0,0,0-1.736-1.56,9.725,9.725,0,0,0-2.632-1.785,8.765,8.765,0,0,0-3.521-.787c-3.466,2.9-5.106,14.654-5.373,17.4-.688,7.052-1.333,13.871-4.5,19.9a34.987,34.987,0,0,1,4.57.74A23.245,23.245,0,0,1,110,271.721c.825.54,5.807,2.851,5.868.415a2.285,2.285,0,0,0-.4-1.131,24.556,24.556,0,0,1-3.027-9.481c-.184-1.759-.308-4.579.518-6.22A3.112,3.112,0,0,1,113.989,254.175Z" transform="translate(-72.472 -230.772)" fill="#e0a88a"/><path d="M143.014,375.674a3.349,3.349,0,0,0-1.509-.561c-1.849-.341-3.733-.489-5.565-.909a10.294,10.294,0,0,1-4.992-2.468,9.9,9.9,0,0,1-1.178-1.464,14.368,14.368,0,0,1-1.648,1.156c-2.358,1.41-4.406,1.536-6.874,1.68.242,1.175.517,2.343.868,3.492.514,1.689.259,5.558,2.923,5.131,3.811-.611,7.7-.577,11.509-1.246C137.872,380.251,146.149,378.159,143.014,375.674Z" transform="translate(-65.024 -182.939)" fill="#0099f2"/><path d="M97.721,295.826a10.335,10.335,0,0,1,2.472-3.427c3.49-3.281,6.6-6.242,11.537-7.1a8.941,8.941,0,0,1,6.168.874c2.006,1.3,2.887,4.136,3.912,6.238a149.736,149.736,0,0,1,6.493,15.508,190.088,190.088,0,0,1,8.26,32.636,283.627,283.627,0,0,1,3.15,28.69c.056.915,1.164,14.211.72,14.233a100.484,100.484,0,0,1-23.372,7.634c2.776-16.879-.768-34.1-4.714-50.747-3.077-12.983-13.43-22.538-15.253-36.229C96.676,300.992,96.659,298.26,97.721,295.826Z" transform="translate(-73.397 -212.135)" fill="#0099f2"/><g transform="translate(40.862 95.854)"><path d="M109.808,302.151" transform="translate(-109.808 -302.151)" fill="none" stroke="#ff9e9e" stroke-miterlimit="10" stroke-width="1"/></g><path d="M103.932,385.844a9.4,9.4,0,0,0-2.956-4.119c-2.255-2.186-4.594-4.739-4.726-7.876-.009-.24.015-.479.028-.718a11.022,11.022,0,0,1-7.889-3.263c-.436.9-.847,1.806-1.215,2.734-.645,1.622-3.23,4.454-.908,5.769,4.371,2.475,11.977,8.952,17.041,8.362a.8.8,0,0,0,.58-.243A.771.771,0,0,0,103.932,385.844Z" transform="translate(-77.344 -183.077)" fill="#0099f2"/><path d="M100.1,258.1c4.6-4.328,11.611-1.517,16.221,2.056a15.449,15.449,0,0,1,5.879,9.858,45.5,45.5,0,0,1,.136,10.27c-.275,4.419-.524,8.842-.829,13.26-.191,2.78.313,6.117-2.487,7.693a13.009,13.009,0,0,1-7.2.665,19.844,19.844,0,0,1-4.542-1.006,17.181,17.181,0,0,1-5.3-3.721c-1.4-1.32-2.825-2.881-2.948-4.8a11.139,11.139,0,0,1,.493-3.081c1.127-5.08-.359-10.322-1.484-15.4-1.047-4.726-2.182-10.162.829-14.37A9.636,9.636,0,0,1,100.1,258.1Z" transform="translate(-73.361 -222.155)" fill="#ffc24d"/><g transform="translate(0 67.405)"><path d="M94.72,389.48a168.888,168.888,0,0,0-15.34-7.3c.364.15,6.592-12.04,7.08-13.046a112.431,112.431,0,0,0,6.424-16.421,110.955,110.955,0,0,0,4.769-35.434c-.218-7.3-3.015-13.232-.706-20.5,1.477-4.648,4.475-8.57,6.731-12.841.395-.747.769-2.272,1.5-2.742.674-.434,1.962-.13,2.7-.111,2.676.071,5.354.055,8.032.055,3.872,0,7.9.348,11.788-.056.293,9.313-.857,18.545-1.492,27.83-.982,14.356-1.65,29.217-4.773,43.461-3.314,15.12-10.657,28.837-16.7,42.958Q99.831,392.237,94.72,389.48Z" transform="translate(-79.38 -280.966)" fill="#49bbfd"/></g><path d="M108.381,296.026c2.85,4.6,7.522,8.2,12.03,11.19a137.6,137.6,0,0,0,25.323,13.746c15.414,6.079,32.172,7.951,48.735,8.355s33.144-.6,49.7-.009" transform="translate(-69.436 -208.397)" fill="none" stroke="#0b070b" stroke-miterlimit="10" stroke-width="0.5"/><path d="M108.554,258.431c2.257,1.031,3.168,3.99,2.938,6.309a13.3,13.3,0,0,1-3.023,6.625c-1.505,1.946-3.265,3.689-4.705,5.682A22.465,22.465,0,0,0,101.475,281a15.819,15.819,0,0,0-1.5,7.316c.158,2.731,1.351,4.436,2.942,6.525a58.158,58.158,0,0,0,11.95,11.091,18.358,18.358,0,0,1,3.765,3.33,5.782,5.782,0,0,1,1.285,4.706,3.493,3.493,0,0,1-3.657,2.765,1.884,1.884,0,0,1-1.112-.543,3.257,3.257,0,0,1-.59-1.45,10.38,10.38,0,0,0-2.965-4.982c-1.372-1.282-3.22-1.675-4.755-2.765a90.608,90.608,0,0,1-10.966-9.075c-10.806-10.585,1.526-32.392,6.189-38.117a5.763,5.763,0,0,1,6.392-1.413C108.488,258.4,108.522,258.416,108.554,258.431Z" transform="translate(-75.204 -221.446)" fill="#e0a88a"/><path d="M107.8,294.941c.732-.912,2.393-2.241,3.489-1.147a1.049,1.049,0,0,1,.071,1.433c-.336.471-.748.407-1.207.638a3.394,3.394,0,0,0-1.021.945,9.742,9.742,0,0,1-2.255,2.326.412.412,0,0,1-.631-.322A6.23,6.23,0,0,1,107.8,294.941Z" transform="translate(-70.169 -209.304)" fill="#0b070b"/><g transform="translate(107.623 82.084)"><path d="M221.846,302.539c-.442-.843-5.961-9.992-5.961-9.992s-3,5.231-1.653,8.744,2.41,5.625,2.41,5.625Z" transform="translate(-140.882 -291.674)" fill="#855040"/><path d="M226.979,301.89c-.442-.843-5.961-9.992-5.961-9.992s-3,5.231-1.653,8.742,2.411,5.627,2.411,5.627Z" transform="translate(-139.122 -291.897)" fill="#0b070b"/><path d="M177.4,333.3s-3.943-.717-5.369-3.253a71.7,71.7,0,0,1-3.056-6.536,23.408,23.408,0,0,0,.346,7.061c.791,2.825,4.137,6.306,4.137,6.306Z" transform="translate(-156.324 -281.056)" fill="#855040"/><path d="M199.291,344.236c1.152.721-4.634,10.614-5.173,11.366-3.98,5.559-10.891,7.875-14.279,14.043a28.659,28.659,0,0,0-2.793,9.915,38.808,38.808,0,0,0-.483,7.312,5.359,5.359,0,0,0,.419,2.084c.85,1.757,2.725.831,3.548,1.746,1.025,1.139.688,3.167-1.175,3.258l-5.315.262c-1.983.1-2.2-10.741-2.3-12.588a64.454,64.454,0,0,1,12.984-42.462c1.7-2.217,1.746-2.56,4.074-1.492a41.058,41.058,0,0,1,4.351,2.719Q196.22,342.316,199.291,344.236Z" transform="translate(-155.369 -276.399)" fill="#855040"/><path d="M244.4,317.282l-.077,29.088a41.361,41.361,0,0,1-4.128,17.883c-4.029,7.912-14.139,8.51-22.021,6.081-7.237-2.231-13.493-7.754-21.057-8.142-6.253-.322-12.2,2.979-18.462,3.063-3.822.052-9-1.457-12.536-2.627,3.732-6.23,3.141-15.885,8.651-20.969,2.282-2.106,5.386-3.031,8.4-3.78a126.715,126.715,0,0,1,19.168-3.23c4.413-.4,11.619.967,15.54-1.217,3.177-1.77,4.673-5.942,6.026-9.318l6.955-17.365,2.282-3.893a8.065,8.065,0,0,1,5.648-3.884c3.308-.547,9.011.185,10.2,2.017a15.2,15.2,0,0,0,4.2,4.4l13.315.646a4.621,4.621,0,0,1-3.1,5.882c-5.01,1.691-13.125.8-13.125.8s2.179.778,12.016.259c.534-.028,1.654,1.957-1.309,2.286C252.7,316.186,244.4,317.282,244.4,317.282Z" transform="translate(-157.261 -289.531)" fill="#855040"/><path d="M201.909,348.487c-.753,2.9-.432,6.273-.569,9.142-.192,4.029-.359,8.059-.521,12.089q-.387,9.57-.724,19.143a.806.806,0,0,0,.845.833l6.077-.3a2.244,2.244,0,0,0,1.912-1.046c1.284-2.4-3.117-2.671-3.709-4.05-1.078-2.511.925-8.329,1.52-10.884,1.714-7.36,4.372-14.582,4.676-22.2a10.989,10.989,0,0,0-.591-4.669,4.673,4.673,0,0,0-3.438-2.956,4.847,4.847,0,0,0-4.594,2.666A9.241,9.241,0,0,0,201.909,348.487Z" transform="translate(-145.61 -274.185)" fill="#855040"/><path d="M212.811,350.226c.248,2.752.721,5.462.78,8.255.081,3.823-.35,7.728-.506,11.552q-.395,9.717-.74,19.437a1.734,1.734,0,0,0,1.82,1.791l5.09-.251a2.651,2.651,0,0,0,2.1-1.382c.806-2.435-2.911-2.852-4.445-3.169-.25-8.86,3.06-19.1,5.811-27.472,1.851-5.636,4.029-12.035,1.131-17.209-1.544-2.757-5.138-4.726-7.911-3.214-2.241,1.223-2.968,4.069-3.2,6.612A27.875,27.875,0,0,0,212.811,350.226Z" transform="translate(-141.41 -276.075)" fill="#855040"/><path d="M188.935,344.772c-.1.389-5.169,12.42-11.628,16.476-3.49,2.19-8.107,5.21-10.789,8.35-1.759,2.06-1.385,5.176-1.5,7.8q-.226,5.117,0,10.24a4.493,4.493,0,0,0,.978,3.138c.716.685,2.229.463,2.734,1.221a1.839,1.839,0,0,1-1.454,2.684c-1.912.094-3.513.623-4.871-.83-1.511-1.615-1.6-4.628-1.734-6.689-.5-7.5-2.543-16.32.4-23.493a52.941,52.941,0,0,1,3.552-6.556,98.635,98.635,0,0,0,6.592-13.475c.564-1.417,1.4-5.652,2.77-5.835.583-.077,2.09.982,2.624,1.23Z" transform="translate(-159.522 -276.158)" fill="#855040"/><path d="M241.515,303.9a1.093,1.093,0,1,1-1.155.212,1.157,1.157,0,0,1,1.658.156" transform="translate(-131.913 -287.804)" fill="#353a4d"/><path d="M230.965,324.432l-23.532-5.374-.4,3.286,24.1,5.473Z" transform="translate(-143.231 -282.584)" fill="#0b070b"/></g></g></g><path d="M115.568,242.751l-4.583.714a2.5,2.5,0,0,0,2.2,1.334,2.543,2.543,0,0,0,2.269-1.237,3.747,3.747,0,0,0,.3-.91Z" transform="translate(-41.812 -226.698)" fill="#fff"/></g><path d="M115.55,229.62c-.31-3.163-3.533-4.146-6.6-4.144a4.26,4.26,0,0,0-.154-4.4,3.622,3.622,0,0,0-4.744-.781,12.73,12.73,0,0,0-4.735-1.712,6.993,6.993,0,0,0-5.642,1.636,3.918,3.918,0,0,0-1.211,2.605c-1.9-1.494-4.585-2.485-6.5-.472a3.061,3.061,0,0,0-.774,1.533,5.973,5.973,0,0,0-5.316,5.6,3.574,3.574,0,0,0,.618,2.463,7.2,7.2,0,0,0-3.287,5.711,5.234,5.234,0,0,0,1.667,3.587,3.948,3.948,0,0,0-.307,4.082,5.134,5.134,0,0,0,3.094,2.453,6.187,6.187,0,0,0,.114,2.421c.435,1.646,2.055,2.891,3.457,3.712a5.17,5.17,0,0,0,6.391-.8c2.339,2.986,8.085,1.133,8.649-2.75,3.766.9,5.582-6.109,3.155-9.191a5.469,5.469,0,0,0,4.319-2.076,3.588,3.588,0,0,0,.779-3.3C111.946,235.542,115.926,233.457,115.55,229.62Z" transform="translate(-38.91 -218.517)" fill="#0b070b"/><path d="M561.075,190.647l-4.309,5.265,13.556,6.964s8.221-12.484,1.63-15.815S561.075,190.647,561.075,190.647Z" transform="translate(-511.171 -136.616)" fill="#e3a329"/></g></g></svg>