<svg xmlns="http://www.w3.org/2000/svg" xmlns:xlink="http://www.w3.org/1999/xlink" width="113" height="106" viewBox="0 0 113 106"><defs><style>.a,.f{fill:#fff;}.a{stroke:#707070;}.b{clip-path:url(#a);}.c,.h{fill:#f0f6f8;}.d{fill:#00cec1;}.e{opacity:0.42;}.g{fill:#e0a88a;}.h{opacity:0.766;}.i{fill:#0099f2;}.j,.m{fill:none;stroke-miterlimit:10;}.j{stroke:#ff9e9e;}.k{fill:#ffc24d;}.l{fill:#49bbfd;}.m{stroke:#0b070b;stroke-width:0.5px;}.n{fill:#0b070b;}.o{fill:#855040;}.p{fill:#353a4d;}.q{fill:#e3a329;}</style><clipPath id="a"><rect class="a" width="113" height="106" transform="translate(27.027 61.424)"/></clipPath></defs><g class="b" transform="translate(-27.027 -61.424)"><g transform="translate(37.774 75.969)"><g transform="translate(2 0)"><path class="c" d="M2610.552-325.683c-1.1-.15-1.973-.214-2.819-.393a83.9,83.9,0,0,0-29.388-.742c-2.788.393-5.677,1.111-8.4.747-8.954-1.2-12.346-8.08-7.905-15.972a28.434,28.434,0,0,1,5.57-6.587c4.478-4.156,7.668-8.951,8.692-15.054.067-.4.194-.786.29-1.18,1.871-7.629,7.372-12.236,14.614-12.238s12.935,4.538,14.519,12.27a29.048,29.048,0,0,0,9.962,17.032,11.6,11.6,0,0,1,2.518,2.628,29.253,29.253,0,0,1,3.421,6.543c1.76,5.882-.946,10.461-6.861,12.144C2613.332-326.076,2611.823-325.918,2610.552-325.683Z" transform="translate(-2546.664 407.91)"/><path class="c" d="M2541.846-374.97c-.12,1.1-.161,2.148-.356,3.167-1.64,8.538-9.848,11.985-17.093,7.2-6.478-4.283-9.575-13.494-6.908-20.544,2.336-6.176,8.5-8.827,14.415-5.936C2538.557-387.837,2541.322-382.033,2541.846-374.97Z" transform="translate(-2516.531 418.39)"/><path class="c" d="M2748.744-379.664c-.381,6.173-2.716,11.423-8.017,14.975-7.212,4.834-15.583,1.27-17-7.294a17.646,17.646,0,0,1,6.413-17.229c3.588-3.019,7.774-4.28,12.261-2.076C2747.13-388.965,2748.5-384.628,2748.744-379.664Z" transform="translate(-2659.631 418.491)"/><path class="c" d="M2694.836-463.767a18.41,18.41,0,0,1-5.362,13.15c-6.923,6.881-16.506,4.27-18.877-5.207a17.528,17.528,0,0,1,4.456-16.884c3.216-3.486,7.242-5.334,12.047-3.675,4.823,1.665,6.824,5.606,7.577,10.347C2694.8-465.239,2694.793-464.42,2694.836-463.767Z" transform="translate(-2622.672 477)"/><path class="c" d="M2596.451-459.677c-.724,2.413-1.136,4.979-2.235,7.207-2.8,5.685-9.075,7.414-14.6,4.3-7.439-4.193-10.665-15.318-6.622-22.837,3.116-5.8,9.48-7.48,15.108-4C2592.88-472.05,2596.083-465.925,2596.451-459.677Z" transform="translate(-2554.363 476.869)"/></g><g transform="translate(73.286 71.105)"><path class="d" d="M251.122,290.418a3.966,3.966,0,0,1-.175-2.158,2.232,2.232,0,0,1,2.928-1.478,2.766,2.766,0,0,1,1.619,1.558c.114.275.258,1.215.543,1.349.389.184.732-.422.847-.708.945-2.348.91-5.143,2.508-7.106a3.129,3.129,0,0,1,.984-.839,2.4,2.4,0,0,1,2.038-.025,2.766,2.766,0,0,1,1.4,1.5,3.985,3.985,0,0,1,.086,2.384,11.857,11.857,0,0,1-.88,2.254l-1.664,3.53a2.652,2.652,0,0,0-.292.865.9.9,0,0,0,.314.819c.441.319.7-.108,1.01-.322a6.38,6.38,0,0,1,1.652-.676c.712-.221,1.627-.3,2.067.3.6.822-.309,1.913-1.2,2.407-.336.187-2.024,1.055-1.948,1.5a.417.417,0,0,0,.422.3,1.572,1.572,0,0,0,.54-.142,3.571,3.571,0,0,1,2.5.027,1.011,1.011,0,0,1,.7.664c.066.373-.236.7-.537.935a7.269,7.269,0,0,1-4.4,1.325,37.479,37.479,0,0,1-4.717-.581,17.6,17.6,0,0,1-4.462-1.134c-.514-.221-1.066-.668-.955-1.215a.943.943,0,0,1,.722-.666,2.778,2.778,0,0,1,1.03,0,29.724,29.724,0,0,0-1.992-3.231A7.547,7.547,0,0,1,251.122,290.418Z" transform="translate(-250.867 -280.796)"/><g class="e" transform="translate(2.794 2.323)"><path class="f" d="M269.642,286.238a74.047,74.047,0,0,0-2.966,15.736c-.014.3.445.295.459,0,.245-5.326,1.574-10.488,2.949-15.614A.23.23,0,0,0,269.642,286.238Z" transform="translate(-262.513 -286.076)"/><path class="f" d="M259.3,304.941l-1.643-2.275c-.171-.237-.57-.008-.4.232l1.643,2.274C259.074,305.409,259.472,305.18,259.3,304.941Z" transform="translate(-257.216 -295.309)"/><path class="f" d="M277.219,309.042l-1.59.852c-.26.14-.029.536.232.4l1.589-.852C277.711,309.3,277.48,308.9,277.219,309.042Z" transform="translate(-267.463 -298.919)"/></g></g><g transform="translate(6.385 27.046)"><g transform="translate(0 0)"><path class="g" d="M120.291,353.938q-.245-1.476-.585-2.933a5.789,5.789,0,0,0-.85-2.17,1.752,1.752,0,0,0-1.763-.793c-2.252.628-.7,4.314-.241,5.626q.829,2.348,1.5,4.749c.121.43.331,1.144.854,1.211.26.033,1.486-.048,1.6-.246a.524.524,0,0,0,.043-.3A46.384,46.384,0,0,0,120.291,353.938Z" transform="translate(-92.337 -299.044)"/><path class="g" d="M91.736,352.707q.529-1.4.966-2.831a5.8,5.8,0,0,0,.354-2.3A1.752,1.752,0,0,0,91.929,346c-2.263-.587-2.775,3.378-3.033,4.744q-.462,2.447-1.084,4.861c-.112.432-.289,1.155.13,1.476.208.159,1.31.7,1.51.592a.524.524,0,0,0,.185-.234A46.323,46.323,0,0,0,91.736,352.707Z" transform="translate(-75.901 -297.847)"/><path class="h" d="M133.565,374.971a21.76,21.76,0,0,0,5.007-.637c.349-.1.759-.323.649-.6-.079-.2-.385-.275-.648-.319a81.109,81.109,0,0,0-11.682-1.09c-2.881-.06-5.765.032-8.646.091-3.963.081-7.927.088-11.89.079-2.965-.007-5.931.014-8.9.022a36.63,36.63,0,0,1-4.139-.035c-.825-.094-1.568-.363-2.408-.418-2.931-.19-6.011.046-8.954.073l-8.778.081a52.627,52.627,0,0,0-12.386,1.093c-1.9.481-1.6,1.569-.048,2.232a14.219,14.219,0,0,0,4.761.693c5.932.234,11.876.086,17.813-.061l24.382-.606c3.7-.092,7.508-.461,11.166-.42,4.018.045,8.035.046,12.05-.08Q132.241,375.03,133.565,374.971Z" transform="translate(-59.474 -313.018)"/><g transform="translate(8.313)"><path class="g" d="M104.024,238.05c.4-.278.986-.409,1.324-.689a2.087,2.087,0,0,0,.672-1.553,6.171,6.171,0,0,0-.271-1.717l-.313-1.221a2.22,2.22,0,0,0-.385-.812,3.344,3.344,0,0,0-.54-.485,3.024,3.024,0,0,0-.818-.555,2.726,2.726,0,0,0-1.095-.245c-1.078.9-1.588,4.557-1.671,5.41a16.45,16.45,0,0,1-1.4,6.188,10.876,10.876,0,0,1,1.421.23,7.229,7.229,0,0,1,1.837.907c.256.168,1.806.887,1.825.129a.71.71,0,0,0-.126-.352,7.637,7.637,0,0,1-.941-2.948,4.033,4.033,0,0,1,.161-1.934A.968.968,0,0,1,104.024,238.05Z" transform="translate(-91.114 -230.772)"/><path class="i" d="M128.017,371.951a1.041,1.041,0,0,0-.469-.175c-.575-.106-1.161-.152-1.731-.283a3.2,3.2,0,0,1-1.552-.768,3.078,3.078,0,0,1-.366-.455,4.464,4.464,0,0,1-.512.36,4.2,4.2,0,0,1-2.138.522c.075.365.161.729.27,1.086.16.525.081,1.728.909,1.6,1.185-.19,2.395-.18,3.579-.388C126.418,373.375,128.992,372.724,128.017,371.951Z" transform="translate(-103.764 -312.016)"/><path class="i" d="M97.106,288.452a3.214,3.214,0,0,1,.769-1.066,6.9,6.9,0,0,1,3.588-2.207,2.781,2.781,0,0,1,1.918.272,4.544,4.544,0,0,1,1.216,1.94,46.566,46.566,0,0,1,2.019,4.823,59.113,59.113,0,0,1,2.569,10.149,88.206,88.206,0,0,1,.98,8.922c.018.284.362,4.419.224,4.426a31.244,31.244,0,0,1-7.268,2.374c.863-5.249-.239-10.605-1.466-15.781-.957-4.037-4.176-7.009-4.743-11.266A4.784,4.784,0,0,1,97.106,288.452Z" transform="translate(-89.542 -262.426)"/><g transform="translate(12.707 29.808)"><path class="j" d="M109.808,302.151" transform="translate(-109.808 -302.151)"/></g><path class="i" d="M91.106,374.836a2.924,2.924,0,0,0-.919-1.281,3.919,3.919,0,0,1-1.47-2.449c0-.075,0-.149.009-.223a3.428,3.428,0,0,1-2.453-1.015c-.136.279-.264.562-.378.85-.2.5-1,1.385-.282,1.794,1.359.77,3.725,2.784,5.3,2.6a.249.249,0,0,0,.18-.076A.239.239,0,0,0,91.106,374.836Z" transform="translate(-82.838 -311.781)"/><path class="k" d="M97.92,256.585c1.43-1.346,3.611-.472,5.044.639a4.8,4.8,0,0,1,1.828,3.066,14.152,14.152,0,0,1,.042,3.194c-.086,1.374-.163,2.75-.258,4.123-.059.864.1,1.9-.773,2.392a4.046,4.046,0,0,1-2.24.207,6.172,6.172,0,0,1-1.412-.313,5.344,5.344,0,0,1-1.647-1.157,2.425,2.425,0,0,1-.917-1.493,3.464,3.464,0,0,1,.153-.958,11.2,11.2,0,0,0-.461-4.789c-.326-1.47-.679-3.16.258-4.469A3,3,0,0,1,97.92,256.585Z" transform="translate(-89.603 -245.408)"/><g transform="translate(0 20.961)"><path class="l" d="M84.15,314.711a52.527,52.527,0,0,0-4.77-2.271c.113.047,2.05-3.744,2.2-4.057a34.963,34.963,0,0,0,2-5.106,34.5,34.5,0,0,0,1.483-11.019c-.068-2.271-.938-4.115-.22-6.374a25.238,25.238,0,0,1,2.093-3.993c.123-.232.239-.707.466-.853.21-.135.61-.041.84-.035.832.022,1.665.017,2.5.017A35.9,35.9,0,0,0,94.406,281c.091,2.9-.266,5.767-.464,8.654a92.725,92.725,0,0,1-1.484,13.515c-1.031,4.7-3.314,8.968-5.192,13.359Q85.74,315.568,84.15,314.711Z" transform="translate(-79.38 -280.966)"/></g><path class="m" d="M108.381,296.026a12.265,12.265,0,0,0,3.741,3.48A42.788,42.788,0,0,0,120,303.781a44.126,44.126,0,0,0,15.155,2.6c5.151.126,10.307-.187,15.456,0" transform="translate(-96.27 -268.776)"/><path class="g" d="M96.843,258.113a1.957,1.957,0,0,1,.914,1.962,4.135,4.135,0,0,1-.94,2.06c-.468.605-1.015,1.147-1.463,1.767a6.984,6.984,0,0,0-.712,1.229,4.919,4.919,0,0,0-.467,2.275,3.474,3.474,0,0,0,.915,2.029,18.084,18.084,0,0,0,3.716,3.449,5.708,5.708,0,0,1,1.171,1.036,1.8,1.8,0,0,1,.4,1.463,1.086,1.086,0,0,1-1.137.86.586.586,0,0,1-.346-.169,1.013,1.013,0,0,1-.183-.451,3.228,3.228,0,0,0-.922-1.549,12.676,12.676,0,0,0-1.479-.86,28.177,28.177,0,0,1-3.41-2.822c-3.36-3.292.474-10.073,1.925-11.853a1.792,1.792,0,0,1,1.988-.439Z" transform="translate(-86.472 -246.612)"/><path class="n" d="M106.728,293.867c.228-.284.744-.7,1.085-.357a.326.326,0,0,1,.022.446c-.1.147-.233.127-.375.2a1.056,1.056,0,0,0-.317.294,3.03,3.03,0,0,1-.7.723.128.128,0,0,1-.2-.1A1.938,1.938,0,0,1,106.728,293.867Z" transform="translate(-95.025 -267.236)"/><g transform="translate(33.468 25.526)"><path class="o" d="M216.36,295.654c-.137-.262-1.854-3.107-1.854-3.107s-.933,1.627-.514,2.719.75,1.749.75,1.749Z" transform="translate(-191.183 -292.276)"/><path class="n" d="M221.493,295c-.137-.262-1.854-3.107-1.854-3.107s-.933,1.627-.514,2.719.75,1.75.75,1.75Z" transform="translate(-194.172 -291.897)"/><path class="o" d="M171.507,326.556a2.7,2.7,0,0,1-1.67-1.011,22.3,22.3,0,0,1-.95-2.033,7.279,7.279,0,0,0,.108,2.2,6.183,6.183,0,0,0,1.287,1.961Z" transform="translate(-164.954 -310.309)"/><path class="o" d="M180.235,339.316c.358.224-1.441,3.3-1.609,3.535-1.238,1.729-3.387,2.449-4.44,4.367a8.912,8.912,0,0,0-.869,3.083,12.063,12.063,0,0,0-.15,2.274,1.666,1.666,0,0,0,.13.648c.264.546.847.259,1.1.543a.584.584,0,0,1-.365,1.013l-1.653.081c-.617.03-.683-3.34-.716-3.915a20.043,20.043,0,0,1,4.038-13.2c.529-.689.543-.8,1.267-.464a12.762,12.762,0,0,1,1.353.846Z" transform="translate(-166.576 -318.221)"/><path class="o" d="M190.459,304.545l-.024,9.046a12.863,12.863,0,0,1-1.284,5.561c-1.253,2.461-4.4,2.646-6.848,1.891-2.25-.694-4.2-2.411-6.548-2.532-1.944-.1-3.795.926-5.741.953a13.628,13.628,0,0,1-3.9-.817c1.161-1.937.977-4.94,2.69-6.521a5.811,5.811,0,0,1,2.612-1.176,39.41,39.41,0,0,1,5.961-1c1.372-.124,3.613.3,4.833-.378.988-.55,1.453-1.848,1.874-2.9l2.163-5.4.71-1.211a2.508,2.508,0,0,1,1.756-1.208c1.029-.17,2.8.058,3.173.627a4.726,4.726,0,0,0,1.305,1.368l4.141.2a1.437,1.437,0,0,1-.963,1.829,11.97,11.97,0,0,1-4.082.25,12.891,12.891,0,0,0,3.737.081c.166-.009.515.608-.407.711C193.04,304.2,190.459,304.545,190.459,304.545Z" transform="translate(-163.362 -295.915)"/><path class="o" d="M200.659,345.087a14.21,14.21,0,0,0-.177,2.843c-.06,1.253-.111,2.506-.162,3.759q-.12,2.976-.225,5.953a.251.251,0,0,0,.263.259l1.89-.093a.7.7,0,0,0,.595-.325c.4-.747-.969-.831-1.153-1.259-.335-.781.288-2.59.473-3.385a37.319,37.319,0,0,0,1.454-6.9,3.418,3.418,0,0,0-.184-1.452,1.453,1.453,0,0,0-1.069-.919,1.507,1.507,0,0,0-1.429.829A2.874,2.874,0,0,0,200.659,345.087Z" transform="translate(-183.151 -321.981)"/><path class="o" d="M212.489,341.829c.077.856.224,1.7.243,2.567.025,1.189-.109,2.4-.157,3.592q-.123,3.022-.23,6.044a.539.539,0,0,0,.566.557l1.583-.078a.824.824,0,0,0,.654-.43c.251-.757-.905-.887-1.382-.986-.078-2.755.952-5.94,1.807-8.543.575-1.753,1.253-3.743.352-5.352a1.966,1.966,0,0,0-2.46-1,2.48,2.48,0,0,0-.994,2.056A8.669,8.669,0,0,0,212.489,341.829Z" transform="translate(-190.286 -318.77)"/><path class="o" d="M168.669,339.967c-.032.121-1.607,3.862-3.616,5.124a15.564,15.564,0,0,0-3.355,2.6,3.9,3.9,0,0,0-.466,2.425q-.07,1.591,0,3.184a1.4,1.4,0,0,0,.3.976c.223.213.693.144.85.38a.572.572,0,0,1-.452.835c-.595.029-1.092.194-1.515-.258a3.514,3.514,0,0,1-.539-2.08c-.154-2.333-.791-5.075.125-7.306a16.458,16.458,0,0,1,1.1-2.039,30.677,30.677,0,0,0,2.05-4.19c.175-.441.434-1.758.862-1.815.181-.024.65.305.816.383Z" transform="translate(-159.522 -318.63)"/><path class="p" d="M240.5,303.854a.34.34,0,1,1-.359.066.36.36,0,0,1,.516.048" transform="translate(-206.415 -298.848)"/><path class="n" d="M214.476,320.729l-7.318-1.671-.124,1.022,7.494,1.7Z" transform="translate(-187.193 -307.715)"/></g></g></g><path class="f" d="M112.41,242.683l-1.425.222a.778.778,0,0,0,.683.415.791.791,0,0,0,.706-.385,1.165,1.165,0,0,0,.093-.283Z" transform="translate(-89.474 -237.691)"/></g><path class="n" d="M89.129,221.97c-.1-.984-1.1-1.289-2.052-1.289a1.325,1.325,0,0,0-.048-1.37,1.126,1.126,0,0,0-1.475-.243,3.958,3.958,0,0,0-1.472-.532,2.175,2.175,0,0,0-1.755.509,1.218,1.218,0,0,0-.377.81c-.59-.465-1.426-.773-2.021-.147a.952.952,0,0,0-.241.477,1.857,1.857,0,0,0-1.653,1.741,1.111,1.111,0,0,0,.192.766,2.238,2.238,0,0,0-1.022,1.776,1.628,1.628,0,0,0,.519,1.115,1.228,1.228,0,0,0-.1,1.27,1.6,1.6,0,0,0,.962.763,1.924,1.924,0,0,0,.035.753,2.174,2.174,0,0,0,1.075,1.154,1.608,1.608,0,0,0,1.987-.248,1.618,1.618,0,0,0,2.69-.855c1.171.279,1.736-1.9.981-2.858a1.7,1.7,0,0,0,1.343-.646,1.116,1.116,0,0,0,.242-1.025C88.009,223.811,89.246,223.163,89.129,221.97Z" transform="translate(-58.912 -195.556)"/><path class="q" d="M558.106,187.551l-1.34,1.637,4.216,2.166s2.557-3.882.507-4.918S558.106,187.551,558.106,187.551Z" transform="translate(-536.202 -147.788)"/></g></g></svg>